<svg width="25" height="25" fill="none" xmlns="http://www.w3.org/2000/svg"><path fill-rule="evenodd" clip-rule="evenodd" d="M16.302 4.44l.847.106a3.906 3.906 0 013.424 3.876V19.35a3.793 3.793 0 01-3.324 3.764 38.423 38.423 0 01-9.498 0 3.793 3.793 0 01-3.324-3.764V8.422A3.906 3.906 0 017.85 4.546l.847-.105a2.866 2.866 0 012.761-2.097h2.083c1.316 0 2.425.887 2.76 2.097zM8.593 6.029l-.55.069A2.344 2.344 0 005.99 8.422V19.35a2.23 2.23 0 001.955 2.213 36.84 36.84 0 009.111 0 2.23 2.23 0 001.955-2.213V8.422c0-1.182-.88-2.18-2.054-2.325l-.55-.069v1.264a.78.78 0 01-.781.78h-6.25a.781.781 0 01-.782-.78V6.028zm1.563-.82c0-.719.583-1.302 1.302-1.302h2.083c.72 0 1.302.583 1.302 1.302V6.51h-4.687V5.208z" fill="#0E51FF"/><path d="M16.406 12.24a.781.781 0 00-.781-.782h-6.25a.781.781 0 000 1.563h6.25a.78.78 0 00.78-.781zm-1.042 3.125a.781.781 0 00-.781-.782H9.375a.781.781 0 000 1.563h5.208c.431 0 .781-.35.781-.781z" fill="#0E51FF"/></svg>