<svg width="25" height="25" fill="none" xmlns="http://www.w3.org/2000/svg"><path fill-rule="evenodd" clip-rule="evenodd" d="M7.032 7.813a4.427 4.427 0 118.854 0 4.427 4.427 0 01-8.854 0zm4.427-2.865a2.865 2.865 0 100 5.73 2.865 2.865 0 000-5.73zm-8.073 12.76a3.906 3.906 0 013.906-3.906h.355c.192 0 .383.03.566.09l.901.295a7.552 7.552 0 004.689 0l.901-.295c.183-.06.374-.09.566-.09h.355a3.906 3.906 0 013.907 3.906v1.238c0 .785-.57 1.454-1.343 1.58a41.766 41.766 0 01-13.46 0 1.6 1.6 0 01-1.343-1.58v-1.238zm3.906-2.343a2.344 2.344 0 00-2.344 2.343v1.238c0 .02.014.035.032.038 4.29.7 8.666.7 12.957 0a.039.039 0 00.032-.038v-1.238a2.344 2.344 0 00-2.344-2.343h-.355a.261.261 0 00-.08.012l-.902.295c-1.838.6-3.82.6-5.659 0l-.901-.295a.261.261 0 00-.08-.012h-.356z" fill="#0E51FF"/><path d="M20.313 6.51c.431 0 .781.35.781.782v1.823h1.823a.781.781 0 110 1.562h-1.823V12.5a.781.781 0 01-1.562 0v-1.823h-1.823a.781.781 0 110-1.562h1.823V7.292a.78.78 0 01.78-.781z" fill="#0E51FF"/></svg>