<svg width="25" height="25" fill="none" xmlns="http://www.w3.org/2000/svg"><path d="M16.406 13.542a.781.781 0 00-.781-.782h-6.25a.781.781 0 000 1.563h6.25a.78.78 0 00.78-.781zm0 4.166a.781.781 0 00-.781-.78h-6.25a.781.781 0 100 1.562h6.25a.78.78 0 00.78-.782z" fill="#2F2E41" fill-opacity=".6"/><path fill-rule="evenodd" clip-rule="evenodd" d="M7.291 2.344a2.865 2.865 0 00-2.864 2.864v14.584a2.865 2.865 0 002.864 2.864h10.417a2.865 2.865 0 002.865-2.864V8.3c0-.397-.13-.783-.369-1.1l-3.123-4.132a1.823 1.823 0 00-1.454-.724H7.291zM5.99 5.208c0-.719.583-1.302 1.302-1.302h7.552v4.58c0 .432.35.782.782.782h3.385v10.524c0 .719-.583 1.302-1.302 1.302H7.291a1.302 1.302 0 01-1.302-1.302V5.208z" fill="#2F2E41" fill-opacity=".6"/></svg>