<svg width="26" height="26" fill="none" xmlns="http://www.w3.org/2000/svg"><path fill-rule="evenodd" clip-rule="evenodd" d="M12.97 25.995c7.107 0 12.869-5.82 12.869-12.998C25.839 5.82 20.078 0 12.97 0 5.863 0 .102 5.82.102 12.997c0 7.179 5.761 12.998 12.868 12.998zm-2.294-20.23l-1.574 1.59 3.84 3.878 5.415-5.469h-3.165l-2.25 2.273-2.25-2.273h-.016zm4.069 7.289l3.84-3.88 1.583 1.6-2.258 2.28 2.334 2.357v3.18l-.008.009-5.491-5.546zM5.697 15.37v-.016l2.278-2.301-2.278-2.3V7.555l5.443 5.498-3.87 3.907-1.574-1.59zm7.245-.497l3.869 3.908-1.547 1.562h-.072l-2.25-2.273-2.25 2.273H7.527l5.415-5.47z" fill="#0E51FF"/></svg>