<svg width="22" height="22" fill="none" xmlns="http://www.w3.org/2000/svg"><path fill-rule="evenodd" clip-rule="evenodd" d="M10.899 20.996c5.467 0 9.899-4.476 9.899-9.998C20.798 5.476 16.366 1 10.899 1 5.432 1 1 5.476 1 10.998c0 5.522 4.432 9.998 9.899 9.998z" fill="#2F2E41" fill-opacity=".6"/><path d="M10.899 21.496c5.748 0 10.399-4.705 10.399-10.498C21.298 5.205 16.647.5 10.899.5 5.151.5.5 5.205.5 10.998c0 5.793 4.651 10.498 10.399 10.498z" stroke="#2F2E41" stroke-opacity=".6"/><path fill-rule="evenodd" clip-rule="evenodd" d="M10.899 20.996c5.467 0 9.899-4.476 9.899-9.998C20.798 5.476 16.366 1 10.899 1 5.432 1 1 5.476 1 10.998c0 5.522 4.432 9.998 9.899 9.998zM9.134 5.434l-1.21 1.223 2.953 2.984 4.166-4.207h-2.435l-1.73 1.748-1.731-1.748h-.013zm3.13 5.607l2.954-2.983 1.218 1.23-1.737 1.753 1.795 1.814v2.447l-.006.006-4.224-4.267zm-6.96 1.783v-.013l1.752-1.77-1.752-1.77V6.814L9.49 11.04l-2.976 3.006-1.211-1.223zm5.573-.382l2.976 3.005-1.19 1.202h-.055l-1.73-1.748-1.731 1.748H6.712l4.165-4.207z" fill="#fff"/></svg>