<svg width="438" height="114" fill="none" xmlns="http://www.w3.org/2000/svg"><path d="M6.86 18.858H2.688L1.932 21H.224l3.64-9.73h1.834L9.324 21H7.616l-.756-2.142zm-.448-1.232l-1.638-4.62-1.638 4.62h3.276zm5.693-.462V21h-1.596v-9.884h3.36c1.139 0 1.993.27 2.562.812.579.541.868 1.283.868 2.226 0 .933-.294 1.67-.882 2.212-.588.532-1.437.798-2.548.798h-1.764zm1.596-1.302c1.316 0 1.974-.57 1.974-1.708 0-.56-.159-.985-.476-1.274-.308-.299-.807-.448-1.498-.448h-1.596v3.43h1.596zM23.892 21l-2.464-3.948h-1.134V21h-1.596v-9.884h3.486c1.13 0 1.984.275 2.562.826.588.55.882 1.279.882 2.184 0 .775-.219 1.41-.658 1.904-.429.495-1.054.812-1.876.952L25.684 21h-1.792zm-3.598-5.082h1.764c1.288 0 1.932-.57 1.932-1.708 0-.541-.158-.961-.476-1.26-.308-.308-.793-.462-1.456-.462h-1.764v3.43z" fill="#2F2E41"/><path d="M119.48 16.932c1.296-.888 2.332-1.756 3.108-2.604.784-.856 1.176-1.648 1.176-2.376 0-.432-.108-.776-.324-1.032-.208-.256-.548-.384-1.02-.384-.488 0-.856.16-1.104.48-.248.312-.388.76-.42 1.344h-1.332c.056-.968.352-1.708.888-2.22.544-.512 1.236-.768 2.076-.768.824 0 1.468.22 1.932.66.472.432.708 1.032.708 1.8 0 .616-.192 1.24-.576 1.872a7.773 7.773 0 01-1.44 1.752c-.584.528-1.188.984-1.812 1.368h4.02v1.116h-5.88v-1.008zm12.821-6.324h-4.188v2.52c.192-.248.464-.444.816-.588.352-.152.74-.228 1.164-.228.592 0 1.084.128 1.476.384.392.248.68.58.864.996.192.416.288.876.288 1.38 0 .888-.248 1.608-.744 2.16-.496.544-1.216.816-2.16.816-.888 0-1.604-.236-2.148-.708s-.84-1.1-.888-1.884h1.344c.072.432.248.772.528 1.02.288.248.652.372 1.092.372.544 0 .952-.164 1.224-.492.272-.328.408-.764.408-1.308 0-.512-.14-.912-.42-1.2-.28-.296-.68-.444-1.2-.444-.368 0-.692.08-.972.24a1.48 1.48 0 00-.6.636h-1.332V9.396h5.448v1.212zm1.62 3.096c0 1.352.24 2.412.72 3.18.48.76 1.28 1.14 2.4 1.14 1.12 0 1.92-.384 2.4-1.152.48-.768.72-1.824.72-3.168 0-1.336-.24-2.384-.72-3.144-.48-.768-1.28-1.152-2.4-1.152-1.12 0-1.92.38-2.4 1.14-.48.76-.72 1.812-.72 3.156zm4.872 0c0 .976-.12 1.724-.36 2.244-.24.52-.704.78-1.392.78-.696 0-1.164-.26-1.404-.78s-.36-1.268-.36-2.244c0-.968.12-1.708.36-2.22.24-.512.708-.768 1.404-.768.688 0 1.152.26 1.392.78.24.512.36 1.248.36 2.208zm4.176-4.296c.536 0 .972.168 1.308.504.336.328.504.776.504 1.344 0 .568-.168 1.016-.504 1.344-.336.328-.772.492-1.308.492s-.976-.164-1.32-.492c-.336-.328-.504-.776-.504-1.344 0-.568.168-1.016.504-1.344.344-.336.784-.504 1.32-.504zm5.076.108L143.257 18h-1.344l4.8-8.484h1.332zm-5.964 1.74c0 .304.08.548.24.732.16.176.372.264.636.264a.801.801 0 00.636-.276c.168-.184.252-.424.252-.72 0-.304-.084-.548-.252-.732a.801.801 0 00-.636-.276.801.801 0 00-.636.276c-.16.184-.24.428-.24.732zm4.92 3.168c.536 0 .972.164 1.308.492.344.328.516.776.516 1.344 0 .568-.172 1.02-.516 1.356-.336.328-.772.492-1.308.492-.528 0-.964-.164-1.308-.492-.336-.336-.504-.788-.504-1.356 0-.56.168-1.004.504-1.332.344-.336.78-.504 1.308-.504zm-.876 1.836c0 .304.08.548.24.732.16.184.372.276.636.276a.801.801 0 00.636-.276c.168-.184.252-.428.252-.732 0-.296-.084-.536-.252-.72a.801.801 0 00-.636-.276.801.801 0 00-.636.276c-.16.184-.24.424-.24.72zM96.624 56.704c0 1.352.24 2.412.72 3.18.48.76 1.28 1.14 2.4 1.14 1.12 0 1.92-.384 2.4-1.152.48-.768.72-1.824.72-3.168 0-1.336-.24-2.384-.72-3.144-.48-.768-1.28-1.152-2.4-1.152-1.12 0-1.92.38-2.4 1.14-.48.76-.72 1.812-.72 3.156zm4.872 0c0 .976-.12 1.724-.36 2.244-.24.52-.704.78-1.392.78-.696 0-1.164-.26-1.404-.78s-.36-1.268-.36-2.244c0-.968.12-1.708.36-2.22.24-.512.708-.768 1.404-.768.688 0 1.152.26 1.392.78.24.512.36 1.248.36 2.208zm3.889 2.784V61h-1.548v-1.512h1.548zm1.001-2.784c0 1.352.24 2.412.72 3.18.48.76 1.28 1.14 2.4 1.14 1.12 0 1.92-.384 2.4-1.152.48-.768.72-1.824.72-3.168 0-1.336-.24-2.384-.72-3.144-.48-.768-1.28-1.152-2.4-1.152-1.12 0-1.92.38-2.4 1.14-.48.76-.72 1.812-.72 3.156zm4.872 0c0 .976-.12 1.724-.36 2.244-.24.52-.704.78-1.392.78-.696 0-1.164-.26-1.404-.78s-.36-1.268-.36-2.244c0-.968.12-1.708.36-2.22.24-.512.708-.768 1.404-.768.688 0 1.152.26 1.392.78.24.512.36 1.248.36 2.208zm5.58-4.44c.56 0 1.04.1 1.44.3.4.192.7.46.9.804.208.344.312.728.312 1.152 0 .536-.152.984-.456 1.344-.296.352-.716.564-1.26.636v.06c.584.168 1.04.42 1.368.756.336.328.504.784.504 1.368 0 .712-.236 1.292-.708 1.74-.472.44-1.148.66-2.028.66-.904 0-1.632-.228-2.184-.684-.552-.464-.868-1.148-.948-2.052h1.356c.048.48.22.864.516 1.152.296.28.696.42 1.2.42.472 0 .832-.124 1.08-.372.256-.248.384-.568.384-.96 0-.472-.184-.832-.552-1.08-.36-.248-.884-.372-1.572-.372h-.324v-1.128h.324c1.304.016 1.956-.428 1.956-1.332 0-.392-.12-.7-.36-.924-.24-.224-.568-.336-.984-.336-.416 0-.764.128-1.044.384-.28.248-.448.612-.504 1.092h-1.344c.056-.832.336-1.476.84-1.932.504-.464 1.2-.696 2.088-.696zm3.945 6.912v-1.152l4.212-5.568h1.464v5.52h1.188v1.2h-1.188V61h-1.38v-1.824h-4.296zm4.392-5.088l-2.976 3.888h2.976v-3.888zm6.242 2.616c0 1.352.24 2.412.72 3.18.48.76 1.28 1.14 2.4 1.14 1.12 0 1.92-.384 2.4-1.152.48-.768.72-1.824.72-3.168 0-1.336-.24-2.384-.72-3.144-.48-.768-1.28-1.152-2.4-1.152-1.12 0-1.92.38-2.4 1.14-.48.76-.72 1.812-.72 3.156zm4.872 0c0 .976-.12 1.724-.36 2.244-.24.52-.704.78-1.392.78-.696 0-1.164-.26-1.404-.78s-.36-1.268-.36-2.244c0-.968.12-1.708.36-2.22.24-.512.708-.768 1.404-.768.688 0 1.152.26 1.392.78.24.512.36 1.248.36 2.208zM143.01 61l-1.62-2.34-1.416 2.34h-1.524l2.184-3.432-2.208-3.18h1.548l1.584 2.28 1.404-2.28h1.512l-2.184 3.336L144.558 61h-1.548zm6.914-4.368a2.07 2.07 0 011.236.732c.32.384.48.832.48 1.344 0 .704-.236 1.264-.708 1.68-.472.408-1.156.612-2.052.612h-3.372v-8.472h3.312c.848 0 1.496.192 1.944.576.456.376.684.896.684 1.56 0 .536-.14.972-.42 1.308a2.05 2.05 0 01-1.104.66zm-3.048-.456h1.692c.48 0 .844-.112 1.092-.336.256-.224.384-.536.384-.936 0-.392-.128-.7-.384-.924-.248-.224-.628-.336-1.14-.336h-1.644v2.532zm1.728 3.696c.52 0 .92-.116 1.2-.348.288-.24.432-.572.432-.996 0-.424-.144-.756-.432-.996-.288-.24-.692-.36-1.212-.36h-1.716v2.7h1.728zm8.078-10.2l-3.264 13.44h-1.332l3.264-13.44h1.332zm8.051 7.08c0 .856-.176 1.604-.528 2.244a3.575 3.575 0 01-1.524 1.476c-.664.352-1.46.528-2.388.528h-2.832v-8.472h2.832c.928 0 1.724.176 2.388.528.672.344 1.18.832 1.524 1.464.352.632.528 1.376.528 2.232zm-4.548 3.012c1.016 0 1.796-.264 2.34-.792.544-.528.816-1.268.816-2.22 0-.952-.272-1.692-.816-2.22-.544-.528-1.324-.792-2.34-.792h-1.356v6.024h1.356zm8.576-5.46c.6 0 1.112.148 1.536.444.424.296.724.688.9 1.176v-1.536h1.368V61h-1.368v-1.536a2.39 2.39 0 01-.9 1.176c-.424.296-.936.444-1.536.444a2.963 2.963 0 01-1.548-.408 2.802 2.802 0 01-1.056-1.176c-.256-.512-.384-1.116-.384-1.812 0-.688.128-1.288.384-1.8a2.802 2.802 0 011.056-1.176 2.963 2.963 0 011.548-.408zm.42 1.2c-.608 0-1.096.196-1.464.588-.36.384-.54.916-.54 1.596s.18 1.216.54 1.608c.368.384.856.576 1.464.576.384 0 .728-.088 1.032-.264.304-.184.544-.44.72-.768.176-.328.264-.712.264-1.152 0-.432-.088-.812-.264-1.14a1.859 1.859 0 00-.72-.768 1.954 1.954 0 00-1.032-.276zm5.806-1.116l1.98 4.86 1.836-4.86h1.524l-3.996 9.756h-1.524l1.428-3.3-2.784-6.456h1.536zm-66.831 41.424v-1.284h2.712V103h-1.44v-7.188h-1.272zm3.944 5.364v-1.152l4.212-5.568h1.464v5.52h1.188v1.2h-1.188V103h-1.38v-1.824H112.1zm4.392-5.088l-2.976 3.888h2.976v-3.888zm8.073.72c-.144-.944-.636-1.416-1.476-1.416-.608 0-1.064.244-1.368.732-.304.48-.456 1.236-.456 2.268l.012.408c.12-.432.38-.776.78-1.032s.872-.384 1.416-.384c.832 0 1.484.248 1.956.744s.708 1.196.708 2.1c0 .544-.108 1.032-.324 1.464-.216.424-.54.764-.972 1.02-.432.248-.964.372-1.596.372-1.224 0-2.064-.38-2.52-1.14-.456-.76-.684-1.804-.684-3.132 0-1.52.244-2.656.732-3.408.488-.752 1.288-1.128 2.4-1.128.832 0 1.468.236 1.908.708.448.472.708 1.08.78 1.824h-1.296zm-3.168 3.264c0 .52.152.956.456 1.308.304.344.752.516 1.344.516.504 0 .904-.148 1.2-.444.304-.296.456-.708.456-1.236 0-.568-.152-1.004-.456-1.308-.304-.304-.716-.456-1.236-.456-.472 0-.884.14-1.236.42-.352.28-.528.68-.528 1.2zm16.289-1.32c0 .856-.176 1.604-.528 2.244a3.575 3.575 0 01-1.524 1.476c-.664.352-1.46.528-2.388.528h-2.832v-8.472h2.832c.928 0 1.724.176 2.388.528.672.344 1.18.832 1.524 1.464.352.632.528 1.376.528 2.232zm-4.548 3.012c1.016 0 1.796-.264 2.34-.792.544-.528.816-1.268.816-2.22 0-.952-.272-1.692-.816-2.22-.544-.528-1.324-.792-2.34-.792h-1.356v6.024h1.356zm8.576-5.46c.6 0 1.112.148 1.536.444.424.296.724.688.9 1.176v-1.536h1.368V103h-1.368v-1.536a2.39 2.39 0 01-.9 1.176c-.424.296-.936.444-1.536.444a2.963 2.963 0 01-1.548-.408 2.802 2.802 0 01-1.056-1.176c-.256-.512-.384-1.116-.384-1.812 0-.688.128-1.288.384-1.8a2.802 2.802 0 011.056-1.176 2.963 2.963 0 011.548-.408zm.42 1.2c-.608 0-1.096.196-1.464.588-.36.384-.54.916-.54 1.596s.18 1.216.54 1.608c.368.384.856.576 1.464.576.384 0 .728-.088 1.032-.264.304-.184.544-.44.72-.768.176-.328.264-.712.264-1.152 0-.432-.088-.812-.264-1.14a1.859 1.859 0 00-.72-.768 1.954 1.954 0 00-1.032-.276zm5.806-1.116l1.98 4.86 1.836-4.86h1.524l-3.996 9.756h-1.524l1.428-3.3-2.784-6.456h1.536zm8.412-.084c.776 0 1.396.2 1.86.6.472.392.76.92.864 1.584h-1.296a1.362 1.362 0 00-.468-.864c-.248-.224-.58-.336-.996-.336-.344 0-.612.084-.804.252-.184.16-.276.38-.276.66a.66.66 0 00.204.504c.136.128.304.228.504.3.208.072.5.152.876.24.496.112.896.228 1.2.348.312.12.576.312.792.576.224.256.336.608.336 1.056 0 .552-.212 1-.636 1.344-.416.344-.98.516-1.692.516-.824 0-1.492-.192-2.004-.576-.504-.384-.808-.92-.912-1.608h1.332c.04.36.2.652.48.876.28.224.648.336 1.104.336.328 0 .584-.084.768-.252a.858.858 0 00.288-.66c0-.232-.072-.416-.216-.552a1.433 1.433 0 00-.54-.312 6.657 6.657 0 00-.888-.24 10.21 10.21 0 01-1.176-.336 1.898 1.898 0 01-.768-.54c-.208-.256-.312-.6-.312-1.032 0-.56.208-1.012.624-1.356.424-.352 1.008-.528 1.752-.528zm86.772 4.248c.064.456.22.808.468 1.056.256.248.6.372 1.032.372.608 0 1.06-.24 1.356-.72.304-.488.456-1.252.456-2.292l-.012-.408c-.128.432-.396.78-.804 1.044-.4.256-.868.384-1.404.384-.832 0-1.484-.248-1.956-.744-.472-.504-.708-1.204-.708-2.1 0-.544.108-1.032.324-1.464.216-.432.54-.772.972-1.02.432-.256.964-.384 1.596-.384 1.224 0 2.064.376 2.52 1.128.464.744.696 1.776.696 3.096 0 1.496-.236 2.636-.708 3.42-.464.784-1.24 1.176-2.328 1.176-.84 0-1.5-.236-1.98-.708-.472-.48-.744-1.092-.816-1.836h1.296zm3.168-3.264c0-.52-.152-.952-.456-1.296-.296-.352-.744-.528-1.344-.528-.496 0-.896.148-1.2.444-.296.296-.444.712-.444 1.248 0 .568.148 1.004.444 1.308.304.304.716.456 1.236.456.304 0 .588-.06.852-.18.272-.128.492-.312.66-.552.168-.248.252-.548.252-.9zm2.465 4.644c1.296-.888 2.332-1.756 3.108-2.604.784-.856 1.176-1.648 1.176-2.376 0-.432-.108-.776-.324-1.032-.208-.256-.548-.384-1.02-.384-.488 0-.856.16-1.104.48-.248.312-.388.76-.42 1.344h-1.332c.056-.968.352-1.708.888-2.22.544-.512 1.236-.768 2.076-.768.824 0 1.468.22 1.932.66.472.432.708 1.032.708 1.8 0 .616-.192 1.24-.576 1.872a7.773 7.773 0 01-1.44 1.752c-.584.528-1.188.984-1.812 1.368h4.02v1.116h-5.88v-1.008zm17.241-3.18c0 .856-.176 1.604-.528 2.244a3.575 3.575 0 01-1.524 1.476c-.664.352-1.46.528-2.388.528h-2.832v-8.472h2.832c.928 0 1.724.176 2.388.528.672.344 1.18.832 1.524 1.464.352.632.528 1.376.528 2.232zm-4.548 3.012c1.016 0 1.796-.264 2.34-.792.544-.528.816-1.268.816-2.22 0-.952-.272-1.692-.816-2.22-.544-.528-1.324-.792-2.34-.792h-1.356v6.024h1.356zm8.577-5.46c.6 0 1.112.148 1.536.444.424.296.724.688.9 1.176v-1.536h1.368V103h-1.368v-1.536a2.39 2.39 0 01-.9 1.176c-.424.296-.936.444-1.536.444a2.963 2.963 0 01-1.548-.408 2.802 2.802 0 01-1.056-1.176c-.256-.512-.384-1.116-.384-1.812 0-.688.128-1.288.384-1.8a2.802 2.802 0 011.056-1.176 2.963 2.963 0 011.548-.408zm.42 1.2c-.608 0-1.096.196-1.464.588-.36.384-.54.916-.54 1.596s.18 1.216.54 1.608c.368.384.856.576 1.464.576.384 0 .728-.088 1.032-.264.304-.184.544-.44.72-.768.176-.328.264-.712.264-1.152 0-.432-.088-.812-.264-1.14a1.859 1.859 0 00-.72-.768 1.954 1.954 0 00-1.032-.276zm5.806-1.116l1.98 4.86 1.836-4.86h1.524l-3.996 9.756h-1.524l1.428-3.3-2.784-6.456h1.536zm8.411-.084c.776 0 1.396.2 1.86.6.472.392.76.92.864 1.584h-1.296a1.362 1.362 0 00-.468-.864c-.248-.224-.58-.336-.996-.336-.344 0-.612.084-.804.252-.184.16-.276.38-.276.66a.66.66 0 00.204.504c.136.128.304.228.504.3.208.072.5.152.876.24.496.112.896.228 1.2.348.312.12.576.312.792.576.224.256.336.608.336 1.056 0 .552-.212 1-.636 1.344-.416.344-.98.516-1.692.516-.824 0-1.492-.192-2.004-.576-.504-.384-.808-.92-.912-1.608h1.332c.04.36.2.652.48.876.28.224.648.336 1.104.336.328 0 .584-.084.768-.252a.858.858 0 00.288-.66c0-.232-.072-.416-.216-.552a1.433 1.433 0 00-.54-.312 6.657 6.657 0 00-.888-.24 10.21 10.21 0 01-1.176-.336 1.898 1.898 0 01-.768-.54c-.208-.256-.312-.6-.312-1.032 0-.56.208-1.012.624-1.356.424-.352 1.008-.528 1.752-.528zm98.108-.792L379.616 103h-1.44l3.204-7.332h-4.2V94.48h5.592v1.032zm3.91-1.248c.56 0 1.04.1 1.44.3.4.192.7.46.9.804.208.344.312.728.312 1.152 0 .536-.152.984-.456 1.344-.296.352-.716.564-1.26.636v.06c.584.168 1.04.42 1.368.756.336.328.504.784.504 1.368 0 .712-.236 1.292-.708 1.74-.472.44-1.148.66-2.028.66-.904 0-1.632-.228-2.184-.684-.552-.464-.868-1.148-.948-2.052h1.356c.048.48.22.864.516 1.152.296.28.696.42 1.2.42.472 0 .832-.124 1.08-.372.256-.248.384-.568.384-.96 0-.472-.184-.832-.552-1.08-.36-.248-.884-.372-1.572-.372h-.324v-1.128h.324c1.304.016 1.956-.428 1.956-1.332 0-.392-.12-.7-.36-.924-.24-.224-.568-.336-.984-.336-.416 0-.764.128-1.044.384-.28.248-.448.612-.504 1.092h-1.344c.056-.832.336-1.476.84-1.932.504-.464 1.2-.696 2.088-.696zm14.438 4.488c0 .856-.176 1.604-.528 2.244a3.575 3.575 0 01-1.524 1.476c-.664.352-1.46.528-2.388.528h-2.832v-8.472h2.832c.928 0 1.724.176 2.388.528.672.344 1.18.832 1.524 1.464.352.632.528 1.376.528 2.232zm-4.548 3.012c1.016 0 1.796-.264 2.34-.792.544-.528.816-1.268.816-2.22 0-.952-.272-1.692-.816-2.22-.544-.528-1.324-.792-2.34-.792h-1.356v6.024h1.356zm8.576-5.46c.6 0 1.112.148 1.536.444.424.296.724.688.9 1.176v-1.536h1.368V103h-1.368v-1.536a2.39 2.39 0 01-.9 1.176c-.424.296-.936.444-1.536.444a2.963 2.963 0 01-1.548-.408 2.802 2.802 0 01-1.056-1.176c-.256-.512-.384-1.116-.384-1.812 0-.688.128-1.288.384-1.8a2.802 2.802 0 011.056-1.176 2.963 2.963 0 011.548-.408zm.42 1.2c-.608 0-1.096.196-1.464.588-.36.384-.54.916-.54 1.596s.18 1.216.54 1.608c.368.384.856.576 1.464.576.384 0 .728-.088 1.032-.264.304-.184.544-.44.72-.768.176-.328.264-.712.264-1.152 0-.432-.088-.812-.264-1.14a1.859 1.859 0 00-.72-.768 1.954 1.954 0 00-1.032-.276zm5.806-1.116l1.98 4.86 1.836-4.86h1.524l-3.996 9.756h-1.524l1.428-3.3-2.784-6.456h1.536zm8.411-.084c.776 0 1.396.2 1.86.6.472.392.76.92.864 1.584h-1.296a1.362 1.362 0 00-.468-.864c-.248-.224-.58-.336-.996-.336-.344 0-.612.084-.804.252-.184.16-.276.38-.276.66a.66.66 0 00.204.504c.136.128.304.228.504.3.208.072.5.152.876.24.496.112.896.228 1.2.348.312.12.576.312.792.576.224.256.336.608.336 1.056 0 .552-.212 1-.636 1.344-.416.344-.98.516-1.692.516-.824 0-1.492-.192-2.004-.576-.504-.384-.808-.92-.912-1.608h1.332c.04.36.2.652.48.876.28.224.648.336 1.104.336.328 0 .584-.084.768-.252a.858.858 0 00.288-.66c0-.232-.072-.416-.216-.552a1.433 1.433 0 00-.54-.312 6.657 6.657 0 00-.888-.24 10.21 10.21 0 01-1.176-.336 1.898 1.898 0 01-.768-.54c-.208-.256-.312-.6-.312-1.032 0-.56.208-1.012.624-1.356.424-.352 1.008-.528 1.752-.528zm-191.161-39.6c0 1.352.24 2.412.72 3.18.48.76 1.28 1.14 2.4 1.14 1.12 0 1.92-.384 2.4-1.152.48-.768.72-1.824.72-3.168 0-1.336-.24-2.384-.72-3.144-.48-.768-1.28-1.152-2.4-1.152-1.12 0-1.92.38-2.4 1.14-.48.76-.72 1.812-.72 3.156zm4.872 0c0 .976-.12 1.724-.36 2.244-.24.52-.704.78-1.392.78-.696 0-1.164-.26-1.404-.78s-.36-1.268-.36-2.244c0-.968.12-1.708.36-2.22.24-.512.708-.768 1.404-.768.688 0 1.152.26 1.392.78.24.512.36 1.248.36 2.208zm3.889 2.784V61h-1.548v-1.512h1.548zm.533-5.676v-1.284h2.712V61h-1.44v-7.188h-1.272zm8.791.996c-.144-.944-.636-1.416-1.476-1.416-.608 0-1.064.244-1.368.732-.304.48-.456 1.236-.456 2.268l.012.408c.12-.432.38-.776.78-1.032s.872-.384 1.416-.384c.832 0 1.484.248 1.956.744s.708 1.196.708 2.1c0 .544-.108 1.032-.324 1.464-.216.424-.54.764-.972 1.02-.432.248-.964.372-1.596.372-1.224 0-2.064-.38-2.52-1.14-.456-.76-.684-1.804-.684-3.132 0-1.52.244-2.656.732-3.408.488-.752 1.288-1.128 2.4-1.128.832 0 1.468.236 1.908.708.448.472.708 1.08.78 1.824h-1.296zm-3.168 3.264c0 .52.152.956.456 1.308.304.344.752.516 1.344.516.504 0 .904-.148 1.2-.444.304-.296.456-.708.456-1.236 0-.568-.152-1.004-.456-1.308-.304-.304-.716-.456-1.236-.456-.472 0-.884.14-1.236.42-.352.28-.528.68-.528 1.2zm8.813-1.368c0 1.352.24 2.412.72 3.18.48.76 1.28 1.14 2.4 1.14 1.12 0 1.92-.384 2.4-1.152.48-.768.72-1.824.72-3.168 0-1.336-.24-2.384-.72-3.144-.48-.768-1.28-1.152-2.4-1.152-1.12 0-1.92.38-2.4 1.14-.48.76-.72 1.812-.72 3.156zm4.872 0c0 .976-.12 1.724-.36 2.244-.24.52-.704.78-1.392.78-.696 0-1.164-.26-1.404-.78s-.36-1.268-.36-2.244c0-.968.12-1.708.36-2.22.24-.512.708-.768 1.404-.768.688 0 1.152.26 1.392.78.24.512.36 1.248.36 2.208zM263.947 61l-1.62-2.34-1.416 2.34h-1.524l2.184-3.432-2.208-3.18h1.548l1.584 2.28 1.404-2.28h1.512l-2.184 3.336L265.495 61h-1.548zm6.914-4.368a2.07 2.07 0 011.236.732c.32.384.48.832.48 1.344 0 .704-.236 1.264-.708 1.68-.472.408-1.156.612-2.052.612h-3.372v-8.472h3.312c.848 0 1.496.192 1.944.576.456.376.684.896.684 1.56 0 .536-.14.972-.42 1.308a2.05 2.05 0 01-1.104.66zm-3.048-.456h1.692c.48 0 .844-.112 1.092-.336.256-.224.384-.536.384-.936 0-.392-.128-.7-.384-.924-.248-.224-.628-.336-1.14-.336h-1.644v2.532zm1.728 3.696c.52 0 .92-.116 1.2-.348.288-.24.432-.572.432-.996 0-.424-.144-.756-.432-.996-.288-.24-.692-.36-1.212-.36h-1.716v2.7h1.728zm8.078-10.2l-3.264 13.44h-1.332l3.264-13.44h1.332zm8.051 7.08c0 .856-.176 1.604-.528 2.244a3.575 3.575 0 01-1.524 1.476c-.664.352-1.46.528-2.388.528h-2.832v-8.472h2.832c.928 0 1.724.176 2.388.528.672.344 1.18.832 1.524 1.464.352.632.528 1.376.528 2.232zm-4.548 3.012c1.016 0 1.796-.264 2.34-.792.544-.528.816-1.268.816-2.22 0-.952-.272-1.692-.816-2.22-.544-.528-1.324-.792-2.34-.792h-1.356v6.024h1.356zm8.577-5.46c.6 0 1.112.148 1.536.444.424.296.724.688.9 1.176v-1.536h1.368V61h-1.368v-1.536a2.39 2.39 0 01-.9 1.176c-.424.296-.936.444-1.536.444a2.963 2.963 0 01-1.548-.408 2.802 2.802 0 01-1.056-1.176c-.256-.512-.384-1.116-.384-1.812 0-.688.128-1.288.384-1.8a2.802 2.802 0 011.056-1.176 2.963 2.963 0 011.548-.408zm.42 1.2c-.608 0-1.096.196-1.464.588-.36.384-.54.916-.54 1.596s.18 1.216.54 1.608c.368.384.856.576 1.464.576.384 0 .728-.088 1.032-.264.304-.184.544-.44.72-.768.176-.328.264-.712.264-1.152 0-.432-.088-.812-.264-1.14a1.859 1.859 0 00-.72-.768 1.954 1.954 0 00-1.032-.276zm5.805-1.116l1.98 4.86 1.836-4.86h1.524l-3.996 9.756h-1.524l1.428-3.3-2.784-6.456h1.536zm68.7 2.316c0 1.352.24 2.412.72 3.18.48.76 1.28 1.14 2.4 1.14 1.12 0 1.92-.384 2.4-1.152.48-.768.72-1.824.72-3.168 0-1.336-.24-2.384-.72-3.144-.48-.768-1.28-1.152-2.4-1.152-1.12 0-1.92.38-2.4 1.14-.48.76-.72 1.812-.72 3.156zm4.872 0c0 .976-.12 1.724-.36 2.244-.24.52-.704.78-1.392.78-.696 0-1.164-.26-1.404-.78s-.36-1.268-.36-2.244c0-.968.12-1.708.36-2.22.24-.512.708-.768 1.404-.768.688 0 1.152.26 1.392.78.24.512.36 1.248.36 2.208zm3.889 2.784V61h-1.548v-1.512h1.548zm.797-.312v-1.152l4.212-5.568h1.464v5.52h1.188v1.2h-1.188V61h-1.38v-1.824h-4.296zm4.392-5.088l-2.976 3.888h2.976v-3.888zm2.961-.276v-1.284h2.712V61h-1.44v-7.188h-1.272zm6.96 2.892c0 1.352.24 2.412.72 3.18.48.76 1.28 1.14 2.4 1.14 1.12 0 1.92-.384 2.4-1.152.48-.768.72-1.824.72-3.168 0-1.336-.24-2.384-.72-3.144-.48-.768-1.28-1.152-2.4-1.152-1.12 0-1.92.38-2.4 1.14-.48.76-.72 1.812-.72 3.156zm4.872 0c0 .976-.12 1.724-.36 2.244-.24.52-.704.78-1.392.78-.696 0-1.164-.26-1.404-.78s-.36-1.268-.36-2.244c0-.968.12-1.708.36-2.22.24-.512.708-.768 1.404-.768.688 0 1.152.26 1.392.78.24.512.36 1.248.36 2.208zM400.088 61l-1.62-2.34-1.416 2.34h-1.524l2.184-3.432-2.208-3.18h1.548l1.584 2.28 1.404-2.28h1.512l-2.184 3.336L401.636 61h-1.548zm6.914-4.368a2.07 2.07 0 011.236.732c.32.384.48.832.48 1.344 0 .704-.236 1.264-.708 1.68-.472.408-1.156.612-2.052.612h-3.372v-8.472h3.312c.848 0 1.496.192 1.944.576.456.376.684.896.684 1.56 0 .536-.14.972-.42 1.308a2.05 2.05 0 01-1.104.66zm-3.048-.456h1.692c.48 0 .844-.112 1.092-.336.256-.224.384-.536.384-.936 0-.392-.128-.7-.384-.924-.248-.224-.628-.336-1.14-.336h-1.644v2.532zm1.728 3.696c.52 0 .92-.116 1.2-.348.288-.24.432-.572.432-.996 0-.424-.144-.756-.432-.996-.288-.24-.692-.36-1.212-.36h-1.716v2.7h1.728zm8.078-10.2l-3.264 13.44h-1.332l3.264-13.44h1.332zm8.051 7.08c0 .856-.176 1.604-.528 2.244a3.575 3.575 0 01-1.524 1.476c-.664.352-1.46.528-2.388.528h-2.832v-8.472h2.832c.928 0 1.724.176 2.388.528.672.344 1.18.832 1.524 1.464.352.632.528 1.376.528 2.232zm-4.548 3.012c1.016 0 1.796-.264 2.34-.792.544-.528.816-1.268.816-2.22 0-.952-.272-1.692-.816-2.22-.544-.528-1.324-.792-2.34-.792h-1.356v6.024h1.356zm8.576-5.46c.6 0 1.112.148 1.536.444.424.296.724.688.9 1.176v-1.536h1.368V61h-1.368v-1.536a2.39 2.39 0 01-.9 1.176c-.424.296-.936.444-1.536.444a2.963 2.963 0 01-1.548-.408 2.802 2.802 0 01-1.056-1.176c-.256-.512-.384-1.116-.384-1.812 0-.688.128-1.288.384-1.8a2.802 2.802 0 011.056-1.176 2.963 2.963 0 011.548-.408zm.42 1.2c-.608 0-1.096.196-1.464.588-.36.384-.54.916-.54 1.596s.18 1.216.54 1.608c.368.384.856.576 1.464.576.384 0 .728-.088 1.032-.264.304-.184.544-.44.72-.768.176-.328.264-.712.264-1.152 0-.432-.088-.812-.264-1.14a1.859 1.859 0 00-.72-.768 1.954 1.954 0 00-1.032-.276zm5.806-1.116l1.98 4.86 1.836-4.86h1.524l-3.996 9.756h-1.524l1.428-3.3-2.784-6.456h1.536zM250.42 16.176v-1.152l4.212-5.568h1.464v5.52h1.188v1.2h-1.188V18h-1.38v-1.824h-4.296zm4.392-5.088l-2.976 3.888h2.976v-3.888zm3.429 2.616c0 1.352.24 2.412.72 3.18.48.76 1.28 1.14 2.4 1.14 1.12 0 1.92-.384 2.4-1.152.48-.768.72-1.824.72-3.168 0-1.336-.24-2.384-.72-3.144-.48-.768-1.28-1.152-2.4-1.152-1.12 0-1.92.38-2.4 1.14-.48.76-.72 1.812-.72 3.156zm4.872 0c0 .976-.12 1.724-.36 2.244-.24.52-.704.78-1.392.78-.696 0-1.164-.26-1.404-.78s-.36-1.268-.36-2.244c0-.968.12-1.708.36-2.22.24-.512.708-.768 1.404-.768.688 0 1.152.26 1.392.78.24.512.36 1.248.36 2.208zm2.605 0c0 1.352.24 2.412.72 3.18.48.76 1.28 1.14 2.4 1.14 1.12 0 1.92-.384 2.4-1.152.48-.768.72-1.824.72-3.168 0-1.336-.24-2.384-.72-3.144-.48-.768-1.28-1.152-2.4-1.152-1.12 0-1.92.38-2.4 1.14-.48.76-.72 1.812-.72 3.156zm4.872 0c0 .976-.12 1.724-.36 2.244-.24.52-.704.78-1.392.78-.696 0-1.164-.26-1.404-.78s-.36-1.268-.36-2.244c0-.968.12-1.708.36-2.22.24-.512.708-.768 1.404-.768.688 0 1.152.26 1.392.78.24.512.36 1.248.36 2.208zm4.176-4.296c.536 0 .972.168 1.308.504.336.328.504.776.504 1.344 0 .568-.168 1.016-.504 1.344-.336.328-.772.492-1.308.492s-.976-.164-1.32-.492c-.336-.328-.504-.776-.504-1.344 0-.568.168-1.016.504-1.344.344-.336.784-.504 1.32-.504zm5.076.108L275.054 18h-1.344l4.8-8.484h1.332zm-5.964 1.74c0 .304.08.548.24.732.16.176.372.264.636.264a.801.801 0 00.636-.276c.168-.184.252-.424.252-.72 0-.304-.084-.548-.252-.732a.801.801 0 00-.636-.276.801.801 0 00-.636.276c-.16.184-.24.428-.24.732zm4.92 3.168c.536 0 .972.164 1.308.492.344.328.516.776.516 1.344 0 .568-.172 1.02-.516 1.356-.336.328-.772.492-1.308.492-.528 0-.964-.164-1.308-.492-.336-.336-.504-.788-.504-1.356 0-.56.168-1.004.504-1.332.344-.336.78-.504 1.308-.504zm-.876 1.836c0 .304.08.548.24.732.16.184.372.276.636.276a.801.801 0 00.636-.276c.168-.184.252-.428.252-.732 0-.296-.084-.536-.252-.72a.801.801 0 00-.636-.276.801.801 0 00-.636.276c-.16.184-.24.424-.24.72zm113.57-5.652h-4.188v2.52c.192-.248.464-.444.816-.588.352-.152.74-.228 1.164-.228.592 0 1.084.128 1.476.384.392.248.68.58.864.996.192.416.288.876.288 1.38 0 .888-.248 1.608-.744 2.16-.496.544-1.216.816-2.16.816-.888 0-1.604-.236-2.148-.708s-.84-1.1-.888-1.884h1.344c.072.432.248.772.528 1.02.288.248.652.372 1.092.372.544 0 .952-.164 1.224-.492.272-.328.408-.764.408-1.308 0-.512-.14-.912-.42-1.2-.28-.296-.68-.444-1.2-.444-.368 0-.692.08-.972.24a1.48 1.48 0 00-.6.636h-1.332V9.396h5.448v1.212zm1.62 3.096c0 1.352.24 2.412.72 3.18.48.76 1.28 1.14 2.4 1.14 1.12 0 1.92-.384 2.4-1.152.48-.768.72-1.824.72-3.168 0-1.336-.24-2.384-.72-3.144-.48-.768-1.28-1.152-2.4-1.152-1.12 0-1.92.38-2.4 1.14-.48.76-.72 1.812-.72 3.156zm4.872 0c0 .976-.12 1.724-.36 2.244-.24.52-.704.78-1.392.78-.696 0-1.164-.26-1.404-.78s-.36-1.268-.36-2.244c0-.968.12-1.708.36-2.22.24-.512.708-.768 1.404-.768.688 0 1.152.26 1.392.78.24.512.36 1.248.36 2.208zm2.605 0c0 1.352.24 2.412.72 3.18.48.76 1.28 1.14 2.4 1.14 1.12 0 1.92-.384 2.4-1.152.48-.768.72-1.824.72-3.168 0-1.336-.24-2.384-.72-3.144-.48-.768-1.28-1.152-2.4-1.152-1.12 0-1.92.38-2.4 1.14-.48.76-.72 1.812-.72 3.156zm4.872 0c0 .976-.12 1.724-.36 2.244-.24.52-.704.78-1.392.78-.696 0-1.164-.26-1.404-.78s-.36-1.268-.36-2.244c0-.968.12-1.708.36-2.22.24-.512.708-.768 1.404-.768.688 0 1.152.26 1.392.78.24.512.36 1.248.36 2.208zm4.176-4.296c.536 0 .972.168 1.308.504.336.328.504.776.504 1.344 0 .568-.168 1.016-.504 1.344-.336.328-.772.492-1.308.492s-.976-.164-1.32-.492c-.336-.328-.504-.776-.504-1.344 0-.568.168-1.016.504-1.344.344-.336.784-.504 1.32-.504zm5.076.108L409.925 18h-1.344l4.8-8.484h1.332zm-5.964 1.74c0 .304.08.548.24.732.16.176.372.264.636.264a.801.801 0 00.636-.276c.168-.184.252-.424.252-.72 0-.304-.084-.548-.252-.732a.801.801 0 00-.636-.276.801.801 0 00-.636.276c-.16.184-.24.428-.24.732zm4.92 3.168c.536 0 .972.164 1.308.492.344.328.516.776.516 1.344 0 .568-.172 1.02-.516 1.356-.336.328-.772.492-1.308.492-.528 0-.964-.164-1.308-.492-.336-.336-.504-.788-.504-1.356 0-.56.168-1.004.504-1.332.344-.336.78-.504 1.308-.504zm-.876 1.836c0 .304.08.548.24.732.16.184.372.276.636.276a.801.801 0 00.636-.276c.168-.184.252-.428.252-.732 0-.296-.084-.536-.252-.72a.801.801 0 00-.636-.276.801.801 0 00-.636.276c-.16.184-.24.424-.24.72z" fill="#2F2E41" fill-opacity=".6"/><path d="M6.16 62l-2.464-3.948H2.562V62H.966v-9.884h3.486c1.13 0 1.983.275 2.562.826.588.55.882 1.279.882 2.184 0 .775-.22 1.41-.658 1.904-.43.495-1.055.812-1.876.952L7.952 62H6.16zm-3.598-5.082h1.764c1.288 0 1.932-.57 1.932-1.708 0-.541-.159-.961-.476-1.26-.308-.308-.793-.462-1.456-.462H2.562v3.43zm13.94.854c0 .261-.02.49-.057.686H10.51c.028.793.248 1.381.658 1.764.41.383.92.574 1.526.574.532 0 .98-.135 1.344-.406.373-.27.602-.63.686-1.078h1.708a3.32 3.32 0 01-.644 1.442 3.39 3.39 0 01-1.274.994 4.247 4.247 0 01-1.75.35c-.746 0-1.41-.159-1.988-.476a3.399 3.399 0 01-1.344-1.372c-.326-.597-.49-1.302-.49-2.114 0-.803.164-1.503.49-2.1a3.399 3.399 0 011.344-1.372c.579-.317 1.242-.476 1.988-.476.756 0 1.414.159 1.974.476a3.15 3.15 0 011.302 1.288c.308.541.462 1.148.462 1.82zm-1.61-.042c.018-.504-.07-.924-.267-1.26a1.706 1.706 0 00-.784-.756 2.322 2.322 0 00-1.078-.252c-.625 0-1.148.191-1.568.574-.42.383-.649.947-.686 1.694h4.382zm13.958-3.444L26.708 62h-1.764l-1.904-5.964L21.108 62h-1.75l-2.142-7.714h1.61l1.47 6.244 1.932-6.244h1.68l1.96 6.244 1.47-6.244h1.512zm4.18-.098c.7 0 1.298.173 1.793.518.494.345.844.803 1.05 1.372v-1.792h1.596V62h-1.596v-1.792a2.787 2.787 0 01-1.05 1.372c-.495.345-1.092.518-1.792.518a3.46 3.46 0 01-1.806-.476c-.523-.317-.934-.775-1.232-1.372-.299-.597-.448-1.302-.448-2.114 0-.803.149-1.503.448-2.1.298-.597.709-1.055 1.232-1.372a3.46 3.46 0 011.806-.476zm.49 1.4c-.709 0-1.278.229-1.707.686-.42.448-.63 1.069-.63 1.862 0 .793.21 1.419.63 1.876.429.448.998.672 1.708.672.448 0 .849-.103 1.204-.308.354-.215.634-.513.84-.896.205-.383.308-.83.308-1.344 0-.504-.103-.947-.308-1.33a2.168 2.168 0 00-.84-.896 2.279 2.279 0 00-1.204-.322zm7.46.21c.261-.504.635-.9 1.12-1.19.485-.299 1.045-.448 1.68-.448v1.736h-.476c-.7 0-1.265.173-1.694.518-.42.336-.63.896-.63 1.68V62h-1.596v-7.714h1.596v1.512zm7.09-1.61c.7 0 1.297.173 1.792.518.494.345.84.803 1.036 1.372V51.64h1.61V62h-1.61v-1.792a2.71 2.71 0 01-1.036 1.372c-.495.345-1.092.518-1.792.518a3.46 3.46 0 01-1.806-.476c-.523-.317-.934-.775-1.232-1.372-.299-.597-.448-1.302-.448-2.114 0-.803.15-1.503.448-2.1.298-.597.71-1.055 1.232-1.372a3.46 3.46 0 011.806-.476zm.49 1.4c-.71 0-1.279.229-1.708.686-.42.448-.63 1.069-.63 1.862 0 .793.21 1.419.63 1.876.43.448.998.672 1.708.672.448 0 .85-.103 1.204-.308.354-.215.634-.513.84-.896.205-.383.308-.83.308-1.344 0-.504-.103-.947-.308-1.33a2.17 2.17 0 00-.84-.896 2.279 2.279 0 00-1.204-.322zM6.16 103l-2.464-3.948H2.562V103H.966v-9.884h3.486c1.13 0 1.983.275 2.562.826.588.55.882 1.279.882 2.184 0 .775-.22 1.41-.658 1.904-.43.495-1.055.812-1.876.952L7.952 103H6.16zm-3.598-5.082h1.764c1.288 0 1.932-.57 1.932-1.708 0-.541-.159-.961-.476-1.26-.308-.308-.793-.462-1.456-.462H2.562v3.43zm11.35-4.928c.914 0 1.74.215 2.477.644a4.527 4.527 0 011.75 1.806c.43.765.644 1.633.644 2.604 0 .97-.215 1.843-.644 2.618a4.655 4.655 0 01-1.75 1.806c-.737.429-1.563.644-2.478.644-.924 0-1.76-.215-2.506-.644a4.789 4.789 0 01-1.75-1.806c-.43-.775-.644-1.647-.644-2.618 0-.97.215-1.839.644-2.604a4.654 4.654 0 011.75-1.806c.747-.43 1.582-.644 2.506-.644zm0 1.484c-.636 0-1.2.145-1.695.434-.495.29-.882.705-1.162 1.246-.27.541-.406 1.171-.406 1.89 0 .719.136 1.349.406 1.89.28.541.668.957 1.162 1.246.495.289 1.06.434 1.694.434.626 0 1.18-.145 1.666-.434a2.914 2.914 0 001.148-1.246c.28-.541.42-1.171.42-1.89 0-.719-.14-1.349-.42-1.89a2.914 2.914 0 00-1.148-1.246c-.485-.29-1.04-.434-1.666-.434zm8.078-1.358V103h-1.596v-9.884h1.596zm1.421 5.048c0-1.536.292-2.908.876-4.116.592-1.208 1.368-2.184 2.328-2.928h1.332v.144c-2.136 1.744-3.204 4.044-3.204 6.9 0 2.856 1.068 5.164 3.204 6.924v.132h-1.332c-.96-.752-1.736-1.728-2.328-2.928-.584-1.208-.876-2.584-.876-4.128zm10.112 3h-3.576L29.299 103h-1.464l3.12-8.34h1.572l3.108 8.34H34.17l-.648-1.836zm-.384-1.056l-1.404-3.96-1.404 3.96h2.808zm7.303-3.804a2.9 2.9 0 011.536.408c.456.272.812.664 1.068 1.176.256.512.384 1.112.384 1.8 0 .696-.128 1.3-.384 1.812a2.776 2.776 0 01-1.068 1.176 2.9 2.9 0 01-1.536.408c-.6 0-1.112-.148-1.536-.444a2.322 2.322 0 01-.888-1.176v4.68H36.65v-9.756h1.368v1.536c.168-.488.464-.88.888-1.176.424-.296.936-.444 1.536-.444zm-.42 1.2c-.384 0-.728.092-1.032.276a1.859 1.859 0 00-.72.768 2.375 2.375 0 00-.264 1.14c0 .44.088.824.264 1.152.176.328.416.584.72.768.304.176.648.264 1.032.264.608 0 1.096-.192 1.464-.576.368-.392.552-.928.552-1.608 0-.672-.184-1.204-.552-1.596-.368-.392-.856-.588-1.464-.588zm8.518-1.2a2.9 2.9 0 011.536.408c.456.272.812.664 1.068 1.176.256.512.384 1.112.384 1.8 0 .696-.128 1.3-.384 1.812a2.776 2.776 0 01-1.068 1.176 2.9 2.9 0 01-1.536.408c-.6 0-1.112-.148-1.536-.444a2.322 2.322 0 01-.888-1.176v4.68h-1.368v-9.756h1.368v1.536c.168-.488.464-.88.888-1.176.424-.296.936-.444 1.536-.444zm-.42 1.2c-.384 0-.728.092-1.032.276a1.859 1.859 0 00-.72.768 2.375 2.375 0 00-.264 1.14c0 .44.088.824.264 1.152.176.328.416.584.72.768.304.176.648.264 1.032.264.608 0 1.096-.192 1.464-.576.368-.392.552-.928.552-1.608 0-.672-.184-1.204-.552-1.596-.368-.392-.856-.588-1.464-.588zm6.094.18a2.51 2.51 0 01.96-1.02c.416-.256.896-.384 1.44-.384v1.488h-.408c-.6 0-1.084.148-1.452.444-.36.288-.54.768-.54 1.44V103h-1.368v-6.612h1.368v1.296zm6.449-1.38c.64 0 1.216.136 1.728.408.512.272.912.664 1.2 1.176.288.512.431 1.112.431 1.8 0 .696-.144 1.3-.432 1.812a2.929 2.929 0 01-1.2 1.176 3.625 3.625 0 01-1.727.408c-.64 0-1.216-.136-1.728-.408a3.028 3.028 0 01-1.2-1.176c-.288-.52-.432-1.124-.432-1.812s.144-1.288.431-1.8a3.028 3.028 0 011.2-1.176 3.625 3.625 0 011.729-.408zm0 1.188c-.352 0-.676.08-.972.24-.297.16-.537.408-.72.744-.176.328-.264.732-.264 1.212 0 .488.087.896.264 1.224.184.328.424.572.72.732.295.16.62.24.971.24.352 0 .677-.08.973-.24a1.74 1.74 0 00.708-.732c.183-.328.275-.736.275-1.224 0-.48-.092-.884-.276-1.212a1.726 1.726 0 00-.707-.744c-.296-.16-.62-.24-.972-.24zM69.25 103l-1.62-2.34-1.416 2.34H64.69l2.184-3.432-2.208-3.18h1.548l1.584 2.28 1.404-2.28h1.512l-2.184 3.336L70.798 103H69.25zm5.918-4.836c0 1.536-.296 2.912-.888 4.128-.584 1.208-1.356 2.184-2.316 2.928h-1.332v-.132c2.136-1.752 3.204-4.06 3.204-6.924 0-2.864-1.068-5.164-3.204-6.9v-.144h1.332c.96.736 1.732 1.712 2.316 2.928.592 1.208.888 2.58.888 4.116z" fill="#2F2E41"/><path stroke="#000" stroke-opacity=".2" d="M194.5 45v24m0-67v24m0 61v24m141-66v24m0-67v24m0 61v24"/></svg>