<svg width="439" height="99" fill="none" xmlns="http://www.w3.org/2000/svg"><path fill="#0E51FF" d="M0 27h97v72H0z"/><path d="M97 27l17 14v58H97V27zm114 14l17 14v44h-17V41zm114 14l17 14v30h-17V55z" fill="#5987FF"/><path fill="#0E51FF" d="M114 41h97v58h-97zm114 14h97v44h-97zm114 14h97v30h-97z"/><path d="M7.572 12.062c0 1.24.22 2.211.66 2.915.44.697 1.173 1.045 2.2 1.045 1.027 0 1.76-.352 2.2-1.056.44-.704.66-1.672.66-2.904 0-1.225-.22-2.185-.66-2.882-.44-.704-1.173-1.056-2.2-1.056-1.027 0-1.76.348-2.2 1.045-.44.697-.66 1.661-.66 2.893zm4.466 0c0 .895-.11 1.58-.33 2.057-.22.477-.645.715-1.276.715-.638 0-1.067-.238-1.287-.715-.22-.477-.33-1.162-.33-2.057 0-.887.11-1.566.33-2.035.22-.47.649-.704 1.287-.704.63 0 1.056.238 1.276.715.22.47.33 1.144.33 2.024zm3.564 2.552V16h-1.418v-1.386h1.418zm.918-2.552c0 1.24.22 2.211.66 2.915.44.697 1.174 1.045 2.2 1.045 1.027 0 1.76-.352 2.2-1.056.44-.704.66-1.672.66-2.904 0-1.225-.22-2.185-.66-2.882-.44-.704-1.173-1.056-2.2-1.056-1.026 0-1.76.348-2.2 1.045-.44.697-.66 1.661-.66 2.893zm4.466 0c0 .895-.11 1.58-.33 2.057-.22.477-.645.715-1.276.715-.638 0-1.067-.238-1.287-.715-.22-.477-.33-1.162-.33-2.057 0-.887.11-1.566.33-2.035.22-.47.65-.704 1.287-.704.63 0 1.056.238 1.276.715.22.47.33 1.144.33 2.024zm5.116-4.07c.513 0 .953.092 1.32.275.366.176.641.422.825.737.19.315.286.667.286 1.056 0 .491-.14.902-.418 1.232-.272.323-.657.517-1.155.583v.055c.535.154.953.385 1.254.693.308.3.462.719.462 1.254 0 .653-.217 1.184-.65 1.595-.432.403-1.052.605-1.858.605-.829 0-1.496-.209-2.002-.627-.506-.425-.796-1.052-.87-1.881h1.244c.044.44.201.792.473 1.056.271.257.638.385 1.1.385.432 0 .762-.114.99-.341.234-.227.352-.52.352-.88 0-.433-.169-.763-.506-.99-.33-.227-.81-.341-1.441-.341h-.297v-1.034h.297c1.195.015 1.793-.392 1.793-1.221 0-.36-.11-.642-.33-.847-.22-.205-.52-.308-.902-.308s-.7.117-.957.352c-.257.227-.41.561-.462 1.001h-1.232c.051-.763.308-1.353.77-1.771.462-.425 1.1-.638 1.914-.638zm3.616 6.336v-1.056l3.861-5.104h1.342v5.06h1.089v1.1h-1.089V16h-1.265v-1.672h-3.938zm4.026-4.664l-2.728 3.564h2.728V9.664zm5.722 2.398c0 1.24.22 2.211.66 2.915.44.697 1.173 1.045 2.2 1.045 1.026 0 1.76-.352 2.2-1.056.44-.704.66-1.672.66-2.904 0-1.225-.22-2.185-.66-2.882-.44-.704-1.174-1.056-2.2-1.056-1.027 0-1.76.348-2.2 1.045-.44.697-.66 1.661-.66 2.893zm4.466 0c0 .895-.11 1.58-.33 2.057-.22.477-.646.715-1.276.715-.638 0-1.067-.238-1.287-.715-.22-.477-.33-1.162-.33-2.057 0-.887.11-1.566.33-2.035.22-.47.649-.704 1.287-.704.63 0 1.056.238 1.276.715.22.47.33 1.144.33 2.024zM50.092 16l-1.485-2.145L47.31 16h-1.397l2.002-3.146-2.024-2.915h1.42l1.451 2.09 1.287-2.09h1.386l-2.002 3.058L51.512 16h-1.42zm6.338-4.004c.47.095.847.319 1.133.671.293.352.44.763.44 1.232 0 .645-.216 1.159-.649 1.54-.433.374-1.06.561-1.881.561h-3.091V8.234h3.036c.777 0 1.371.176 1.782.528.418.345.627.821.627 1.43 0 .491-.128.891-.385 1.199a1.88 1.88 0 01-1.012.605zm-2.794-.418h1.551c.44 0 .774-.103 1.001-.308.235-.205.352-.491.352-.858 0-.36-.117-.642-.352-.847-.227-.205-.576-.308-1.045-.308h-1.507v2.321zm1.584 3.388c.477 0 .843-.106 1.1-.319.264-.22.396-.524.396-.913s-.132-.693-.396-.913c-.264-.22-.634-.33-1.111-.33h-1.573v2.475h1.584zm7.405-9.35l-2.992 12.32h-1.221l2.992-12.32h1.22zm3.145 4.246c.55 0 1.02.136 1.408.407.389.271.66.63.814 1.078V7.86h1.265V16h-1.265v-1.408a2.129 2.129 0 01-.814 1.078c-.389.271-.858.407-1.408.407a2.717 2.717 0 01-1.419-.374 2.568 2.568 0 01-.968-1.078c-.235-.47-.352-1.023-.352-1.661 0-.63.117-1.18.352-1.65s.557-.829.968-1.078c.418-.25.891-.374 1.42-.374zm.385 1.1c-.557 0-1.005.18-1.342.539-.33.352-.495.84-.495 1.463 0 .623.165 1.115.495 1.474.337.352.785.528 1.342.528.352 0 .667-.08.946-.242.279-.169.499-.403.66-.704.161-.3.242-.653.242-1.056 0-.396-.08-.744-.242-1.045a1.704 1.704 0 00-.66-.704 1.79 1.79 0 00-.946-.253zm7.038-1.1c.55 0 1.02.136 1.408.407.389.271.664.63.825 1.078V9.939h1.254V16h-1.254v-1.408a2.19 2.19 0 01-.825 1.078c-.389.271-.858.407-1.408.407a2.717 2.717 0 01-1.42-.374 2.569 2.569 0 01-.967-1.078c-.235-.47-.352-1.023-.352-1.661 0-.63.117-1.18.352-1.65s.557-.829.968-1.078c.418-.25.89-.374 1.419-.374zm.385 1.1c-.557 0-1.005.18-1.342.539-.33.352-.495.84-.495 1.463 0 .623.165 1.115.495 1.474.337.352.785.528 1.342.528.352 0 .667-.08.946-.242.279-.169.499-.403.66-.704a2.2 2.2 0 00.242-1.056c0-.396-.08-.744-.242-1.045a1.703 1.703 0 00-.66-.704 1.79 1.79 0 00-.946-.253zM78.9 9.939l1.815 4.455 1.683-4.455h1.397l-3.663 8.943h-1.397l1.309-3.025-2.552-5.918H78.9zm42.672 16.123c0 1.24.22 2.211.66 2.915.44.697 1.173 1.045 2.2 1.045 1.027 0 1.76-.352 2.2-1.056.44-.704.66-1.672.66-2.904 0-1.225-.22-2.185-.66-2.882-.44-.704-1.173-1.056-2.2-1.056-1.027 0-1.76.348-2.2 1.045-.44.697-.66 1.661-.66 2.893zm4.466 0c0 .895-.11 1.58-.33 2.057-.22.477-.645.715-1.276.715-.638 0-1.067-.238-1.287-.715-.22-.477-.33-1.162-.33-2.057 0-.887.11-1.566.33-2.035.22-.47.649-.704 1.287-.704.631 0 1.056.238 1.276.715.22.47.33 1.144.33 2.024zm3.565 2.552V30h-1.419v-1.386h1.419zm.917-2.552c0 1.24.22 2.211.66 2.915.44.697 1.174 1.045 2.2 1.045 1.027 0 1.76-.352 2.2-1.056.44-.704.66-1.672.66-2.904 0-1.225-.22-2.185-.66-2.882-.44-.704-1.173-1.056-2.2-1.056-1.026 0-1.76.348-2.2 1.045-.44.697-.66 1.661-.66 2.893zm4.466 0c0 .895-.11 1.58-.33 2.057-.22.477-.645.715-1.276.715-.638 0-1.067-.238-1.287-.715-.22-.477-.33-1.162-.33-2.057 0-.887.11-1.566.33-2.035.22-.47.649-.704 1.287-.704.631 0 1.056.238 1.276.715.22.47.33 1.144.33 2.024zm5.116-4.07c.513 0 .953.092 1.32.275.366.176.641.422.825.737.19.315.286.667.286 1.056 0 .491-.14.902-.418 1.232-.272.323-.657.517-1.155.583v.055c.535.154.953.385 1.254.693.308.3.462.719.462 1.254 0 .653-.217 1.184-.649 1.595-.433.403-1.053.605-1.859.605-.829 0-1.496-.209-2.002-.627-.506-.425-.796-1.052-.869-1.881h1.243c.044.44.201.792.473 1.056.271.257.638.385 1.1.385.432 0 .762-.114.99-.341.234-.227.352-.52.352-.88 0-.433-.169-.763-.506-.99-.33-.227-.811-.341-1.441-.341h-.297v-1.034h.297c1.195.015 1.793-.392 1.793-1.221 0-.36-.11-.642-.33-.847-.22-.205-.521-.308-.902-.308-.382 0-.701.117-.957.352-.257.227-.411.561-.462 1.001h-1.232c.051-.763.308-1.353.77-1.771.462-.425 1.1-.638 1.914-.638zm3.803 4.07c0 1.24.22 2.211.66 2.915.44.697 1.173 1.045 2.2 1.045 1.027 0 1.76-.352 2.2-1.056.44-.704.66-1.672.66-2.904 0-1.225-.22-2.185-.66-2.882-.44-.704-1.173-1.056-2.2-1.056-1.027 0-1.76.348-2.2 1.045-.44.697-.66 1.661-.66 2.893zm4.466 0c0 .895-.11 1.58-.33 2.057-.22.477-.645.715-1.276.715-.638 0-1.067-.238-1.287-.715-.22-.477-.33-1.162-.33-2.057 0-.887.11-1.566.33-2.035.22-.47.649-.704 1.287-.704.631 0 1.056.238 1.276.715.22.47.33 1.144.33 2.024zm4.966 0c0 1.24.22 2.211.66 2.915.44.697 1.173 1.045 2.2 1.045 1.026 0 1.76-.352 2.2-1.056.44-.704.66-1.672.66-2.904 0-1.225-.22-2.185-.66-2.882-.44-.704-1.174-1.056-2.2-1.056-1.027 0-1.76.348-2.2 1.045-.44.697-.66 1.661-.66 2.893zm4.466 0c0 .895-.11 1.58-.33 2.057-.22.477-.646.715-1.276.715-.638 0-1.067-.238-1.287-.715-.22-.477-.33-1.162-.33-2.057 0-.887.11-1.566.33-2.035.22-.47.649-.704 1.287-.704.63 0 1.056.238 1.276.715.22.47.33 1.144.33 2.024zm6.16 3.938l-1.485-2.145L161.18 30h-1.397l2.002-3.146-2.024-2.915h1.419l1.452 2.09 1.287-2.09h1.386l-2.002 3.058L165.382 30h-1.419zm6.338-4.004c.469.095.847.319 1.133.671.293.352.44.763.44 1.232 0 .645-.216 1.159-.649 1.54-.433.374-1.06.561-1.881.561h-3.091v-7.766h3.036c.777 0 1.371.176 1.782.528.418.345.627.821.627 1.43 0 .491-.128.891-.385 1.199-.257.3-.594.502-1.012.605zm-2.794-.418h1.551c.44 0 .774-.103 1.001-.308.235-.205.352-.491.352-.858 0-.36-.117-.642-.352-.847-.227-.205-.576-.308-1.045-.308h-1.507v2.321zm1.584 3.388c.477 0 .843-.106 1.1-.319.264-.22.396-.524.396-.913s-.132-.693-.396-.913c-.264-.22-.634-.33-1.111-.33h-1.573v2.475h1.584zm7.405-9.35l-2.992 12.32h-1.221l2.992-12.32h1.221zm3.145 4.246c.55 0 1.02.136 1.408.407.389.271.66.63.814 1.078V21.86h1.265V30h-1.265v-1.408a2.127 2.127 0 01-.814 1.078c-.388.271-.858.407-1.408.407a2.717 2.717 0 01-1.419-.374 2.575 2.575 0 01-.968-1.078c-.234-.47-.352-1.023-.352-1.661 0-.63.118-1.18.352-1.65.235-.47.558-.829.968-1.078a2.71 2.71 0 011.419-.374zm.385 1.1c-.557 0-1.004.18-1.342.539-.33.352-.495.84-.495 1.463 0 .623.165 1.115.495 1.474.338.352.785.528 1.342.528.352 0 .668-.08.946-.242.279-.169.499-.403.66-.704.162-.3.242-.653.242-1.056 0-.396-.08-.744-.242-1.045a1.7 1.7 0 00-.66-.704 1.789 1.789 0 00-.946-.253zm7.038-1.1c.55 0 1.019.136 1.408.407.389.271.664.63.825 1.078v-1.408h1.254V30h-1.254v-1.408a2.187 2.187 0 01-.825 1.078c-.389.271-.858.407-1.408.407a2.717 2.717 0 01-1.419-.374 2.568 2.568 0 01-.968-1.078c-.235-.47-.352-1.023-.352-1.661 0-.63.117-1.18.352-1.65s.557-.829.968-1.078a2.71 2.71 0 011.419-.374zm.385 1.1c-.557 0-1.005.18-1.342.539-.33.352-.495.84-.495 1.463 0 .623.165 1.115.495 1.474.337.352.785.528 1.342.528.352 0 .667-.08.946-.242.279-.169.499-.403.66-.704.161-.3.242-.653.242-1.056a2.18 2.18 0 00-.242-1.045 1.7 1.7 0 00-.66-.704 1.791 1.791 0 00-.946-.253zm5.322-1.023l1.815 4.455 1.683-4.455h1.397l-3.663 8.943h-1.397l1.309-3.025-2.552-5.918h1.408z" fill="#2F2E41" fill-opacity=".9"/><path d="M121.57 8.43c0 1.133.187 2.017.56 2.65.373.633 1.02.95 1.94.95.92 0 1.567-.317 1.94-.95.38-.633.57-1.517.57-2.65 0-1.12-.19-1.997-.57-2.63-.373-.633-1.02-.95-1.94-.95-.92 0-1.567.317-1.94.95-.373.627-.56 1.503-.56 2.63zm4.11 0c0 .58-.043 1.067-.13 1.46-.08.387-.237.697-.47.93-.233.233-.57.35-1.01.35-.433 0-.767-.117-1-.35-.233-.233-.393-.543-.48-.93-.08-.393-.12-.88-.12-1.46 0-.573.04-1.053.12-1.44.087-.387.247-.693.48-.92.233-.233.567-.35 1-.35.44 0 .777.117 1.01.35.233.227.39.533.47.92.087.387.13.867.13 1.44zm2.863 2.5V12h-1.1v-1.07h1.1zm.879-2.5c0 1.133.186 2.017.56 2.65.373.633 1.02.95 1.94.95.92 0 1.566-.317 1.94-.95.38-.633.57-1.517.57-2.65 0-1.12-.19-1.997-.57-2.63-.374-.633-1.02-.95-1.94-.95-.92 0-1.567.317-1.94.95-.374.627-.56 1.503-.56 2.63zm4.11 0c0 .58-.044 1.067-.13 1.46-.08.387-.237.697-.47.93-.234.233-.57.35-1.01.35-.434 0-.767-.117-1-.35-.234-.233-.394-.543-.48-.93-.08-.393-.12-.88-.12-1.46 0-.573.04-1.053.12-1.44.086-.387.246-.693.48-.92.233-.233.566-.35 1-.35.44 0 .776.117 1.01.35.233.227.39.533.47.92.086.387.13.867.13 1.44zm4.452-3.67c.453 0 .843.08 1.17.24.327.16.573.38.74.66.167.28.25.597.25.95 0 .44-.13.81-.39 1.11-.253.3-.627.48-1.12.54v.06c.513.133.913.34 1.2.62.293.28.44.667.44 1.16 0 .58-.193 1.053-.58 1.42-.387.367-.943.55-1.67.55s-1.317-.187-1.77-.56c-.447-.38-.71-.933-.79-1.66h.9c.06.44.227.79.5 1.05.28.26.657.39 1.13.39.447 0 .79-.113 1.03-.34.24-.233.36-.533.36-.9 0-.44-.173-.773-.52-1-.34-.233-.827-.35-1.46-.35h-.24v-.76h.24c1.227 0 1.84-.41 1.84-1.23 0-.36-.113-.647-.34-.86-.227-.213-.54-.32-.94-.32-.4 0-.737.117-1.01.35-.273.227-.433.563-.48 1.01h-.89c.047-.667.277-1.187.69-1.56.42-.38.99-.57 1.71-.57zm3.209 5.62v-.76l3.62-4.72h.98v4.69h1.04v.79h-1.04V12h-.92v-1.62h-3.68zm3.74-4.37l-2.78 3.58h2.78V6.01zm6.001 1.94v.77h-4v-.77h4zm1.192-2.15v-.85h2.02V12h-.96V5.8h-1.06zm3.311 2.63c0 1.133.187 2.017.56 2.65.374.633 1.02.95 1.94.95.92 0 1.567-.317 1.94-.95.38-.633.57-1.517.57-2.65 0-1.12-.19-1.997-.57-2.63-.373-.633-1.02-.95-1.94-.95-.92 0-1.566.317-1.94.95-.373.627-.56 1.503-.56 2.63zm4.11 0c0 .58-.043 1.067-.13 1.46-.08.387-.236.697-.47.93-.233.233-.57.35-1.01.35-.433 0-.766-.117-1-.35-.233-.233-.393-.543-.48-.93-.08-.393-.12-.88-.12-1.46 0-.573.04-1.053.12-1.44.087-.387.247-.693.48-.92.234-.233.567-.35 1-.35.44 0 .777.117 1.01.35.234.227.39.533.47.92.087.387.13.867.13 1.44zm3.253-3.58c.42 0 .766.137 1.04.41.28.267.42.623.42 1.07 0 .447-.137.803-.41 1.07-.274.267-.624.4-1.05.4-.427 0-.777-.133-1.05-.4-.274-.267-.41-.623-.41-1.07 0-.447.136-.803.41-1.07.273-.273.623-.41 1.05-.41zm3.98.09L162.73 12h-.9l4.05-7.06h.9zm-4.8 1.39c0 .267.073.483.22.65.153.167.35.25.59.25a.78.78 0 00.6-.25c.153-.167.23-.383.23-.65s-.077-.483-.23-.65a.78.78 0 00-.6-.25.765.765 0 00-.59.25c-.147.167-.22.383-.22.65zm3.84 2.81c.426 0 .773.133 1.04.4.273.267.41.623.41 1.07 0 .447-.137.807-.41 1.08-.267.267-.614.4-1.04.4-.42 0-.77-.133-1.05-.4-.274-.273-.41-.633-.41-1.08 0-.447.136-.803.41-1.07.273-.267.623-.4 1.05-.4zm-.82 1.47c0 .267.073.483.22.65.153.167.353.25.6.25.24 0 .433-.083.58-.25.153-.167.23-.383.23-.65s-.077-.483-.23-.65a.736.736 0 00-.58-.25.776.776 0 00-.6.25c-.147.167-.22.383-.22.65zm8.132-3.75v.83h-5.2v-.83h5.2zm0 2.13v.83h-5.2v-.83h5.2zm65.438 13.44c0 1.133.187 2.017.56 2.65.373.633 1.02.95 1.94.95.92 0 1.567-.317 1.94-.95.38-.633.57-1.517.57-2.65 0-1.12-.19-1.997-.57-2.63-.373-.633-1.02-.95-1.94-.95-.92 0-1.567.317-1.94.95-.373.627-.56 1.503-.56 2.63zm4.11 0c0 .58-.043 1.067-.13 1.46-.08.387-.237.697-.47.93-.233.233-.57.35-1.01.35-.433 0-.767-.117-1-.35-.233-.233-.393-.543-.48-.93-.08-.393-.12-.88-.12-1.46 0-.573.04-1.053.12-1.44.087-.387.247-.693.48-.92.233-.233.567-.35 1-.35.44 0 .777.117 1.01.35.233.227.39.533.47.92.087.387.13.867.13 1.44zm2.863 2.5V26h-1.1v-1.07h1.1zm.879-2.5c0 1.133.186 2.017.56 2.65.373.633 1.02.95 1.94.95.92 0 1.566-.317 1.94-.95.38-.633.57-1.517.57-2.65 0-1.12-.19-1.997-.57-2.63-.374-.633-1.02-.95-1.94-.95-.92 0-1.567.317-1.94.95-.374.627-.56 1.503-.56 2.63zm4.11 0c0 .58-.044 1.067-.13 1.46-.08.387-.237.697-.47.93-.234.233-.57.35-1.01.35-.434 0-.767-.117-1-.35-.234-.233-.394-.543-.48-.93-.08-.393-.12-.88-.12-1.46 0-.573.04-1.053.12-1.44.086-.387.246-.693.48-.92.233-.233.566-.35 1-.35.44 0 .776.117 1.01.35.233.227.39.533.47.92.086.387.13.867.13 1.44zm4.452-3.67c.453 0 .843.08 1.17.24.327.16.573.38.74.66.167.28.25.597.25.95 0 .44-.13.81-.39 1.11-.253.3-.627.48-1.12.54v.06c.513.133.913.34 1.2.62.293.28.44.667.44 1.16 0 .58-.193 1.053-.58 1.42-.387.367-.943.55-1.67.55s-1.317-.187-1.77-.56c-.447-.38-.71-.933-.79-1.66h.9c.06.44.227.79.5 1.05.28.26.657.39 1.13.39.447 0 .79-.113 1.03-.34.24-.233.36-.533.36-.9 0-.44-.173-.773-.52-1-.34-.233-.827-.35-1.46-.35h-.24v-.76h.24c1.227 0 1.84-.41 1.84-1.23 0-.36-.113-.647-.34-.86-.227-.213-.54-.32-.94-.32-.4 0-.737.117-1.01.35-.273.227-.433.563-.48 1.01h-.89c.047-.667.277-1.187.69-1.56.42-.38.99-.57 1.71-.57zm3.469 3.67c0 1.133.186 2.017.56 2.65.373.633 1.02.95 1.94.95.92 0 1.566-.317 1.94-.95.38-.633.57-1.517.57-2.65 0-1.12-.19-1.997-.57-2.63-.374-.633-1.02-.95-1.94-.95-.92 0-1.567.317-1.94.95-.374.627-.56 1.503-.56 2.63zm4.11 0c0 .58-.044 1.067-.13 1.46-.08.387-.237.697-.47.93-.234.233-.57.35-1.01.35-.434 0-.767-.117-1-.35-.234-.233-.394-.543-.48-.93-.08-.393-.12-.88-.12-1.46 0-.573.04-1.053.12-1.44.086-.387.246-.693.48-.92.233-.233.566-.35 1-.35.44 0 .776.117 1.01.35.233.227.39.533.47.92.086.387.13.867.13 1.44zm5.312-.48v.77h-4v-.77h4zm1.193-2.15v-.85h2.02V26h-.96v-6.2h-1.06zm3.311 2.63c0 1.133.186 2.017.56 2.65.373.633 1.02.95 1.94.95.92 0 1.566-.317 1.94-.95.38-.633.57-1.517.57-2.65 0-1.12-.19-1.997-.57-2.63-.374-.633-1.02-.95-1.94-.95-.92 0-1.567.317-1.94.95-.374.627-.56 1.503-.56 2.63zm4.11 0c0 .58-.044 1.067-.13 1.46-.08.387-.237.697-.47.93-.234.233-.57.35-1.01.35-.434 0-.767-.117-1-.35-.234-.233-.394-.543-.48-.93-.08-.393-.12-.88-.12-1.46 0-.573.04-1.053.12-1.44.086-.387.246-.693.48-.92.233-.233.566-.35 1-.35.44 0 .776.117 1.01.35.233.227.39.533.47.92.086.387.13.867.13 1.44zm3.252-3.58c.42 0 .767.137 1.04.41.28.267.42.623.42 1.07 0 .447-.136.803-.41 1.07-.273.267-.623.4-1.05.4-.426 0-.776-.133-1.05-.4-.273-.267-.41-.623-.41-1.07 0-.447.137-.803.41-1.07.274-.273.624-.41 1.05-.41zm3.98.09l-4.05 7.06h-.9l4.05-7.06h.9zm-4.8 1.39c0 .267.074.483.22.65.154.167.35.25.59.25a.776.776 0 00.6-.25c.154-.167.23-.383.23-.65s-.076-.483-.23-.65a.776.776 0 00-.6-.25.767.767 0 00-.59.25c-.146.167-.22.383-.22.65zm3.84 2.81c.427 0 .774.133 1.04.4.274.267.41.623.41 1.07 0 .447-.136.807-.41 1.08-.266.267-.613.4-1.04.4-.42 0-.77-.133-1.05-.4-.273-.273-.41-.633-.41-1.08 0-.447.137-.803.41-1.07.274-.267.624-.4 1.05-.4zm-.82 1.47c0 .267.074.483.22.65a.78.78 0 00.6.25c.24 0 .434-.083.58-.25.154-.167.23-.383.23-.65s-.076-.483-.23-.65a.734.734 0 00-.58-.25.78.78 0 00-.6.25c-.146.167-.22.383-.22.65zm8.132-3.75v.83h-5.2v-.83h5.2zm0 2.13v.83h-5.2v-.83h5.2z" fill="#2F2E41" fill-opacity=".7"/><path d="M238.572 40.062c0 1.24.22 2.211.66 2.915.44.697 1.173 1.045 2.2 1.045 1.027 0 1.76-.352 2.2-1.056.44-.704.66-1.672.66-2.904 0-1.225-.22-2.185-.66-2.882-.44-.704-1.173-1.056-2.2-1.056-1.027 0-1.76.348-2.2 1.045-.44.697-.66 1.661-.66 2.893zm4.466 0c0 .895-.11 1.58-.33 2.057-.22.477-.645.715-1.276.715-.638 0-1.067-.238-1.287-.715-.22-.477-.33-1.162-.33-2.057 0-.887.11-1.566.33-2.035.22-.47.649-.704 1.287-.704.631 0 1.056.238 1.276.715.22.47.33 1.144.33 2.024zm3.565 2.552V44h-1.419v-1.386h1.419zm.917-2.552c0 1.24.22 2.211.66 2.915.44.697 1.174 1.045 2.2 1.045 1.027 0 1.76-.352 2.2-1.056.44-.704.66-1.672.66-2.904 0-1.225-.22-2.185-.66-2.882-.44-.704-1.173-1.056-2.2-1.056-1.026 0-1.76.348-2.2 1.045-.44.697-.66 1.661-.66 2.893zm4.466 0c0 .895-.11 1.58-.33 2.057-.22.477-.645.715-1.276.715-.638 0-1.067-.238-1.287-.715-.22-.477-.33-1.162-.33-2.057 0-.887.11-1.566.33-2.035.22-.47.649-.704 1.287-.704.631 0 1.056.238 1.276.715.22.47.33 1.144.33 2.024zm2.256 2.959c1.188-.814 2.137-1.61 2.849-2.387.718-.785 1.078-1.51 1.078-2.178 0-.396-.099-.711-.297-.946-.191-.235-.503-.352-.935-.352-.448 0-.785.147-1.012.44-.228.286-.356.697-.385 1.232h-1.221c.051-.887.322-1.566.814-2.035.498-.47 1.133-.704 1.903-.704.755 0 1.345.202 1.771.605.432.396.649.946.649 1.65 0 .565-.176 1.137-.528 1.716a7.144 7.144 0 01-1.32 1.606c-.536.484-1.089.902-1.661 1.254h3.685v1.023h-5.39v-.924zm11.092-5.885L262.441 44h-1.32l2.937-6.721h-3.85V36.19h5.126v.946zm3.434 2.926c0 1.24.22 2.211.66 2.915.44.697 1.174 1.045 2.2 1.045 1.027 0 1.76-.352 2.2-1.056.44-.704.66-1.672.66-2.904 0-1.225-.22-2.185-.66-2.882-.44-.704-1.173-1.056-2.2-1.056-1.026 0-1.76.348-2.2 1.045-.44.697-.66 1.661-.66 2.893zm4.466 0c0 .895-.11 1.58-.33 2.057-.22.477-.645.715-1.276.715-.638 0-1.067-.238-1.287-.715-.22-.477-.33-1.162-.33-2.057 0-.887.11-1.566.33-2.035.22-.47.649-.704 1.287-.704.631 0 1.056.238 1.276.715.22.47.33 1.144.33 2.024zM279.395 44l-1.485-2.145L276.612 44h-1.397l2.002-3.146-2.024-2.915h1.419l1.452 2.09 1.287-2.09h1.386l-2.002 3.058L280.814 44h-1.419zm6.338-4.004c.469.095.847.319 1.133.671.293.352.44.763.44 1.232 0 .645-.217 1.159-.649 1.54-.433.374-1.06.561-1.881.561h-3.091v-7.766h3.036c.777 0 1.371.176 1.782.528.418.345.627.821.627 1.43 0 .491-.129.891-.385 1.199-.257.3-.594.502-1.012.605zm-2.794-.418h1.551c.44 0 .773-.103 1.001-.308.234-.205.352-.491.352-.858 0-.36-.118-.642-.352-.847-.228-.205-.576-.308-1.045-.308h-1.507v2.321zm1.584 3.388c.476 0 .843-.106 1.1-.319.264-.22.396-.524.396-.913s-.132-.693-.396-.913c-.264-.22-.635-.33-1.111-.33h-1.573v2.475h1.584zm7.405-9.35l-2.992 12.32h-1.221l2.992-12.32h1.221zm3.145 4.246c.55 0 1.019.136 1.408.407.388.271.66.63.814 1.078V35.86h1.265V44h-1.265v-1.408a2.132 2.132 0 01-.814 1.078c-.389.271-.858.407-1.408.407a2.717 2.717 0 01-1.419-.374 2.562 2.562 0 01-.968-1.078c-.235-.47-.352-1.023-.352-1.661 0-.63.117-1.18.352-1.65.234-.47.557-.829.968-1.078a2.71 2.71 0 011.419-.374zm.385 1.1c-.558 0-1.005.18-1.342.539-.33.352-.495.84-.495 1.463 0 .623.165 1.115.495 1.474.337.352.784.528 1.342.528.352 0 .667-.08.946-.242.278-.169.498-.403.66-.704.161-.3.242-.653.242-1.056a2.18 2.18 0 00-.242-1.045 1.712 1.712 0 00-.66-.704 1.791 1.791 0 00-.946-.253zm7.038-1.1c.55 0 1.019.136 1.408.407.388.271.663.63.825 1.078v-1.408h1.254V44h-1.254v-1.408a2.198 2.198 0 01-.825 1.078c-.389.271-.858.407-1.408.407a2.717 2.717 0 01-1.419-.374 2.562 2.562 0 01-.968-1.078c-.235-.47-.352-1.023-.352-1.661 0-.63.117-1.18.352-1.65.234-.47.557-.829.968-1.078a2.71 2.71 0 011.419-.374zm.385 1.1c-.558 0-1.005.18-1.342.539-.33.352-.495.84-.495 1.463 0 .623.165 1.115.495 1.474.337.352.784.528 1.342.528.352 0 .667-.08.946-.242.278-.169.498-.403.66-.704.161-.3.242-.653.242-1.056a2.18 2.18 0 00-.242-1.045 1.712 1.712 0 00-.66-.704 1.791 1.791 0 00-.946-.253zm5.322-1.023l1.815 4.455 1.683-4.455h1.397l-3.663 8.943h-1.397l1.309-3.025-2.552-5.918h1.408z" fill="#2F2E41" fill-opacity=".9"/><path d="M348.57 36.43c0 1.133.187 2.017.56 2.65.373.633 1.02.95 1.94.95.92 0 1.567-.317 1.94-.95.38-.633.57-1.517.57-2.65 0-1.12-.19-1.997-.57-2.63-.373-.633-1.02-.95-1.94-.95-.92 0-1.567.317-1.94.95-.373.627-.56 1.503-.56 2.63zm4.11 0c0 .58-.043 1.067-.13 1.46-.08.387-.237.697-.47.93-.233.233-.57.35-1.01.35-.433 0-.767-.117-1-.35-.233-.233-.393-.543-.48-.93-.08-.393-.12-.88-.12-1.46 0-.573.04-1.053.12-1.44.087-.387.247-.693.48-.92.233-.233.567-.35 1-.35.44 0 .777.117 1.01.35.233.227.39.533.47.92.087.387.13.867.13 1.44zm2.863 2.5V40h-1.1v-1.07h1.1zm.879-2.5c0 1.133.186 2.017.56 2.65.373.633 1.02.95 1.94.95.92 0 1.566-.317 1.94-.95.38-.633.57-1.517.57-2.65 0-1.12-.19-1.997-.57-2.63-.374-.633-1.02-.95-1.94-.95-.92 0-1.567.317-1.94.95-.374.627-.56 1.503-.56 2.63zm4.11 0c0 .58-.044 1.067-.13 1.46-.08.387-.237.697-.47.93-.234.233-.57.35-1.01.35-.434 0-.767-.117-1-.35-.234-.233-.394-.543-.48-.93-.08-.393-.12-.88-.12-1.46 0-.573.04-1.053.12-1.44.086-.387.246-.693.48-.92.233-.233.566-.35 1-.35.44 0 .776.117 1.01.35.233.227.39.533.47.92.086.387.13.867.13 1.44zm1.882 2.87c1.133-.76 2.04-1.513 2.72-2.26.68-.753 1.02-1.453 1.02-2.1 0-.4-.103-.72-.31-.96-.2-.247-.527-.37-.98-.37-.467 0-.82.15-1.06.45-.24.293-.373.7-.4 1.22h-.9c.047-.787.29-1.39.73-1.81.44-.427 1.007-.64 1.7-.64.66 0 1.183.177 1.57.53.387.353.58.853.58 1.5 0 .533-.173 1.077-.52 1.63a7.25 7.25 0 01-1.29 1.53 9.946 9.946 0 01-1.59 1.19h3.58v.75h-4.85v-.66zm10.014-5.69l-2.67 6.39h-.96l2.71-6.3h-3.7v-.79h4.62v.7zm4.149 2.34v.77h-4v-.77h4zm1.192-2.15v-.85h2.02V40h-.96v-6.2h-1.06zm3.311 2.63c0 1.133.186 2.017.56 2.65.373.633 1.02.95 1.94.95.92 0 1.566-.317 1.94-.95.38-.633.57-1.517.57-2.65 0-1.12-.19-1.997-.57-2.63-.374-.633-1.02-.95-1.94-.95-.92 0-1.567.317-1.94.95-.374.627-.56 1.503-.56 2.63zm4.11 0c0 .58-.044 1.067-.13 1.46-.08.387-.237.697-.47.93-.234.233-.57.35-1.01.35-.434 0-.767-.117-1-.35-.234-.233-.394-.543-.48-.93-.08-.393-.12-.88-.12-1.46 0-.573.04-1.053.12-1.44.086-.387.246-.693.48-.92.233-.233.566-.35 1-.35.44 0 .776.117 1.01.35.233.227.39.533.47.92.086.387.13.867.13 1.44zm3.252-3.58c.42 0 .767.137 1.04.41.28.267.42.623.42 1.07 0 .447-.136.803-.41 1.07-.273.267-.623.4-1.05.4-.426 0-.776-.133-1.05-.4-.273-.267-.41-.623-.41-1.07 0-.447.137-.803.41-1.07.274-.273.624-.41 1.05-.41zm3.98.09l-4.05 7.06h-.9l4.05-7.06h.9zm-4.8 1.39c0 .267.074.483.22.65.154.167.35.25.59.25a.776.776 0 00.6-.25c.154-.167.23-.383.23-.65s-.076-.483-.23-.65a.776.776 0 00-.6-.25.767.767 0 00-.59.25c-.146.167-.22.383-.22.65zm3.84 2.81c.427 0 .774.133 1.04.4.274.267.41.623.41 1.07 0 .447-.136.807-.41 1.08-.266.267-.613.4-1.04.4-.42 0-.77-.133-1.05-.4-.273-.273-.41-.633-.41-1.08 0-.447.137-.803.41-1.07.274-.267.624-.4 1.05-.4zm-.82 1.47c0 .267.074.483.22.65a.78.78 0 00.6.25c.24 0 .434-.083.58-.25.154-.167.23-.383.23-.65s-.076-.483-.23-.65a.734.734 0 00-.58-.25.78.78 0 00-.6.25c-.146.167-.22.383-.22.65zm8.132-3.75v.83h-5.2v-.83h5.2zm0 2.13v.83h-5.2v-.83h5.2z" fill="#2F2E41" fill-opacity=".7"/><path d="M348.572 54.062c0 1.24.22 2.211.66 2.915.44.697 1.173 1.045 2.2 1.045 1.027 0 1.76-.352 2.2-1.056.44-.704.66-1.672.66-2.904 0-1.225-.22-2.185-.66-2.882-.44-.704-1.173-1.056-2.2-1.056-1.027 0-1.76.348-2.2 1.045-.44.697-.66 1.661-.66 2.893zm4.466 0c0 .895-.11 1.58-.33 2.057-.22.477-.645.715-1.276.715-.638 0-1.067-.238-1.287-.715-.22-.477-.33-1.162-.33-2.057 0-.887.11-1.566.33-2.035.22-.47.649-.704 1.287-.704.631 0 1.056.238 1.276.715.22.47.33 1.144.33 2.024zm3.565 2.552V58h-1.419v-1.386h1.419zm.917-2.552c0 1.24.22 2.211.66 2.915.44.697 1.174 1.045 2.2 1.045 1.027 0 1.76-.352 2.2-1.056.44-.704.66-1.672.66-2.904 0-1.225-.22-2.185-.66-2.882-.44-.704-1.173-1.056-2.2-1.056-1.026 0-1.76.348-2.2 1.045-.44.697-.66 1.661-.66 2.893zm4.466 0c0 .895-.11 1.58-.33 2.057-.22.477-.645.715-1.276.715-.638 0-1.067-.238-1.287-.715-.22-.477-.33-1.162-.33-2.057 0-.887.11-1.566.33-2.035.22-.47.649-.704 1.287-.704.631 0 1.056.238 1.276.715.22.47.33 1.144.33 2.024zm2.256 2.959c1.188-.814 2.137-1.61 2.849-2.387.718-.785 1.078-1.51 1.078-2.178 0-.396-.099-.711-.297-.946-.191-.235-.503-.352-.935-.352-.448 0-.785.147-1.012.44-.228.286-.356.697-.385 1.232h-1.221c.051-.887.322-1.566.814-2.035.498-.47 1.133-.704 1.903-.704.755 0 1.345.202 1.771.605.432.396.649.946.649 1.65 0 .565-.176 1.137-.528 1.716a7.144 7.144 0 01-1.32 1.606c-.536.484-1.089.902-1.661 1.254h3.685v1.023h-5.39v-.924zm6.186-.693v-1.056l3.861-5.104h1.342v5.06h1.089v1.1h-1.089V58h-1.265v-1.672h-3.938zm4.026-4.664l-2.728 3.564h2.728v-3.564zm7.862-.528L379.423 58h-1.32l2.937-6.721h-3.85V50.19h5.126v.946zm3.435 2.926c0 1.24.22 2.211.66 2.915.44.697 1.173 1.045 2.2 1.045 1.026 0 1.76-.352 2.2-1.056.44-.704.66-1.672.66-2.904 0-1.225-.22-2.185-.66-2.882-.44-.704-1.174-1.056-2.2-1.056-1.027 0-1.76.348-2.2 1.045-.44.697-.66 1.661-.66 2.893zm4.466 0c0 .895-.11 1.58-.33 2.057-.22.477-.646.715-1.276.715-.638 0-1.067-.238-1.287-.715-.22-.477-.33-1.162-.33-2.057 0-.887.11-1.566.33-2.035.22-.47.649-.704 1.287-.704.63 0 1.056.238 1.276.715.22.47.33 1.144.33 2.024zm6.16 3.938l-1.485-2.145L393.594 58h-1.397l2.002-3.146-2.024-2.915h1.419l1.452 2.09 1.287-2.09h1.386l-2.002 3.058L397.796 58h-1.419zm6.338-4.004c.47.095.847.319 1.133.671.294.352.44.763.44 1.232 0 .645-.216 1.159-.649 1.54-.432.374-1.059.561-1.881.561h-3.091v-7.766h3.036c.778 0 1.372.176 1.782.528.418.345.627.821.627 1.43 0 .491-.128.891-.385 1.199-.256.3-.594.502-1.012.605zm-2.794-.418h1.551c.44 0 .774-.103 1.001-.308.235-.205.352-.491.352-.858 0-.36-.117-.642-.352-.847-.227-.205-.575-.308-1.045-.308h-1.507v2.321zm1.584 3.388c.477 0 .844-.106 1.1-.319.264-.22.396-.524.396-.913s-.132-.693-.396-.913c-.264-.22-.634-.33-1.111-.33h-1.573v2.475h1.584zm7.405-9.35l-2.992 12.32h-1.221l2.992-12.32h1.221zm3.145 4.246c.55 0 1.02.136 1.408.407.389.271.66.63.814 1.078V49.86h1.265V58h-1.265v-1.408a2.127 2.127 0 01-.814 1.078c-.388.271-.858.407-1.408.407a2.717 2.717 0 01-1.419-.374 2.575 2.575 0 01-.968-1.078c-.234-.47-.352-1.023-.352-1.661 0-.63.118-1.18.352-1.65.235-.47.558-.829.968-1.078a2.71 2.71 0 011.419-.374zm.385 1.1c-.557 0-1.004.18-1.342.539-.33.352-.495.84-.495 1.463 0 .623.165 1.115.495 1.474.338.352.785.528 1.342.528.352 0 .668-.08.946-.242.279-.169.499-.403.66-.704.162-.3.242-.653.242-1.056 0-.396-.08-.744-.242-1.045a1.7 1.7 0 00-.66-.704 1.789 1.789 0 00-.946-.253zm7.038-1.1c.55 0 1.019.136 1.408.407.389.271.664.63.825 1.078v-1.408h1.254V58h-1.254v-1.408a2.187 2.187 0 01-.825 1.078c-.389.271-.858.407-1.408.407a2.717 2.717 0 01-1.419-.374 2.568 2.568 0 01-.968-1.078c-.235-.47-.352-1.023-.352-1.661 0-.63.117-1.18.352-1.65s.557-.829.968-1.078a2.71 2.71 0 011.419-.374zm.385 1.1c-.557 0-1.005.18-1.342.539-.33.352-.495.84-.495 1.463 0 .623.165 1.115.495 1.474.337.352.785.528 1.342.528.352 0 .667-.08.946-.242.279-.169.499-.403.66-.704.161-.3.242-.653.242-1.056a2.18 2.18 0 00-.242-1.045 1.7 1.7 0 00-.66-.704 1.791 1.791 0 00-.946-.253zm5.322-1.023L427 56.394l1.683-4.455h1.397l-3.663 8.943h-1.397l1.309-3.025-2.552-5.918h1.408z" fill="#2F2E41" fill-opacity=".9"/></svg>