<svg width="204" height="172" fill="none" xmlns="http://www.w3.org/2000/svg"><g clip-path="url(#clip0_166_11012)"><path opacity=".12" d="M196.02 167.161c0 2.239-46.248 4.839-99.534 4.839C43.199 172 0 170.185 0 167.945c0-2.24 43.198-4.054 96.486-4.054 53.287 0 99.534 1.03 99.534 3.27z" fill="#32323F"/><path d="M47.28 97.709c-.833 39.471-3.385 69.191-1.648 70.297 1.737 1.105 4.15 1.779 3.784-5.374-.366-7.152 1.802-68.415 1.802-68.415s-3.805-2.75-3.937 3.492zm-6.92.157c-5.582 38.969-11.695 68.035-10.103 69.377 1.592 1.343 3.903 2.353 4.401-4.78.498-7.134 10.03-67.485 10.03-67.485s-3.446-3.273-4.328 2.888zm59.737-.124c2.111 39.313 5.627 68.808 3.923 70.003-1.705 1.195-4.097 1.997-3.962-5.153.135-7.15-4.015-68.117-4.015-68.117s3.724-2.948 4.054 3.267z" fill="#603A3E"/><path d="M35.474 4.384c-2.014 11.35-8.863 87.419-5.896 90.795 2.375 2.7 9.284 4.334 14.25 3.663 7.512-1.016-8.354-94.458-8.354-94.458z" fill="#3B3B4D"/><path d="M35.473 4.384c-1.909 34.565-.398 94.502 3.597 96.108 4.11 1.647 66.15 2.029 67.476-.963 1.325-2.991-4.142-97.473-9.113-97.805-4.972-.331-61.535-5.03-61.96 2.66z" fill="#F4F4F4"/><g opacity=".08" stroke="#231F20" stroke-width="1.16" stroke-miterlimit="10"><path opacity=".08" d="M46.938 15.321l.03 1.34.111 4.783.11 4.782.112 4.782.11 4.783.11 4.782.112 4.784.11 4.782.035 1.508m4.772-.057l-.002-.054-.035-1.508-.11-4.783-.111-4.782-.11-4.784-.112-4.782-.11-4.782-.111-4.783-.11-4.782-.032-1.34m5.613 36.27l-.002-.054-.035-1.51-.11-4.781-.112-4.784-.11-4.782-.111-4.782-.11-4.783-.11-4.782-.112-4.784-.031-1.339m5.612 36.27l-.002-.055-.034-1.508-.112-4.783-.11-4.782-.112-4.782-.11-4.784-.111-4.782-.11-4.782-.11-4.783-.032-1.34m5.612 36.27l-.001-.055-.035-1.509-.111-4.782-.11-4.783-.11-4.782-.112-4.782-.11-4.784-.11-4.782-.112-4.782-.031-1.34m5.61 36.269v-.053l-.035-1.51-.11-4.781-.112-4.784-.11-4.782-.11-4.783-.112-4.782-.11-4.782-.112-4.783-.03-1.34m5.612 36.27l-.001-.055-.035-1.508-.111-4.783-.11-4.782-.112-4.783-.11-4.782-.11-4.783-.112-4.783-.11-4.782-.031-1.34m5.61 36.27v-.054l-.036-1.51-.11-4.782-.111-4.783-.11-4.782-.11-4.782-.112-4.784-.11-4.782-.112-4.783-.03-1.34m5.612 36.271v-.055l-.037-1.508-.11-4.783-.11-4.782-.112-4.782-.11-4.784-.111-4.782-.11-4.783-.11-4.782-.032-1.34m5.612 36.27l-.001-.055-.035-1.509-.112-4.782-.11-4.782-.11-4.783-.111-4.782-.11-4.784-.112-4.782-.11-4.782-.032-1.34"/><path opacity=".08" d="M93.282 49.079h-.008l-2.606.06-4.77.112-4.77.11-4.769.112-4.77.11-4.77.111-4.769.112-4.77.11-4.77.112-4.77.11-2.771.066m48.205-5.907h-.009l-2.606.06-4.77.11-4.769.112-4.77.11-4.77.113-4.77.11-4.77.11-4.768.112-4.771.11-4.77.113-2.772.064m48.205-5.908h-.01l-2.604.062-4.77.11-4.77.111-4.77.112-4.77.11-4.77.11-4.769.113-4.77.11-4.77.112-4.77.11-2.771.066m48.2-5.908h-.007l-2.605.06-4.77.112-4.77.11-4.77.111-4.77.112-4.77.11-4.77.112-4.77.11-4.769.111-4.77.112-2.772.064m48.204-5.907l-.009.001-2.605.06-4.77.111-4.769.112-4.77.11-4.77.111-4.77.112-4.77.11-4.77.112-4.77.11-4.768.111-2.773.065m48.203-5.907h-.01l-2.605.06-4.77.112-4.77.11-4.77.112-4.77.11-4.769.111-4.77.112-4.77.11-4.77.112-4.77.11-2.772.065m48.205-5.906h-.01l-2.605.06-4.769.11-4.77.113-4.77.11-4.77.112-4.768.11-4.77.112-4.77.11-4.77.111-4.77.112-2.772.064M92.51 15.6l-.01.002-2.605.06-4.77.11-4.77.111-4.77.112-4.77.11-4.769.112-4.77.11-4.77.111-4.77.112-4.77.11-2.77.066"/></g><path opacity=".23" d="M79.691 43.008c0 .22 1.724.443 3.697.402 1.974-.04 3.572-.252 3.568-.473-.005-.222-1.609-.367-3.584-.328-1.975.04-3.685.177-3.68.398zm-7.867.16c0 .221 1.724.442 3.698.403 1.975-.04 3.57-.247 3.57-.474 0-.227-1.608-.367-3.582-.327-1.974.04-3.69.177-3.686.398zm-7.957.162c0 .221 1.723.443 3.697.403 1.974-.041 3.57-.252 3.567-.473-.003-.221-1.61-.368-3.583-.328-1.974.04-3.685.177-3.68.398zm-8.269.169c0 .22 1.723.443 3.697.402 1.974-.04 3.572-.252 3.567-.472-.005-.22-1.608-.368-3.584-.328-1.974.04-3.685.177-3.68.398zm-8.325.174c0 .221 1.724.444 3.698.403 1.973-.041 3.571-.253 3.567-.474-.005-.22-1.609-.366-3.582-.327-1.974.04-3.687.172-3.683.398z" fill="#32323F"/><path d="M78.333 24.01l.381 18.21c.01.486-.31.888-.716.896l-5.067.106c-.405.008-.742-.38-.752-.865l-.382-18.212c-.01-.485.311-.885.716-.894l5.068-.106c.405-.007.741.38.752.864z" fill="#0052FF"/><path opacity=".11" d="M78.332 24.01l.382 18.211c.009.485-.311.887-.716.895l-1.087.022c-.53-4.857-.812-9.294-.97-19.958l1.639-.035c.405-.007.742.38.752.864z" fill="#F4F3F2"/><path d="M86 18.551l.483 23.512c.01.486-.31.886-.716.895l-5.067.105c-.405.009-.742-.378-.752-.864l-.483-23.511c-.01-.487.311-.887.716-.895l5.068-.106c.405-.01.741.378.752.864z" fill="#0052FF"/><path opacity=".11" d="M86 18.551l.483 23.512c.009.486-.311.886-.716.895l-1.087.023c-.53-4.857-.91-14.597-1.07-25.26l1.638-.034c.405-.01.741.378.752.864z" fill="#F4F3F2"/><path d="M63.926 28.664l.296 14.057a.712.712 0 00.748.665l3.98-.084 1.088-.022a.706.706 0 00.72-.698l-.297-14.058a.71.71 0 00-.747-.664l-1.638.035-.849.017-2.58.053a.79.79 0 00-.357.095.672.672 0 00-.364.604z" fill="#0052FF"/><path opacity=".11" d="M70.464 28.527l.296 14.058a.712.712 0 01-.72.698l-1.087.023c-.507-3.747-.766-7.172-.875-15.404l1.639-.034a.705.705 0 01.747.66z" fill="#F4F3F2"/><path d="M62.3 33.783l.192 8.967a.711.711 0 01-.72.699l-5.067.104a.707.707 0 01-.749-.663l-.187-8.967a.712.712 0 01.72-.698l5.068-.105a.707.707 0 01.743.663z" fill="#0052FF"/><path opacity=".11" d="M62.297 33.783l.192 8.967a.71.71 0 01-.72.699l-1.086.022c-.507-3.747-.663-2.082-.773-10.314l1.639-.034a.707.707 0 01.748.66z" fill="#F4F3F2"/><path d="M54.059 38.192l.105 4.732a.708.708 0 01-.719.698l-5.068.106a.706.706 0 01-.748-.663l-.106-4.733a.712.712 0 01.72-.698l5.067-.104a.707.707 0 01.749.662z" fill="#0052FF"/><path opacity=".11" d="M54.059 38.192l.105 4.732a.71.71 0 01-.719.698l-1.086.023c-.507-3.746-.623-2.443-.687-6.078l1.638-.034a.706.706 0 01.749.659z" fill="#F4F3F2"/><path d="M86.28 28.682c-.495-.327-.811-3.008-.811-3.008C84.176 27 72.564 42.106 47.356 43.56c-1.751.101-1.228-2.66-.372-2.777 14.252-1.953 18.727-4.158 20.656-4.856 8.56-3.102 16.478-11.47 16.478-11.47s-.948-.414-2.454-.452c-.31-.007 4.401-2.194 5.74-1.34.787.97-.628 6.349-1.123 6.018z" fill="#F4AD00"/><path d="M83.231 70.103l-2.215 1.538-10.576 3.01c1.305-2.952 4.546-8.87 5.95-12.109-1.533-.678-2.836-.315-4.62-.315h-.606c-.04 0-.08 0-.116.007l-.116.007h-.016l-.102.007h-.005l-.116.009-.242.023-.116.013-.116.014h-.007l-.116.014-.097.014h-.034l-.086.013h-.04l-.08.013h-.02l-.077.012h-.01l-.051.01-.204.037-.116.023-.116.023-.13.03-.091.02h-.012l-.1.024h-.022l-.088.022H68.7l-.101.027-.1.025-.028.008-.085.025h-.02l-.103.03c-.1.03-.201.06-.301.093l-.049.015c-.143.047-.284.097-.425.148l-.08.03-.17.065-.085.034-.05.02-.073.03-.032.014-.116.048-.123.053-.126.056-.123.057-.123.058-.116.054-.02.01-.106.054h-.008l-.117.062-.116.059-.024.014-.096.052h-.012l-.09.051-.036.02-.064.036-.06.036c-.115.067-.229.136-.342.206l-.09.057-.017.01-.073.048-.153.1-.094.065h-.007l-.091.064-.04.027-.087.062-.02.014-.053.038h-.006l-.023.018-.09.066-.116.089-.053.04-.07.055-.068.054-.035.028-.016.012-.066.055-.017.014-.046.037-.058.048-.023.02-.034.029-.046.038-.03.028-.116.095-.06.054c-.03.026-.059.052-.087.08l-.058.051-.107.1-.053.05-.116.11-.053.053-.086.087-.053.054-.105.108-.037.039-.116.129-.047.052-.086.095-.048.054-.1.117-.026.031c-.04.048-.081.096-.116.144-.015.017-.03.034-.043.051l-.084.103-.043.055-.095.116-.024.031-.116.152-.039.052-.077.108-.041.057c-.029.041-.06.083-.087.125a7.092 7.092 0 00-.131.192l-.036.054a1.832 1.832 0 00-.072.117l-.04.06-.076.117a11.358 11.358 0 00-.123.205l-.036.06-.063.11-.038.068a3.607 3.607 0 00-.064.116l-.031.057a7.192 7.192 0 00-.086.16l-.037.072-.052.102a2.33 2.33 0 01-.04.08l-.049.1-.037.076-.03.065c-.02.042-.04.083-.058.125-.019.042-.034.074-.05.116l-.038.086-.069.162-.015.038a12.672 12.672 0 00-.374 1.034 12.505 12.505 0 00.768 9.341 12.457 12.457 0 005.837 5.682 12.412 12.412 0 008.09.852 12.438 12.438 0 006.886-4.344c1.712-2.136 2.62-4.917 2.62-7.87.002-1.318-.21-2.974-.863-4.451z" fill="#545466"/><path d="M83.707 73.895c0 2.954-.91 5.735-2.62 7.872l-2.021-1.783-7.8-6.024 9.515-3.017 2.456-.84c.42 1.254.47 2.394.47 3.792z" fill="#EDDCC3"/><path d="M76.959 62.49l-.103-.057.066.037.037.02zm4.125 19.277a12.439 12.439 0 01-7.203 4.413c-2.84.585-5.796.157-8.355-1.21a12.466 12.466 0 01-5.662-6.277 12.51 12.51 0 01.272-10.085 12.494 12.494 0 013.158-4.133l.08-.069.039-.031.01-.01.077-.063.1-.082c.15-.12.301-.236.457-.35l.078-.056h.007l.086-.062c.013-.01.026-.02.04-.028l.092-.064h.007l.094-.063.152-.1.073-.047.016-.01.092-.059.34-.206.061-.035.063-.036.036-.02.092-.05.01-.008.097-.052.025-.013.116-.06.116-.061h.007l.108-.054.02-.01.116-.054.123-.058.123-.057.125-.057.123-.053.116-.048.034-.013.072-.03.05-.02.085-.034c.056-.023.116-.044.169-.065l.082-.03c.14-.052.282-.101.425-.148l.048-.016c.1-.031.2-.063.301-.092l.103-.03H68l.087-.025.028-.007.098-.026.101-.026.025-.007.087-.02h.023l.099-.024h.011l.093-.021.13-.028.116-.024.116-.024.203-.037.052-.01h.01l.076-.012h.02l.081-.013h.038l.086-.013h.035l.098-.013.116-.015.116-.014.116-.012.242-.024.116-.009h.007l.102-.008h.016l.115-.008h.724a12.351 12.351 0 015.011 1.054 1999.948 1999.948 0 01-5.011 11.484l7.799 6.024 1.903 1.654z" fill="#8CC9DA"/><path d="M76.39 62.542a1996.894 1996.894 0 01-5.012 11.484c-2.618-3.041-6.024-7.097-8.081-9.548l.08-.068.038-.032.01-.01.077-.062.101-.082c.149-.12.3-.236.456-.35l.078-.057h.007l.086-.061c.014-.01.026-.02.04-.028l.092-.064.101-.069.152-.101.073-.047.016-.01.092-.058.34-.206.062-.035.062-.036.036-.021.092-.05.01-.007.098-.053.024-.012.116-.06.116-.061h.007l.108-.054.02-.01.116-.054.123-.058.123-.057.125-.057.123-.053.116-.048.034-.013.072-.03.051-.02.085-.034c.055-.023.116-.044.168-.065l.082-.03c.14-.053.282-.101.425-.148l.049-.016c.1-.032.2-.063.3-.092l.104-.03H68l.087-.025.028-.007.099-.027.1-.025.025-.007.087-.021h.023l.099-.023h.012l.092-.021.13-.028.116-.025.116-.023.204-.037.052-.01h.009l.077-.012h.02l.08-.013h.039l.086-.013h.035l.097-.013.116-.015.116-.014.116-.013.243-.023.116-.01h.007l.102-.007h.015l.116-.009h.723a12.37 12.37 0 015.006.994z" fill="#3B3B4C"/><path d="M71.38 74.026c-6.11-1.922-9.838-3.124-11.876-3.79a12.501 12.501 0 014.867-6.58l7.009 10.37z" fill="#0052FF"/><path d="M71.38 74.026c-3.31 4.692-5.788 8.16-7.195 10.115a12.474 12.474 0 01-4.847-7.025 12.508 12.508 0 01.798-8.505l11.243 5.415z" fill="#F4AD00"/><path d="M83.254 69.853l-2.421.999-9.36 3.057c1.297-2.93 3.587-8.201 5.011-11.484 1.58.7 2.998 1.722 4.163 3a12.512 12.512 0 012.607 4.428z" fill="#419F81"/><path opacity=".27" d="M77.727 68.84s3.721-5.243 4.313-5.184c.592.058 2.785 0 2.785 0M71.098 83.637c.033 2.034.166 5.849.166 5.849h1.562M61.902 78.734c-.832.581-5.114 2.622-5.114 2.622h-2.651m26.5-4.587c.896.508 4.194 1.9 4.194 1.9m-14.369-15.55c-.167-1.585-.45-3.646-.45-3.646l1.703-.763M63.3 67.188l-3.11-3.137h-2.98" stroke="#586063" stroke-width="2.2" stroke-linecap="round" stroke-linejoin="round"/><path opacity=".27" d="M85.874 63.282h3.87a.231.231 0 01.246.205v.599a.233.233 0 01-.246.206h-3.87a.232.232 0 01-.245-.206v-.6a.233.233 0 01.245-.204zm1.601 14.971h-1.688c-.1 0-.181.081-.181.182v.63c0 .1.08.182.18.182h1.689c.1 0 .18-.081.18-.182v-.63c0-.1-.08-.182-.18-.182zm-12.839-20.44H72.75a.203.203 0 00-.203.204v.704c0 .113.09.204.203.204h1.886a.203.203 0 00.203-.204v-.704a.203.203 0 00-.203-.204zM49.14 63.572h-3.062a.195.195 0 00-.195.195v.568c0 .108.087.196.195.196h3.062a.195.195 0 00.195-.196v-.568a.195.195 0 00-.195-.195zm3.763 17.188h-3.817a.243.243 0 00-.242.243v.707c0 .134.108.243.242.243h3.817a.243.243 0 00.242-.243v-.707a.243.243 0 00-.242-.243zm-10.345 0h2.334c.078 0 .142.097.142.218v.758c0 .116-.063.217-.142.217h-2.334c-.079 0-.144-.096-.144-.217v-.758c0-.12.065-.218.144-.218zm5.264 0h-2.026a.219.219 0 00-.218.218v.757c0 .12.098.218.218.218h2.026c.12 0 .218-.098.218-.218v-.757a.218.218 0 00-.218-.218zM91.15 63.317h1.972c.067 0 .116.083.116.184v.64c0 .103-.055.186-.116.186h-1.973c-.067 0-.122-.083-.122-.185V63.5c0-.101.055-.184.122-.184zm4.454 0h-1.713a.185.185 0 00-.184.185v.64c0 .102.083.185.184.185h1.713a.185.185 0 00.185-.185v-.64a.185.185 0 00-.185-.185zM91.712 78.22h-3.178a.202.202 0 00-.202.202v.589c0 .112.09.202.202.202h3.178c.112 0 .202-.09.202-.202v-.59a.202.202 0 00-.202-.202zm4.701 0h-2.939a.18.18 0 00-.181.181v.63c0 .1.081.182.181.182h2.94c.1 0 .18-.081.18-.181V78.4a.18.18 0 00-.18-.181zm-40.99-25.714l-2.417.045a.26.26 0 00-.255.265l.017.903a.26.26 0 00.264.256l2.417-.045a.26.26 0 00.255-.266l-.017-.903a.26.26 0 00-.264-.255zm6.068-.16l-4.554.085a.29.29 0 00-.283.295l.016.845a.29.29 0 00.294.284l4.554-.085a.29.29 0 00.283-.296l-.016-.844a.29.29 0 00-.294-.284zm6.741-.126l-4.21.08a.26.26 0 00-.255.265l.016.903a.26.26 0 00.265.255l4.21-.079a.26.26 0 00.256-.265l-.017-.903a.26.26 0 00-.265-.255zm4.753-.066l-2.416.045a.26.26 0 00-.256.266l.017.902a.26.26 0 00.265.256l2.417-.045a.26.26 0 00.255-.266l-.017-.902a.26.26 0 00-.265-.256zm6.073-.161l-4.554.086a.29.29 0 00-.284.295l.016.844a.29.29 0 00.294.285l4.554-.086a.29.29 0 00.284-.295l-.016-.844a.29.29 0 00-.294-.285zm6.736-.126l-4.21.08a.26.26 0 00-.255.264l.017.903a.26.26 0 00.265.256l4.21-.079a.26.26 0 00.255-.265l-.017-.903a.26.26 0 00-.264-.256zm-5.914 5.946h-3.553a.225.225 0 00-.225.226v.66c0 .125.1.226.225.226h3.553a.225.225 0 00.225-.226v-.66c0-.125-.1-.226-.225-.226zm4.124 0h-3.287a.202.202 0 00-.201.203v.706c0 .112.09.203.201.203h3.287a.203.203 0 00.202-.203v-.706a.202.202 0 00-.202-.203zM53.57 63.572h-2.833a.174.174 0 00-.175.174v.61c0 .096.078.175.175.175h2.833a.174.174 0 00.174-.175v-.61a.174.174 0 00-.174-.174zm2.325 0h-1.626a.175.175 0 00-.175.175v.608c0 .097.078.175.175.175h1.626a.175.175 0 00.175-.175v-.608a.175.175 0 00-.175-.175zm27.281 25.334h-3.324a.212.212 0 00-.211.212v.617c0 .117.094.212.21.212h3.325a.211.211 0 00.212-.212v-.617a.211.211 0 00-.212-.212zm-9.012 0h2.032c.07 0 .126.085.126.19v.66c0 .105-.056.19-.126.19h-2.032c-.07 0-.125-.085-.125-.19v-.66c0-.105.056-.19.125-.19zm4.588 0h-1.766a.19.19 0 00-.19.19v.661c0 .105.086.19.19.19h1.766a.19.19 0 00.19-.19v-.66a.19.19 0 00-.19-.19z" fill="#3B3B4C"/><path d="M103.673 34.756s-1.297 4.604-2.165 4.56c-.868-.044-1.929-.392-3.713-1.229-1.382-.647-2.594-1.35-4.102-1.136-1.142.188-2.608-.465-3.291-.883-2.022-1.227-2.776-2.933-2.418-5.27.178-1.163 4.05.034 5.615-.44 1.856-.687 1.72-.883 2.859.19 1.16 1.087 1.27 2.076 3.133 2.58 1.918.523 2.711 1.033 4.082 1.628zm42.597-7.926l5.377-1.513c.05-2.46-2.574-7.628-2.962-9.832-.427-2.417-3.403-4.644-3.403-4.644l-1.807 5.071.116.427s.414 4.242-.333 6.175c-.427 1.106-.17 2.742-1.346 4.434-.88 1.272 4.358-.118 4.358-.118z" fill="#EFAEA6"/><path opacity=".14" d="M143.631 17.252s.221 2.73-.123 4.337c3.341 1.528 5.114-2.274 4.271-3.22-.528-.59-2.449-1.968-2.449-1.968l-1.699.85z" fill="#1F1F3B"/><path d="M141.076 10.127c-.211 4.731-1.964 5.537-.357 5.641 1.238.082-.316 4.023 1.005 4.054 3.2.078 6.43-2.075 6.822-3.694.392-1.62.108-6.13.108-6.13l-7.578.13z" fill="#EFAEA6"/><path d="M144.86 11.979c-1.007.135-1.035.384-1.74.033-.706-.35.496-1.382-.826-1.596-1.321-.214-2.768-.285-2.927-1.862-.232-2.281 1.709-1.945 2.908-1.693.771.162.938-1.588 2.476-1.528 1.207.046 1.076.784 2.15.874.649.056 1.901-1.075 2.925-.268 1.897 1.496.356 3.374 1.939 4.976 1.846 1.868-2.321 5.934-2.816 5.455-.58-.562.233-2.526-.348-2.979-.88-.682-.978.095-1.699.823-.77.776-2.204.838-1.304-.657.901-1.493.173-1.7-.738-1.578z" fill="#1F1F3B"/><path d="M131.911 162.169c-.241-2.394-.061-8.461-.061-8.461l6.598-.233-.355 9.11-4.362 2.897-1.82-3.313z" fill="#fff"/><path d="M131.377 160.202c-.557-.427-1.797 1.07-2.052 2.076-.58 2.302-7.947 2.595-9.258 2.803-.677.107-1.768 3.49 1.6 3.476 2.914-.013 12.245-.02 15.434-.053a1.459 1.459 0 001.409-1.066c.573-2.223.644-7.437-.245-7.511-1.2.27-4.768 1.901-6.888.275z" fill="#1F1F3B"/><path d="M157.263 162.21c-.255-2.393-.116-8.461-.116-8.461l6.597-.267-.301 9.112-4.344 2.92-1.836-3.304z" fill="#fff"/><path d="M156.54 159.49c-.71.046-.58.712-.828 1.719-.564 2.307-8.942 3.803-10.253 4.022-.675.116-1.74 3.505 1.634 3.462 2.913-.037 12.244-.123 15.434-.184a1.455 1.455 0 001.399-1.077c.554-2.228.761-8.345-.129-8.41-1.2.279-4.024.259-7.257.468z" fill="#1F1F3B"/><path d="M166.706 83.037a87.594 87.594 0 01-.348 3.55c-.568 4.838-1.766 21.157-1.474 31.523.292 10.315-.619 34.44-.619 38.14-3.123 1.375-5.058.946-9.522 0 0 0-.794-19.909-1.673-37.34-.714-14.152-.921-12.733-3.513-30.755-.029.084-.661 1.838-1.582 4.538-1.972 5.765-5.256 15.84-6.833 23.133-2.458 11.38-1.176 41.041-2.205 42.064-3.066 1.81-8.254 1.986-9.639-.528 0 0-.587-36.681.504-42.426.739-3.906 6.978-42.187 8.37-52.475 0 0 27.483-6.009 28.325 3.404.106 1.166.15 2.337.133 3.508-.022 1.462.06 2.816.139 4.305.132 2.433.258 5.205-.063 9.359z" fill="#3B3B4D"/><path opacity=".46" d="M151.98 82.981v.016l-.078-.052c.027.01.053.022.078.036z" fill="#1F1F3B"/><path opacity=".54" d="M149.56 88.155c-.029.084-1.237 3.49-2.158 6.193l1.083-10.882s-.044.646 1.075 4.689z" fill="#1F1F3B"/><path opacity=".35" d="M166.866 80.208c-.232-.05-10.821-2.314-12.253-7.633 0 0 9.209.794 12.156 1.109.128 2.427.19 5.151.097 6.524z" fill="#1F1F3B"/><path d="M150.366 20.49c-2.38-.647-2.612 3.296-5.013 3.49-1.266.102-.987-.452-1.585-1.037-.368-.361-.714-.766-1.297-.167-11.845 12.187.489 42.915-1.018 45.059-1.233 1.754 8.791 5.585 15.085 4.041 8.634-2.11 8.109-11.519 7.86-13.309-.25-1.789-5.815-32.32-5.815-32.32s-4.369-2.32-8.217-5.757z" fill="#fff"/><path d="M99.583 33.128c.581-1.62 20.146 8.487 22.576 7.365 5.185-2.392 10.724-14.878 20.308-17.72 0 0 .295 2.04-.392 7.359-.9 7.025 3.046 12.029 2.243 20.535-1.034 11.001 1.666 22.236-1.034 24.717-1.575 1.445-3.757 1.722-6.392-1.02-4.145-4.317-1.42-18.48-1.044-21.842.147-1.31.471-3.074.748-4.903.348-2.274.999-4.979-.142-5.809-.327-.232-9.56 7.903-14.914 7.805-3.989-.073-21.236-8.37-21.932-8.867-1.995-1.412-.025-7.62-.025-7.62z" fill="#0052FF"/><path d="M160.137 77.55c-.232.429-.941.429-.586.72.355.29 4.684 2.203 4.684 2.203s.419.456.929-.294c.303-.444.479-.963.508-1.501l-5.535-1.129z" fill="#E79E9C"/><path d="M167.718 75.233c-3.775 2.366-8.796 2.443-12.12-1.07-2.753-2.908.034-6.675-2.004-13.46-1.132-3.764-2.887-10.515-3.262-15.2-.798-9.972-.188-22.197.035-25.017 0 0 5.997.148 10.923 5.296 2.071 2.161 3.373 8.415 3.597 12.987.071 1.5.116 2.706.134 3.723a63.232 63.232 0 01-.076 4.803c-.026.567-.054 1.154-.083 1.816-.029.749-.059 1.595-.079 2.62-.031 1.675.535 4.428 1.236 7.473 1.534 6.68 3.721 14.76 1.699 16.029z" fill="#0052FF"/><path d="M154.24 32.399c13.236 21.758 13.961 18.876 14.292 22.435.331 3.559-8.753 22.83-8.753 22.83s5.454 3.052 6.059 2.117c.604-.936 12.285-22.495 11.821-27.125-.512-5.106-14.745-24.929-16.42-26.878-1.676-1.949-8.91-2.784-8.832.698.078 3.483 1.833 5.923 1.833 5.923z" fill="#0052FF"/><path opacity=".18" d="M166.013 59.211c-4.972-4.457-5.322-15.74-5.322-15.74l4.165 5.646c-.029.748-.059 1.594-.079 2.62-.031 1.676.534 4.429 1.236 7.474zm.797 3.417c-.34 1.578-6.505 14.007-6.505 14.007l5.998-16.189.507 2.182z" fill="#1F1F3B"/><path opacity=".18" d="M146.129 25.35c.269-.123 1.922 5.083 4.96 7.214a7.846 7.846 0 002.785 1.28c2.959.66 9.886.614 13.717.756-.775-1.472-1.571-1.762-2.98-4.03-2.864.414-8.381.735-9.914.307a11.44 11.44 0 01-3.114-1.431c-1.77-1.14-3.189-2.64-4.241-3.912-.537-.648-.494-1.495-1.24-1.649-.994-.208-.319 1.62.027 1.465z" fill="#1F1F39"/><path d="M144.846 23.784c.107-.466.566-1.179 1.556-.975.746.153.756.465 1.292 1.119 1.612 1.95 4.089 4.428 7.357 5.343 3.269.914 11.588-2.21 16.338-.322 4.75 1.888 5.518 6.567 12.442 8.88 6.924 2.313 15.067.568 17.106 1.28 2.039.712 3.233 1.38 3.042 2.21-.19.831-1.46 2.03-3.032 2.376-1.571.347-14.7-.919-18.051-1.95-5.472-1.68-9.448-7.54-12.997-8.459-3.549-.918-11.481-.103-15.666-1.039-4.67-1.047-7.599-7.183-7.944-7.026-.345.157-.666.31-1.246.058-.405-.183-.305-1.026-.197-1.495z" fill="#F4AD00"/></g><defs><clipPath id="clip0_166_11012"><path fill="#fff" d="M0 0h204v172H0z"/></clipPath></defs></svg>