<svg width="157" height="149" fill="none" xmlns="http://www.w3.org/2000/svg"><g clip-path="url(#clip0_166_10962)"><path d="M153.01 148.999H3.57L0 148.025c10.506-8.231 23.149-20.429 32.456-28.446a158.17 158.17 0 014.052-3.383c3.426-2.746 6.113-4.527 7.655-4.746 4.419-.615 7.16-3.605 9.527-7.029 1.368-1.975 3.128-3.489 4.495-5.381.8-1.11 1.644-2.14 2.582-3.015a11.567 11.567 0 011.778-1.378 9.229 9.229 0 011.94-.924c.928-.314 2.069-.6 3.196-.6.654 0 1.083-.32 1.666-.559l.803-.037c5.574-.267 5.024-5.165 9.044-2.478.95.634 2.26-.947 3.495-.683 3.649.78 6.095 5.027 6.973 5.783.01.008.016.015.025.02 3.408 2.77 12.859 9.466 15.651 10.874 4.336 2.181 6.668 9.279 11.115 9.314.082 0 .172 0 .261-.009.728-.047 1.564.078 2.491.353h.011c3.703 1.106 7.918 4.622 12.378 9.218 6.88 7.088 14.342 16.744 21.416 24.08z" fill="#0052FF"/><path d="M131.595 124.921c-18.675 1.334-20.485-6.485-29.373-6.603-7.371-.097-16.48 3.233-24.194 3.174-6.668-.051-10.882-7.983-17.883-8.465-6.779-.47-8.123 5.762-23.641 3.169 3.427-2.746 6.113-4.527 7.656-4.746 4.418-.615 7.16-3.605 9.526-7.029 1.368-1.975 3.129-3.489 4.495-5.381.801-1.11 1.645-2.14 2.582-3.015a11.568 11.568 0 011.778-1.378 9.229 9.229 0 011.94-.924c.929-.314 2.07-.6 3.196-.6.654 0 1.083-.32 1.666-.559.273-.114.56-.192.854-.23 3.733-.467 6.218-3.057 7.036-4.428.642-1.075 1.324-2.508 2.99-2.48 3.73.067 5.348 2.029 10.374 9.495 2.296 3.412 11.455 6.819 14.961 10.111 3.544 3.328 6.311 8.113 10.895 10.325.076.037.172 0 .261-.009.729-.047 1.564.078 2.491.353h.011c3.703 1.109 7.919 4.625 12.379 9.22z" fill="#2F2E41"/><path d="M79.99 83.168c0-.731-.239-2.562-.239-2.562l-1.935.125.38 2.747 1.362.747.431-1.057z" fill="#fff"/><path d="M80.006 82.84c.164-.133.536.312.62.615.191.695 2.354.724 2.741.777.2.027.548 1.046-.44 1.07-.857.02-3.596.093-4.532.11a.43.43 0 01-.423-.313c-.186-.672-.251-2.256.01-2.285.354.074 1.415.539 2.024.027z" fill="#1F1F39"/><path d="M62.13 92.593c.322-.659 1.057-2.36 1.057-2.36l-1.926-.795-.874 2.629.89 1.279.853-.753z" fill="#fff"/><path d="M80.407 81.614c-.132.856-1.81.74-2.84.522-.388-.193-1.426-7.87-2.087-10.034-.156-.511-2.536-1.153-5.13-1.267l-.198-.008c-1.573-.054-3.226-.165-4.241-.208a9.69 9.69 0 00-.814-.01c-.12.006-.177-.012-.17.012.153.52 1.273 4.272 2.357 8.508.818 3.186-4.192 11.974-4.192 11.974-1.342-.008-3.19-.947-3.034-1.234.157-.288 3.74-8.024 3.425-10.288-.21-1.516-2.598-5.116-4.266-8.13-.81-1.463-1.733-3.63-1.886-4.047a10.53 10.53 0 01-.313-1.02c-.71-2.782 7.982-2.22 7.982-2.22 3.234 1.81 11.59 2.006 13.515 5.071 1.242 1.976 1.89 12.38 1.89 12.38z" fill="#3B3B4C"/><path opacity=".46" d="M62.754 69.87a.151.151 0 00.017-.024l-.017.023z" fill="#1F1F39"/><path opacity=".45" d="M58.245 69.505c.772-.988 2.668-2.49 2.572-3.66 0 0-2.486.494-3.708.877l1.136 2.783z" fill="#1F1F39"/><path opacity=".65" d="M70.543 70.809l-.193.026-.198-.008c-1.574-.054-3.226-.165-4.242-.208a3.399 3.399 0 00-.813-.01.82.82 0 00-.175.045 27.824 27.824 0 01-.363-1.166c.732-.033 3.655.308 5.984 1.32z" fill="#1F1F39"/><path d="M62.499 91.867c.201.054.125.247.137.56.026.72 2.352 1.646 2.717 1.79.188.073.293 1.145-.675.939-.837-.179-3.518-.741-4.434-.943a.427.427 0 01-.34-.402c-.028-.696.273-2.533.533-2.501.328.152 1.143.308 2.062.557z" fill="#1F1F39"/><path d="M71.768 43.922c-.858-2.016.573-1.583.376-2.881-.032-.213-1.555-.932-2.064-.16-.508.77-.444 2.169-.225 2.776.22.608 1.035.534 1.228.419.192-.116.685-.154.685-.154zm-11.879 7.667l1.692-.035s1.641-.056 1.275-.347c-.49-.39-.557-.889-.776-1.173a2.737 2.737 0 01-.36-.746 8.663 8.663 0 01-.276-1.022l-.004-.134-.245-.336-.721-.981s-.961.778-.875 1.519c.079.675.06 2.543.29 3.255z" fill="#EFAEA6"/><path opacity=".14" d="M61.718 49.288a8.663 8.663 0 01-.276-1.021l-.004-.135-.245-.335-.2-.035s-.438.57-.54.788c-.146.313.522 1.112 1.265.738z" fill="#1F1F39"/><path d="M59.67 49.621c.663-.3.909.875 1.614.823.372-.025.266-.18.41-.382.09-.125.172-.261.368-.107 3.991 3.139 1.8 12.921 2.337 13.497.438.473-2.3 2.067-4.197 1.883-2.603-.252-2.876-3.101-2.885-3.653-.01-.551.224-9.972.224-9.972a13.925 13.925 0 002.13-2.089z" fill="#fff"/><path d="M71.912 43.406c.034.255 1.706 7.47-.812 8.7-1.113.542-5.087 1.948-5.67 2.583-.444.484-.736 1.811-.534 2.478.164.537.338 1.053.44 1.44.263.995 1.694 5.132.686 6.613-.64.941-1.286.954-1.809.59-.9-.627-.62-4.123-1.42-7.385-.617-2.522.302-4.197-.279-6.272-.44-1.569-.448-2.195-.448-2.195 4.102.951 6.546.048 7.357-.39 1.042-.562-.328-5.373.028-5.75.144-.147 2.376-1.025 2.46-.412z" fill="#0052FF"/><path opacity=".14" d="M71.912 43.406c.034.255 1.706 7.47-.812 8.7-1.113.542-5.087 1.948-5.67 2.583-.444.484-.736 1.811-.534 2.478.164.537.338 1.053.44 1.44.263.995 1.694 5.132.686 6.613-.64.941-1.286.954-1.809.59-.9-.627-.62-4.123-1.42-7.385-.617-2.522.302-4.197-.279-6.272-.44-1.569-.448-2.195-.448-2.195 4.102.951 6.546.048 7.357-.39 1.042-.562-.328-5.373.028-5.75.144-.147 2.376-1.025 2.46-.412z" fill="#1F1F39"/><path d="M55.868 67.91c.534 1.254 3.907-.717 4.713-1.918.667-.997-.312-2.005-.028-4.136.144-1.076.327-2.918.279-4.315 0-.137-.012-.271-.02-.399a48.762 48.762 0 00-.38-3.3 71.145 71.145 0 00-.366-2.22 55.977 55.977 0 00-.398-1.998s-1.734.31-2.931 2.075a2.576 2.576 0 00-.323.832c-.066.284-.556 1.605-.42 2.935.163 1.605.358 2.76.49 3.72.142 1.062.128 2.14.042 3.896-.08 1.535-.936 4.169-.658 4.827z" fill="#0052FF"/><path opacity=".18" d="M58.242 53.259c.057.42 2.28 4.628 2.587 5.426 0-.137-.007-1.419-.016-1.546a48.759 48.759 0 00-.379-3.3l-2.192-.58z" fill="#1F1F39"/><path d="M61.263 45.275c.327.567 1.482 1.391 1.086 1.58-.396.188.685 1.197.27 1.413-1.003.524-2.478.439-2.841.007-.364-.432-.938-1.847-.938-1.847l2.422-1.153z" fill="#EFAEA6"/><path d="M60.478 46.351c.338-.117.384-.044.558-.262.175-.218-.361-.344.027-.617.387-.272.836-.52.654-1.025-.263-.732-.829-.33-1.171-.062-.221.17-.532-.337-1.012-.078-.375.203-.225.407-.552.603-.198.119-.762-.03-.967.376-.381.753.384 1.085.118 1.82-.31.86 1.61 1.448 1.696 1.224.1-.262-.447-.733-.328-.963.18-.346.328-.123.66-.015.36.116.825-.09.317-.404-.507-.314-.307-.49 0-.597zm13.354-2.346c-.201.5-.585.92-1.19 1.19-.06.026-.12.053-.184.076l-.226.082-.034.011-.222.083-.067.025c-.334.121-.655.236-.964.345h-.008c-.129.047-.256.091-.381.135l-.022.007-.246.086-.127.044-.197.069c-2.014.684-3.4 1.079-4.166 1.31-.113.032-.21.063-.298.09-.736.233-1.366.14-1.867-.152-1.583-.92-1.901-3.83-.462-4.729a2164.787 2164.787 0 015.523-3.323l.192-.116.032-.02a.082.082 0 00.021-.013.033.033 0 00.014-.008.152.152 0 00.027-.016 3.08 3.08 0 01.547-.17c.1-.022.202-.038.304-.049 2.626-.29 4.816 3.021 4.001 5.043z" fill="#1F1F39"/><path d="M74.362 43.836c-.225.535-.66.976-1.354 1.234l-.359.133-.19.07-.227.082-.034.012-.221.082-.07.025-.961.345h-.009l-.38.135-.023.007-.245.086-.128.045-.197.068c-2.009.69-3.124 1.012-3.802 1.217a4.235 4.235 0 01-.364.093c-.811.164-1.472.02-1.981-.314-1.584-1.034-1.68-3.877-.164-4.774a1285.073 1285.073 0 005.034-3.03l.193-.116.032-.02a.08.08 0 00.02-.013.032.032 0 00.015-.008.149.149 0 00.027-.016l.27-.165.257-.155c.107-.044.217-.083.328-.115 2.88-.835 5.451 2.91 4.533 5.092z" fill="#3B3B4C"/><path d="M83.811 42.695a2.114 2.114 0 01-.736.59 2.307 2.307 0 01-.266.113l-.225.082a80.84 80.84 0 01-2.338.79l-.225.072c-2.558.813-4.348 1.24-5.347 1.496-.17.043-.318.082-.443.116-.847.236-1.636.018-2.323-.484a4.535 4.535 0 01-.697-.636c-1.323-1.469-2.115-3.967-1.972-5.748 0-.022 0-.045.006-.067.072-.765.327-1.39.784-1.734.152-.115.596-.433 1.187-.852l.028-.02.061-.044.335-.238c2.024-1.436 5.164-3.65 5.164-3.65a2.7 2.7 0 01.95-.21c.275-.01.55.018.818.082l.065.016c2.846.721 5.64 5.185 5.727 8.26.029.82-.14 1.542-.553 2.066z" fill="#1F1F39"/><path d="M84.09 42.842a2.319 2.319 0 01-.61.323l-.381.135c-.098.036-.195.068-.29.101l-.224.083c-.867.3-1.642.562-2.338.789l-.226.072c-2.642.853-4.098 1.2-4.968 1.427a2.59 2.59 0 01-.379.069c-.726.076-1.411-.175-2.025-.638l-.006-.006a4.9 4.9 0 01-.655-.605c-1.32-1.442-2.174-3.835-2.16-5.627 0-.072 0-.144.006-.215.04-.828.28-1.506.763-1.865.099-.074.32-.233.622-.45.01-.007.019-.012.028-.02l.061-.043.335-.239c1.946-1.384 5.785-4.09 5.785-4.09a2.734 2.734 0 011.153-.204h.074c3.065.195 6.309 5.232 6.382 8.575.021 1.037-.26 1.912-.948 2.428z" fill="#3B3B4C"/><path d="M101.694 38.559c-.31.238-.655.427-1.022.562l-.269.1c-.334.124-.66.245-.982.361l-.741.267a130.56 130.56 0 01-5.683 1.893h-.015c-2.877.886-4.938 1.408-6.16 1.746l-.497.14c-1.145.34-2.234.177-3.227-.334l-.023-.011c-.717-.372-1.384-.925-1.986-1.602-2.172-2.44-3.508-6.481-3.336-9.416a7.83 7.83 0 01.029-.352c.126-1.204.527-2.188 1.255-2.749.14-.108.422-.319.812-.606l.009-.007c2.346-1.736 8.494-6.217 10.072-7.365l.373-.273a4.88 4.88 0 01.35-.137l.089-.029c5.473-1.76 12.142 7.437 12.481 13.561.099 1.804-.347 3.337-1.529 4.25z" fill="#1F1F39"/><path d="M104.048 34.022c.022 2.025-.67 3.704-2.351 4.536-.04.021-.082.04-.121.06-.426.195-.845.381-1.258.557a55.13 55.13 0 01-1.611.664l-.024.01a51.972 51.972 0 01-.942.362l-.054.02a54.088 54.088 0 01-3.548 1.186c-.392.117-.772.227-1.14.33l-.015.004c-2.765.76-4.77 1.092-5.756 1.384-1.112.329-2.17.185-3.138-.29a5.3 5.3 0 01-.278-.147 7.038 7.038 0 01-1.67-1.348c-1.52-1.624-2.65-4.032-3.176-6.353-.185-.8-.293-1.616-.322-2.438v-.188c0-.181 0-.359.011-.53.07-1.395.475-2.547 1.287-3.172.73-.561 5.432-3.997 8.526-6.255l.779-.567.682-.498.727-.53.09-.065.46-.337c1.38-.603 2.844-.484 4.272.133 1.243.538 2.455 1.452 3.564 2.597 2.842 2.946 4.968 7.413 5.006 10.875z" fill="#83BFD1"/><path d="M101.667 38.79c-.418.157-.827.307-1.227.453a222.387 222.387 0 01-2.677.957l-.03.011c-1.341.468-2.537.865-3.6 1.206-3.46 1.109-5.564 1.622-6.822 1.975-.161.045-.325.08-.491.106-1.01.158-1.973-.068-2.864-.564a6.578 6.578 0 01-.232-.138 7.734 7.734 0 01-1.653-1.424c-2.081-2.331-3.436-6.09-3.502-9.016-.005-.175 0-.349 0-.518.049-1.445.446-2.634 1.271-3.27l.01-.007c.9-.689 7.3-5.36 10.072-7.38l.727-.532.546-.396c5.567-2.433 12.661 7.327 13.008 13.713.127 2.263-.595 4.102-2.536 4.825z" fill="#3B3B4C"/><path d="M116.689 32.59c-.02.027-.039.055-.06.082-.092.13-.188.257-.285.383-.098.126-.192.247-.292.36a11.404 11.404 0 01-3.306 2.677c-11.746 6.364-5.482 4.35-7.359 5.029l-.469.164c-2.218.785-4.368.485-6.342-.54l-.04-.02a10.223 10.223 0 01-.88-.517 14.678 14.678 0 01-2.807-2.422c-.14-.153-.279-.31-.414-.47-2.055-2.4-3.71-5.514-4.754-8.651a26.084 26.084 0 01-.88-3.359 19.98 19.98 0 01-.34-2.895c0-.05-.004-.1-.005-.15v-.013a14.751 14.751 0 010-.873c0-.056 0-.112.005-.164v-.015c.093-2.235.721-4.096 2.002-5.195.123-.106.28-.226.469-.357 2.737-1.925 11.92-6.51 11.92-6.51a10.699 10.699 0 012.551-.941 9.052 9.052 0 011.072-.173c9.984-1.004 16.39 15.753 10.214 24.57z" fill="#1F1F39"/><path d="M125.335 34.98c-.13.07-.264.137-.401.198a36.74 36.74 0 01-1.195.507c-6.114 2.476-14.792 4.336-17.913 5.31a7.245 7.245 0 01-.438.124c-2.01.506-3.957.17-5.762-.754l-.044-.023-.092-.047a10.986 10.986 0 01-.781-.459 14.864 14.864 0 01-2.832-2.395 17.553 17.553 0 01-.42-.465c-2.128-2.432-3.846-5.604-4.937-8.806a26.094 26.094 0 01-.92-3.434 19.92 19.92 0 01-.355-2.896c0-.05-.004-.1-.005-.15v-.014a16.314 16.314 0 01-.006-.906v-.145c.072-2.085.606-3.851 1.698-4.988.097-.102.2-.2.306-.291C93.14 13.716 109.157.86 109.157.86c11.133-6.785 26.742 28.383 16.178 34.12z" fill="#3B3B4C"/><path opacity=".65" d="M125.336 34.98c-.13.07-.263.137-.401.198a33.98 33.98 0 01-1.195.507c-6.114 2.476-14.791 4.336-17.913 5.31a7.115 7.115 0 01-.438.124l-.469.165c-2.217.784-4.368.484-6.342-.541l-.04-.02a10.193 10.193 0 01-.852-.499 54.033 54.033 0 01-3.547 1.186c-3.46 1.109-5.564 1.623-6.822 1.976-.161.045-.325.08-.49.105-.186.052-.352.097-.497.142-1.146.338-2.236.175-3.229-.335l-.289.102a4.07 4.07 0 00-.225.082l-.163.056a69.27 69.27 0 01-2.046.69l-.132.042-.225.073c-2.642.853-4.099 1.2-4.968 1.427a2.592 2.592 0 01-.38.07c-.17.042-.317.081-.442.116-.847.235-1.636.016-2.323-.485-.333.122-.654.237-.962.345h-.009c-.128.048-.256.091-.382.135a.101.101 0 00-.021.007l-.246.086c-.042.015-.081.03-.126.045l-.2.067c-2.006.691-3.122 1.012-3.8 1.217a3.54 3.54 0 01-.364.093l-.298.09c-.736.234-1.366.142-1.868-.15l-.163-.145.348-.108c.932-.29 3.664-1.141 7.4-2.32l.773-.247L73.838 44l.529-.165c2.08-.658 4.356-1.386 6.729-2.149l.987-.318.063-.021c.737-.237 1.48-.477 2.228-.72l.666-.216a1194.29 1194.29 0 009.403-3.093c.34-.114.678-.228 1.016-.34.164-.056.327-.112.497-.164l.964-.325a538.09 538.09 0 006.31-2.174l.818-.291.164-.056c4.227-1.506 7.472-2.763 8.803-3.498a4.678 4.678 0 00.374-.228l2.814 2.112.428.32.73.546.514.106 4.413.905.49.099.232.294 1.677.258.649.097z" fill="#1F1F39"/><path d="M66.535 45.722c-.061-.26.642-1.144.498-1.292-.27-.274-.573.274-.962-.237-.3-.4.445-1.29-.168-1.228-1.435.145-1.8 1.213-1.077 2.208.563.773.31 1.563.623 2.304.312.741 1.544-.65 1.544-.65s-.34-.612-.458-1.105z" fill="#EFAEA6"/><path d="M58.971 50.35c3.892 1.336 10.02 7.502 6.005-3.563-.097-.265 1.91-1.518 2.077-1.117 7.21 17.337-7.363 8.935-9.075 8.346-.726-.247-1.349-2.654-.363-3.029.986-.374 1.356-.638 1.356-.638z" fill="#0052FF"/><path opacity=".18" d="M61.234 50.681c-.082-.029-.43 1.52-1.256 2.213a2.29 2.29 0 01-.772.439c-1.03.317-2.084.545-3.151.684.132-.54.102-.778.38-1.307.836.05 2.028-.054 2.46-.217.312-.12.603-.286.865-.493a5.525 5.525 0 001.13-1.235c.139-.202.105-.445.317-.509.285-.085.13.462.027.425z" fill="#1F1F39"/><path d="M61.595 50.291a.366.366 0 00-.474-.247c-.21.064-.207.156-.346.357-.417.604-1.071 1.384-1.993 1.728-.923.344-3.402-.355-4.727.31-1.326.665-1.434 2.04-3.377 2.88-1.943.842-4.336.537-4.909.793-.573.255-.9.48-.825.714.076.235.472.552.935.614.462.062 4.223-.63 5.166-1.01 1.54-.624 2.544-2.42 3.548-2.773.422-.15 1.076-.228 1.78-.298.969-.096 2.033-.173 2.72-.39 1.324-.419 2.02-2.27 2.123-2.233a.375.375 0 00.361-.014c.11-.056.06-.298.018-.43z" fill="#F4AD00"/><path opacity=".18" d="M62.448 44.114l43.66-31.151 1.099 5.362-44.844 26.47.085-.68z" fill="#fff"/><path d="M123.784 35.374c4.832-2.043 5.54-11.381 1.58-20.857-3.96-9.476-11.087-15.5-15.919-13.457-4.832 2.043-5.54 11.38-1.58 20.857 3.96 9.475 11.087 15.5 15.919 13.457z" fill="#1F1F39"/><path d="M125.823 18.152c.503 1.668.851 3.38 1.041 5.112.036.33.063.655.082.977.105 1.678.015 3.239-.271 4.61a10.7 10.7 0 01-.475 1.645c-.471 1.235-1.153 2.232-2.046 2.903-.058.043-.117.082-.176.127a4.58 4.58 0 01-2.64.794c-1.133 0-2.351-.372-3.588-1.062-.32-.18-.643-.38-.967-.601a17.309 17.309 0 01-2.825-2.478 22.8 22.8 0 01-1.253-1.465 27.054 27.054 0 01-1.053-1.435 30.243 30.243 0 01-1.791-2.981 33.444 33.444 0 01-2.043-4.725 30.122 30.122 0 01-1.265-5.02 24.037 24.037 0 01-.281-2.664c-.048-.92-.029-1.844.057-2.761.121-1.23.374-2.347.759-3.31.483-1.211 1.175-2.18 2.076-2.827l.095-.067a4.586 4.586 0 012.746-.793c1.146.026 2.373.42 3.616 1.137.737.431 1.433.928 2.08 1.486a20.845 20.845 0 012.83 2.98c.282.359.561.733.835 1.121a30.918 30.918 0 012.561 4.39l.055.115a33.065 33.065 0 011.841 4.792z" fill="#B7DFE5"/><path d="M98.684 15.404c1.943-.296 2.22-1.145 2.581-3.78.252 2.5.573 3.447 2.549 3.732-1.723.713-2.329.971-2.637 3.86-.424-2.925-.802-3.184-2.493-3.812z" fill="#fff"/></g><defs><clipPath id="clip0_166_10962"><path fill="#fff" d="M0 0h157v149H0z"/></clipPath></defs></svg>