<svg width="226" height="178" fill="none" xmlns="http://www.w3.org/2000/svg"><g clip-path="url(#clip0_166_13126)"><path opacity=".12" d="M0 161.231C0 168.988 53.32 178 114.758 178 176.195 178 226 171.709 226 163.95s-49.805-14.05-111.242-14.05C53.321 149.9 0 153.471 0 161.231z" fill="#32323F"/><path d="M67.854 80.14C58.27 75.242 46.3 69.2 46.3 69.2S1.09 87.023 5.166 89.634c4.077 2.612 24.111 8.289 24.111 8.289L67.854 80.14z" fill="#E8B985"/><path d="M67.856 80.14c9.143-11.542 12.022-14.433 12.022-14.433s71.733-2.081 70.444.419c-1.288 2.5-19.369 15.82-19.369 15.82l-63.097-1.807z" fill="#DBA877"/><path d="M38.652 107.758c-1.69-.994-11.248-6.196-9.375-9.838 1.874-3.64 32.324-17.72 39.377-17.85 17.264-.306 63.094.05 62.297 1.869-.798 1.818-20.12 13.193-22.276 17.355-2.155 4.162-70.023 8.465-70.023 8.465z" fill="#EAB573"/><path d="M78.68 106.686c-2.622 3.565-10.795 4.994-21.186 4.983-.633 0-1.274-.006-1.9-.018-3.585-.062-6.98-.301-9.935-.78l-.33-.053a28.957 28.957 0 01-4.642-1.139c-2.17-.756-3.81-1.76-4.709-3.062-.549-.796-.551-2.563-.548-3.552a1.843 1.843 0 01.08-.54 2.22 2.22 0 01.317-.63c.108-.153.23-.295.366-.425 1.853-1.848 6.957-3.097 13.555-3.62l.074-.007a89.849 89.849 0 013.612-.207 97.095 97.095 0 013.87-.07h.564c.375 0 .747.005 1.119.013.184 0 .37 0 .553.01l1.094.03c10.138.336 17.977 2.175 18.504 5.155.019.105.028.212.028.319-.004.742.14 2.74-.486 3.593z" fill="#DB9507"/><path d="M57.297 108.598c12.076 0 21.866-2.47 21.866-5.517s-9.79-5.517-21.866-5.517c-12.077 0-21.867 2.47-21.867 5.517s9.79 5.517 21.867 5.517z" fill="#F4AD00"/><path d="M45.657 110.871c-1.85-.297-3.527-.69-4.97-1.194.038-.571.124-1.475.146-2.975a40.5 40.5 0 004.905 1.062c.056.821-.002 2.104-.08 3.107z" fill="#F4BB47"/><path d="M55.594 111.651c-3.584-.062-6.98-.301-9.934-.78l-.33-.053c-.022-.67.122-1.849.144-3.111a87.46 87.46 0 0010.461.875c.05.757-.188 2.314-.34 3.069z" fill="#F2B225"/><path d="M78.675 103.277c-2.622 3.565-10.794 4.994-21.186 4.983-.639 0-1.274-.006-1.9-.018-3.591-.061-6.98-.3-9.936-.78l-.33-.054a28.83 28.83 0 01-4.64-1.14c-2.169-.755-3.809-1.76-4.709-3.063-.552-.796-.552-2.558-.552-3.55a1.836 1.836 0 01.08-.541c.072-.226.179-.438.317-.63.107-.153.23-.295.364-.424 1.855-1.85 6.958-3.098 13.557-3.622l.073-.006a89.316 89.316 0 014.698-.241 97.432 97.432 0 012.784-.035h.565c.374 0 .747.004 1.118.012.185 0 .37 0 .553.011.367.008.732.02 1.095.03 10.133.335 17.976 2.174 18.503 5.154.019.106.028.212.029.32-.002.739.144 2.742-.483 3.594z" fill="#DB9507"/><path d="M57.293 105.189c12.076 0 21.866-2.47 21.866-5.516 0-3.047-9.79-5.517-21.866-5.517-12.077 0-21.867 2.47-21.867 5.516 0 3.047 9.79 5.517 21.867 5.517z" fill="#F4AD00"/><path d="M45.653 107.462c-1.85-.297-3.527-.69-4.97-1.194.04-.571.125-1.475.146-2.975 1.612.453 3.25.806 4.906 1.057.056.825-.002 2.109-.082 3.112z" fill="#F4BB47"/><path d="M55.591 108.242c-3.59-.061-6.98-.3-9.935-.78l-.33-.054c-.022-.669.122-1.848.145-3.111a87.35 87.35 0 0010.455.875c.05.758-.187 2.315-.335 3.07z" fill="#F2B225"/><path d="M79.491 99.903c-2.622 3.565-10.795 4.994-21.185 4.984-.64 0-1.275-.007-1.901-.018-3.585-.062-6.979-.301-9.935-.78l-.33-.054a28.833 28.833 0 01-4.64-1.141c-2.17-.759-3.812-1.759-4.705-3.062-.55-.796-.552-2.563-.549-3.551a1.837 1.837 0 01.08-.541c.072-.225.18-.438.318-.63.108-.152.23-.295.365-.424 1.853-1.85 6.957-3.098 13.556-3.622l.074-.006a81.79 81.79 0 013.611-.207 96.678 96.678 0 013.87-.069h.565c.374 0 .747.004 1.118.013.185 0 .37.005.553.01.368.009.732.02 1.094.03 10.139.336 17.978 2.174 18.505 5.155.018.105.028.212.028.318-.01.741.134 2.745-.492 3.595z" fill="#DB9507"/><path d="M58.109 101.816c12.077 0 21.867-2.47 21.867-5.517s-9.79-5.517-21.867-5.517c-12.077 0-21.867 2.47-21.867 5.517s9.79 5.517 21.867 5.517z" fill="#F4AD00"/><path d="M46.47 104.089c-1.85-.298-3.527-.691-4.97-1.195.038-.57.125-1.474.146-2.975 1.611.454 3.25.807 4.904 1.057.056.826-.001 2.115-.08 3.113z" fill="#F4BB47"/><path d="M56.403 104.869c-3.584-.062-6.979-.301-9.934-.78l-.33-.053c-.022-.671.121-1.849.144-3.112a87.65 87.65 0 0010.461.876c.05.76-.187 2.313-.341 3.069z" fill="#F2B225"/><path d="M79.487 96.494c-2.622 3.565-10.794 4.995-21.185 4.984-.634 0-1.275-.006-1.901-.018-3.59-.062-6.98-.301-9.936-.78l-.33-.054a28.862 28.862 0 01-4.64-1.14c-2.169-.756-3.809-1.76-4.708-3.064-.548-.796-.55-2.562-.548-3.55a1.79 1.79 0 01.08-.541c.072-.225.179-.437.317-.629.107-.153.229-.296.364-.425 1.854-1.849 6.957-3.097 13.557-3.621.024 0 .048 0 .072-.008a93.678 93.678 0 012.018-.133 112.237 112.237 0 012.68-.107 97.07 97.07 0 012.785-.035h.565c.373 0 .746 0 1.118.013.185 0 .37 0 .552.01.368.009.732.02 1.095.03 10.133.336 17.977 2.174 18.504 5.155.018.105.028.212.028.319-.005.74.14 2.742-.487 3.594z" fill="#DB9507"/><path d="M58.105 98.407c12.077 0 21.867-2.47 21.867-5.517s-9.79-5.517-21.867-5.517c-12.077 0-21.867 2.47-21.867 5.517s9.79 5.517 21.867 5.517z" fill="#F4AD00"/><path d="M46.462 100.68c-1.85-.298-3.527-.69-4.97-1.195.04-.57.125-1.474.146-2.975 1.612.456 3.25.81 4.905 1.063.056.82-.002 2.104-.081 3.107z" fill="#F4BB47"/><path d="M56.4 101.46c-3.59-.062-6.98-.301-9.935-.78-.106-.018-.221-.035-.33-.054-.022-.67.122-1.848.145-3.111 3.466.5 6.96.793 10.46.875.05.758-.187 2.314-.34 3.07z" fill="#F2B225"/><path d="M79.496 92.989c-2.622 3.564-10.795 4.994-21.185 4.983a92.11 92.11 0 01-1.901-.019c-3.59-.06-6.98-.3-9.936-.779l-.329-.054a28.874 28.874 0 01-4.64-1.14c-2.176-.752-3.812-1.76-4.71-3.063-.55-.796-.552-2.562-.549-3.55a1.827 1.827 0 01.08-.541c.072-.226.179-.438.318-.63a2.82 2.82 0 01.364-.424c1.853-1.85 6.957-3.098 13.557-3.623l.072-.006a94.326 94.326 0 012.017-.134 94.688 94.688 0 012.682-.106c.91-.024 1.839-.036 2.784-.035h.564c.375 0 .747 0 1.118.013.185 0 .37 0 .553.01l1.094.029c10.139.337 17.978 2.174 18.505 5.155.018.106.028.212.028.32-.004.739.14 2.742-.486 3.594z" fill="#DB9507"/><path d="M58.113 94.902c12.077 0 21.867-2.47 21.867-5.517s-9.79-5.517-21.867-5.517c-12.077 0-21.867 2.47-21.867 5.517 0 3.046 9.79 5.517 21.867 5.517z" fill="#F4AD00"/><path d="M46.474 97.174c-1.85-.298-3.527-.691-4.97-1.194.039-.572.125-1.476.146-2.975 1.611.454 3.25.809 4.904 1.063.056.819-.001 2.103-.08 3.106z" fill="#F4BB47"/><path d="M56.408 97.953c-3.59-.06-6.98-.3-9.936-.779l-.33-.054c-.021-.67.122-1.849.145-3.111 3.466.5 6.96.793 10.46.876.052.756-.186 2.314-.34 3.068z" fill="#F2B225"/><path d="M79.493 89.58c-2.623 3.564-10.794 4.993-21.186 4.984a93.18 93.18 0 01-1.9-.02c-3.586-.06-6.98-.3-9.936-.778l-.329-.055a28.762 28.762 0 01-4.646-1.14c-2.17-.755-3.81-1.76-4.71-3.063-.547-.796-.55-2.563-.547-3.55a1.79 1.79 0 01.08-.541c.072-.225.178-.438.317-.63a2.88 2.88 0 01.364-.424c1.854-1.85 6.957-3.098 13.557-3.621.025 0 .048 0 .072-.007a93.678 93.678 0 012.018-.134 94.732 94.732 0 012.68-.107 94.647 94.647 0 012.786-.034h.564c.373 0 .746.005 1.118.013.185 0 .37.005.552.01l1.095.029c10.133.336 17.977 2.174 18.504 5.156.019.105.028.212.028.319 0 .74.146 2.741-.481 3.592z" fill="#DB9507"/><path d="M58.109 91.492c12.077 0 21.867-2.47 21.867-5.517s-9.79-5.517-21.867-5.517c-12.077 0-21.867 2.47-21.867 5.517s9.79 5.517 21.867 5.517z" fill="#F4AD00"/><path d="M46.47 93.766c-1.85-.299-3.527-.692-4.97-1.196.04-.57.125-1.474.146-2.975a40.87 40.87 0 004.905 1.058c.056.825-.002 2.11-.081 3.113z" fill="#F4BB47"/><path d="M56.403 94.545c-3.585-.06-6.98-.3-9.935-.78l-.329-.053c-.023-.67.12-1.85.144-3.112 3.465.501 6.956.793 10.455.876.056.757-.182 2.314-.335 3.069z" fill="#F2B225"/><path d="M79.503 85.816c-2.622 3.564-10.794 4.994-21.186 4.983-.633 0-1.274-.005-1.9-.018-3.586-.062-6.98-.3-9.936-.78l-.33-.053a28.752 28.752 0 01-4.64-1.141c-2.169-.755-3.809-1.76-4.709-3.063-.548-.796-.55-2.563-.548-3.55a1.785 1.785 0 01.08-.54c.072-.226.179-.439.317-.63.108-.154.23-.296.364-.426 1.854-1.849 6.958-3.097 13.557-3.621l.073-.007a85.961 85.961 0 013.612-.207 94.956 94.956 0 013.87-.068h.565c.374 0 .747.004 1.119.012.184 0 .368 0 .552.01l1.095.03c10.138.336 17.976 2.174 18.503 5.155.019.105.028.212.029.319-.001.74.14 2.743-.487 3.594z" fill="#DB9507"/><path d="M58.117 87.728c12.077 0 21.867-2.47 21.867-5.517s-9.79-5.517-21.867-5.517c-12.077 0-21.867 2.47-21.867 5.517s9.79 5.517 21.867 5.517z" fill="#F4AD00"/><path d="M46.478 90c-1.85-.297-3.528-.69-4.97-1.194.039-.57.124-1.474.145-2.975 1.612.456 3.25.81 4.906 1.063.056.82-.002 2.104-.081 3.107z" fill="#F4BB47"/><path d="M56.416 90.781c-3.586-.062-6.98-.3-9.936-.78l-.33-.053c-.021-.67.122-1.849.145-3.111 3.465.5 6.956.793 10.455.875.056.757-.181 2.315-.334 3.069z" fill="#F2B225"/><path d="M79.496 82.407C76.874 85.972 68.701 87.4 58.31 87.39c-.634 0-1.275 0-1.901-.018-3.585-.061-6.98-.3-9.935-.78l-.33-.053a28.741 28.741 0 01-4.64-1.141c-2.17-.756-3.81-1.76-4.71-3.063-.548-.795-.55-2.562-.548-3.55a1.784 1.784 0 01.08-.54 2.26 2.26 0 01.317-.63c.108-.154.23-.296.366-.426 1.853-1.848 6.956-3.097 13.555-3.62l.073-.007c.66-.053 1.333-.097 2.018-.134a94.973 94.973 0 012.68-.107 97.466 97.466 0 012.785-.035h.564c.375 0 .748.004 1.119.012.185 0 .37.006.552.01l1.095.03c10.138.336 17.977 2.175 18.504 5.155a1.9 1.9 0 01.028.319c-.004.74.14 2.743-.486 3.595z" fill="#DB9507"/><path d="M58.113 84.32c12.077 0 21.867-2.47 21.867-5.518 0-3.047-9.79-5.517-21.867-5.517-12.077 0-21.867 2.47-21.867 5.517s9.79 5.517 21.867 5.517z" fill="#F4AD00"/><path d="M46.475 86.592c-1.85-.297-3.529-.69-4.971-1.194.039-.57.125-1.475.146-2.975 1.612.453 3.25.806 4.905 1.057.061.825-.001 2.11-.08 3.112z" fill="#F4BB47"/><path d="M56.41 87.372c-3.583-.062-6.979-.3-9.933-.78l-.33-.053c-.023-.67.122-1.849.144-3.111 3.468.5 6.963.793 10.465.875.047.757-.19 2.318-.345 3.069z" fill="#F2B225"/><path d="M125.756 101.763c-2.622 3.564-10.795 4.994-21.186 4.983-.64 0-1.275-.006-1.901-.019-3.584-.06-6.979-.3-9.934-.779l-.33-.054a28.83 28.83 0 01-4.64-1.14c-2.17-.756-3.81-1.76-4.709-3.064-.549-.795-.551-2.561-.548-3.55a1.832 1.832 0 01.08-.54 2.2 2.2 0 01.317-.63c.108-.153.23-.295.366-.425 1.853-1.849 6.957-3.097 13.555-3.622.026 0 .049 0 .074-.006a93.678 93.678 0 012.017-.134 95.7 95.7 0 012.682-.106 97.022 97.022 0 012.783-.036h.564c.375 0 .748 0 1.119.013.185 0 .369 0 .552.01.369.01.733.019 1.095.03 10.138.335 17.977 2.174 18.504 5.155.018.105.028.212.028.319-.006.74.138 2.743-.488 3.595z" fill="#DB9507"/><path d="M104.371 103.675c12.076 0 21.866-2.47 21.866-5.517s-9.79-5.517-21.866-5.517c-12.077 0-21.867 2.47-21.867 5.517s9.79 5.517 21.867 5.517z" fill="#F4AD00"/><path d="M92.731 105.948c-1.85-.298-3.527-.692-4.97-1.194.039-.572.124-1.476.145-2.975a41.08 41.08 0 004.906 1.057c.06.824-.001 2.109-.08 3.112z" fill="#F4BB47"/><path d="M102.665 106.727c-3.585-.061-6.98-.3-9.935-.779l-.329-.054c-.023-.669.121-1.849.144-3.111 3.466.501 6.96.793 10.461.875.051.757-.187 2.315-.341 3.069z" fill="#F2B225"/><path d="M125.749 98.353c-2.622 3.565-10.794 4.994-21.186 4.983-.633 0-1.274 0-1.901-.018-3.59-.06-6.979-.299-9.935-.779l-.33-.054a28.825 28.825 0 01-4.64-1.141c-2.169-.755-3.809-1.759-4.709-3.062-.548-.796-.55-2.563-.548-3.55a1.845 1.845 0 01.08-.541c.072-.226.18-.438.317-.63a2.83 2.83 0 01.365-.425c1.853-1.848 6.957-3.097 13.556-3.62l.073-.007a93.678 93.678 0 012.017-.134 91.996 91.996 0 012.682-.107 94.922 94.922 0 012.783-.034h.565c.374 0 .747 0 1.119.012.184 0 .368 0 .552.01l1.095.03c10.133.335 17.976 2.174 18.503 5.155.019.106.028.212.029.32-.005.738.139 2.74-.487 3.592z" fill="#DB9507"/><path d="M104.367 100.266c12.076 0 21.867-2.47 21.867-5.517s-9.791-5.517-21.867-5.517c-12.077 0-21.867 2.47-21.867 5.517s9.79 5.517 21.867 5.517z" fill="#F4AD00"/><path d="M92.728 102.539c-1.85-.298-3.528-.691-4.97-1.195.039-.571.124-1.475.145-2.975 1.613.452 3.25.805 4.906 1.056.056.827-.002 2.111-.081 3.114z" fill="#F4BB47"/><path d="M102.662 103.318c-3.59-.06-6.98-.299-9.936-.779l-.33-.054c-.021-.669.122-1.849.145-3.111 3.467.5 6.96.793 10.461.876.051.756-.187 2.31-.34 3.068z" fill="#F2B225"/><path d="M126.565 94.98c-2.623 3.564-10.795 4.994-21.186 4.984-.64 0-1.276-.007-1.901-.02-3.584-.06-6.98-.3-9.934-.778l-.33-.055a28.872 28.872 0 01-4.64-1.14c-2.17-.755-3.81-1.76-4.71-3.063-.548-.796-.55-2.562-.547-3.55a1.833 1.833 0 01.08-.541 2.2 2.2 0 01.317-.63c.108-.152.23-.295.365-.424 1.854-1.85 6.958-3.099 13.556-3.623.025 0 .048 0 .074-.006A94.282 94.282 0 0199.726 86a94.594 94.594 0 012.681-.107c.911-.023 1.839-.035 2.784-.034h.564c.375 0 .748 0 1.118.013.185 0 .37 0 .553.01.368.009.733.018 1.095.029 10.138.336 17.977 2.174 18.504 5.156.018.105.028.212.028.318-.007.74.14 2.743-.488 3.595z" fill="#DB9507"/><path d="M105.183 96.893c12.077 0 21.867-2.47 21.867-5.517s-9.79-5.517-21.867-5.517c-12.077 0-21.867 2.47-21.867 5.517s9.79 5.517 21.867 5.517z" fill="#F4AD00"/><path d="M93.544 99.166c-1.85-.299-3.527-.692-4.97-1.195.038-.571.124-1.476.145-2.975 1.612.454 3.25.809 4.905 1.063.056.819 0 2.104-.08 3.107z" fill="#F4BB47"/><path d="M103.477 99.945c-3.584-.061-6.98-.3-9.934-.78l-.33-.053c-.023-.67.122-1.85.144-3.112 3.467.501 6.96.793 10.461.876.051.756-.187 2.314-.341 3.069z" fill="#F2B225"/><path d="M126.562 91.57c-2.623 3.565-10.794 4.994-21.186 4.984-.639 0-1.275 0-1.901-.018-3.59-.06-6.98-.3-9.935-.78l-.33-.053a28.773 28.773 0 01-4.64-1.142c-2.17-.754-3.81-1.758-4.71-3.062-.547-.796-.55-2.563-.547-3.55a1.79 1.79 0 01.08-.541c.072-.225.179-.438.317-.629a2.82 2.82 0 01.364-.425c1.853-1.849 6.957-3.097 13.557-3.621l.073-.007a82.268 82.268 0 013.611-.206c.359-.014.721-.024 1.087-.035a94.944 94.944 0 012.784-.034h.565c.374 0 .746.006 1.118.013.185 0 .369.005.553.01l1.095.03c10.138.335 17.976 2.173 18.503 5.155.018.105.028.212.028.319-.005.738.14 2.741-.486 3.592z" fill="#DB9507"/><path d="M105.175 93.483c12.077 0 21.867-2.47 21.867-5.517s-9.79-5.517-21.867-5.517c-12.076 0-21.866 2.47-21.866 5.517s9.79 5.517 21.866 5.517z" fill="#F4AD00"/><path d="M93.536 95.76c-1.85-.3-3.527-.693-4.97-1.196.04-.57.125-1.475.146-2.975a40.76 40.76 0 004.906 1.056c.056.824-.002 2.109-.082 3.114z" fill="#F4BB47"/><path d="M103.474 96.536c-3.59-.06-6.98-.3-9.935-.779l-.33-.054c-.022-.67.122-1.85.145-3.111 3.465.5 6.956.793 10.455.875.056.757-.182 2.314-.335 3.069z" fill="#F2B225"/><path d="M122.002 91.226c-2.622 3.565-10.795 4.994-21.186 4.984-.633 0-1.274 0-1.9-.018-3.585-.062-6.98-.3-9.935-.78l-.33-.053a28.752 28.752 0 01-4.64-1.142c-2.17-.754-3.81-1.76-4.709-3.062-.549-.796-.55-2.563-.548-3.551a1.833 1.833 0 01.08-.54c.072-.226.179-.439.317-.63a2.91 2.91 0 01.366-.425c1.853-1.85 6.957-3.098 13.555-3.621l.074-.007a94.608 94.608 0 017.482-.275h.564c.375 0 .748.004 1.119.012a174.73 174.73 0 011.647.04c10.138.336 17.978 2.174 18.505 5.155.018.105.027.212.027.318-.006.741.138 2.744-.488 3.595z" fill="#DB9507"/><path d="M100.617 93.139c12.076 0 21.867-2.47 21.867-5.517s-9.791-5.517-21.867-5.517c-12.077 0-21.867 2.47-21.867 5.517s9.79 5.517 21.867 5.517z" fill="#F4AD00"/><path d="M88.978 95.412c-1.85-.298-3.528-.69-4.97-1.195.038-.57.123-1.474.145-2.975 1.611.455 3.25.81 4.905 1.063.056.82-.001 2.104-.08 3.107z" fill="#F4BB47"/><path d="M98.915 96.192c-3.585-.062-6.98-.3-9.935-.78l-.329-.053c-.023-.67.121-1.85.144-3.112 3.466.501 6.96.793 10.46.876.052.756-.186 2.317-.34 3.069z" fill="#F2B225"/><path d="M121.999 87.817c-2.622 3.565-10.794 4.995-21.186 4.984-.633 0-1.274-.007-1.9-.018-3.591-.062-6.98-.3-9.936-.78l-.33-.053a28.865 28.865 0 01-4.64-1.142c-2.169-.755-3.809-1.76-4.709-3.062-.548-.796-.55-2.563-.548-3.551 0-.143.017-.286.05-.425l.03-.116c.072-.225.18-.437.317-.629.108-.153.23-.296.365-.425 1.854-1.849 6.957-3.097 13.556-3.621l.073-.007a81.823 81.823 0 013.612-.207 97.062 97.062 0 013.87-.069h.565c.374 0 .747.004 1.119.013.184 0 .368.005.552.01.368.009.732.02 1.095.03 10.133.336 17.976 2.174 18.503 5.155.019.105.029.212.029.319-.005.74.139 2.742-.487 3.594z" fill="#DB9507"/><path d="M100.613 89.73c12.077 0 21.867-2.47 21.867-5.517s-9.79-5.517-21.867-5.517c-12.077 0-21.867 2.47-21.867 5.517s9.79 5.517 21.867 5.517z" fill="#F4AD00"/><path d="M88.974 92.003c-1.85-.298-3.528-.69-4.97-1.195.039-.57.124-1.474.146-2.975 1.611.456 3.25.81 4.905 1.063.056.82-.002 2.104-.081 3.107z" fill="#F4BB47"/><path d="M98.908 92.784c-3.59-.062-6.98-.3-9.936-.78l-.33-.053c-.021-.67.122-1.849.146-3.111 3.466.5 6.959.793 10.46.875.05.756-.187 2.312-.34 3.069z" fill="#F2B225"/><path d="M125.253 83.927c-2.622 3.564-10.794 4.994-21.186 4.984-.633 0-1.274-.007-1.901-.018-3.59-.062-6.98-.301-9.935-.78-.106-.02-.22-.035-.33-.054a28.875 28.875 0 01-4.64-1.14c-2.169-.756-3.809-1.76-4.709-3.064-.548-.796-.55-2.562-.548-3.55a1.843 1.843 0 01.08-.541c.072-.225.18-.438.317-.629.107-.154.23-.296.365-.425 1.853-1.849 6.957-3.097 13.556-3.621.025 0 .048 0 .073-.008a94.316 94.316 0 012.017-.134 110.75 110.75 0 012.681-.106 97.507 97.507 0 012.784-.035h.565c.374 0 .747 0 1.119.013.184 0 .368 0 .552.01.367.009.732.02 1.095.03 10.138.336 17.976 2.173 18.503 5.155.019.105.028.212.029.319-.005.74.139 2.742-.487 3.594z" fill="#DB9507"/><path d="M103.867 85.84c12.076 0 21.867-2.47 21.867-5.517s-9.791-5.517-21.867-5.517C91.79 74.806 82 77.276 82 80.323s9.79 5.517 21.867 5.517z" fill="#F4AD00"/><path d="M92.228 88.109c-1.85-.298-3.528-.691-4.97-1.195.039-.572.124-1.475.145-2.975 1.613.455 3.25.81 4.906 1.063.056.823-.002 2.108-.081 3.107z" fill="#F4BB47"/><path d="M102.166 88.893c-3.591-.062-6.98-.301-9.936-.78-.105-.02-.22-.035-.33-.055-.021-.669.122-1.847.145-3.11 3.465.5 6.956.792 10.455.875.055.758-.182 2.314-.334 3.07z" fill="#F2B225"/><path d="M125.248 80.519c-2.623 3.563-10.795 4.994-21.187 4.983-.634 0-1.275-.006-1.901-.018-3.584-.062-6.98-.3-9.934-.78-.106-.02-.222-.035-.33-.054a28.86 28.86 0 01-4.647-1.14c-2.169-.756-3.809-1.76-4.709-3.064-.548-.796-.55-2.562-.548-3.55a1.79 1.79 0 01.081-.541c.072-.225.178-.437.317-.629.107-.153.23-.296.365-.425 1.853-1.849 6.956-3.097 13.556-3.622.025 0 .048 0 .072-.007a93.977 93.977 0 014.699-.24c.915-.024 1.843-.035 2.785-.035h.564c.374 0 .747 0 1.118.013.185 0 .37 0 .552.01l1.095.03c10.133.336 17.978 2.173 18.505 5.155.018.105.027.212.027.319.001.74.146 2.742-.48 3.594z" fill="#DB9507"/><path d="M103.863 82.431c12.077 0 21.867-2.47 21.867-5.517s-9.79-5.517-21.867-5.517c-12.077 0-21.867 2.47-21.867 5.517s9.79 5.517 21.867 5.517z" fill="#F4AD00"/><path d="M92.225 84.708c-1.85-.298-3.528-.692-4.971-1.194.039-.572.124-1.476.146-2.975 1.612.452 3.25.805 4.905 1.057.056.82-.001 2.105-.08 3.112z" fill="#F4BB47"/><path d="M102.161 85.484c-3.584-.062-6.98-.3-9.934-.78-.106-.02-.222-.035-.33-.054-.023-.67.121-1.85.144-3.111 3.466.5 6.959.793 10.46.875.052.758-.186 2.314-.34 3.07z" fill="#F2B225"/><path d="M93.638 98.848c-2.622 3.565-10.795 4.994-21.187 4.984-.638 0-1.274-.007-1.9-.018-3.585-.062-6.98-.301-9.935-.78-.105-.018-.221-.035-.33-.055a28.797 28.797 0 01-4.646-1.14c-2.169-.755-3.81-1.759-4.709-3.063-.548-.796-.55-2.562-.548-3.55 0-.144.017-.286.05-.425.01-.039.019-.078.03-.116.072-.225.18-.438.317-.63.107-.153.23-.295.364-.424 1.855-1.85 6.958-3.098 13.557-3.621.025 0 .049 0 .073-.008a92.956 92.956 0 013.612-.206 102.895 102.895 0 013.871-.07h.564c.374 0 .747 0 1.118.014.185 0 .37 0 .553.01l1.095.029c10.138.337 17.977 2.175 18.503 5.156.019.105.028.212.029.318 0 .74.145 2.743-.48 3.595z" fill="#DB9507"/><path d="M72.257 100.761c12.077 0 21.867-2.47 21.867-5.517s-9.79-5.517-21.867-5.517c-12.076 0-21.866 2.47-21.866 5.517s9.79 5.517 21.866 5.517z" fill="#F4AD00"/><path d="M60.615 103.034c-1.85-.298-3.528-.691-4.97-1.195.039-.57.124-1.475.145-2.975 1.612.455 3.25.81 4.906 1.063.056.819-.002 2.101-.08 3.107z" fill="#F4BB47"/><path d="M70.552 103.814c-3.585-.062-6.98-.301-9.935-.78-.105-.018-.222-.035-.33-.055-.023-.669.121-1.847.144-3.11a87.6 87.6 0 0010.455.875c.056.753-.18 2.314-.334 3.07z" fill="#F2B225"/><path d="M93.635 95.44c-2.622 3.564-10.795 4.995-21.186 4.984-.64 0-1.275-.006-1.9-.018-3.585-.062-6.98-.301-9.935-.78-.106-.02-.222-.035-.33-.054a28.872 28.872 0 01-4.64-1.14c-2.17-.756-3.81-1.76-4.709-3.064-.549-.796-.551-2.562-.548-3.55a1.832 1.832 0 01.08-.54 2.2 2.2 0 01.317-.63c.108-.153.23-.295.366-.425 1.853-1.849 6.957-3.097 13.555-3.621l.074-.008a94.282 94.282 0 012.017-.133 94.676 94.676 0 012.681-.107 97.037 97.037 0 012.784-.035h.564c.375 0 .748.005 1.119.013.184 0 .37.005.552.01l1.095.03c10.138.336 17.977 2.173 18.504 5.155.019.105.028.212.028.319-.007.738.138 2.744-.488 3.594z" fill="#DB9507"/><path d="M72.25 97.352c12.076 0 21.866-2.47 21.866-5.517s-9.79-5.517-21.866-5.517c-12.077 0-21.867 2.47-21.867 5.517s9.79 5.517 21.867 5.517z" fill="#F4AD00"/><path d="M60.61 99.625c-1.85-.298-3.527-.69-4.97-1.194.039-.572.124-1.476.145-2.976 1.613.454 3.25.81 4.906 1.063.056.82-.001 2.104-.08 3.107z" fill="#F4BB47"/><path d="M70.548 100.405c-3.585-.062-6.98-.301-9.935-.78-.105-.02-.221-.035-.33-.055-.023-.669.122-1.848.144-3.11 3.467.5 6.96.792 10.462.875.05.762-.187 2.314-.341 3.07z" fill="#F2B225"/><path d="M96.674 91.46c-2.622 3.564-10.795 4.994-21.186 4.983-.633 0-1.274-.006-1.9-.019-3.585-.06-6.98-.3-9.935-.779l-.33-.054a28.883 28.883 0 01-4.64-1.14c-2.17-.755-3.81-1.76-4.709-3.063-.549-.796-.551-2.562-.548-3.55a1.827 1.827 0 01.08-.541c.072-.226.179-.438.317-.63.108-.153.23-.295.366-.424 1.853-1.85 6.957-3.099 13.555-3.623.026 0 .049 0 .074-.006a93.669 93.669 0 012.017-.134 94.73 94.73 0 012.682-.107 101.6 101.6 0 012.783-.034h.564c.375 0 .748 0 1.119.012.184 0 .37 0 .552.011.369.009.733.018 1.095.029 10.138.335 17.977 2.174 18.504 5.155.019.106.028.212.028.32-.012.739.133 2.742-.488 3.594z" fill="#DB9507"/><path d="M75.285 93.373c12.076 0 21.867-2.47 21.867-5.517s-9.79-5.517-21.867-5.517c-12.077 0-21.867 2.47-21.867 5.517s9.79 5.517 21.867 5.517z" fill="#F4AD00"/><path d="M63.646 95.645c-1.85-.298-3.528-.691-4.97-1.194.038-.572.123-1.476.145-2.975 1.612.452 3.25.805 4.905 1.057.056.825-.001 2.11-.08 3.112z" fill="#F4BB47"/><path d="M73.579 96.424c-3.584-.06-6.98-.3-9.934-.779l-.33-.054c-.023-.67.122-1.849.144-3.111 3.466.5 6.96.793 10.461.876.048.756-.187 2.314-.341 3.068z" fill="#F2B225"/><path d="M96.663 88.05c-2.622 3.565-10.794 4.994-21.185 4.984-.634 0-1.275 0-1.901-.019-3.591-.06-6.98-.3-9.936-.778l-.33-.055a28.752 28.752 0 01-4.64-1.14c-2.169-.755-3.809-1.76-4.709-3.063-.548-.796-.55-2.563-.548-3.55a1.784 1.784 0 01.081-.541c.071-.225.178-.438.316-.63a2.83 2.83 0 01.365-.424c1.854-1.85 6.957-3.098 13.556-3.621l.073-.007a94.326 94.326 0 012.017-.134 114.747 114.747 0 012.681-.107 94.96 94.96 0 012.784-.034h.565c.374 0 .747.005 1.119.013.185 0 .37 0 .552.01l1.095.029c10.138.336 17.977 2.174 18.503 5.156.02.105.029.212.029.318-.005.739.14 2.742-.487 3.593z" fill="#DB9507"/><path d="M75.28 89.963c12.078 0 21.868-2.47 21.868-5.517s-9.79-5.517-21.867-5.517c-12.077 0-21.867 2.47-21.867 5.517s9.79 5.517 21.867 5.517z" fill="#F4AD00"/><path d="M63.642 92.237c-1.85-.299-3.528-.692-4.97-1.196.039-.57.125-1.475.146-2.975a40.67 40.67 0 004.905 1.056c.056.827.003 2.112-.081 3.115z" fill="#F4BB47"/><path d="M73.576 93.016c-3.59-.061-6.98-.3-9.936-.78l-.33-.053c-.021-.671.122-1.85.146-3.112 3.464.5 6.955.793 10.455.876.058.756-.182 2.314-.335 3.069z" fill="#F2B225"/><path d="M97.479 84.677c-2.623 3.564-10.795 4.994-21.186 4.984-.634 0-1.275-.007-1.9-.02-3.585-.06-6.98-.299-9.935-.778-.106-.02-.221-.036-.33-.054a28.874 28.874 0 01-4.64-1.14c-2.17-.756-3.81-1.76-4.709-3.064-.55-.796-.551-2.562-.548-3.55a1.826 1.826 0 01.08-.54 2.2 2.2 0 01.317-.63 2.95 2.95 0 01.365-.425c1.854-1.848 6.958-3.097 13.556-3.621.025 0 .048 0 .074-.007a93.678 93.678 0 012.017-.133 95.748 95.748 0 012.681-.108c.912-.023 1.84-.034 2.784-.034h.564c.375 0 .748.005 1.118.013.185 0 .37 0 .554.01.367.009.732.019 1.094.03 10.138.335 17.977 2.173 18.504 5.155.019.105.028.212.028.319-.007.738.138 2.741-.488 3.593z" fill="#DB9507"/><path d="M76.097 86.59c12.077 0 21.867-2.47 21.867-5.517s-9.79-5.517-21.867-5.517c-12.076 0-21.866 2.47-21.866 5.517s9.79 5.517 21.866 5.517z" fill="#F4AD00"/><path d="M64.458 88.863c-1.85-.299-3.527-.692-4.97-1.194.038-.572.124-1.476.146-2.976 1.612.453 3.25.806 4.904 1.058.056.824 0 2.109-.08 3.112z" fill="#F4BB47"/><path d="M74.391 89.642c-3.584-.06-6.98-.3-9.934-.779-.106-.02-.22-.036-.33-.054-.022-.67.122-1.85.144-3.111 3.467.5 6.96.793 10.461.875.05.757-.187 2.314-.34 3.069z" fill="#F2B225"/><path d="M97.473 81.267c-2.622 3.566-10.794 4.995-21.186 4.984-.633 0-1.274 0-1.9-.018-3.591-.062-6.98-.3-9.936-.779l-.33-.054a28.752 28.752 0 01-4.64-1.141c-2.169-.755-3.81-1.759-4.709-3.063-.553-.796-.553-2.563-.553-3.55a1.79 1.79 0 01.08-.541c.072-.225.179-.437.317-.629.107-.153.229-.296.364-.425 1.855-1.849 6.958-3.097 13.557-3.621l.073-.006a93.636 93.636 0 012.017-.134 93.024 93.024 0 012.681-.108 95.306 95.306 0 012.784-.034h.565c.374 0 .746.006 1.118.013.185 0 .37.005.552.01l1.096.03c10.133.335 17.976 2.174 18.503 5.155.019.105.028.212.028.319 0 .738.146 2.741-.481 3.593z" fill="#DB9507"/><path d="M76.09 83.18c12.076 0 21.866-2.47 21.866-5.517s-9.79-5.517-21.867-5.517c-12.076 0-21.866 2.47-21.866 5.517s9.79 5.517 21.866 5.517z" fill="#F4AD00"/><path d="M64.45 85.452c-1.85-.298-3.527-.692-4.97-1.195.04-.57.125-1.475.146-2.976 1.612.453 3.25.806 4.906 1.057.056.829-.002 2.113-.082 3.114z" fill="#F4BB47"/><path d="M74.392 86.233c-3.59-.062-6.98-.3-9.935-.779l-.33-.054c-.022-.67.122-1.849.145-3.111 3.465.5 6.956.793 10.455.875.052.757-.186 2.315-.335 3.07z" fill="#F2B225"/><path d="M102.741 78.711c-2.622 3.565-10.794 4.994-21.185 4.984-.634 0-1.275-.007-1.901-.018-3.586-.062-6.98-.301-9.936-.78-.105-.018-.22-.035-.33-.055a28.872 28.872 0 01-4.64-1.14c-2.169-.755-3.809-1.76-4.708-3.063-.549-.796-.55-2.562-.549-3.55a1.784 1.784 0 01.081-.541c.072-.225.178-.438.316-.63.108-.153.23-.295.365-.424 1.854-1.85 6.957-3.098 13.557-3.621.024 0 .047 0 .072-.008a94.326 94.326 0 012.017-.134 112.237 112.237 0 012.682-.106c.915-.024 1.843-.036 2.784-.035h.564c.374 0 .747 0 1.119.013.185 0 .368 0 .552.01l1.095.029c10.139.337 17.977 2.175 18.504 5.156.018.105.027.212.028.318-.007.74.139 2.743-.487 3.595z" fill="#DB9507"/><path d="M81.359 80.624c12.077 0 21.867-2.47 21.867-5.517s-9.79-5.517-21.867-5.517c-12.077 0-21.867 2.47-21.867 5.517s9.79 5.517 21.867 5.517z" fill="#F4AD00"/><path d="M69.72 82.902c-1.85-.298-3.527-.69-4.97-1.195.04-.57.125-1.474.146-2.975a40.87 40.87 0 004.905 1.058c.056.819-.002 2.103-.081 3.112z" fill="#F4BB47"/><path d="M79.654 83.676c-3.585-.061-6.98-.3-9.935-.78-.106-.018-.221-.035-.33-.054-.022-.67.121-1.848.145-3.111 3.464.5 6.956.793 10.455.876.056.757-.182 2.314-.335 3.07z" fill="#F2B225"/><path d="M102.738 75.302c-2.622 3.564-10.795 4.994-21.186 4.984-.634 0-1.275-.007-1.901-.018-3.584-.062-6.98-.301-9.935-.78-.105-.02-.221-.035-.329-.054a28.896 28.896 0 01-4.641-1.14c-2.17-.756-3.81-1.76-4.71-3.064-.547-.796-.55-2.562-.547-3.55a1.838 1.838 0 01.08-.54c.072-.226.178-.439.317-.63.107-.154.23-.296.365-.425 1.853-1.849 6.956-3.097 13.556-3.621l.072-.008a95.31 95.31 0 012.019-.134 95.034 95.034 0 012.68-.106 97.466 97.466 0 012.785-.035h.564c.374 0 .747.005 1.118.013.185 0 .37.005.552.01.368.009.733.02 1.095.03 10.139.336 17.978 2.173 18.505 5.155.018.105.027.212.027.319-.002.74.141 2.742-.486 3.594z" fill="#DB9507"/><path d="M81.355 77.215c12.077 0 21.867-2.47 21.867-5.517s-9.79-5.517-21.867-5.517c-12.077 0-21.867 2.47-21.867 5.517s9.79 5.517 21.867 5.517z" fill="#F4AD00"/><path d="M69.713 79.488c-1.85-.298-3.528-.691-4.97-1.195.038-.571.124-1.476.145-2.975 1.612.452 3.25.806 4.905 1.057.055.825 0 2.11-.08 3.113z" fill="#F4BB47"/><path d="M79.65 80.268c-3.585-.062-6.98-.301-9.935-.78-.106-.02-.222-.035-.33-.055-.023-.669.122-1.848.144-3.11 3.465.5 6.956.792 10.455.875.057.758-.18 2.314-.335 3.07z" fill="#F2B225"/><path d="M102.748 71.539c-2.622 3.564-10.795 4.994-21.187 4.983a93.18 93.18 0 01-1.9-.019c-3.585-.06-6.98-.3-9.935-.779-.106-.019-.222-.036-.33-.054a28.86 28.86 0 01-4.646-1.14c-2.17-.756-3.81-1.76-4.71-3.064-.54-.795-.54-2.563-.54-3.546 0-.144.017-.287.05-.426.01-.039.019-.077.03-.115.072-.226.179-.438.317-.63a2.95 2.95 0 01.364-.424c1.855-1.85 6.958-3.098 13.557-3.622.025 0 .049 0 .073-.006a93.686 93.686 0 012.017-.134 93.64 93.64 0 012.681-.107 95.006 95.006 0 012.785-.034h.564c.374 0 .747 0 1.118.012.185 0 .37 0 .553.011.367.008.732.018 1.095.029 10.138.336 17.976 2.174 18.503 5.155.019.106.029.212.029.32-.008.734.138 2.733-.488 3.59z" fill="#DB9507"/><path d="M81.363 73.451c12.077 0 21.867-2.47 21.867-5.517s-9.79-5.517-21.867-5.517c-12.077 0-21.867 2.47-21.867 5.517s9.79 5.517 21.867 5.517z" fill="#F4AD00"/><path d="M69.725 75.724c-1.851-.299-3.528-.692-4.971-1.194.039-.572.124-1.476.146-2.976a40.87 40.87 0 004.905 1.058c.056.824-.002 2.108-.08 3.112z" fill="#F4BB47"/><path d="M79.66 76.503c-3.583-.06-6.979-.3-9.933-.779-.106-.02-.222-.036-.33-.054-.023-.67.12-1.85.144-3.111 3.464.5 6.956.793 10.455.875.056.755-.18 2.315-.335 3.069z" fill="#F2B225"/><path d="M102.744 68.132c-2.622 3.565-10.795 4.994-21.185 4.983-.64 0-1.276 0-1.901-.018-3.585-.061-6.98-.3-9.935-.78l-.33-.053a28.762 28.762 0 01-4.64-1.141c-2.17-.755-3.81-1.759-4.708-3.062-.55-.796-.552-2.563-.549-3.55a1.843 1.843 0 01.08-.54 2.22 2.22 0 01.318-.63c.108-.153.23-.296.365-.425 1.853-1.85 6.957-3.098 13.556-3.622.025 0 .048 0 .073-.006a84.694 84.694 0 013.61-.206 94.592 94.592 0 013.872-.07h.565c.374 0 .747.006 1.118.014.185 0 .37.005.552.009l1.095.03c10.139.336 17.978 2.174 18.505 5.154.018.107.027.216.027.325-.009.73.138 2.738-.488 3.588z" fill="#DB9507"/><path d="M81.359 70.041c12.077 0 21.867-2.47 21.867-5.516 0-3.047-9.79-5.517-21.867-5.517-12.077 0-21.867 2.47-21.867 5.517 0 3.046 9.79 5.516 21.867 5.516z" fill="#F4AD00"/><path d="M69.72 72.314c-1.85-.297-3.527-.69-4.97-1.194.038-.57.124-1.475.145-2.976 1.612.453 3.25.806 4.905 1.057.056.826-.001 2.111-.08 3.113z" fill="#F4BB47"/><path d="M79.653 73.094c-3.584-.061-6.98-.3-9.934-.78l-.33-.053c-.023-.67.122-1.849.144-3.111 3.467.5 6.96.793 10.461.875.05.757-.187 2.315-.34 3.07z" fill="#F2B225"/><path d="M92.996 60.635l-.012-.007.012.007zm-13.986-.868c-.12.187-.505.306-.86.268-.354-.038-.543-.222-.422-.408.122-.186.504-.306.859-.267.355.04.543.221.422.407zm-9.84 5.708c-.121.188-.506.306-.86.268-.353-.038-.543-.222-.422-.408.122-.186.505-.306.859-.266.354.039.543.225.422.406zm26.686-1.741c-.422-.047-.652-.267-.508-.49.143-.225.606-.367 1.031-.32.426.048.654.266.51.49-.145.224-.607.361-1.032.32zm.436-.675c-.283-.032-.59.064-.686.213-.095.148.056.294.338.326.282.032.59-.065.685-.213.096-.147-.055-.295-.337-.326zm-25.195-.887c-.29-.032-.447-.182-.349-.335.098-.153.414-.25.704-.219.29.032.447.182.349.335-.098.153-.415.25-.704.219zm.305-.474c-.211-.023-.432.047-.503.156-.07.11.041.213.248.238.207.026.432-.048.502-.156s-.041-.216-.247-.238zm-1.962 2.196c-.291-.032-.446-.181-.348-.334.098-.153.414-.251.704-.22.29.033.447.182.348.335-.1.154-.414.251-.705.22zm.305-.474c-.212-.022-.432.047-.502.157s.041.212.248.238c.207.025.432-.047.502-.157.07-.109-.037-.215-.248-.238zm-2.388 1.186c-.29-.032-.445-.181-.347-.334.098-.154.414-.251.704-.22.29.032.447.182.349.335-.099.153-.415.251-.706.22zm.305-.474c-.21-.022-.431.048-.501.157-.07.108.041.212.248.238.207.025.432-.047.502-.157s-.041-.215-.249-.238zm5.891 2.127c-.29-.032-.446-.183-.348-.335.099-.152.414-.25.705-.219.29.032.445.182.347.335-.098.153-.414.25-.704.219zm.305-.475c-.211-.023-.432.047-.502.156-.07.108.041.212.248.239.207.026.432-.048.502-.156.07-.109-.041-.216-.243-.24h-.005zm-4.304 1.853c-.29-.032-.447-.182-.349-.335.098-.153.414-.25.704-.219.29.032.447.182.349.335-.098.153-.414.25-.704.219zm.305-.474c-.211-.023-.432.047-.503.156-.07.11.041.213.248.238.207.026.432-.048.503-.156.07-.108-.045-.216-.248-.238zm6.39-.608c-.29-.032-.447-.183-.349-.335.099-.152.414-.252.705-.22.29.032.447.183.348.335-.098.152-.414.252-.704.22zm.305-.475c-.211-.022-.432.048-.502.156-.071.109.042.213.248.24.206.026.431-.049.502-.157.071-.108-.04-.216-.248-.239zm2.273 1.543c-.29-.032-.447-.182-.348-.335.098-.153.415-.25.705-.219.29.032.446.183.347.335-.098.152-.41.25-.704.219zm.305-.474c-.21-.022-.432.048-.501.156-.07.108.04.213.248.238.207.026.432-.047.501-.155.07-.108-.036-.213-.243-.239h-.005zm-5.19 1.514c-.336-.036-.518-.212-.404-.389.114-.176.481-.292.82-.255.337.037.52.213.405.39-.114.178-.483.29-.82.254zm.35-.542c-.23-.025-.482.053-.56.174-.078.122.046.242.277.266.231.024.482-.052.56-.173.078-.121-.046-.242-.277-.268v.001zm7.061-3.905c-.289-.031-.445-.181-.347-.334.098-.153.414-.251.704-.22.29.033.447.182.349.336-.098.152-.415.25-.706.218zm.306-.473c-.206-.023-.432.046-.502.156s.041.212.248.238c.207.025.432-.047.502-.157.07-.109-.041-.215-.248-.237zm.145 2.544c-.29-.032-.447-.181-.349-.335.098-.153.415-.25.704-.218.29.031.447.181.349.334-.098.153-.414.251-.704.22zm.305-.474c-.211-.022-.432.047-.502.156-.07.11.041.213.247.239.206.025.432-.047.503-.157.07-.11-.045-.215-.248-.238zm-3.551-3.367c-.29-.032-.447-.182-.349-.335.098-.153.415-.25.704-.218.29.031.447.181.349.334-.098.153-.414.251-.704.22zm.305-.474c-.212-.022-.432.048-.502.156-.07.109.041.213.247.238.206.026.432-.046.503-.156.07-.11-.041-.215-.248-.241v.003zm-2.509 2.203c-.29-.032-.446-.182-.348-.335.098-.153.415-.25.704-.219.29.032.447.182.349.335-.098.153-.414.25-.705.219zm.306-.474c-.212-.023-.432.047-.502.156-.07.11.041.213.247.238.206.026.432-.048.503-.156.07-.108-.041-.216-.248-.238zm8.381-.857c-.296-.033-.455-.186-.355-.34.1-.156.423-.257.72-.225.296.032.455.186.354.342-.1.156-.422.255-.719.223zm.305-.474c-.2-.022-.422.046-.487.151-.064.105.04.213.241.233.202.02.423-.047.488-.152.066-.105-.04-.208-.242-.231zm3.218 1.724c-.295-.033-.455-.186-.354-.342.1-.156.422-.256.719-.223s.455.186.355.34c-.1.156-.424.26-.72.225zm.306-.475c-.2-.021-.423.047-.487.152s.039.212.24.232c.202.019.423-.046.489-.152.065-.107-.04-.206-.242-.229v-.003zm.16-2.38c-.296-.033-.456-.186-.356-.342.1-.156.423-.255.719-.223.295.032.456.186.356.34-.1.156-.424.257-.72.225zm.305-.475c-.201-.021-.423.047-.488.152-.066.105.04.213.24.232.201.019.423-.046.488-.151.066-.105-.04-.21-.24-.233zm4.55.15c-.296-.033-.455-.186-.355-.341.099-.156.422-.256.719-.224.297.033.455.185.355.342-.1.156-.423.256-.719.223zm.306-.474c-.202-.023-.423.046-.488.152-.066.106.04.212.24.231.201.02.423-.045.489-.151.065-.107-.04-.21-.241-.232zm-6.943-.317c-.297-.033-.455-.186-.355-.34.1-.156.423-.257.719-.225.295.032.455.186.354.342-.1.156-.422.256-.718.223zm.305-.474c-.201-.022-.422.046-.487.151-.066.105.04.213.24.233.201.02.423-.047.488-.152.066-.105-.04-.21-.24-.232zm-.504 6.713c-.296-.032-.455-.186-.355-.341.1-.156.422-.256.718-.224.296.033.455.185.356.342-.1.156-.423.256-.72.223zm.305-.474c-.2-.023-.422.045-.488.152-.065.106.04.212.241.231.2.02.422-.045.488-.151.065-.107-.04-.21-.24-.232zm-1.7 1.705c-.296-.032-.455-.185-.354-.34.1-.157.422-.257.718-.224s.455.185.355.341c-.1.156-.423.256-.719.223zm.306-.474c-.202-.022-.423.046-.488.152-.066.106.04.213.24.232.201.019.423-.046.489-.152.065-.106-.04-.21-.241-.232zm4.663 1.764c-.297-.033-.455-.186-.355-.34.1-.156.423-.257.719-.224.295.033.455.185.354.341-.1.156-.422.256-.718.223zm.305-.474c-.201-.022-.422.046-.487.152-.066.106.04.213.24.232.201.019.423-.047.488-.152.066-.105-.04-.21-.24-.232zm-6.996 1.16c-.297-.033-.455-.186-.355-.342.1-.155.422-.256.718-.223s.455.185.355.341c-.1.157-.422.256-.718.224zm.305-.474c-.202-.023-.422.045-.488.151-.065.107.04.213.24.232.202.02.423-.047.489-.152.065-.105-.04-.21-.241-.231zm8.479-1.028c-.098.153-.413.25-.703.22-.289-.033-.445-.183-.347-.335.098-.151.413-.25.702-.218.29.031.446.186.348.333zm-1.637 1.585c-.099.153-.413.251-.703.22-.289-.033-.444-.182-.347-.334.097-.152.413-.251.702-.22.29.033.447.182.348.334zm4.904-3.98c-.296-.032-.456-.185-.355-.341.1-.156.422-.256.718-.223.295.033.456.186.356.34-.1.156-.424.257-.72.224zm.305-.474c-.2-.021-.423.047-.488.152-.066.105.04.213.24.232.201.019.423-.046.488-.152.066-.107-.04-.21-.24-.232zm-1.134 1.669c-.295-.034-.455-.187-.355-.343.1-.156.423-.255.719-.223.295.032.455.186.355.341-.1.155-.423.256-.719.225zm.306-.475c-.201-.022-.423.046-.488.151-.066.106.04.213.24.232.201.02.423-.046.488-.15.066-.106-.04-.211-.24-.233z" fill="#DB9507"/><path d="M95.442 63.309l-2.233-.246a.118.118 0 01-.053-.017l-1.829-1.266-9.482-1.043a.12.12 0 01-.054-.017l-.95-.696-2.51-.276c-.053-.005-.082-.033-.064-.061a.152.152 0 01.13-.04l2.543.279c.02 0 .038.007.054.018l.95.696 9.482 1.04a.13.13 0 01.051.018l1.83 1.267 2.2.242c.054.005.083.033.065.061a.152.152 0 01-.13.04zm-.288.595c-.12.186-.504.305-.859.267-.355-.039-.544-.223-.422-.409.121-.185.503-.306.858-.266.355.04.543.22.423.408zm-19.496-3.117c-.12.186-.504.305-.859.267-.355-.038-.544-.222-.422-.408.121-.186.503-.306.858-.267.355.04.542.221.423.408z" fill="#DB9507"/><path d="M94.479 63.882l-2.233-.246a.116.116 0 01-.053-.016l-1.83-1.267-9.482-1.042a.105.105 0 01-.053-.018l-.95-.696-2.479-.272-2.16.454c-.055.01-.106 0-.127-.028-.021-.027.014-.057.068-.068l2.193-.46a.197.197 0 01.06 0l2.544.28c.02 0 .038.007.054.018l.95.696 9.482 1.04a.115.115 0 01.051.018l1.828 1.265 2.2.242c.054.006.082.034.064.061a.146.146 0 01-.127.038zm-21.642-2.614c-.099.153-.413.25-.703.218-.29-.031-.444-.181-.347-.333.097-.152.413-.25.702-.219.29.032.446.185.347.334zm4.519.75c-.098.153-.412.25-.702.219-.29-.032-.445-.182-.347-.334.098-.152.413-.25.702-.219.29.032.445.179.347.334zm-7.711.537c-.098.153-.412.251-.702.22-.29-.033-.445-.182-.347-.334.098-.152.413-.25.702-.218.29.032.447.18.347.332zm-2.785.759c-.099.153-.412.251-.703.22-.29-.033-.444-.183-.346-.334.098-.153.412-.251.702-.22.29.033.445.182.346.334zm16.2 3.693c-.099.152-.413.25-.703.218s-.445-.181-.347-.334c.098-.153.413-.25.702-.218.29.032.444.184.348.334zm1.003 1.189c-.098.153-.413.25-.702.219-.29-.032-.446-.182-.347-.334.098-.152.413-.25.702-.22.29.033.446.183.347.335zm-2.957.909c-.098.152-.412.25-.702.218s-.445-.18-.347-.333c.098-.153.413-.25.702-.218.29.032.446.18.347.333zm16.008-1.66c-.098.151-.413.25-.702.217-.29-.032-.445-.18-.348-.333.097-.153.413-.25.702-.218.29.032.446.18.348.334zm-19.45-4.439c-.098.152-.412.25-.702.212-.29-.037-.445-.18-.347-.333.099-.153.412-.25.703-.213.29.038.452.18.346.334zm5.661.132c-.098.153-.413.25-.702.219-.29-.032-.446-.182-.348-.334.099-.152.413-.25.703-.213.29.038.445.176.347.328zm-1.606 1.878c-.098.153-.412.251-.702.22-.29-.033-.445-.182-.347-.334.098-.152.412-.251.703-.22.29.033.444.182.346.334zm-5.515.266c-.098.152-.413.25-.702.218-.29-.032-.446-.18-.348-.334.099-.153.413-.25.703-.218.289.032.445.181.347.334zm-5.747 1.083c-.098.153-.413.25-.702.219-.29-.032-.445-.182-.347-.334.099-.152.412-.25.703-.213.29.038.444.176.346.328zm4.488.87c-.097.152-.411.25-.702.218-.29-.032-.444-.182-.346-.334.098-.152.413-.25.702-.218.29.032.445.181.346.334zM89.207 65.1c-.098.152-.412.25-.702.213-.29-.037-.445-.182-.346-.334.098-.152.411-.25.702-.212.29.037.444.177.346.333zm5.535.84c-.097.153-.412.25-.702.219-.29-.032-.445-.182-.346-.334.098-.152.412-.25.702-.219.29.03.445.182.346.334z" fill="#DB9507"/><path d="M88.2 62.89c-.098.151-.413.249-.702.217-.29-.032-.446-.18-.348-.334.099-.153.413-.25.703-.218s.445.182.347.334zm3.637-1.646c-.098.153-.413.251-.702.22-.29-.033-.446-.183-.348-.335.098-.151.413-.25.702-.218.29.031.446.181.348.333zm3.347 3.488c-.098.153-.412.25-.702.219-.29-.032-.445-.182-.347-.334.098-.152.413-.25.702-.219.29.032.445.183.347.334zm-20.16-3.139l-2.746-.343c-.053-.006-.08-.033-.061-.062a.152.152 0 01.132-.038l2.71.337 2.16-.452a.203.203 0 01.06 0l2.545.28a.105.105 0 01.053.017l.95.696 3.949.434c.053 0 .082.033.064.061a.152.152 0 01-.13.04l-3.983-.44a.105.105 0 01-.054-.018l-.95-.696-2.48-.272-2.16.454a.17.17 0 01-.059.002z" fill="#DB9507"/><path d="M94.327 64.693l-2.233-.245a.105.105 0 01-.052-.017l-1.83-1.267-2.218-.243c-.052-.007-.08-.034-.063-.062a.147.147 0 01.13-.04l2.255.247a.12.12 0 01.052.017l1.83 1.267 2.2.241c.053.007.082.034.064.062a.147.147 0 01-.135.04zm-19.38-2.299l-3.217-.354c-.054 0-.082-.033-.065-.062a.153.153 0 01.13-.04l3.188.35 1.82-.372a.127.127 0 01.127.027c.016.027-.016.058-.07.068l-1.852.38a.197.197 0 01-.061.003zm7.781.723l-2.74-.302-1.078-.444.109-.066 1.053.434 2.708.298-.052.08z" fill="#DB9507"/><path d="M95.693 65.37l-4.646-.51-1.247-.9-.628-.055.045-.08.686.06 1.249.9 4.592.505-.051.08zM81.06 63.93l-1.968-.215-1.956-.755-2.769.17-5.031-.552.05-.08 5.007.55 2.803-.172 1.977.762 1.937.213-.05.08zm9.492 1.616l-1.908-.466.083-.074 1.892.461 3.49.368-.05.08-3.507-.37zm-21.344-1.918l-2.907-.32.065-.101 2.908.319-.066.102zm6.152.675l-5.325-.584.066-.102 5.255.577.73-.194.076.092-.801.211zm5.809.697l-4.009-.44-.402-.472.148-.04.375.44 3.939.432-.051.08zm6.537 1.172l-.05-.086 1.124-.23.053-.001 6.136.64-.057.09-6.109-.637-1.097.225zm-12.509-.945l-7.314-.805.065-.102 7.315.804-.066.103zm6.283.783l-.797-.18-4.656-.513.066-.102 4.674.514.815.184-.101.097zm6.786.847c-.098.152-.413.25-.702.212-.29-.037-.445-.18-.347-.333.097-.153.412-.25.702-.218s.445.181.347.339z" fill="#DB9507"/><path d="M89.943 67.084l-2.228-.244.058-.092 2.19.242 1.613-.202 5.043.553-.059.092-5.003-.55-1.614.201zm-16.688-1.112l-4.751-.522.05-.08 4.753.523-.052.079zm9.255 1.017l-5.654-.621.05-.08 5.656.62-.051.08zm9.652 1.066l-5.908-.649.059-.09 5.907.65-.058.09zm-18.1-.884l-.606-.433-3.55-.39.05-.08 3.603.396.637.455-.134.052zm.578.063l-.054-.072 1.08-.267 2.974.327-.052.08-2.92-.32-1.027.252zm8.646.913l-.77-.414-3.055-.335.052-.08 3.096.34.8.43-.123.059zm.449.056l-.032-.09 1.312-.197 5.37.59-.058.091L85 68.012l-1.266.191zm-10.14.126l-2.006-.22-.977-.603-.46-.05.058-.091.515.056.976.603 1.952.214-.058.09zm6.885.756l-5.843-.642.058-.091 5.843.642-.058.091zm4.117.292l-.066-.082 1.127-.285 4.578.502-.058.09-4.517-.496-1.064.271zm4.223-8.414l-2.058-.227.428-.667.173.02-.371.575 1.887.207-.059.092zm4.789.526l-2.328-.256.058-.09 2.156.235.334-.518.173.019-.393.61z" fill="#DB9507"/><path d="M98.898 68.304c-4.499-.543-5.142-2.103-5.976-6.939-.583 4.589-1.328 6.328-5.903 6.85 3.991 1.31 5.394 1.785 6.105 7.087.983-5.37 1.861-5.845 5.774-6.998z" fill="#fff"/><path d="M103.148 172.449c-1.66 3.456-58.144-.787-69.27-.094-5.346.332-6.76-4.37-6.802-15.166-.038-8.394.752-20.483 1.154-36.757.156-6.345.254-13.327.221-20.976-.032-7.717 66.834.126 73.53-.016.271-.005.528.638.769 1.822 2.201 10.755 3.06 65.647.398 71.187z" fill="#DDA66F"/><path d="M101.983 99.44s-10.162 16.459-14.529 21.348c-3.28 3.673-40.772 1.134-59.222-.356-6.115-.493-10.128-.871-10.128-.871s-4.27-.51 10.35-20.105c-.033-7.717 66.833.129 73.529-.016z" fill="#E8BC91"/><path opacity=".16" d="M103.15 172.449c-1.66 3.456-58.143-.787-69.27-.095-5.346.333-6.759-4.369-6.802-15.165 63.718-5.648 68.514-24.646 74.905-57.75l.769 1.823c2.202 10.755 3.061 65.647.398 71.187z" fill="#fff"/><path d="M132.935 108.89c.211 17.889-.143 38.678-.528 42.051-.706 6.17-25.365 20.897-31.298 22.315-2.35.563-2.745-5.193-2.35-17.466 0 0 1.336-52.712 3.224-56.353 1.888-3.642 26.218-15.868 28.968-17.491.18-.107.346.069.498.493.904 2.51 1.336 13.745 1.486 26.451z" fill="#C48653"/><path d="M125.907 114.102c-4.182 3.013-11.325 1.347-23.927-14.663 1.887-3.643 26.22-15.871 28.97-17.498 0 0 .179.175.498.493 2.27 2.254 19.242 9.385 19.522 14.747.125 2.396-22.959 15.406-25.063 16.921z" fill="#E8B985"/><path d="M84.01 94.165c-3.51-.557-4.013-2.158-4.663-7.12-.456 4.71-1.035 6.495-4.605 7.032 3.114 1.343 4.207 1.83 4.763 7.272.767-5.517 1.45-6.004 4.505-7.184z" fill="#fff"/><path d="M148.987 46.85c.386.307.74.653 1.056 1.032.292.364.719.55.967 1.063.061.125.123.257.188.395.064.138.14.29.211.425.441.85.816 1.269 1.277 1.956 0 0 2.929-1.345 2.815-1.885-.071-.332-.487-.81-.937-1.381a11.301 11.301 0 01-.557-.776 5.301 5.301 0 01-.25-.417 3.078 3.078 0 01-.303-1.063c-.138-1.127.677-2.08-.057-2.103-.734-.023-.528 1.191-1.96-.956-.389-.581-2.386-.168-2.851.986-.136.318-.34 2.188.401 2.724z" fill="#EFAEA6"/><path d="M155.451 44.002a2.697 2.697 0 01-.832-.34 3.853 3.853 0 01-.57-.406 4.329 4.329 0 01-.453-.449c-.051-.058-.106-.119-.152-.183a1.27 1.27 0 01-.069-.094c-.568-.858-.245-2.414.593-3.84a8.22 8.22 0 01.674-.977c1.373-1.71 3.372-2.39 4.171-2.4.528-.006 1.36.287 2.249 1.038l.123.106-.373.491-.141.184-.291.384-3.932 5.168-.547.72-.193.254-.257.344z" fill="#0052FF"/><path d="M159.669 41.827c1.634-1.752 2.113-3.97 1.07-4.955-1.043-.985-3.213-.364-4.847 1.387-1.634 1.751-2.113 3.97-1.07 4.955 1.043.985 3.214.364 4.847-1.387z" fill="#0052FF"/><path opacity=".15" d="M159.669 41.827c1.634-1.752 2.113-3.97 1.07-4.955-1.043-.985-3.213-.364-4.847 1.387-1.634 1.751-2.113 3.97-1.07 4.955 1.043.985 3.214.364 4.847-1.387z" fill="#0D0D1E"/><path opacity=".72" d="M155.121 42.986a2.568 2.568 0 01-1.056-.082c-.568-1.315.015-3.358 1.54-5 .43-.466.919-.874 1.453-1.213a15.69 15.69 0 012.831-.194c.079.074.15.157.211.248 1.153 1.689-1.2 5.864-4.979 6.24z" fill="#fff"/><path opacity=".26" d="M153.596 42.807a2.954 2.954 0 01-.441-.077l.22-.2c-.568-.858-.245-2.414.592-3.84-.457 1.457-.545 3.189-.031 3.826.079.098.095.17.063.218a.12.12 0 01-.047.04.716.716 0 01-.356.033z" fill="#0D0D1E"/><path d="M160.127 42.155c1.831-1.973 2.304-4.523 1.056-5.698a2.84 2.84 0 00-.122-.106c-.951-.763-2.535-.587-4.003.34a7.237 7.237 0 00-1.456 1.214c-1.382 1.487-1.991 3.304-1.671 4.611a2.596 2.596 0 00.13.388c.112.264.277.502.485.698.022.02.045.042.068.06 1.273 1.093 3.713.43 5.513-1.507zm-.39-.367c-.148.16-.3.308-.456.446-1.111.977-2.411 1.413-3.379 1.169a1.738 1.738 0 01-.784-.42c-1.033-.97-.642-3.08.875-4.715 1.296-1.396 2.997-1.991 4.109-1.525a1.678 1.678 0 01.566.387c.739.762.668 2.146-.068 3.471-.239.43-.528.828-.863 1.187z" fill="#0052FF"/><path opacity=".24" d="M160.127 42.155c1.831-1.973 2.304-4.523 1.056-5.698a2.84 2.84 0 00-.122-.106c-.951-.763-2.535-.587-4.003.34a7.237 7.237 0 00-1.456 1.214c-1.382 1.487-1.991 3.304-1.671 4.611a2.596 2.596 0 00.13.388c.112.264.277.502.485.698.022.02.045.042.068.06 1.273 1.093 3.713.43 5.513-1.507zm-.39-.367c-.148.16-.3.308-.456.446-1.111.977-2.411 1.413-3.379 1.169a1.738 1.738 0 01-.784-.42c-1.033-.97-.642-3.08.875-4.715 1.296-1.396 2.997-1.991 4.109-1.525a1.678 1.678 0 01.566.387c.739.762.668 2.146-.068 3.471-.239.43-.528.828-.863 1.187z" fill="#fff"/><path d="M145.952 50.174c-.23-.097-.372-.338-.133-.786.422-.79 6.041-5.494 7.333-6.661l.22-.2.035-.032c.054-.053.145-.037.246.018.113.067.214.155.297.258.138.17.217.367.11.467l-.014.015c-.435.415-7.1 6.588-7.449 6.875-.127.109-.425.144-.645.046z" fill="#0052FF"/><path opacity=".58" d="M157.926 40.782a7.18 7.18 0 00.571-.612c.494-.6 1.162-1.838.851-2.175-.31-.337-1.199.029-1.422.223m-1.602 3.735c.316-.172.62-.367.907-.583" stroke="#fff" stroke-width="3.03" stroke-miterlimit="10" stroke-linecap="round"/><path opacity=".2" d="M145.952 50.174c-.23-.097-.372-.338-.133-.786.466-.88 7.392-6.702 7.588-6.893.054-.053.145-.037.246.018-1.175 1.079-6.95 6.076-7.701 7.661z" fill="#0D0D1E"/><path d="M148.473 45.61c.193.82 1.456 2.75 2.745 2.155.576-.264 1.884-2.385 1.704-2.874-.181-.489-1.294-1.66-1.623-1.896-.33-.236-2.196 1.745-2.196 1.745l-.63.87zm-8.667 7.41c-.452-1.156-.951-.265-.99-1.942-.048-2.344-1.356-2.537-1.939-3.768-.232-.49-.564-1.982-.299-3.462.311-1.73.561-3.432 2.495-4.168 1.511-.576-1.117 3.729-.211 4.921.422.565 1.324-1.573 2.353-1.27 1.028.303-1.199 2.137-.539 3.915.575 1.545 1.11 4.114 1.13 4.843.02.729-2 .93-2 .93zm34.84.243c-.317 1.619.114 5.879-.575 7.552l-4.119-.425s-3.987-.469-3.041-1.099c1.267-.843.748-.395 1.338-1.039.358-.39.785-1.204 1.192-2.103a49.494 49.494 0 001.307-3.263c.095-.262.15-.425.15-.425l.035-.319 2.599-2.99s1.464 2.336 1.114 4.111z" fill="#EFAEA6"/><path opacity=".14" d="M169.445 56.15a49.045 49.045 0 001.308-3.264l1.017-.09s1.241.232 1.447.78c.311.83-1.951 4.013-3.772 2.573z" fill="#1F1F3B"/><path d="M160.808 160.409c-.179-1.764-.045-6.235-.045-6.235l4.904-.17-.264 6.713-3.242 2.135-1.353-2.443z" fill="#fff"/><path d="M160.411 158.959c-.413-.318-1.334.789-1.524 1.531-.435 1.7-5.907 1.912-6.881 2.064-.503.08-1.314 2.573 1.19 2.562 2.165-.008 9.1-.014 11.469-.039a1.08 1.08 0 001.047-.786c.423-1.638.479-5.48-.182-5.533-.891.197-3.542 1.4-5.119.201z" fill="#1F1F3B"/><path d="M179.651 160.439c-.189-1.763-.082-6.235-.082-6.235l4.903-.196-.224 6.714-3.229 2.152-1.368-2.435z" fill="#fff"/><path d="M179.113 158.435c-.528.034-.433.523-.615 1.266-.423 1.7-6.647 2.802-7.62 2.964-.503.084-1.29 2.584 1.214 2.55 2.164-.028 9.1-.092 11.468-.136a1.086 1.086 0 001.041-.794c.41-1.643.563-6.149-.098-6.197-.889.207-2.987.192-5.39.347z" fill="#1F1F3B"/><path d="M186.671 102.095a66.21 66.21 0 01-.258 2.617c-.422 3.565-1.314 15.591-1.096 23.229.218 7.601-.459 25.383-.459 28.107-2.324 1.012-3.76.696-7.076 0 0 0-.589-14.672-1.244-27.521-.528-10.429-.683-9.384-2.611-22.664-.022.062-.492 1.355-1.175 3.346-1.464 4.251-3.907 11.673-5.08 17.047-1.827 8.386-.873 30.244-1.638 30.998-2.277 1.334-6.133 1.463-7.163-.39 0 0-.436-27.03.374-31.263.549-2.879 5.186-31.09 6.221-38.667 0 0 20.427-4.427 21.053 2.51.078.858.11 1.72.098 2.583-.016 1.078.044 2.076.106 3.17.147 2.298.13 4.603-.052 6.898z" fill="#3B3B4D"/><path opacity=".46" d="M175.725 102.055v.01a.435.435 0 01-.057-.038.5.5 0 01.057.028z" fill="#1F1F3B"/><path opacity=".79" d="M173.924 105.868a457.1 457.1 0 00-1.604 4.569l.803-8.027s-.03.478.801 3.458z" fill="#1F1F3B"/><path opacity=".35" d="M186.79 100.009c-.169-.037-8.042-1.706-9.106-5.625 0 0 6.844.584 9.033.817.096 1.79.146 3.798.073 4.808z" fill="#1F1F3B"/><path d="M174.525 56.005c-1.77-.478-1.942 2.429-3.726 2.569-.942.074-.739-.334-1.178-.765-.275-.266-.528-.564-.964-.122-8.804 8.98.364 31.623-.757 33.203-.916 1.293 6.534 4.114 11.214 2.975 6.416-1.555 6.027-8.484 5.841-9.807-.186-1.323-4.323-23.812-4.323-23.812s-3.247-1.708-6.107-4.242z" fill="#fff"/><path d="M170.176 92.856c-.039 1.729-.266 3.006-.918 3.6-1.17 1.063-2.791 1.269-4.753-.752a3.395 3.395 0 01-.309-.367c-2.63-3.547-.739-13.338-.466-15.726.106-.965.35-2.266.557-3.613.254-1.675-.317-5.455-.993-6.24-1.823-2.114-12.989 1.595-18.928-1.661-5.619-3.082-8.004-19.39-7.885-19.689.229-.574 5.23-.393 5.23-.393.634 2.22 3.564 14.358 6.256 14.876 4.424.85 12.863-3.49 20.683-5.201.034.305.049.611.046.918 0 .531-.015 1.296-.106 2.351a43.78 43.78 0 01-.233 2.152c-.673 5.18 2.26 8.866 1.665 15.132-.256 2.705-.205 5.428-.096 7.924.121 2.553.292 4.872.25 6.69z" fill="#0052FF"/><path opacity=".18" d="M170.176 92.856c-.039 1.729-.266 3.006-.918 3.6-1.17 1.063-2.791 1.269-4.753-.752a3.395 3.395 0 01-.309-.367c-2.63-3.547-.739-13.338-.466-15.726.106-.965.35-2.266.557-3.613.254-1.675-.317-5.455-.993-6.24-1.823-2.114-12.989 1.595-18.928-1.661-5.619-3.082-8.004-19.39-7.885-19.689.229-.574 5.23-.393 5.23-.393.634 2.22 3.564 14.358 6.256 14.876 4.424.85 12.863-3.49 20.683-5.201.034.305.049.611.046.918 0 .531-.015 1.296-.106 2.351a43.78 43.78 0 01-.233 2.152c-.673 5.18 2.26 8.866 1.665 15.132-.256 2.705-.205 5.428-.096 7.924.121 2.553.292 4.872.25 6.69z" fill="#1F1F3B"/><path d="M187.418 96.345c-2.805 1.744-6.538 1.796-9.007-.789-2.047-2.143.024-4.919-1.49-9.918-.845-2.774-2.146-7.748-2.429-11.202-.594-7.349-.141-16.356.025-18.431 0 0 4.458.106 8.119 3.901 1.539 1.594 2.507 6.203 2.671 9.571.052 1.105.083 1.995.099 2.745a46.628 46.628 0 01-.056 3.54c-.02.417-.041.85-.062 1.338a87.598 87.598 0 00-.058 1.93c-.023 1.234.396 3.263.918 5.507 1.147 4.919 2.774 10.874 1.27 11.808z" fill="#0052FF"/><path d="M177.991 57.903c-.166.151-.534.892-.748.957-4.417 1.44-11.356 3.73-13.829 3.382-2.593-.363-7.905-14.958-7.905-14.958s-4.659 1.758-4.78 2.571c-.122.813 4.707 16.632 9.405 19.207 3.007 1.649 20.607-3.733 22.283-4.622 1.676-.888.564-4.475-1.933-5.01-1.562-.33-2.431-1.587-2.493-1.527z" fill="#0052FF"/><path opacity=".2" d="M136.496 45.235c.262 0 2.199.044 3.224-.521 1.026-.566.285-1.933.285-1.933l-3.427 1.062-.082 1.392z" fill="#0D0D1E"/><path opacity=".24" d="M171.097 59.419c.198-.062.951 3.55 2.908 5.206.54.47 1.165.83 1.841 1.063 2.013.662 6.674 1.806 9.337 2.188-.317-2.524-.154-2.4-.538-4.07-2.03.064-6.96.355-7.996-.047a8.122 8.122 0 01-2.064-1.19c-1.147-.895-2.023-2.006-2.659-2.937-.324-.475-.229-1.039-.739-1.197-.674-.212-.343 1.066-.09.984z" fill="#1F1F3B"/><path d="M170.252 58.495c.106-.306.485-.744 1.162-.537.508.158.492.37.816.85.975 1.427 2.511 3.272 4.723 4.128 2.211.855 8.256-.623 11.425.996 3.17 1.62 3.347 4.812 8.001 6.876 4.654 2.065 10.47 1.499 11.838 2.126 1.367.627 2.15 1.169 1.954 1.7-.195.531-1.175 1.251-2.299 1.367-1.123.116-10.187-1.707-12.446-2.645-3.689-1.534-6.015-5.758-8.423-6.636-2.407-.88-8.003-.922-10.854-1.86-3.179-1.047-4.752-5.38-5.003-5.3-.252.08-.489.16-.875-.053-.265-.147-.131-.706-.019-1.012z" fill="#FFA800"/><path d="M175.844 49.788s-.261.617-.623 1.382c-.443.935-1.036 2.092-1.479 2.602a1.138 1.138 0 01-.11.106c-.959.83-4.021.926-6.117-.181-.901-.475 1.493-2.63.633-3.046-.496-.24.14-.922.909-1.69.538-.539 1.14-1.12 1.464-1.617l.05-.082 5.273 2.526z" fill="#EFAEA6"/><path d="M177.382 51.274c.063.175.083.364.057.548-.22 1.545-3.644 2.495-3.802 2.058-.212-.568.999-1.573.745-2.07-.382-.75-.707-.276-1.447-.047-.787.244-1.802-.213-.682-.879a1.99 1.99 0 00.587-.477c.283-.386-.082-.638-.573-.81-.739-.26-.845-.107-1.218-.581-.372-.474.802-.735-.041-1.33-.16-.115-.325-.226-.485-.34-.633-.453-1.18-.94-.975-1.723.014-.054.032-.106.053-.167.136-.356.301-.584.487-.721a.865.865 0 01.225-.12c.562-.193 1.24.262 1.743.646l.114.087a.388.388 0 00.317.072c.456-.071 1.067-.676 1.901-.22.833.454.482.884 1.195 1.315.43.259 1.669-.051 2.112.83.129.247.206.517.225.794.055 1.117-1.003 1.823-.538 3.135z" fill="#191939"/><path d="M149.915 22.376c0 12.336.812 22.65-15.069 22.338-8.32-.164-15.069-10.002-15.069-22.338 0-12.337 6.759-21.905 15.069-22.339 14.444-.754 15.069 10.001 15.069 22.339z" fill="#DB9507"/><path d="M138.393 44.715c8.322 0 15.069-10.002 15.069-22.34 0-12.336-6.747-22.338-15.069-22.338-8.322 0-15.069 10.002-15.069 22.339 0 12.337 6.747 22.339 15.069 22.339z" fill="#F4AD00"/><path d="M138.392 40.664c6.813 0 12.336-8.188 12.336-18.288s-5.523-18.288-12.336-18.288c-6.814 0-12.337 8.188-12.337 18.288s5.523 18.288 12.337 18.288z" stroke="#DB9507" stroke-width="9.73" stroke-miterlimit="10"/><path d="M149.754 32.83a.104.104 0 01.01-.016.113.113 0 01-.01.016zm1.16 1.995a.113.113 0 01.008-.017.117.117 0 01-.008.017zm-1.872-19.64a.798.798 0 10-1.554-.37.798.798 0 101.554.37zM134.019 7.97a.798.798 0 10-1.554-.37.8.8 0 101.554.37zm9.575 30.544a.966.966 0 011.147-.947.964.964 0 01.7 1.317.967.967 0 01-.887.596.959.959 0 01-.679-.283.968.968 0 01-.281-.683zm1.598 0a.636.636 0 00-.758-.625.632.632 0 00-.498.501.645.645 0 00.27.655.631.631 0 00.986-.53zm-4.165-30.161a.664.664 0 01.405-.61.653.653 0 01.894.481.655.655 0 01-.279.678.65.65 0 01-.828-.082.662.662 0 01-.192-.467zm1.123 0a.473.473 0 00-.289-.433.465.465 0 00-.636.343.475.475 0 00.199.482.465.465 0 00.592-.058.471.471 0 00.138-.334h-.004zm-5.33-.64a.664.664 0 01.405-.61.653.653 0 01.894.482.655.655 0 01-.278.677.655.655 0 01-1.021-.549zm1.123 0a.466.466 0 10-.898.18.466.466 0 00.898-.18zm-3.205-1.9a.664.664 0 01.405-.61.653.653 0 01.894.482.655.655 0 01-.279.677.65.65 0 01-.827-.082.666.666 0 01-.193-.467zm1.123 0a.466.466 0 10-.898.18.466.466 0 00.898-.18zm-3.271 8.496a.663.663 0 01.405-.61.651.651 0 01.714.143.658.658 0 01.143.72.662.662 0 01-.606.407.656.656 0 01-.656-.66zm1.122 0a.473.473 0 00-.288-.434.46.46 0 00-.508.102.475.475 0 00.07.723.466.466 0 00.726-.391zm-5.146-3.643a.664.664 0 01.404-.61.653.653 0 01.895.48.655.655 0 01-.278.678.654.654 0 01-1.021-.548zm1.123 0a.466.466 0 10-.898.18.465.465 0 00.611.255.472.472 0 00.291-.435h-.004zm2.901 7.024a.663.663 0 01.405-.61.651.651 0 01.714.143.658.658 0 01.143.72.662.662 0 01-.606.407.656.656 0 01-.656-.66zm1.122 0a.473.473 0 00-.288-.434.46.46 0 00-.508.102.475.475 0 00.07.723.466.466 0 00.726-.391zm-2.857 3.826a.665.665 0 01.405-.61.652.652 0 01.894.48.655.655 0 01-.279.678.653.653 0 01-.827-.082.665.665 0 01-.193-.466zm1.123 0a.476.476 0 00-.288-.435.466.466 0 00-.639.342.478.478 0 00.199.484.468.468 0 00.728-.39zm-4.611-4.94a.765.765 0 01.912-.755.762.762 0 01.6.604.767.767 0 01-.748.919.76.76 0 01-.54-.225.77.77 0 01-.224-.543zm1.284 0a.522.522 0 10-1.003.2.52.52 0 001.003-.2zm10.353 5.327a.663.663 0 01.405-.61.652.652 0 01.894.481.662.662 0 01-.643.789.656.656 0 01-.656-.66zm1.123 0a.478.478 0 00-.289-.436.463.463 0 00-.51.102.468.468 0 00-.101.514.465.465 0 00.763.152.477.477 0 00.137-.332zm-5.596 2.086a.664.664 0 01.404-.61.653.653 0 01.895.48.655.655 0 01-.278.677.654.654 0 01-1.021-.547zm1.123 0a.47.47 0 00-.799-.334.475.475 0 00-.101.513.475.475 0 00.433.29.47.47 0 00.467-.47zm6.584-6.697a.664.664 0 01.405-.61.654.654 0 01.894.482.655.655 0 01-.279.677.65.65 0 01-.828-.082.662.662 0 01-.192-.467zm1.123 0a.473.473 0 00-.289-.433.464.464 0 00-.636.343.475.475 0 00.199.482.466.466 0 00.726-.392zm-5.478-1.272a.663.663 0 01.405-.61.651.651 0 01.714.143.665.665 0 01.142.719.653.653 0 01-1.069.214.662.662 0 01-.192-.466zm1.122 0a.468.468 0 10-.899.18.466.466 0 00.899-.18zm3.925 9.162a.674.674 0 01.413-.623.664.664 0 01.73.146.681.681 0 01.145.735.675.675 0 01-.62.415.672.672 0 01-.668-.673zm1.122 0a.457.457 0 00-.28-.422.45.45 0 00-.495.1.457.457 0 10.744.498.481.481 0 00.036-.176h-.005zm-3.032 5.068a.67.67 0 01.799-.658c.13.026.249.09.342.184a.68.68 0 01.145.733.675.675 0 01-.618.415.67.67 0 01-.668-.673zm1.122 0a.458.458 0 00-.28-.422.453.453 0 00-.619.334.458.458 0 00.193.469.45.45 0 00.573-.057.459.459 0 00.133-.323zm5.311-1.607a.671.671 0 01.8-.662.669.669 0 01.526.53.674.674 0 01-.656.805.677.677 0 01-.67-.673zm1.124 0a.458.458 0 00-.543-.448.459.459 0 00-.164.828.455.455 0 00.707-.38zm.775 5.441a.673.673 0 01.798-.66.67.67 0 01.488.917.676.676 0 01-.618.415.672.672 0 01-.668-.673zm1.122 0a.457.457 0 00-.28-.423.452.452 0 00-.619.333.45.45 0 00.026.264.452.452 0 00.74.148.459.459 0 00.133-.322zm-.986-8.367a.674.674 0 01.8-.662.67.67 0 01.526.529.674.674 0 01-.656.805.67.67 0 01-.67-.672zm1.124 0a.458.458 0 00-.543-.448.459.459 0 00-.163.828.45.45 0 00.573-.057.458.458 0 00.133-.323zm-14.971 4.467a.678.678 0 01.412-.622.664.664 0 01.729.146.68.68 0 01.145.733.676.676 0 01-.618.416.671.671 0 01-.668-.673zm1.122 0a.458.458 0 00-.28-.422.453.453 0 00-.619.333.45.45 0 00.026.264.451.451 0 00.74.148.458.458 0 00.133-.323zm-4.185-.706a.671.671 0 01.799-.66.671.671 0 01.487.917.667.667 0 01-1.286-.257zm1.123 0a.459.459 0 00-.543-.448.459.459 0 00-.164.828.455.455 0 00.573-.057.462.462 0 00.133-.323h.001zm-2.767 6.789a.676.676 0 01.8-.66.67.67 0 01.526.529.682.682 0 01-.285.691.665.665 0 01-.845-.084.674.674 0 01-.196-.476zm1.123 0a.458.458 0 00-.28-.422.45.45 0 00-.495.1.457.457 0 00.321.78.46.46 0 00.454-.457zm-4.264-7.314a.671.671 0 01.799-.66.671.671 0 01.487.917.673.673 0 01-.618.416.667.667 0 01-.472-.197.676.676 0 01-.196-.476zm1.123 0a.459.459 0 00-.543-.448.458.458 0 00.088.905.453.453 0 00.321-.134.463.463 0 00.134-.323zm4.331 9.151a.652.652 0 01-.603-.406.66.66 0 01.476-.897.651.651 0 01.781.645.653.653 0 01-.654.658zm-3.905-.724a.648.648 0 01-.604-.405.66.66 0 01.475-.897.65.65 0 01.672.28.662.662 0 01-.081.83.654.654 0 01-.462.193zm9.998 2.741a.673.673 0 01.799-.66.671.671 0 01.487.918.674.674 0 01-.618.415.666.666 0 01-.472-.198.676.676 0 01-.196-.475zm1.122 0a.457.457 0 00-.28-.422.45.45 0 00-.495.099.457.457 0 00.321.78.458.458 0 00.453-.457h.001zm-3.966-.067a.674.674 0 01.801-.66.667.667 0 01.525.53.674.674 0 01-.657.804.673.673 0 01-.669-.674zm1.123 0a.459.459 0 00-.543-.448.457.457 0 00.089.905c.12 0 .235-.049.32-.134a.464.464 0 00.134-.323z" fill="#DB9507"/><path d="M144.434 37.71v-2.798c0-.026.008-.053.024-.074l2.358-3.096V19.858a.118.118 0 01.026-.077l1.31-1.633v-3.145a.116.116 0 01.039-.08.12.12 0 01.163 0 .12.12 0 01.039.08v3.187a.118.118 0 01-.027.077l-1.309 1.633v11.883a.121.121 0 01-.025.073l-2.356 3.097v2.762a.108.108 0 01-.006.05.122.122 0 01-.066.074.12.12 0 01-.098 0 .122.122 0 01-.066-.073.122.122 0 01-.006-.05v-.006zm-.614-.512a.8.8 0 10-1.555-.37.8.8 0 101.555.37zm1.948-24.783a.806.806 0 000-1.136.795.795 0 00-1.129 0 .806.806 0 000 1.136.795.795 0 001.129 0z" fill="#DB9507"/><path d="M142.927 37.016v-2.799c0-.026.009-.052.025-.073l2.356-3.096V19.164c0-.028.009-.055.026-.077l1.31-1.633v-3.107l-1.528-2.187a.122.122 0 01.12-.186.12.12 0 01.078.046l1.549 2.219c.015.02.022.045.023.07v3.188a.125.125 0 01-.028.076l-1.308 1.633V31.09a.129.129 0 01-.026.073l-2.356 3.097v2.757a.107.107 0 01-.006.05.122.122 0 01-.066.073.118.118 0 01-.098 0 .122.122 0 01-.066-.073.142.142 0 01-.006-.05h.001zm.531-27.306a.652.652 0 01-.604-.406.667.667 0 01.142-.717.655.655 0 01.712-.142.654.654 0 01.404.607.653.653 0 01-.654.658zm-.562 5.856a.656.656 0 00.654-.658.656.656 0 00-.654-.658.656.656 0 00-.654.658c0 .363.293.658.654.658zm-3.066-8.621a.653.653 0 01-.604-.406.66.66 0 01.476-.897.651.651 0 01.781.645.652.652 0 01-.653.658zm-2.356-2.689a.65.65 0 01-.604-.407.668.668 0 01.142-.717.654.654 0 011.116.467.653.653 0 01-.654.657zm-4.227 21.746a.653.653 0 01-.603-.406.66.66 0 01.476-.897.651.651 0 01.781.645.653.653 0 01-.654.658zm-2.385 2.07a.652.652 0 01-.605-.405.66.66 0 01.476-.897.65.65 0 01.781.645.657.657 0 01-.652.657zm-2.731-2.776a.65.65 0 01-.604-.405.66.66 0 01.475-.898.65.65 0 01.672.28.66.66 0 01-.543 1.023zm7.563 17.484a.655.655 0 01-.643-.785.656.656 0 01.892-.48.657.657 0 01.212 1.073.65.65 0 01-.461.193zm5.093-26.103a.653.653 0 01-.604-.406.66.66 0 01.476-.897.651.651 0 01.781.646.659.659 0 01-.653.657zm1.082 6.72a.654.654 0 01-.642-.786.655.655 0 01.892-.48.657.657 0 01.403.608.653.653 0 01-.653.658zm-4.547-.465a.653.653 0 01-.641-.786.658.658 0 01.513-.517.652.652 0 01.781.645.652.652 0 01-.653.658zm-1.926-6.255a.656.656 0 00.654-.657.656.656 0 00-.654-.658.656.656 0 00-.654.658c0 .363.293.657.654.657zm-3.792-5.911a.658.658 0 01-.129-1.303.65.65 0 01.671.28.66.66 0 01-.081.83.65.65 0 01-.461.193zm-.833 5.911a.656.656 0 00.654-.657.656.656 0 00-.654-.658.656.656 0 00-.654.658c0 .363.293.657.654.657zm8.187 15.086a.656.656 0 00.654-.658.656.656 0 00-.654-.658.655.655 0 00-.653.658c0 .363.292.658.653.658zm-.511 7.112a.655.655 0 00.653-.658.655.655 0 00-.653-.658.656.656 0 00-.654.658c0 .363.293.658.654.658z" fill="#DB9507"/><path d="M143.603 28.914a.65.65 0 01-.604-.406.667.667 0 01.142-.717.652.652 0 011.116.465.659.659 0 01-.654.658zm4.519 3.018a.652.652 0 01-.603-.406.66.66 0 01.476-.897.652.652 0 01.781.645.653.653 0 01-.654.658zm-6.902 6.545a.65.65 0 01-.604-.406.668.668 0 01.142-.717.654.654 0 011.116.467.657.657 0 01-.654.656zm2.05-25.957l.089-3.468a.122.122 0 01.124-.108.122.122 0 01.118.115l-.09 3.428 1.532 2.182c.014.02.022.045.022.07v3.188a.12.12 0 01-.028.076l-1.308 1.634v4.948a.125.125 0 01-.039.079.123.123 0 01-.082.032.123.123 0 01-.082-.032.125.125 0 01-.039-.079v-4.994c0-.027.009-.054.026-.076l1.31-1.634v-3.104l-1.528-2.186a.127.127 0 01-.025-.07z" fill="#DB9507"/><path d="M141.102 37.447v-2.8a.115.115 0 01.024-.073l2.357-3.096v-2.785a.107.107 0 01.006-.05.122.122 0 01.066-.073.12.12 0 01.098 0 .122.122 0 01.066.073.141.141 0 01.006.05v2.825a.119.119 0 01-.026.075l-2.352 3.096v2.763a.121.121 0 01-.04.079.12.12 0 01-.163 0 .12.12 0 01-.039-.08l-.003-.005zm.382-24.421V8.994a.121.121 0 01.04-.08.12.12 0 01.163 0 .13.13 0 01.039.08v3.99l1.267 1.85a.12.12 0 01.02.091.124.124 0 01-.05.079.12.12 0 01-.168-.031l-1.289-1.882a.126.126 0 01-.022-.065zm.289 9.657v-3.435l.722-1.596.172.078-.705 1.56v3.393h-.189z" fill="#DB9507"/><path d="M139.941 39.557v-5.822l1.686-2.137-.031-.778.189-.007.033.848-1.688 2.14v5.756h-.189zm-.375-18.218v-2.465l1.192-2.858-1.049-3.112V6.598h.188v6.274l1.062 3.15-1.205 2.889v2.428h-.188zm-1.265 12.329l.566-2.583.184.04-.561 2.563.036 4.362-.189.002-.036-4.384zm-.704-30.069h-.242v3.643h.242V3.6zm-.242 11.355V8.279h.242v6.584l.604.711-.182.159-.664-.78zm-.128 7.32V17.25l.945-.826.123.143-.879.77v4.937h-.189zm-1.004 8.536l.177-.122.781 1.142.019.06.073 7.666-.214.002-.074-7.633-.762-1.115zm-.708-24.522h-.242v9.167h.242V6.288zm-.445 17.113l.205-1.07v-5.835h.242v5.858l-.21 1.093-.237-.046zm-.216 8.579a.649.649 0 01-.605-.405.667.667 0 01.141-.717.655.655 0 01.713-.143.66.66 0 01.213 1.073.654.654 0 01-.462.192z" fill="#DB9507"/><path d="M134.746 34.115v-2.792h.216v2.744l.838 1.737v6.32h-.215v-6.27l-.839-1.739zm-1.405-26.326h-.189v5.956h.189V7.789zm0 10.466h-.189v7.089h.189v-7.089zm.014 11.789h-.214v7.402h.214v-7.402zm-2.656-14.45l.811-1.036V10.11h.188v4.514l-.851 1.09-.148-.119zm0 .723l.147-.119.852 1.061v3.73h-.188v-3.663l-.811-1.009zm.082 10.806l.729-1.214v-3.828h.188v3.881l-.756 1.26-.161-.099zm-.015.567l.188-.103.756 1.386v6.73h-.216v-6.675l-.728-1.338zm-2.743-11.772v-2.514l1.097-1.597v-.576h.214v.643l-1.095 1.597v2.447h-.216zm.215 1.304h-.215v7.324h.215v-7.324zm.141 12.366l.165-.139.907 1.103v5.738h-.216v-5.66l-.856-1.042zm19.637-1.398v-2.58h1.579v.215h-1.365v2.365h-.214zm0 6.002v-2.918h.214v2.702h1.229v.216h-1.443zm-31.762 38.616l-.012-.006.012.006zm-13.096-.134c-.106.181-.456.31-.788.292-.332-.02-.519-.18-.416-.36.102-.181.456-.31.789-.29.332.019.518.179.415.358zm-8.914 5.811c-.105.18-.456.31-.789.29-.332-.018-.518-.18-.415-.36.104-.18.457-.309.788-.29.332.02.522.18.416.36zm24.829-2.929c-.4-.023-.624-.212-.5-.432s.548-.373.951-.35c.402.023.623.213.499.433s-.552.372-.95.35zm.372-.651c-.265-.015-.547.089-.633.233-.087.143.066.271.331.286.265.015.547-.088.634-.231.087-.144-.067-.272-.332-.288zm-23.558.398c-.273-.015-.423-.147-.341-.295.08-.148.374-.254.647-.238.272.016.422.148.341.295-.081.148-.375.254-.647.238zm.261-.457c-.194-.01-.4.065-.46.17-.06.106.049.2.243.213.194.013.4-.065.46-.17.06-.105-.048-.202-.246-.213h.004zm-1.722 2.146c-.273-.016-.423-.148-.341-.296.08-.147.375-.254.647-.238.272.016.422.148.341.296-.081.147-.375.254-.647.238zm.262-.457c-.195-.012-.402.065-.46.17-.06.105.048.199.242.212.194.014.4-.064.46-.17.06-.105-.05-.201-.242-.212zm-2.172 1.223c-.273-.016-.423-.148-.342-.296.082-.147.375-.254.648-.239.272.015.422.15.34.296-.08.146-.374.255-.647.239zm.261-.457c-.194-.012-.4.065-.46.17-.06.105.049.199.243.212.194.014.4-.066.46-.17.06-.104-.043-.202-.243-.212zm5.598 1.697c-.273-.016-.422-.149-.341-.296.081-.146.375-.254.647-.239.273.015.422.15.341.296-.081.146-.375.255-.647.239zm.262-.457c-.194-.012-.4.065-.46.17-.06.105.048.199.242.212.195.014.401-.066.46-.17.06-.104-.048-.201-.242-.208v-.004zM94.71 80.48c-.272-.017-.422-.15-.34-.296.083-.147.374-.255.646-.24.273.017.423.15.342.296-.082.147-.373.254-.648.24zm.263-.459c-.194-.01-.401.066-.461.17-.06.104.048.2.243.213.194.013.4-.065.461-.17.06-.105-.05-.201-.243-.213zm5.937-.877c-.272-.017-.422-.15-.341-.296.081-.147.375-.255.647-.239.273.016.423.148.341.295-.081.148-.375.254-.647.24zm.262-.459c-.194-.01-.401.066-.46.17-.06.105.048.2.242.213.195.013.401-.065.461-.17.06-.105-.049-.2-.243-.212zm2.195 1.33c-.272-.016-.422-.148-.341-.296.081-.147.375-.254.647-.238.273.016.423.148.34.296-.082.147-.37.256-.646.238zm.262-.457c-.194-.012-.401.065-.462.17-.06.105.05.199.243.212.194.014.402-.064.462-.17.06-.105-.049-.201-.243-.212zm-4.776 1.665c-.317-.018-.494-.172-.396-.344.098-.172.436-.296.753-.278.317.018.494.172.396.344-.098.17-.435.296-.753.278zm.3-.523c-.212-.013-.447.072-.515.19-.067.116.055.222.272.234.216.012.448-.072.514-.189.067-.117-.055-.223-.271-.235zm6.405-3.988c-.272-.015-.422-.148-.341-.295.082-.148.375-.254.648-.238.272.016.422.147.341.295-.081.148-.375.254-.648.238zm.262-.457c-.193-.011-.4.065-.46.17-.06.106.049.2.243.213.194.013.401-.065.461-.17.061-.105-.049-.202-.244-.213zm.258 2.369c-.272-.016-.422-.149-.341-.295.081-.147.375-.255.647-.24.273.016.423.148.34.296-.082.147-.374.254-.646.239zm.262-.458c-.194-.01-.401.066-.462.17-.06.104.05.2.243.213.194.012.402-.065.462-.17.06-.106-.049-.201-.243-.213zm-3.477-2.969c-.272-.016-.422-.149-.341-.296.081-.146.375-.254.647-.239.273.016.423.15.342.296-.082.147-.375.255-.648.239zm.262-.458c-.193-.01-.4.066-.46.17-.061.104.048.2.243.212.194.013.401-.065.46-.17.059-.106-.049-.2-.243-.212zm-2.234 2.178c-.273-.016-.423-.148-.342-.295.082-.147.375-.255.648-.24.272.017.422.149.341.296-.081.148-.375.254-.647.24zm.261-.458c-.194-.01-.4.066-.46.17-.06.105.049.2.243.213.194.013.4-.065.46-.17.061-.105-.048-.2-.243-.213zm7.782-1.208c-.278-.016-.434-.15-.348-.3.087-.15.383-.26.66-.244.278.016.434.151.348.3-.087.15-.382.261-.66.244zm.262-.457c-.188-.01-.39.064-.448.166-.058.102.047.193.237.204.189.01.388-.063.447-.165.059-.102-.047-.193-.236-.204zm3.085 1.456c-.278-.016-.433-.15-.347-.3.085-.15.382-.261.66-.245.277.016.434.152.347.302-.086.15-.382.259-.66.243zm.262-.457c-.188-.01-.389.063-.448.165-.059.102.048.194.237.205.189.01.389-.064.448-.166.058-.102-.048-.193-.237-.204zm.035-2.233c-.278-.016-.433-.151-.347-.301.085-.15.382-.26.66-.243.277.015.434.15.347.3-.087.15-.382.26-.66.243zm.263-.457c-.189-.011-.39.063-.449.165-.059.102.048.194.237.204.189.011.389-.063.447-.165.058-.102-.047-.194-.235-.204zm4.253-.083c-.278-.016-.434-.151-.347-.302.086-.15.382-.26.66-.243.277.016.434.15.347.302-.087.15-.383.26-.66.243zm.262-.458c-.188-.01-.39.064-.448.166-.058.102.048.193.237.204.189.01.389-.063.447-.165.059-.102-.047-.192-.236-.204v-.001zm-6.492.043c-.278-.016-.435-.15-.348-.3.087-.15.381-.26.659-.244.278.016.434.151.349.301-.086.15-.382.26-.66.243zm.261-.457c-.189-.01-.389.064-.447.166-.058.102.047.194.235.204.188.01.39-.064.449-.165.059-.102-.048-.194-.237-.204zm-.148 6.291c-.278-.016-.434-.15-.348-.302.087-.15.382-.259.659-.243.278.016.434.15.349.302-.086.15-.382.258-.66.243zm.262-.458c-.189-.01-.39.064-.448.166-.058.102.047.193.235.204.188.01.39-.063.449-.165.059-.102-.047-.194-.236-.206v.001zm-1.508 1.673c-.277-.015-.434-.15-.348-.3.085-.15.382-.26.66-.244.278.016.434.151.348.301-.085.15-.382.26-.66.243zm.262-.456c-.189-.011-.389.063-.448.165-.058.102.048.194.236.204.188.011.39-.062.449-.164.059-.102-.048-.195-.237-.205zm4.44 1.419c-.277-.016-.433-.152-.347-.302.086-.15.382-.259.66-.243.278.016.434.151.348.3-.087.15-.383.261-.661.245zm.262-.458c-.188-.01-.388.064-.447.166-.06.102.047.193.236.204.189.01.39-.063.448-.165.058-.102-.048-.194-.237-.205zm-6.472 1.423c-.278-.016-.433-.15-.348-.302.086-.15.382-.259.66-.243.278.016.434.15.348.302-.087.15-.381.259-.66.243zm.263-.457c-.19-.011-.39.063-.449.165-.059.102.047.193.236.205.189.012.39-.064.448-.166.058-.102-.048-.193-.235-.204zm7.862-1.372c-.085.147-.373.254-.646.238-.272-.016-.422-.147-.34-.294.083-.147.374-.254.646-.238.271.016.424.149.34.294zm-1.453 1.56c-.085.147-.373.253-.646.237-.272-.016-.422-.147-.34-.294.083-.148.374-.253.646-.238.271.015.424.147.34.295zm4.383-3.953c-.278-.017-.434-.152-.348-.301.085-.15.382-.26.66-.244.277.016.434.151.348.301-.085.15-.382.26-.66.243zm.262-.458c-.189-.01-.39.063-.448.165-.058.102.048.195.236.205.188.01.389-.064.448-.166.058-.102-.047-.193-.236-.204zm-.973 1.611c-.278-.016-.434-.15-.348-.3.087-.15.383-.26.66-.244.278.016.433.151.348.301-.086.15-.383.26-.66.243zm.262-.457c-.188-.01-.39.064-.448.166-.058.102.047.194.235.204.188.01.39-.064.449-.166.059-.102-.047-.193-.236-.204z" fill="#DB9507"/><path d="M118.664 75.18l-2.095-.121a.111.111 0 01-.05-.013l-1.769-1.093-8.899-.508a.107.107 0 01-.051-.015l-.917-.604-2.355-.134c-.05 0-.079-.027-.063-.055a.138.138 0 01.123-.042l2.387.137a.09.09 0 01.05.014l.918.603 8.898.51a.122.122 0 01.05.014l1.768 1.093 2.065.118c.05 0 .079.028.063.055a.142.142 0 01-.123.041zm-.236.569c-.106.18-.456.31-.789.29-.333-.019-.519-.179-.415-.36.103-.18.456-.309.788-.29.331.02.513.181.416.36zm-18.352-1.96c-.106.18-.455.31-.788.291-.333-.019-.519-.18-.416-.36.102-.18.456-.31.789-.29.332.019.518.18.415.359z" fill="#DB9507"/><path d="M117.795 75.763l-2.095-.12a.104.104 0 01-.05-.012l-1.769-1.094-8.899-.51a.108.108 0 01-.051-.015l-.918-.603-2.323-.134-1.995.531a.124.124 0 01-.12-.02c-.016-.023.011-.053.062-.067l2.022-.531a.185.185 0 01.059-.007l2.386.138a.1.1 0 01.051.014l.918.603 8.898.51a.1.1 0 01.05.015l1.767 1.086 2.065.119c.051 0 .079.026.063.054a.138.138 0 01-.121.043zm-20.327-1.387c-.085.146-.373.253-.645.238-.27-.015-.422-.148-.34-.295.083-.146.373-.254.645-.238.271.016.424.147.34.295zm4.254.48c-.084.147-.373.253-.645.238-.271-.015-.422-.148-.34-.295.083-.148.373-.253.644-.237.272.016.425.146.341.294zm-7.172.877c-.084.147-.373.253-.644.237-.272-.016-.423-.147-.34-.294.082-.147.372-.253.645-.238.272.015.423.148.34.294zm-2.562.843c-.084.147-.374.254-.645.238-.271-.016-.422-.147-.34-.294.082-.147.373-.254.645-.238.273.016.424.148.34.294zm15.297 2.657c-.085.147-.373.254-.646.238-.272-.016-.422-.147-.339-.295.084-.147.373-.252.645-.238.271.015.424.148.34.295zm.996 1.061c-.084.148-.372.254-.645.238-.272-.016-.422-.146-.34-.294.082-.148.374-.253.645-.238.272.015.425.148.34.294zm-2.718.993c-.085.146-.373.254-.646.238-.272-.016-.422-.148-.34-.295.083-.146.374-.254.646-.238.271.016.427.148.34.295zm14.859-2.329c-.085.147-.373.254-.645.238-.273-.016-.423-.147-.34-.295.082-.147.373-.253.645-.238.271.015.424.148.34.295zm-18.361-3.196c-.084.147-.372.253-.644.238-.271-.015-.422-.147-.34-.294.083-.147.373-.254.644-.238.272.016.427.147.34.294zm5.286-.152c-.084.148-.373.254-.645.238-.271-.016-.422-.147-.34-.294.083-.147.373-.254.646-.238.272.016.423.148.339.294zm-1.409 1.832c-.085.147-.373.253-.646.237-.272-.016-.422-.146-.34-.294.083-.148.373-.253.645-.238.273.015.424.148.341.295zm-5.133.515c-.085.147-.373.255-.646.239-.272-.016-.422-.148-.34-.295.083-.146.374-.254.646-.238.271.016.424.148.34.294zm-5.313 1.292c-.084.146-.373.252-.645.238-.272-.015-.422-.148-.34-.295.082-.146.373-.254.645-.238.273.016.425.147.34.295zm4.235.592c-.085.147-.373.253-.646.237-.272-.016-.422-.146-.34-.294.083-.148.374-.253.645-.238.272.015.425.148.34.295zm13.211-2.687c-.085.148-.373.254-.646.238-.272-.016-.422-.146-.34-.294.083-.148.374-.253.646-.238.271.015.419.148.34.294zm5.199.516c-.085.146-.374.254-.646.238-.271-.016-.422-.148-.34-.295.083-.146.373-.254.646-.238.272.016.419.148.34.295z" fill="#DB9507"/><path d="M111.883 75.145c-.085.147-.374.254-.645.238-.272-.016-.423-.148-.341-.294.083-.147.373-.254.646-.238.272.016.425.143.34.294zm3.316-1.716c-.084.147-.373.254-.645.238-.272-.016-.422-.148-.34-.294.082-.147.373-.254.645-.238.273.016.425.147.34.294zm3.289 3.097c-.085.147-.373.253-.645.238-.273-.014-.423-.147-.339-.294.083-.147.372-.254.644-.238.271.016.424.142.34.294zm-18.961-1.954l-2.576-.186c-.05 0-.076-.028-.06-.055a.14.14 0 01.121-.043l2.546.184 1.993-.531a.18.18 0 01.058-.006l2.387.137c.018 0 .035.005.051.014l.917.604 3.706.213c.051 0 .078.026.062.054a.137.137 0 01-.118.043l-3.738-.212a.094.094 0 01-.051-.014l-.918-.603-2.323-.133-1.995.53a.207.207 0 01-.062.004z" fill="#DB9507"/><path d="M117.691 76.526l-2.095-.12a.11.11 0 01-.05-.013l-1.768-1.093-2.086-.12c-.051 0-.078-.027-.063-.054a.141.141 0 01.119-.044l2.112.121a.11.11 0 01.05.014l1.775 1.097 2.064.119c.051 0 .08.026.064.054a.14.14 0 01-.122.04zM99.493 75.32l-3.02-.175c-.05 0-.078-.028-.063-.054a.143.143 0 01.12-.045l2.991.172 1.682-.437c.05-.012.105 0 .119.02.014.02-.012.055-.062.068l-1.71.444a.215.215 0 01-.057.007zm7.297.299l-2.571-.148-1.028-.362.1-.067 1.003.354 2.541.147-.045.076z" fill="#DB9507"/><path d="M119 77.09l-4.36-.25-1.207-.778-.589-.021.038-.077.642.023 1.209.78 4.31.247-.043.077zm-13.733-.63l-1.846-.106-1.862-.608-2.575.294-4.722-.271.044-.077 4.698.269 2.608-.296 1.882.614 1.817.104-.044.077zm8.938 1.045l-1.803-.341.074-.073 1.788.339 3.275.173-.042.076-3.292-.174zm-20.007-.75l-2.73-.157.057-.098 2.729.156-.056.099zm5.773.331l-4.998-.288.056-.097 4.931.282.673-.215.076.081-.738.237zm5.451.367l-3.762-.217-.398-.42.135-.044.372.392 3.697.211-.044.078zm6.159.776l-.05-.078 1.037-.268.05-.005 5.758.299-.049.087-5.732-.298-1.014.263zm-11.721-.275l-6.864-.394.056-.098 6.864.395-.055.097zm5.904.426l-.754-.13-4.369-.25.056-.099 4.386.252.77.132-.089.094zm6.373.455c-.085.147-.373.254-.645.238-.273-.016-.423-.147-.341-.294.083-.147.374-.254.646-.238.271.016.424.148.34.294z" fill="#DB9507"/><path d="M113.713 78.971l-2.092-.12.051-.087 2.054.118 1.496-.267 4.734.271-.051.087-4.695-.269-1.497.267zm-15.628-.226l-4.46-.256.044-.077 4.46.256-.044.077zm8.688.498l-5.308-.304.044-.077 5.308.305-.044.076zm9.059.527l-5.543-.318.05-.088 5.544.318-.051.087zm-16.934.056l-.586-.375-3.331-.192.044-.077 3.38.194.616.394-.123.056zm.54.03l-.055-.066.994-.3 2.792.16-.044.077-2.742-.158-.945.287zm8.113.431l-.74-.349-2.866-.165.045-.076 2.906.167.767.361-.112.062zm.42.03l-.033-.081 1.214-.249 5.041.29-.051.087-4.998-.287-1.173.24zm-9.455.611l-1.883-.108-.94-.515-.431-.025.05-.087.482.028.94.514 1.832.106-.05.087zm6.46.37l-5.484-.314.05-.087 5.484.314-.05.087zm3.858.072l-.064-.073 1.037-.32 4.297.246-.051.087-4.238-.243-.981.304zm3.536-8.058l-1.932-.11.369-.644.162.01-.319.555 1.771.102-.051.087zm4.495.258l-2.185-.125.05-.087 2.023.116.287-.5.162.009-.337.587zm-54.357.706l-.012-.005.012.005zm-13.096-.128c-.106.18-.455.31-.788.291-.333-.019-.519-.18-.416-.36.102-.18.456-.31.789-.291.332.02.518.18.415.36zm-8.91 5.811c-.106.18-.457.31-.788.29-.332-.018-.519-.18-.416-.36.102-.18.456-.31.788-.29.333.018.519.18.416.36zm24.821-2.93c-.4-.022-.623-.212-.5-.432.124-.22.55-.372.95-.349.402.023.624.212.5.432-.123.22-.551.378-.95.349zm.372-.65c-.265-.015-.547.089-.633.232-.087.144.066.272.331.287.265.015.548-.089.634-.232.085-.144-.067-.272-.332-.287zm-23.555.398c-.272-.016-.422-.148-.34-.295.08-.148.374-.254.647-.24.272.015.422.15.34.296-.08.147-.374.255-.646.24zm.262-.457c-.193-.011-.4.065-.46.17-.06.105.049.199.243.213.194.013.401-.066.46-.17.06-.104-.048-.202-.243-.213zm-1.726 2.146c-.273-.016-.423-.15-.341-.296.08-.147.374-.255.647-.239.272.016.422.149.341.295-.081.147-.375.255-.647.24zm.262-.459c-.195-.01-.4.066-.46.172-.061.105.048.198.242.212.194.014.4-.066.46-.17.06-.104-.048-.202-.242-.214zm-2.168 1.225c-.273-.016-.423-.15-.342-.296.082-.146.375-.255.648-.239.272.016.422.148.34.296-.08.147-.374.254-.647.239zm.261-.458c-.193-.011-.4.066-.46.17-.06.104.049.2.243.212.194.013.4-.065.46-.17.06-.105-.05-.2-.243-.212zm5.598 1.696c-.273-.014-.423-.147-.341-.295.081-.147.375-.254.646-.238.271.016.422.148.341.296-.081.147-.374.254-.646.238zm.262-.456c-.195-.011-.402.065-.462.17-.06.105.05.2.243.212.193.013.401-.065.462-.17.06-.105-.049-.2-.243-.212zm-3.926 1.938c-.273-.015-.423-.148-.341-.295.081-.148.374-.254.647-.238.273.016.422.147.34.295-.082.148-.374.254-.646.238zm.262-.457c-.195-.01-.402.065-.462.17-.06.105.05.2.243.213.193.012.401-.065.462-.17.06-.106-.049-.201-.238-.213h-.005zm5.933-.879c-.272-.015-.422-.147-.341-.295.081-.148.375-.254.647-.238.273.016.423.148.341.295-.08.148-.375.254-.647.238zm.262-.457c-.193-.011-.4.065-.46.17-.06.106.048.2.242.213.195.014.4-.065.46-.17.061-.105-.048-.202-.242-.213zm2.199 1.33c-.273-.016-.422-.15-.341-.296.081-.146.375-.255.647-.239.273.016.423.149.341.296-.081.146-.378.255-.647.239zm.262-.458c-.194-.01-.4.066-.46.17-.06.104.048.2.242.212.195.013.4-.066.46-.17.061-.106-.048-.2-.242-.212zm-4.775 1.665c-.317-.018-.496-.172-.397-.343.098-.172.436-.297.753-.278.316.02.495.172.397.343-.099.171-.436.297-.753.278zm.3-.523c-.212-.013-.448.073-.516.19-.067.117.055.222.272.235.216.013.447-.073.514-.19.066-.117-.054-.222-.27-.235zm6.404-3.987c-.272-.016-.422-.149-.34-.295.08-.147.374-.254.646-.24.271.015.422.15.34.296-.08.147-.373.255-.646.239zm.262-.457c-.194-.012-.401.065-.461.17-.06.105.05.199.243.213.193.013.401-.066.461-.17.06-.104-.048-.202-.243-.213zm.258 2.368c-.273-.016-.422-.148-.341-.296.081-.148.375-.254.647-.238.273.016.423.148.341.296-.081.147-.375.254-.647.238zm.262-.457c-.194-.012-.4.064-.46.17-.06.105.048.198.242.212.195.014.4-.065.46-.17.06-.105-.048-.202-.242-.212zm-3.477-2.97c-.272-.015-.422-.148-.341-.296.081-.147.374-.254.646-.238.273.016.423.148.341.296-.08.147-.373.254-.646.238zm.262-.457c-.194-.01-.401.065-.462.17-.06.105.05.2.243.212.194.013.402-.064.462-.17.06-.105-.048-.2-.243-.212zm-2.235 2.177c-.272-.015-.422-.148-.34-.295.08-.148.374-.254.647-.238.272.016.422.147.34.295-.08.148-.374.254-.647.238zm.262-.457c-.193-.012-.4.065-.46.17-.06.105.049.2.243.213.194.012.4-.065.46-.17.06-.106-.048-.202-.243-.213zm7.781-1.207c-.277-.016-.433-.15-.347-.3.085-.15.382-.261.66-.245.278.016.434.152.347.302-.086.15-.382.256-.66.243zm.263-.457c-.189-.01-.39.063-.449.165-.059.102.048.194.237.205.19.01.39-.064.448-.166.058-.102-.048-.193-.236-.204zm3.086 1.455c-.278-.016-.434-.152-.349-.302.086-.15.383-.26.66-.243.278.016.434.15.349.302-.085.15-.382.259-.66.243zm.262-.458c-.19-.01-.39.064-.448.166-.058.102.048.193.236.204.188.01.39-.063.447-.165.059-.102-.047-.193-.235-.2v-.005zm.035-2.227c-.278-.016-.434-.151-.349-.302.086-.151.383-.26.66-.243.278.015.434.15.349.301-.086.151-.382.254-.66.244zm.262-.457c-.19-.012-.39.062-.448.164-.058.102.047.194.236.206.188.011.39-.064.447-.166.058-.102-.047-.199-.235-.21v.006zm4.254-.089c-.28-.015-.434-.15-.349-.3.086-.15.382-.26.66-.243.278.016.434.15.347.3-.086.15-.38.257-.659.243zm.261-.456c-.189-.011-.39.063-.448.165-.06.102.047.194.236.204.19.011.39-.062.448-.164.058-.102-.048-.195-.236-.205zm-6.493.045c-.277-.016-.434-.15-.347-.301.087-.151.382-.26.66-.244.278.016.434.152.348.302-.087.15-.383.256-.66.243zm.262-.457c-.188-.011-.39.063-.447.165-.059.102.047.194.236.205.19.012.39-.064.448-.166.058-.102-.048-.196-.237-.207v.003zm-.149 6.285c-.277-.015-.433-.15-.347-.3.087-.15.383-.26.66-.243.278.015.434.15.348.3-.087.15-.383.26-.66.244zm.263-.456c-.188-.011-.39.063-.448.165-.058.102.047.194.236.204.19.011.389-.062.448-.164.06-.102-.047-.195-.233-.205h-.003zm-1.508 1.674c-.278-.016-.434-.15-.348-.3.087-.15.383-.26.66-.245.278.016.433.152.348.302-.086.15-.383.26-.66.243zm.261-.457c-.187-.01-.39.063-.447.165-.058.102.047.195.236.205.19.01.389-.063.448-.165.06-.103-.046-.194-.236-.206v.001zm4.442 1.419c-.277-.016-.434-.15-.348-.3.085-.15.382-.261.66-.245.278.016.434.152.348.302-.085.15-.382.259-.66.243zm.262-.457c-.189-.01-.39.063-.448.165-.058.102.047.194.236.205.189.01.39-.064.448-.166.058-.102-.048-.193-.236-.204zm-6.473 1.423c-.277-.016-.434-.152-.348-.302.085-.15.382-.26.66-.243.278.016.434.15.348.3-.085.15-.382.26-.66.245zm.262-.458c-.189-.01-.39.064-.447.166-.059.102.047.193.235.204.188.01.39-.063.448-.165.058-.102-.048-.194-.236-.205zm7.862-1.371c-.084.147-.373.253-.645.238-.273-.015-.423-.148-.34-.295.084-.148.374-.253.645-.237.271.016.424.146.34.294zm-1.453 1.559c-.085.147-.373.254-.645.238-.273-.016-.423-.148-.34-.294.084-.147.373-.254.645-.238.271.015.424.147.34.294zm4.383-3.953c-.277-.016-.434-.15-.347-.302.087-.15.382-.259.66-.243.278.016.433.151.348.302-.086.15-.383.26-.66.243zm.262-.457c-.188-.011-.39.063-.447.165-.059.102.047.193.236.205.19.012.389-.064.448-.166.06-.102-.048-.193-.237-.204zm-.973 1.611c-.277-.016-.433-.15-.347-.302.087-.15.382-.259.66-.243.278.016.434.15.348.302-.087.15-.383.259-.66.243zm.263-.457c-.189-.011-.39.063-.448.165-.06.102.047.193.236.205.19.012.39-.064.448-.166.058-.102-.047-.193-.237-.204z" fill="#DB9507"/><path d="M64.918 76.653l-2.095-.12a.105.105 0 01-.05-.013l-1.769-1.093-8.895-.512a.116.116 0 01-.052-.013l-.92-.607-2.354-.135c-.051 0-.08-.028-.064-.054a.143.143 0 01.12-.045l2.386.137c.018 0 .036.005.05.015l.919.603 8.898.51a.112.112 0 01.05.015l1.769 1.092 2.064.119c.05 0 .078.026.063.054a.141.141 0 01-.12.047zm-.245.569c-.105.18-.456.31-.787.292-.332-.02-.519-.181-.417-.36.103-.18.457-.31.79-.292.332.02.52.18.414.36zM46.33 75.263c-.105.18-.456.31-.789.291-.332-.019-.518-.18-.415-.36.104-.18.456-.31.788-.291.333.019.519.18.416.36z" fill="#DB9507"/><path d="M64.04 77.237l-2.094-.12a.104.104 0 01-.05-.014l-1.763-1.092-8.899-.511a.115.115 0 01-.05-.014l-.918-.603-2.324-.134-1.995.531c-.05.014-.105 0-.119-.02-.014-.018.01-.053.061-.066l2.024-.531a.202.202 0 01.057 0l2.386.137a.1.1 0 01.051.014l.918.603 8.898.511a.11.11 0 01.05.013l1.761 1.08 2.065.117c.05 0 .078.028.062.055a.14.14 0 01-.12.044zm-20.317-1.388c-.085.147-.374.253-.646.237-.271-.015-.422-.147-.34-.294.083-.147.373-.253.646-.238.272.015.423.148.34.294zm4.254.48c-.085.147-.374.254-.646.238-.271-.016-.422-.148-.34-.295.083-.146.373-.254.645-.238.273.016.424.148.34.295zm-7.168.877c-.085.147-.373.253-.646.238-.272-.014-.422-.147-.34-.294.083-.147.374-.254.646-.238.271.016.421.145.34.294zm-2.567.844c-.084.147-.372.253-.645.238-.273-.015-.422-.148-.34-.294.082-.147.374-.254.645-.238.272.016.425.152.34.294zm15.296 2.657c-.083.146-.373.254-.644.238-.272-.016-.423-.148-.34-.295.082-.146.372-.254.644-.238.271.016.424.152.34.294zm1.001 1.061c-.085.147-.373.254-.646.238-.272-.016-.422-.148-.339-.294.084-.147.373-.254.645-.238.27.016.42.153.34.294zm-2.724.992c-.084.147-.372.253-.644.239-.271-.015-.422-.148-.34-.295.082-.146.373-.254.644-.238.272.016.422.147.34.294zm14.86-2.329c-.084.147-.373.254-.645.238-.273-.016-.422-.147-.339-.294.083-.147.373-.254.644-.238.272.016.425.148.34.294zm-18.359-3.196c-.084.148-.373.254-.645.238-.271-.016-.422-.147-.34-.294.082-.147.373-.253.645-.238.273.015.424.147.34.294zm5.282-.151c-.085.147-.373.253-.645.238-.273-.015-.423-.147-.34-.294.082-.147.372-.254.645-.238.272.016.423.146.34.294zm-1.407 1.831c-.084.148-.372.254-.645.238-.272-.016-.422-.148-.34-.294.082-.147.374-.254.645-.238.272.016.425.147.34.294zm-5.134.516c-.084.147-.372.253-.644.238-.271-.014-.422-.147-.34-.295.083-.148.373-.253.644-.237.272.016.428.152.34.294zm-5.311 1.291c-.085.147-.373.254-.646.238-.272-.016-.422-.147-.339-.295.084-.148.373-.253.645-.238.27.015.424.148.34.294zm4.237.592c-.084.148-.372.254-.644.238-.271-.016-.422-.148-.34-.294.082-.147.373-.254.644-.238.272.016.42.148.34.294zm13.199-2.686c-.084.147-.372.254-.644.238-.271-.016-.422-.147-.34-.294.083-.147.373-.254.644-.238.272.016.426.147.34.294zm5.208.515c-.084.147-.372.253-.645.238-.272-.014-.422-.147-.34-.295.083-.148.374-.253.646-.237.271.016.424.147.34.294z" fill="#DB9507"/><path d="M58.137 76.615c-.085.146-.373.252-.645.238-.273-.015-.423-.148-.34-.296.082-.148.373-.253.645-.237.271.016.424.147.34.295zm3.316-1.712c-.085.146-.373.252-.646.238-.272-.015-.422-.148-.339-.296.084-.147.373-.253.644-.237.272.016.425.147.34.295zm3.288 3.092c-.083.147-.373.254-.644.238-.271-.016-.422-.147-.34-.295.082-.147.373-.252.644-.238.272.015.425.148.34.295zm-18.959-1.949l-2.576-.186c-.05 0-.077-.028-.06-.055a.143.143 0 01.12-.044l2.546.184 1.994-.531a.172.172 0 01.057-.007l2.387.138c.018 0 .035.005.05.013l.918.604 3.706.212c.05 0 .08.028.063.056a.14.14 0 01-.054.036c-.02.007-.043.01-.065.007l-3.739-.212a.116.116 0 01-.05-.014l-.918-.604-2.323-.133-1.995.53a.169.169 0 01-.061.006z" fill="#DB9507"/><path d="M63.94 78l-2.095-.12a.106.106 0 01-.05-.014l-1.768-1.092-2.085-.12c-.05 0-.078-.028-.063-.054a.14.14 0 01.12-.045l2.112.122c.017 0 .034.005.05.013l1.767 1.094 2.065.117c.05 0 .078.028.062.056a.139.139 0 01-.115.043zm-18.194-1.206l-3.02-.173c-.049 0-.077-.028-.062-.055a.14.14 0 01.12-.044l2.99.172 1.68-.437c.051-.013.106 0 .12.02.014.019-.011.054-.062.068l-1.71.443a.174.174 0 01-.056.006zm7.298.297l-2.571-.146-1.028-.363.1-.066 1.003.353 2.54.146-.044.076z" fill="#DB9507"/><path d="M65.25 78.564l-4.36-.25-1.207-.778-.59-.021.04-.078.642.023 1.208.78 4.31.247-.044.077zm-13.728-.631l-1.847-.105-1.86-.609-2.577.294-4.722-.272.044-.076 4.7.27 2.606-.298 1.882.615 1.817.105-.043.076zm8.937 1.046l-1.803-.342.073-.073 1.788.338 3.275.174-.042.076-3.291-.173zm-20.007-.752l-2.73-.156.058-.099 2.727.158-.055.097zm5.773.332l-4.998-.287.057-.098 4.93.283.674-.216.075.082-.738.236zm5.45.367l-3.761-.216-.398-.42.136-.044.37.39 3.698.213-.045.077zm6.161.776l-.05-.077 1.037-.27.049-.004 5.757.3-.048.086-5.732-.297-1.013.262zm-11.722-.274l-6.864-.394.056-.098 6.865.393-.057.1zm5.903.425l-.753-.13-4.37-.25.056-.099 4.388.252.77.133-.09.094zm6.373.456c-.085.147-.373.253-.645.237-.271-.016-.422-.147-.34-.294.083-.148.373-.253.645-.238.27.014.424.147.34.295z" fill="#DB9507"/><path d="M59.966 80.445l-2.091-.12.05-.088 2.054.118 1.496-.267 4.733.272-.05.087-4.696-.27-1.496.268zm-15.627-.226l-4.46-.256.043-.077 4.46.256-.043.077zm8.685.498l-5.31-.305.045-.076 5.308.305-.043.076zm9.059.526l-5.544-.319.05-.087 5.544.318-.05.088zm-16.933.055l-.588-.375-3.331-.191.044-.076 3.38.194.617.393-.122.055zm.542.032l-.055-.066.995-.301 2.792.16-.045.077-2.742-.158-.945.287zm8.108.43l-.737-.349-2.868-.163.045-.078 2.906.167.767.362-.112.062zm.426.03l-.035-.08 1.216-.25 5.04.29-.05.088-5-.287-1.17.24zm-9.456.611l-1.883-.108-.94-.514-.431-.026.05-.087.482.028.94.515 1.832.105-.05.087zm6.46.371l-5.484-.314.05-.089 5.484.316-.05.087zm3.858.072l-.065-.073 1.037-.322 4.298.247-.051.088-4.238-.243-.981.303zm3.536-8.058l-1.933-.112.369-.643.161.01-.318.556 1.77.102-.049.087zm4.493.258l-2.183-.125.05-.088 2.022.116.287-.501.161.01-.337.588z" fill="#DB9507"/><path d="M155.551 7.258c-3.412-.542-3.9-2.103-4.532-6.94-.443 4.59-1.007 6.33-4.476 6.852 3.026 1.308 4.089 1.783 4.629 7.087.745-5.372 1.411-5.842 4.379-7zM49.07 155.469c-2.555.977-5.787.3-5.294-3.177.522-.382-1.22-24.227 1.056-22.898 8.3-3.106 2.69 22.955 4.239 26.075zm13.28-20.602c-5.79.052-5.673 9.978-3.435 13.477 1.707 2.74 5.357 2.426 7.459.472 1.42 1.732 1.614 4.801-.288 6.375-10.903 6.013-16.444-9.871-13.251-18.498 1.113-5.885 8.026-10.252 13.04-6.588 1.994 1.522 1.995 4.91.226 6.524-1.088-.976-2.194-1.791-3.751-1.762zm6.723 7.726c-.845-18.122 19.985-18.095 19.153 0 .892 18.196-20.015 18.161-19.153 0zm5.446 0c-.806 10.11 9.066 10.103 8.26 0 .817-10.047-9.048-10.059-8.26 0z" fill="#fff"/><path opacity=".2" d="M141.038 42.524c-.49.106-1.561 2.136-1.561 2.136l.58-.062.981-2.074z" fill="#0D0D1E"/><path d="M139.723 44.714c.475-1.418.902-2.38 1.637-2.162.446.133.775.805.105 1.518-.669.713-1.035 2.253-1.035 2.253l-.707-1.61z" fill="#EFAEA6"/><path d="M58.79 66.164c-7.604-.918-8.69-3.554-10.102-11.727-.984 7.757-2.242 10.695-9.973 11.582 6.744 2.212 9.114 3.014 10.316 11.976 1.662-9.08 3.142-9.882 9.758-11.831z" fill="#fff"/></g><defs><clipPath id="clip0_166_13126"><path fill="#fff" d="M0 0h226v178H0z"/></clipPath></defs></svg>