<svg width="196" height="108" fill="none" xmlns="http://www.w3.org/2000/svg"><g clip-path="url(#clip0_166_12454)"><path d="M122.948 57.667c0 2.523-.223 11.133-1.002 11.805-1.014.863-55.551-2.561-55.551-2.561L61.94 52.883l61.007 4.784z" fill="#CC820A"/><path opacity=".2" d="M122.948 57.667c0 2.523-.223 11.133-1.002 11.805-1.014.863-55.551-2.561-55.551-2.561L61.94 52.883l61.007 4.784z" fill="#32323F"/><path d="M7.586 61.535c0 5.511.168 18.485 1.548 20.402 1.503 2.087 12.65 15.585 43.376 16.018 23.713.334 35.878-3.42 35.878-3.42l-.07-10.828L7.585 61.535z" fill="#CC820A"/><path opacity=".09" d="M2.78 70.561c-2.635 2.22-4.99 12.765.834 17.756 5.824 4.99 20.553 16.934 50.213 17.615 30.245.694 38.088-6.978 40.343-4.826 5.617 5.361 6.384 9.192 20.132 5.306 11.037-3.119 29.057-16.05 34.763-23.69 2.079-2.783 41.021.412 41.07-4.868.06-6.42-67.307-1.462-68.694-8.398-1.388-6.937-7.39-19.985-7.39-19.985l-72.978-4.719-15.26 7.774L2.78 70.561z" fill="#32323F"/><path opacity=".35" d="M135.508 66.923c0 .034-.007.07-.012.105v-.105h.012z" fill="#0052FF"/><path d="M122.724 60.821l-14.589-.81h-.013l-.148-.007-18.973-1.056-.317-.018-8.977-.498-.516-.03-3.734-.207-2.4-.133-4.309-.24-2.387-.132 2.147 2.544.768.91 4.917 5.828.192.232 8.358 9.907.034.04 1.367 1.618 4.164 4.937c-21.547 5.285-47.53 4.381-64.723-3.167C3.372 71.659 2.314 56.67 19.95 45.556a57.031 57.031 0 015.389-2.983 76 76 0 018.578-3.534c17.94-6.196 40.834-7.514 59.285-3.629a84.91 84.91 0 014.091.968c3.484.917 6.768 2.036 9.781 3.359 12.49 5.48 17.667 13.293 15.65 21.084z" fill="#F4AD00"/><path opacity=".78" d="M97.302 36.376c-3.973 1.455-8.494 2.975-13.358 4.297-12.424-2.218-27.154-1.429-39.395 2.2a48.157 48.157 0 01-10.623-3.839c17.94-6.195 40.834-7.514 59.284-3.629a86.91 86.91 0 014.092.97z" fill="#F4C83D"/><path opacity=".19" d="M108.139 59.954c0 .018-.01.037-.014.057l-.148-.008-18.974-1.056-.316-.018-8.978-.498-.515-.03-3.734-.207-2.4-.133-4.31-.24-2.386-.132 2.147 2.544.768.91 4.916 5.828.192.232 8.359 9.907c-13.718 3.44-29.916 3.504-42.428-.02l-.228-.065a48.462 48.462 0 01-6.143-2.191c-6.937-3.047-10.858-7.057-11.796-11.307-1.296-5.872 3.102-12.203 13.106-17.092 2.85-1.394 5.978-2.582 9.287-3.564l.36-.105.57-.163c.163-.046.323-.096.48-.136l.526-.14.485-.13h.009l.119-.03c.148-.038.295-.076.443-.112l.39-.096.25-.062c.14-.034.283-.069.426-.102.178-.042.357-.084.536-.124.18-.04.34-.079.51-.117.02 0 .04-.007.06-.013l.51-.111c.181-.04.362-.077.543-.114l.084-.018.461-.096.547-.107.52-.096.03-.006.539-.096.201-.036.457-.08.459-.079.496-.08.137-.023.48-.075.46-.07.231-.034.48-.069.446-.061h.032l.066-.008c.313-.042.626-.083.94-.123l.123-.014.082-.01.187-.023c.296-.036.592-.07.887-.102l.502-.054.096-.009.496-.05.672-.064.412-.036a70.1 70.1 0 011.231-.098l.066-.005.502-.034.57-.037.519-.03h.05l.569-.029a93.568 93.568 0 011.611-.064c.055 0 .109 0 .164-.006l.252-.008.25-.005.569-.013.512-.008.46-.004h1.479l.403.004h.013c.124 0 .246 0 .37.006.267 0 .532.009.798.015h.022c.256.006.512.014.768.023.12 0 .238.008.356.014l.281.01.466.02.358.018h.081c.038 0 .074 0 .11.006l.289.014h.041l.16.01c.209.012.417.025.625.039l.13.008.458.031.455.035.163.012c.249.02.497.042.745.064l.075.007c.305.026.609.055.912.086h.023c.169.016.336.034.504.053.168.018.335.035.502.054l.329.039c.129.014.26.03.384.047l.111.013.065.008c.075.01.15.018.225.029h.016l.431.056.366.05.192.026.281.04.057.01.181.026.181.027c.168.025.335.05.502.078l.24.038h.017l.306.05c.102.019.22.037.33.056l.045.008.112.02.375.065h.01c.124.022.249.044.373.068.403.073.802.15 1.197.23 3.946.799 7.63 1.911 10.89 3.344 3.137 1.377 5.657 2.952 7.564 4.656.069.062.139.124.206.187.067.062.135.127.201.192.065.065.144.137.213.205 3.248 3.19 4.425 6.796 3.543 10.401z" fill="#D39333"/><path d="M108.249 58.994c-.288-4.754-4.253-9.31-11.93-12.682-16.425-7.215-43.64-6.271-60.787 2.111-8.011 3.916-12.408 8.763-13.14 13.552-.333-5.418 4.1-11.09 13.233-15.553 17.147-8.38 44.361-9.323 60.787-2.111 8.75 3.843 12.673 9.225 11.837 14.683z" fill="#CC820A"/><path d="M82.783 77.152l1.366 1.618c-16.375 4.472-36.748 3.98-50.049-1.861-8.051-3.538-12.016-8.378-11.947-13.38.007-.437.044-.872.11-1.303.288 4.753 4.253 9.31 11.93 12.682a47.977 47.977 0 005.9 2.119l.228.065c12.494 3.569 28.733 3.517 42.462.06zm25.355-17.198v.057h-.014l-.147-.007a9.67 9.67 0 00.145-.756c.015.235.02.47.016.706z" fill="#F4C83D"/><path d="M89.077 58.386a3.23 3.23 0 01-.076.563l-.317-.018-8.977-.498c.196-.384.302-.807.312-1.237 0-.085-.005-.17-.016-.255a1.457 1.457 0 00-.362-.742 4.43 4.43 0 00-.967-.813 12.871 12.871 0 00-1.768-.94c-1.026-.466-2.1-.82-3.203-1.056a15.307 15.307 0 00-2.486-.321c-1.971-.096-3.559.144-4.763.717-.344.156-.665.36-.952.607-.18.157-.321.354-.41.576-.148.384-.115.789.085 1.218.025.052.052.105.082.158.163.287.353.558.569.807.166.193.344.374.534.543l2.147 2.544.768.91 4.917 5.827.192.233a3.64 3.64 0 01-.627 1.24c-.676.903-1.956 1.803-3.839 2.701-2.257 1.077-4.825 1.8-7.705 2.166-2.88.368-5.875.322-8.985-.137a33.455 33.455 0 01-8.961-2.63 25.722 25.722 0 01-3.098-1.631c-.398-.25-.764-.5-1.098-.753-1.062-.802-1.801-1.62-2.22-2.454-.555-1.133-.538-2.29.052-3.47l.096-.192c.681-1.243 1.81-2.242 3.389-2.995.915-.44 1.996-.68 3.244-.722 1.247-.042 2.329.144 3.245.557.576.263.931.563 1.066.907.04.1.06.206.06.312.007.477-.308 1.035-.946 1.676a9.46 9.46 0 00-1.258 1.553c-.105.166-.2.339-.283.516-.19.399-.224.854-.096 1.276a2.585 2.585 0 00.569 1.005c.502.553 1.38 1.112 2.632 1.676.541.244 1.09.46 1.647.648a17.885 17.885 0 005.01.908c2.349.092 4.303-.234 5.863-.979 1.236-.591 1.895-1.23 1.958-1.92a1.838 1.838 0 00-.031-.56c-.105-.503-.416-1.008-.933-1.517a21.191 21.191 0 00-1.16-1.045 46.838 46.838 0 00-2.016-1.596 33.77 33.77 0 01-1.413-1.135c-.333-.282-.643-.56-.93-.83a14.16 14.16 0 01-1.737-1.92c-.845-1.162-1.037-2.313-.576-3.456a2.97 2.97 0 01.203-.407c.584-.99 1.823-1.939 3.718-2.844 2.052-.98 4.398-1.614 7.037-1.901 2.64-.288 5.379-.19 8.215.294a33.937 33.937 0 014.775 1.184 34.902 34.902 0 014.89 2.03c.435.223.846.452 1.232.688a11.33 11.33 0 012.063 1.55c.991.978 1.53 1.923 1.618 2.837.02.181.028.364.02.547z" fill="#CC820A"/><path d="M89.983 51.262l-3.047 1.456-1.554.742-4.924 2.349-.818.39-4.183 1.997-2.4-.133-4.31-.24-2.386-.132 2.147 2.544.768.91-5.119 2.441-1.236.59-7.543 3.603-2.416 1.151-3.743 1.79-2.047.976-3.43 1.638c-.701.333-1.792.364-2.435.07l-3.723-1.683c-.649-.288-.61-.8.084-1.131l.555-.266 2.957-1.41 1.647-.787 4.176-1.993 1.43-.683 10.127-4.834 1.428-.681 5.843-2.784 1.33-.635 6.547-3.125 2.141-1.022 3.411-1.632 1.977-.943 2.676-1.277c.695-.332 1.786-.362 2.436-.07l3.524 1.593.198.089c.646.293.607.8-.088 1.132z" fill="#CC820A"/><path d="M89.077 58.386a3.366 3.366 0 01-.279.406c-.037.047-.075.096-.114.139l-8.977-.498-.516-.03c.073-.111.151-.227.236-.347.221-.27.419-.56.592-.863.252-.422.403-.896.44-1.386.004-.119 0-.238-.013-.355a1.462 1.462 0 00-.364-.742c-.467-.558-1.378-1.142-2.732-1.755a15.435 15.435 0 00-5.69-1.377c-1.97-.095-3.558.144-4.762.718-.747.356-1.203.75-1.362 1.18a1.4 1.4 0 00-.03.913c.047.162.114.317.197.464a5.224 5.224 0 001.103 1.35c.101.09.22.191.354.308.39.334.92.77 1.592 1.31l-2.387-.132 2.147 2.544.768.91 4.917 5.828c-.678.895-1.954 1.791-3.827 2.687-2.255 1.078-4.823 1.8-7.704 2.167-2.88.367-5.876.321-8.986-.136a33.804 33.804 0 01-6.068-1.48 34.065 34.065 0 01-2.892-1.151 30.298 30.298 0 01-1.892-.932 19.79 19.79 0 01-1.207-.7c-1.664-1.043-2.769-2.112-3.315-3.207a3.685 3.685 0 01-.39-1.984c.061-.59.245-1.16.539-1.674.68-1.242 1.809-2.24 3.388-2.994.915-.44 1.996-.68 3.243-.723 1.248-.043 2.33.143 3.246.559.744.336 1.121.74 1.127 1.218.005.347-.163.739-.502 1.174a5.518 5.518 0 01-.443.501c-.749.768-1.257 1.457-1.544 2.07a1.77 1.77 0 00-.157.97c.048.34.171.666.36.954.079.127.17.247.273.356.293.31.625.58.988.804a12.44 12.44 0 001.643.873 17.528 17.528 0 005.306 1.454c.448.05.898.084 1.352.101 2.348.093 4.303-.233 5.864-.978.661-.32 1.156-.65 1.485-.991.288-.299.444-.608.473-.925.045-.465-.087-.931-.395-1.4a4.228 4.228 0 00-.569-.679c-.07-.07-.147-.142-.225-.217a36.344 36.344 0 00-2.952-2.424 32.702 32.702 0 01-1.412-1.134c-1.165-.99-2.054-1.908-2.668-2.754-.58-.797-.853-1.588-.819-2.375.016-.37.097-.735.237-1.078.463-1.139 1.766-2.223 3.923-3.251 2.047-.98 4.393-1.615 7.036-1.902 2.644-.288 5.383-.19 8.215.294a33.477 33.477 0 016.311 1.728c.658.25 1.31.522 1.958.815.903.401 1.78.856 2.629 1.363.408.247.779.495 1.112.744.335.247.653.516.95.806.993.977 1.532 1.922 1.619 2.837a3.263 3.263 0 01-.43 2.029z" fill="#F4C83D"/><path d="M90.423 49.776l-.555.264-4.045 1.931-1.674.8-4.067 1.94-1.408.672-5.607 2.68-4.31-.24-2.386-.132 2.147 2.544-5.146 2.455-1.378.659-8.582 4.096-2.131 1.013-3.67 1.752-1.943.927-1.49.71c-.7.333-1.791.365-2.434.071l-3.525-1.593-.196-.088c-.651-.288-.612-.8.082-1.133l1.973-.942 1.536-.734 4.814-2.303 1.01-.48 10.186-4.861 1.373-.655 6.178-2.949 1.091-.521 5.38-2.568 2.496-1.192 3.468-1.656 2.084-.995 4.648-2.218c.694-.333 1.785-.364 2.435-.071l3.721 1.681c.658.296.62.804-.075 1.136z" fill="#F4C83D"/><path d="M145.797 75.934c.183-1.187 1.017-4.095 1.017-4.095l3.127.693-1.293 4.358-2.406.863-.445-1.82z" fill="#fff"/><path d="M145.641 75.796c-.321-.128-.229.206-.424.684-.448 1.093-4.625.498-5.269.507-.332 0-1.1 1.594.517 1.83 1.398.203 5.875.872 7.407 1.086a.706.706 0 00.754-.424c.435-1.056.609-2.769.192-2.869-.62-.301-1.842-.282-3.177-.814z" fill="#1F1F39"/><path d="M192.318 64.124c-1.137.063-4.008-.132-4.008-.132l-.009-2.988 4.308.334 1.306 2.026-1.597.76z" fill="#fff"/><path d="M191.835 64.339c-.072.313.227.181.704.296 1.093.264 1.158 4.198 1.26 4.791.054.308 1.662.799 1.642-.725-.017-1.318-.056-5.539-.084-6.981a.671.671 0 00-.509-.638c-1.056-.258-2.688-.185-2.721.218-.191.609.011 1.734-.292 3.039z" fill="#1F1F39"/><path d="M190.126 64.85c-.713-.042-17.069-1.632-18.873-4.328-2.849-4.256-6.774-15.036-6.774-15.036-.069.07-2.232 2.259-4.685 4.868-2.665 2.835-4.996 6.66-5.916 8.384-.794 1.492-3.91 15.732-4.041 16.529-.13.796-5.052-.872-5.052-1.374 0-.502 2.846-14.239 3.59-16.62.743-2.381 9.525-17.263 11.886-21.66l2.216-.226s9.198 1.38 9.187 2.063c0 .053.039.296.114.69l.636 3.14a123.916 123.916 0 01.48 2.438c1.046 5.567 1.776 11.682 2.571 12.752 1.023 1.378 14.595 3.541 15.26 3.55.665.01.114 4.872-.599 4.83z" fill="#3B3B4C"/><path opacity=".44" d="M172.579 42.102c-3.031-1.481-5.751-4.409-5.751-4.409l2.488.17c1.439.212 1.566-.167 2.461.279l.635 3.14c.058.266.113.54.167.82z" fill="#1F1F39"/><path opacity=".57" d="M159.793 50.355a284.906 284.906 0 014.685-4.868l-.721-2.043s-3.338 4.439-3.964 6.911z" fill="#1F1F39"/><path d="M162.596 66.258a.128.128 0 01-.121.006c-1.446-.683-2.859-.731-4.319-.146a.128.128 0 01-.098-.001.128.128 0 01.002-.237c1.529-.612 3.009-.562 4.524.153a.13.13 0 01.072.109.128.128 0 01-.014.067.129.129 0 01-.047.05h.001zm-1.686-1.543a.124.124 0 01-.087.016 5.914 5.914 0 00-2.215 0c-.664.136-1.311.404-2.036.847a.13.13 0 01-.097.014.131.131 0 01-.078-.058.13.13 0 01.043-.175c1.483-.905 2.766-1.16 4.426-.88a.121.121 0 01.047.017.122.122 0 01.057.08.136.136 0 01-.019.102.13.13 0 01-.041.037z" fill="#603A3E"/><path d="M163.092 16.536l2.304-1.089c-.166-1.107-1.741-3.224-2.085-4.183-.377-1.056-1.886-1.824-1.886-1.824L161 11.855l.084.182s.511 1.872.323 2.796c-.108.529.133 1.243-.266 2.093-.302.63 1.951-.39 1.951-.39z" fill="#EFAEA6"/><path opacity=".14" d="M161.172 12.436s.308 1.209.276 1.956c1.619.43 2.126-1.412 1.675-1.772-.282-.225-1.252-.695-1.252-.695l-.699.511z" fill="#1F1F39"/><path d="M164.661 13.828c-1.056-.295-1.152 1.5-2.216 1.588-.56.045-.437-.207-.702-.474-.163-.164-.315-.347-.575-.075-5.238 5.547.216 19.53-.451 20.506-.545.8 3.887 2.541 6.671 1.84 3.818-.96 3.585-5.24 3.475-6.058-.11-.817-2.57-14.707-2.57-14.707a20.886 20.886 0 01-3.632-2.62z" fill="#fff"/><path d="M145.674 18.249c.192.334 4.632 7.59 7.838 7.417 1.232-.067 4.394-3.254 4.696-3.12.596.264.518 2.59.366 3.628-.123.833-.266 1.632-.331 2.232-.167 1.535-1.371 7.976.461 9.94 1.165 1.248 2.13 1.123 2.825.464 1.195-1.128 0-6.238.458-11.248.354-3.87-1.391-6.142-.99-9.346.304-2.42.173-3.349.173-3.349-5.344 3.313-6.843 6.628-7.99 6.623-1.521-.012-4.543-5.102-5.307-4.969-.476.08-2.449 1.291-2.199 1.728z" fill="#0052FF"/><path opacity=".12" d="M145.674 18.249c.192.334 4.632 7.59 7.838 7.417 1.232-.067 4.394-3.254 4.696-3.12.596.264.518 2.59.366 3.628-.123.833-.266 1.632-.331 2.232-.167 1.535-1.371 7.976.461 9.94 1.165 1.248 2.13 1.123 2.825.464 1.195-1.128 0-6.238.458-11.248.354-3.87-1.391-6.142-.99-9.346.304-2.42.173-3.349.173-3.349-5.344 3.313-6.843 6.628-7.99 6.623-1.521-.012-4.543-5.102-5.307-4.969-.476.08-2.449 1.291-2.199 1.728z" fill="#1F1F39"/><path d="M173.591 38.654c-1.669 1.077-5.145 1.198-6.614-.398-1.217-1.325.014-3.038-.886-6.126-.456-1.56-1.139-4.245-1.384-6.323a21.147 21.147 0 01-.059-.595 67.77 67.77 0 01-.175-4.97c0-.74 0-1.459.017-2.132.008-.432.018-.846.03-1.236a73.52 73.52 0 01.144-3.046s2.651.067 4.829 2.41c.249.267.471.672.667 1.157.173.445.316.9.428 1.364a18.13 18.13 0 01.494 3.39c.031.683.05 1.232.059 1.695.018.947 0 1.536-.033 2.186-.012.259-.025.525-.037.827-.013.34-.026.725-.035 1.192-.014.762.236 2.015.546 3.4.681 3.039 2.903 6.627 2.009 7.205z" fill="#0052FF"/><path opacity=".18" d="M166.622 19.045c.011.636-1.637 5.512-1.919 6.762a21.153 21.153 0 01-.059-.595 68.327 68.327 0 01-.175-4.97l2.153-1.197z" fill="#1F1F39"/><path d="M158.973 9.729c.107.878-.487 2.72.096 2.6.582-.118.226 1.857.854 1.753 1.52-.252 3.059-1.552 3.104-2.316.044-.765-.48-2.776-.48-2.776l-3.574.739z" fill="#EFAEA6"/><path d="M160.703 10.25c-.465.15-.456.265-.824.171-.367-.094.114-.672-.53-.647-.644.025-1.335.12-1.547-.576-.308-1.008.639-1.03 1.228-1.024.379 0 .305-.8 1.038-.912.576-.087.576.258 1.093.203.312-.034.806-.657 1.36-.384 1.028.505.463 1.49 1.352 2.07 1.036.677-.576 2.885-.855 2.713-.323-.202-.109-1.16-.425-1.313-.479-.228-.454.131-.731.524-.296.419-.972.575-.672-.179.301-.754-.067-.783-.487-.647z" fill="#1F1F39"/><path d="M135.774 67.33a13.948 13.948 0 01-14.696 13.118h-.046a13.945 13.945 0 01-9.65-4.638 13.941 13.941 0 01-3.522-10.11 13.943 13.943 0 014.678-9.63 13.954 13.954 0 0110.563-3.447 13.949 13.949 0 0112.673 14.707z" fill="#C1C1C1"/><path d="M130.477 75.149c4.767-4.768 4.767-12.497 0-17.264-4.767-4.767-12.496-4.767-17.263 0-4.767 4.767-4.767 12.496 0 17.264 4.767 4.767 12.496 4.767 17.263 0z" fill="#fff"/><path opacity=".75" d="M123.56 80.364c-.823.102-1.654.13-2.482.083.115-.503.48-1.807 1.207-1.776.679.028 1.104 1.141 1.275 1.693zm-.464-27.742c-.155.565-.543 1.662-1.211 1.71-.716.054-1.124-1.202-1.26-1.715a14.062 14.062 0 012.471.005zm9.921 22.362a13.93 13.93 0 01-1.696 1.814c-.275-.437-.939-1.618-.403-2.111.504-.46 1.588.027 2.099.297zm-19.946-19.291c.288.51.791 1.56.353 2.067-.468.544-1.645-.056-2.104-.323a14.115 14.115 0 011.751-1.744zm22.584 9.118a13.9 13.9 0 01.084 2.481c-.504-.114-1.808-.48-1.778-1.206.029-.678 1.142-1.103 1.694-1.275zm-27.742.465c.565.155 1.661.543 1.711 1.21.053.717-1.202 1.124-1.717 1.26a14.232 14.232 0 01.006-2.47zm22.362-9.966a13.728 13.728 0 011.814 1.695c-.437.276-1.617.94-2.112.403-.457-.498.029-1.586.298-2.098zm-19.291 19.945c.51-.288 1.56-.79 2.067-.353.544.47-.057 1.645-.324 2.105a14.285 14.285 0 01-1.743-1.752zm14.718-22.145c.799.22 1.577.513 2.324.872-.298.422-1.134 1.487-1.794 1.18-.616-.285-.583-1.476-.53-2.052zM115.52 78.92c.359-.463 1.138-1.328 1.773-1.119.682.225.576 1.542.508 2.069a14.114 14.114 0 01-2.281-.95zm.003-24.832a13.82 13.82 0 012.261-1.027c.087.51.248 1.853-.435 2.104-.637.233-1.456-.632-1.826-1.077zm11.049 25.452c-.072-.582-.133-1.743.464-2.045.642-.323 1.499.682 1.824 1.104a14.049 14.049 0 01-2.288.941zm-17.939-17.297c.22-.8.511-1.578.871-2.325.423.298 1.487 1.135 1.181 1.795-.282.615-1.477.582-2.052.53zm25.81 10.183c-.462-.36-1.327-1.138-1.118-1.774.226-.682 1.541-.576 2.068-.508a13.946 13.946 0 01-.95 2.282zm-25.114.142a13.8 13.8 0 01-1.028-2.26c.509-.088 1.854-.25 2.104.433.234.638-.632 1.46-1.076 1.827zm25.45-11.051c-.581.072-1.744.134-2.044-.463-.323-.641.68-1.5 1.103-1.824a13.952 13.952 0 01.941 2.287z" fill="#474754"/><path d="M159.139 3.861a3.819 3.819 0 01-.655 1.92c-1.297 1.92-27.123 41.93-30.328 47.106-1.844 2.982-3.175 7.611-3.526 11.157-.123 1.248-.203 2.313-.274 3.042a3.412 3.412 0 01-.462 1.456c-1.324 2.192-4.895 1.647-4.44-1.888.116-.909.222-2.213.365-3.727.14-1.456.252-3.176.431-4.941.31-3.072.822-6.288 2.016-8.487 4.921-9.044 29.672-46.611 30.98-48.067.613-.684 1.247-1.096 1.851-1.293 2.229-.719 4.171 1.432 4.042 3.722z" fill="#474754"/><path opacity=".71" d="M159.138 3.861a3.819 3.819 0 01-.655 1.92c-1.297 1.92-27.123 41.93-30.328 47.106-1.844 2.982-3.175 7.611-3.526 11.157-.123 1.248-.203 2.313-.274 3.042a3.412 3.412 0 01-.462 1.456c-.298.035-.48-.019-.525-.176-.601-2.117 1.516-13.214 2.303-15.346 1.171-3.187 23.675-37.12 33.467-49.159z" fill="#1F1F39"/><path d="M124.633 64.043c-.123 1.248-.202 2.313-.273 3.042-.364 3.743-5.436 3.743-4.903-.432.116-.909.066-1.44.209-2.958.442-.735 1.113-1.675 2.631-1.622 1.197.044 1.881 1.094 2.336 1.97z" fill="#C1C1C1"/><path d="M123.111 67.353a1.352 1.352 0 01-1.688 1.226 1.353 1.353 0 01-.996-1.12 1.35 1.35 0 112.684-.106z" fill="#3B3B4C"/><path opacity=".21" d="M155.103.141c-5.801 8.499-31.897 48.286-33.274 51.916-.576 1.514-1.119 3.737-1.575 5.93.31-3.07.821-6.287 2.015-8.486 4.921-9.044 29.672-46.611 30.98-48.067.615-.684 1.245-1.096 1.854-1.293z" fill="#fff"/><path d="M145.023 28.436c-.323-.191-.314-.735-.57-.597-.48.254-.864.634-1.612.27-.392-.193-1.545-.826-1.707.028-.384 2 .926 3.464 2.555 2.88 1.266-.455 2.442-.04 3.572-.166 1.13-.125-.903-2.379-.903-2.379s-.285.58-1.335-.036z" fill="#EFAEA6"/><path d="M164.79 15.126c-7.302 8.888-7.557 9.903-9.03 10.595-1.472.692-10.557 2.412-10.557 2.412s.373 2.976.864 3.08c.49.103 9.194-.597 11.312-1.59 3.63-1.7 6.924-6.78 9.624-9.789.74-.822-.09-1.12.035-1.336.575-.999 1.055-3.684-.421-3.11-1.476.576-1.827-.262-1.827-.262z" fill="#0052FF"/><path opacity=".18" d="M170.588 18.76a23.805 23.805 0 01-4.325.066 3.378 3.378 0 01-1.774-.716c-1.091-.863-1.842-2.377-1.932-2.32-.133.086-.522-.628-.101-.603.318.018.35.37.611.606.445.41.932.772 1.452 1.081.171.096.35.192.535.277.435.203.898.339 1.373.403.657.084 2.572.178 3.733-.158.173.444.316.9.428 1.363z" fill="#1F1F39"/><path d="M161.931 15.288a.46.46 0 01.16-.324.446.446 0 01.346-.104c.274.016.294.129.52.332.676.611 1.69 1.367 2.906 1.523 1.216.157 4.031-1.389 5.825-.96 1.793.43 2.312 2.056 4.907 2.522 2.595.465 5.417-.576 6.182-.431.765.145 1.227.324 1.201.627-.026.304-.417.8-.959 1.005-.543.206-5.304.434-6.556.241-2.043-.316-3.768-2.2-5.086-2.343-1.319-.143-4.11.559-5.655.442-1.728-.13-3.089-2.167-3.204-2.093a.473.473 0 01-.442.085c-.152-.042-.16-.346-.145-.522z" fill="#F4AD00"/><path d="M144.862 13.498c-.334-.312-.384-.232-1.031.496-.648.729-.979 1.463-.672 2.2.307.739 1.631 1.177 1.945-.057.314-1.234.42-2.267.088-2.453l-.33-.186z" fill="#EFAEA6"/><path d="M140.879 68.502s.568 13.556-.657 15.115c-1.225 1.558-4.81 6.355-12.119 10.679-7.904 4.676-22.318 8.4-22.318 8.4l.685-11.307 34.409-22.887z" fill="#CC820A"/><path d="M140.877 68.502c-1.552 5.998-7.366 11.98-17.392 16.881-5.109 2.496-10.882 4.502-17.016 6.006l-4.166-4.937-1.365-1.618-.034-.04-8.353-9.906-.192-.232-4.918-5.828-.768-.91-2.146-2.544 2.387.133 4.309.239 2.399.133 3.735.208.516.028 8.977.5.318.017 18.972 1.055.148.008c0-.019.011-.037.014-.055v.056l14.575.806z" fill="#F4AD00"/><path opacity=".19" d="M126.277 67.69c-.814 3.251-3.303 6.499-7.452 9.438a40.232 40.232 0 01-5.579 3.268c-3.714 1.814-7.898 3.282-12.342 4.396l-8.353-9.904-.192-.232-4.918-5.828-.768-.91-2.146-2.544 2.387.133 4.309.239 2.399.133 3.735.208.516.028 8.977.5.318.017 18.972 1.055.137.003z" fill="#D39333"/><path d="M126.29 67.636v.056c-.106 5.183-4.542 10.536-13.244 14.79-3.263 1.593-6.89 2.919-10.74 3.97l-1.365-1.618c4.391-1.106 8.526-2.56 12.197-4.354a39.679 39.679 0 005.69-3.351c4.108-2.945 6.548-6.197 7.304-9.445l.148.007c.001-.019.007-.037.01-.055z" fill="#F4C83D"/><path d="M92.525 73.412c.078.262.117.535.114.808a2.59 2.59 0 01-.096.667l-.192-.233-4.918-5.828-.768-.91-2.146-2.543c.46.411 1.264 1.075 2.4 1.984l.35.27c.347.27.68.535 1 .798.892.734 1.676 1.44 2.353 2.118.996 1.004 1.63 1.96 1.903 2.87zm14.633-6.777c-.11.487-.331.942-.646 1.33-.558.71-1.33 1.298-2.314 1.769-.899.428-2.005.68-3.319.755-1.315.076-2.416-.087-3.303-.487-.809-.366-1.204-.744-1.193-1.142.01-.317.174-.727.491-1.233.08-.128.169-.26.268-.397.282-.342.524-.715.721-1.112l8.978.5.317.017z" fill="#CC820A"/><path d="M93.61 65.877l-3.935 1.879-1.403.67-.84.4-.767-.91-2.146-2.543 2.387.132 4.309.239 2.395.133z" fill="#CC820A"/><path d="M92.64 74.217a4.259 4.259 0 01-.278.42l-.01.013-4.919-5.828-.768-.91-2.146-2.543 2.387.132.458.367c.474.36.922.716 1.344 1.067.337.275.657.547.96.817.505.443.969.877 1.391 1.301.995 1.003 1.627 1.959 1.899 2.869.233.77.127 1.535-.318 2.295zm14.201-7.604c-.548.647-1.282 1.19-2.201 1.631-.9.43-2.006.683-3.32.757-1.314.075-2.415-.088-3.303-.488-.634-.288-1.014-.582-1.143-.888a.577.577 0 01-.05-.254c.01-.326.185-.754.524-1.283l.515.028 8.978.497z" fill="#F4C83D"/><path d="M91.215 65.744l-2.502 1.195-1.44.688-.608.289-2.146-2.543 2.387.132 4.309.239z" fill="#F4C83D"/><path d="M84.52 65.373c-.086 1.423-.309 10.468.025 11.024.334.557 20.347 26.969 21.239 26.297.891-.671.685-11.306.685-11.306l-21.95-26.015z" fill="#CC820A"/><path opacity=".15" d="M84.52 65.373c-.086 1.423-.309 10.468.025 11.024.334.557 20.347 26.969 21.239 26.297.891-.671.685-11.306.685-11.306l-21.95-26.015z" fill="#fff"/><path d="M74.306 76.97c-3.872-.512-4.426-1.986-5.144-6.552-.502 4.333-1.143 5.975-5.08 6.47 3.434 1.236 4.641 1.684 5.254 6.692.851-5.072 1.6-5.524 4.97-6.61zm43.166 1.144c-4.259-.672-4.868-2.586-5.663-8.536-.551 5.644-1.256 7.786-5.586 8.429 3.777 1.61 5.105 2.194 5.778 8.718.935-6.608 1.764-7.192 5.471-8.61zM54.737 46.5c-3.812-.597-4.358-2.315-5.065-7.64-.493 5.053-1.124 6.97-5 7.545 3.381 1.44 4.57 1.964 5.172 7.803.835-5.914 1.578-6.437 4.893-7.707z" fill="#fff"/></g><defs><clipPath id="clip0_166_12454"><path fill="#fff" d="M0 0h195.441v108H0z"/></clipPath></defs></svg>