<svg width="178" height="201" fill="none" xmlns="http://www.w3.org/2000/svg"><path opacity=".18" d="M1.512 197.305c0 1.248 30.527 2.697 65.703 2.697 35.175 0 63.69-1.012 63.69-2.261s-28.515-2.26-63.69-2.26c-35.176 0-65.703.574-65.703 1.824z" fill="#32323F"/><path d="M113.383 98.89c-15.3-6.195-35.695-4.678-48.384-4.678s-44.657 2.972-44.455 5.184c.202 2.213 10.774 22.454 23.462 22.454 12.687 0 59.207-11.025 59.207-11.025l10.17-11.934z" fill="#DB9923"/><path d="M87.307 34.227s-.674 1.078-1.897 2.923c-3.944 5.942-13.59 19.834-24.783 31.23-11.277 11.48-39.81 30.048-39.81 30.048a72.454 72.454 0 01-2.598-2.498C1.984 79.528-8.954 51.597 10.954 30.305c.149-.163.306-.326.47-.487C31.318 8.99 61.402 7.55 83.64 30.156c.305.309.602.618.898.93a64.746 64.746 0 012.769 3.142z" fill="#F2B233"/><path opacity=".65" d="M40.524 21.692c-.48.138-1.096.273-1.77.416-.674.143-1.43.3-2.224.498a21.68 21.68 0 00-2.509.78c-.928.35-1.818.796-2.655 1.328l-.028.018a4.158 4.158 0 00-.14 6.923 4.154 4.154 0 004.629.073l.058-.038c.62-.414 1.53-.771 2.692-1.071.58-.153 1.219-.293 1.924-.449a33.418 33.418 0 002.36-.588 4.115 4.115 0 00-2.3-7.9l-.037.01zm34.695 14.42A47.11 47.11 0 0071.07 31.3a37.07 37.07 0 00-4.956-4.206 35.209 35.209 0 00-5.674-3.252 40.865 40.865 0 00-6.035-2.183 4.029 4.029 0 00-2.189 7.754c3.38.963 6.47 2.365 9.193 4.324 2.722 1.959 5.105 4.456 7.223 7.303l.008.01a4.116 4.116 0 006.872-.312 4.116 4.116 0 00-.27-4.597l-.024-.03z" fill="#EFEFEF"/><path opacity=".19" d="M11.416 29.816c1.587 31.864 7.406 50.47 17.385 62.529l-7.991 6.082a73.242 73.242 0 01-2.6-2.499c-16.234-16.4-27.17-44.332-7.264-65.624.15-.164.307-.325.47-.488z" fill="#EA4F26"/><path d="M47.344 52.923c4.333-.622 4.951-2.41 5.755-7.953.562 5.259 1.279 7.253 5.69 7.854-3.842 1.5-5.193 2.043-5.878 8.121-.953-6.156-1.797-6.7-5.567-8.022zm70.992 61.558c4.333-.622 4.951-2.41 5.756-7.953.561 5.259 1.278 7.253 5.683 7.854-3.842 1.499-5.193 2.043-5.878 8.121-.947-6.155-1.791-6.7-5.561-8.022z" fill="#EFEFEF"/><path d="M118.367 114.393c4.333-.622 4.953-2.41 5.756-7.952.561 5.259 1.278 7.253 5.684 7.852-3.843 1.5-5.196 2.047-5.879 8.117-.947-6.151-1.79-6.696-5.561-8.017z" fill="#EFEFEF"/><path d="M114.604 46.848c-6.426 2.707-12.784 5.157-17.978 8.649-5.194 3.49-15.286-3.481-13.592-.953 1.695 2.53 5.516 4.747 4.349 5.604-1.167.858-14.577-.26-11.933 2.073s11.283 4.504 6.023 5.89c-5.26 1.388-18.396 20.554-10.54 18.448 2.705-.726 13.803 5.799 24.125-4.813 10.322-10.61 12.156-12.346 12.146-10.013-.01 2.333 2.993 7.989 4.087-2.15 1.094-10.138 4.08-17.855 4.764-14.463.684 3.391 2.013.284 2.403-3.359.263-2.451-1.698-5.822-3.854-4.913z" fill="#F4AD00"/><path d="M105.199 56.038c-2.529 1.215-6.061 3.244-8.04 3.273-3.92.057-1.13 1.964.126 2.366 1.256.402-13.782 3.54-10.77 4.723 1.412.555 2.575-.134-.826 3.2-5.637 5.527-8.539 10.116-4.403 9.14 4.136-.974 12.644-.386 17.172-6.262 4.528-5.876 8.778-11.322 8.599-9.507-.18 1.814-.525 3.463 1.532-.297 2.057-3.76 5.237-10.116 2.045-9.831-3.193.284-4.059 2.53-5.435 3.195z" fill="#E84E1B"/><path d="M57.34 104.496c.835.845 2.683.253 1.97-1.696-.713-1.948.462-2.315.797-2.611.335-.295 1.517-1.679-.18-2.164-1.697-.486-4.812 1.753-6.264 1.05-1.451-.703-2.77.253-2.276 1.619.495 1.365 1.698 1.699 1.06 2.956-.636 1.257 1.468 4.218 2.375 2.93.908-1.289 1.357-3.257 2.518-2.084zm15.118-16.33c-.632.186-.73 1.77.399 1.415.918-.289 1.655-.062 1.738.177.296.85 1.225.481 1.272-.367.052-.962.181-1.634.885-2.158.705-.525.537-1.424-.287-1.543-.823-.119-1.913.95-2.402.305-.49-.645-2.074.388-1.63 1.174.444.787.025.997.025.997zm-8.806 4.959c-.506-.477-1.985.272-1.071 1.107.745.679.928 1.465.759 1.666-.612.716.21 1.363 1.002.957.898-.459 1.138.26 1.99.632.853.374 1.556-1.167 1.676-2.029.188-1.35-1.219-1.339-.895-2.126.323-.786-2.092-1.564-2.57-.747-.478.817-.891.54-.891.54z" fill="#EFEFEF"/><path d="M123.506 39.021c-3.017 2.171-4.494 3.352-4.941 3.721-2.606 2.15 3.747 8.378 5.296 7.243 2.474-1.813 6.828-5.192 6.828-5.192l-7.183-5.772z" fill="#3B3B4C"/><path d="M176.072 8.61c-1.334 4.029-3.908 9.08-7.646 13.927a50.637 50.637 0 01-7.03 7.453c-10.243 8.815-23.975 16.3-27.623 18.703-.349.227-.746.37-1.159.418-4.863.606-13.716-9.989-10.708-12.951.815-.806 3.094-3.996 6.129-8.003l.274-.363.878-1.147a223.51 223.51 0 012.978-3.802l.217-.27.219-.27c.126-.165.268-.331.402-.497.263-.323.528-.645.794-.966a120.086 120.086 0 012.104-2.486c2.82-3.248 5.76-6.288 8.529-8.471a35.828 35.828 0 014.172-2.813 40.777 40.777 0 011.629-.902 50.098 50.098 0 011.825-.915 54.218 54.218 0 011.697-.772l.347-.15a59.26 59.26 0 014.858-1.821c8.244-2.696 16.074-3.32 17.637-1.391.868 1.07.679 3.866-.523 7.489z" fill="#EFEFEF"/><path d="M158.954 21.549c.813-2.738-.799-5.632-3.601-6.464-2.801-.832-5.732.713-6.545 3.451-.813 2.738.799 5.632 3.601 6.464 2.801.832 5.732-.713 6.545-3.451z" fill="#3B3B4C"/><path d="M157.269 21.05c.542-1.825-.533-3.755-2.401-4.31-1.867-.554-3.821.476-4.363 2.302-.542 1.825.533 3.755 2.4 4.31 1.868.554 3.822-.476 4.364-2.302z" fill="#EFEFEF"/><g clip-path="url(#clip0_166_12535)"><path fill-rule="evenodd" clip-rule="evenodd" d="M153.85 24.457c2.403 0 4.351-2.005 4.351-4.479 0-2.473-1.948-4.478-4.351-4.478-2.402 0-4.35 2.005-4.35 4.478 0 2.474 1.948 4.479 4.35 4.479zm-.775-6.97l-.532.547 1.298 1.337 1.831-1.885h-1.07l-.761.783-.761-.783h-.005zm1.375 2.51l1.299-1.336.535.551-.764.786.789.812v1.096l-.002.003-1.857-1.911zm-3.059.8v-.006l.771-.793-.771-.793v-1.101l1.841 1.894-1.308 1.346-.533-.548zm2.45-.172l1.308 1.346-.523.539h-.024l-.761-.784-.761.784h-1.07l1.831-1.885z" fill="#0E51FF"/></g><path d="M135.231 35.824s-7.157 13.044-9.736 14.597c-2.579 1.553-1.912-5.07-.479-6.477 1.432-1.406 11.708-10.756 10.215-8.12zm33.194-13.282c-7.215-1.921-11.592-9.23-13.448-14.806a27.19 27.19 0 01-.492-1.643 19.323 19.323 0 01-.38-1.752c.519-.22 1.04-.433 1.562-.632a62.55 62.55 0 012.928-1.062c8.38-2.8 16.419-3.47 18.004-1.517 1.834 2.253-1.07 12.203-8.174 21.412z" fill="#0052FF"/><path opacity=".65" d="M171.023 3.095c1.833-.11 2.828.445 2.828.445M157.914 7.1c2.342-1.282 6.358-3.187 10.04-3.653" stroke="#EFEFEF" stroke-width="1.301" stroke-miterlimit="10" stroke-linecap="round"/><path d="M121.895 37.132a2.89 2.89 0 01-.827.459c-3.001 1.101-8.644-1.517-7.794-3.54.935-2.222 8.203-4.128 14.868-6.196.87-.272 1.425-.325 1.729-.21 1.855.698-5.738 7.679-7.976 9.487z" fill="#0052FF"/><path opacity=".16" d="M121.897 37.132a2.873 2.873 0 01-.827.459c1.633-2.634 5.382-7.047 8.803-9.945 1.855.697-5.738 7.678-7.976 9.486z" fill="#1F1F39"/><path opacity=".12" d="M176.071 8.61c-1.334 4.028-3.909 9.08-7.646 13.926a50.561 50.561 0 01-7.031 7.454c-10.243 8.815-23.975 16.3-27.621 18.703a2.69 2.69 0 01-1.16.42c16.169-8.295 36.124-31.513 43.458-40.503z" fill="#32323F"/><path d="M142.968 44.193a75.016 75.016 0 00-.783 1.61c-3.034 6.375-5.742 13.419-8.91 12.053-1.295-.559-1.924-2.007-2.205-3.596-.286-1.61-.214-3.367-.117-4.489.031-.327.061-.6.086-.8.02-.16.037-.274.044-.33v-.04l.052-.036c.831-.594 11.534-8.219 12.012-7.12.171.457.223.95.15 1.433-.054.45-.164.892-.329 1.315z" fill="#0052FF"/><path opacity=".28" d="M143.159 41.446c-3.121 2.308-9.912 7.06-12.206 8.325.053-.59.111-1.005.127-1.13l.058-.076c.83-.594 11.534-8.219 12.012-7.12.01 0 .009.001.009.001z" fill="#1F1F39"/><path opacity=".16" d="M142.186 45.802c-3.035 6.375-5.742 13.42-8.91 12.054-1.295-.559-1.924-2.007-2.206-3.596.75-.066 1.623-.137 2.579-.205 2.875-.206 4.997-4.252 8.537-8.253z" fill="#1F1F39"/><path d="M126.947 65.645a.17.17 0 01.045.048.347.347 0 01-.093.42L102.453 88.62c-.126.119-.294.126-.371.009a.343.343 0 01.094-.421L126.62 65.7a.264.264 0 01.327-.056zm3.676-.436c.018.013.034.03.047.048a.349.349 0 01-.095.42l-9.148 8.423c-.127.12-.296.127-.373.01a.347.347 0 01.095-.42l9.15-8.424a.264.264 0 01.324-.057zm-9.586 2.691a.197.197 0 01.047.048.349.349 0 01-.095.42l-9.15 8.424c-.126.12-.295.127-.379.01a.349.349 0 01.095-.422l9.149-8.423a.266.266 0 01.333-.056z" fill="#703B10"/><path d="M113.382 98.89c-2.19 27.305-22.461 47.038-28.662 60.387-1.264 2.709-1.947 5.196-1.81 7.507v.235c.02 2.044-1.31 3.631-3.413 4.762a15.686 15.686 0 01-3.779 1.374c-.403.097-.816.182-1.239.253-.485.091-.985.165-1.5.223h-.01l-.103.011c-3.962.467-8.421.111-12.053-1.063-.187-.061-.37-.127-.552-.189a15.963 15.963 0 01-2.418-1.072l-.193-.109a18.762 18.762 0 01-.38-.224l-.182-.115-.178-.117-.04-.027c-.098-.066-.193-.126-.288-.201a.096.096 0 00-.02-.015l-.165-.127-.127-.098c-.067-.052-.126-.105-.196-.157a5.696 5.696 0 01-.278-.247 2.264 2.264 0 01-.11-.099l-.019-.018-.091-.087c-.127-.127-.253-.246-.362-.38-.952-1.048-1.535-2.286-1.616-3.703a6.753 6.753 0 00-.295-1.596c-.395-1.324-1.169-2.763-2.22-4.339-2.044-3.087-5.16-6.702-8.628-10.963-9.008-11.056-20.51-27.27-21.896-49.42 0 0 20.591 6.394 45.06 6.846 28.838.553 47.763-7.231 47.763-7.231z" fill="#F2B233"/><path opacity=".75" d="M92.058 119.267c-.39-1.554-1.274-2.754-2.562-3.472-1.382-.772-3.15-.954-5.253-.538-1.552.304-2.899 1.493-4.12 3.63-.98 1.716-1.896 4.104-2.718 7.103a74.568 74.568 0 00-.905 3.689 26.09 26.09 0 01-1.563-.088 21.847 21.847 0 01-4.1-.73c.082-.078.161-.156.241-.236 1.822-1.846 2.716-4.29 2.588-7.068-.23-4.955-3.525-7.533-6.675-7.533h-.041a5.542 5.542 0 00-4.023 1.743c-1.138 1.194-1.762 2.877-1.823 4.867-.1 3.265 1.233 6.051 3.853 8.055.169.128.337.251.506.369a13.75 13.75 0 01-3.944.404 33.403 33.403 0 01-3.432-.283c-.2-2.873-.3-5.013-.253-5.998.089-1.864-.31-3.625-1.153-5.093-.808-1.409-1.985-2.46-3.315-2.96-2.107-.795-4.268-.133-5.781 1.77-2.868 3.598-2.489 6.479-1.664 8.263 1.358 2.94 4.915 5.083 9.894 6.094.537 7.139 1.517 17.398 2.383 26.154a3206.215 3206.215 0 001.083 10.664l.07.672a2988.603 2988.603 0 00.616 5.907 1.211 1.211 0 001.203 1.084h.126c.235-.026.457-.119.64-.268a1.206 1.206 0 00.436-1.065c0-.038-.04-.379-.103-.987-.095-.898-.253-2.37-.444-4.256 0-.052-.012-.107-.017-.16l-.225-2.18c-.137-1.348-.29-2.832-.45-4.413l-.516-5.134c-.85-8.556-1.804-18.559-2.349-25.618 1.011.121 2.069.2 3.171.236 2.602.085 4.957-.371 6.89-1.311 2.324.931 4.986 1.406 7.67 1.518-.772 3.957-1.459 8.612-2.053 13.908a326.688 326.688 0 00-1.03 11.053 409.506 409.506 0 00-.682 10.841 605.09 605.09 0 00-.101 2.15v.02a275.882 275.882 0 00-.164 4.332 1.21 1.21 0 001.178 1.191h.032a1.209 1.209 0 001.21-1.178c0-.046.044-1.582.156-4.121l.03-.645c.021-.472.045-.973.07-1.501.065-1.299.143-2.76.239-4.345.126-2.052.273-4.311.455-6.701.264-3.442.598-7.142 1.012-10.843.612-5.449 1.32-10.192 2.115-14.177 2.39-.093 4.76-.483 7.056-1.16 4.865-1.482 7.552-7.587 6.536-11.655zm-39.523 8.482c-2.232-.936-3.758-2.182-4.417-3.606-.781-1.693-.323-3.625 1.36-5.741.62-.776 1.36-1.178 2.143-1.178.303.003.602.061.885.169 1.502.567 3.051 2.582 2.908 5.671-.047.979.04 2.987.219 5.669a19.434 19.434 0 01-3.098-.984zm15.68.113a10.838 10.838 0 01-1.785-1.095c-2.004-1.534-2.982-3.572-2.908-6.059.095-3.127 1.914-4.25 3.443-4.263h.025a3.839 3.839 0 012.736 1.22c.917.951 1.443 2.336 1.518 4.005.096 2.085-.56 3.902-1.897 5.256a7.21 7.21 0 01-1.133.936zm16.609.739a25.817 25.817 0 01-5.83 1.03 71.25 71.25 0 01.75-3.003c2.031-7.376 3.986-8.802 4.971-8.997a8.28 8.28 0 011.593-.169c1.497 0 2.939.533 3.404 2.392.739 2.975-1.412 7.689-4.892 8.751l.004-.004z" fill="#EFEFEF"/><path opacity=".19" d="M42.44 148.71c-9.009-11.057-20.51-27.171-21.897-49.314l10.975 2.618c-1.135 14.779 3.63 27.017 10.921 46.696z" fill="#EA4F26"/><path d="M50.65 168.405c.01.575.027 1.163.047 1.76.071 1.907.191 3.873.322 5.652a201.396 201.396 0 00.572 6.464 16.422 16.422 0 00.231 2.745 16.222 16.222 0 001.6 4.756 16.093 16.093 0 007.54 7.182 15.848 15.848 0 006.62 1.438h1.15c2.985 0 5.91-.844 8.435-2.435a16.148 16.148 0 007.46-11.96c.063-.588.094-1.179.094-1.771l.029-.575c.03-.572.075-1.538.126-2.748a374.227 374.227 0 00.258-7.675 173 173 0 00.048-4.896c0-.963-.025-1.853-.059-2.626-.068-1.492-.197-2.544-.411-2.831-1.06-1.417-31.004-1.44-33.128.042-.808.554-1.003 3.735-.935 7.478z" fill="#575759"/><path opacity=".6" d="M50.994 174.957c4.977-1.372 29.393-4.805 33.995-5.532-.045-.609-.09-1.196-.136-1.751l-33.901 3.462c-.03.938-.143 2.459.042 3.821zm.756 8.336c6.575-1.408 28.937-4.77 33.15-5.447a16.086 16.086 0 00-.2-1.741l-33.507 3.103c-.022.57.205 2.725.557 4.085z" fill="#2C2C42"/><path d="M86.795 165.948l.052.454a2.31 2.31 0 01-2.051 2.529l-33.287 3.868a2.287 2.287 0 01-2.283-1.146 2.294 2.294 0 01-.28-.852l-.051-.454a2.309 2.309 0 012.05-2.529l33.287-3.868a2.29 2.29 0 012.282 1.146c.149.263.244.552.28.852zm.031 8.483l.052.454a2.299 2.299 0 01-2.023 2.529l-32.953 3.831a2.27 2.27 0 01-1.687-.471 2.28 2.28 0 01-.853-1.529l-.052-.454a2.297 2.297 0 012.023-2.529l32.951-3.831a2.271 2.271 0 012.268 1.149c.147.263.24.552.274.851z" fill="#AAAAAF"/><path opacity=".6" d="M52.383 187.295c.278.865 1.24 2.879 1.762 3.517 7.555-1.336 24.898-4.245 30.181-4.981a15.92 15.92 0 00.301-1.827l-32.244 3.291z" fill="#2C2C42"/><path d="M86.291 182.952l.05.454c.144 1.252-.7 2.377-1.884 2.515l-30.925 3.599c-1.183.137-2.258-.759-2.402-2.016l-.052-.455c-.142-1.251.703-2.377 1.886-2.515l30.933-3.599c1.178-.138 2.251.765 2.394 2.017z" fill="#AAAAAF"/><path d="M21.263 105.497c3.26 0 5.904-2.709 5.904-6.051s-2.644-6.052-5.904-6.052-5.904 2.71-5.904 6.052c0 3.342 2.644 6.051 5.904 6.051z" fill="#CC820A"/><path d="M21.261 103.1c1.97 0 3.566-1.636 3.566-3.654s-1.597-3.654-3.566-3.654c-1.97 0-3.566 1.636-3.566 3.654s1.597 3.654 3.566 3.654z" fill="#F4C83D"/><path d="M29.414 139.261c5.362-.769 6.129-2.982 7.124-9.842.694 6.508 1.582 8.978 7.034 9.718-4.756 1.856-6.427 2.529-7.276 10.051-1.17-7.617-2.219-8.291-6.882-9.927z" fill="#EFEFEF"/><defs><clipPath id="clip0_166_12535"><path fill="#fff" transform="translate(149.5 15.5)" d="M0 0h8.701v8.957H0z"/></clipPath></defs></svg>