<svg width="498" height="322" fill="none" xmlns="http://www.w3.org/2000/svg"><path d="M0 0h498v322C299.5 291.5 198 276 0 217.5V0z" fill="#0052FF"/><path d="M0 0h498v72.5C290.813 82.36 181.631 93.472 0 124V0z" fill="#fff" fill-opacity=".18"/><path d="M0 0h498v138.5C310.59 203.452 203.626 234.668 0 255V0z" fill="#CCDCFF" fill-opacity=".25"/><g filter="url(#filter0_d_304_103)"><circle cx="107" cy="247" r="46" fill="#fff"/></g><g filter="url(#filter1_d_304_103)" fill-rule="evenodd" clip-rule="evenodd"><path d="M107.5 271c12.979 0 23.5-10.521 23.5-23.5S120.479 224 107.5 224 84 234.521 84 247.5 94.521 271 107.5 271z" fill="#fff"/><path d="M107.5 271c12.979 0 23.5-10.521 23.5-23.5S120.479 224 107.5 224 84 234.521 84 247.5 94.521 271 107.5 271zm-4.189-36.578l-2.875 2.875 7.013 7.014 9.889-9.889h-5.78l-4.109 4.109-4.109-4.109h-.029zm7.43 13.18l7.013-7.013 2.89 2.89-4.123 4.123 4.262 4.262v5.751l-.015.015-10.027-10.028zm-16.524 4.189v-.029l4.16-4.16-4.16-4.16v-5.78l9.94 9.94-7.064 7.065-2.876-2.876zm13.232-.897l7.065 7.064-2.825 2.825h-.131l-4.109-4.109-4.109 4.109h-5.78l9.889-9.889z" fill="#0E51FF"/></g><defs><filter id="filter0_d_304_103" x="43" y="194" width="128" height="128" filterUnits="userSpaceOnUse" color-interpolation-filters="sRGB"><feFlood flood-opacity="0" result="BackgroundImageFix"/><feColorMatrix in="SourceAlpha" values="0 0 0 0 0 0 0 0 0 0 0 0 0 0 0 0 0 0 127 0" result="hardAlpha"/><feOffset dy="11"/><feGaussianBlur stdDeviation="9"/><feComposite in2="hardAlpha" operator="out"/><feColorMatrix values="0 0 0 0 0.916667 0 0 0 0 0.916667 0 0 0 0 0.916667 0 0 0 0.6 0"/><feBlend in2="BackgroundImageFix" result="effect1_dropShadow_304_103"/><feBlend in="SourceGraphic" in2="effect1_dropShadow_304_103" result="shape"/></filter><filter id="filter1_d_304_103" x="62" y="210" width="91" height="91" filterUnits="userSpaceOnUse" color-interpolation-filters="sRGB"><feFlood flood-opacity="0" result="BackgroundImageFix"/><feColorMatrix in="SourceAlpha" values="0 0 0 0 0 0 0 0 0 0 0 0 0 0 0 0 0 0 127 0" result="hardAlpha"/><feOffset dy="8"/><feGaussianBlur stdDeviation="11"/><feComposite in2="hardAlpha" operator="out"/><feColorMatrix values="0 0 0 0 0.054902 0 0 0 0 0.317647 0 0 0 0 1 0 0 0 0.4 0"/><feBlend in2="BackgroundImageFix" result="effect1_dropShadow_304_103"/><feBlend in="SourceGraphic" in2="effect1_dropShadow_304_103" result="shape"/></filter></defs></svg>