<svg width="117" height="204" fill="none" xmlns="http://www.w3.org/2000/svg"><g clip-path="url(#clip0_166_12411)"><path opacity=".12" d="M.004 200.644c0 1.553 27.524 3.356 59.237 3.356s57.424-1.264 57.424-2.811c0-1.548-25.708-2.812-57.421-2.812s-59.24.715-59.24 2.267z" fill="#32323F"/><path d="M47.751 174.649c1.433.682 3.2 1.146 5.128 1.39.494.065 1.003.114 1.52.143h.016c4.239.299 9.008-.356 12.717-1.887.07-.033.143-.059.202-.086 1.97-.839 3.628-1.932 4.729-3.275.902-1.102 1.433-2.377 1.433-3.806.007-.546.08-1.09.216-1.619.33-1.352 1.035-2.842 2.015-4.481 1.9-3.208 4.852-6.994 8.125-11.465 8.954-12.19 20.325-29.428 19.412-53.672-.874-23.215-13.87-50.489-43.222-50.52-.223 0-.45 0-.682.01-29.008.286-50.778 21.402-49.476 53.308 1.238 30.514 24.622 49.666 31.982 63.627 1.401 2.662 2.22 5.129 2.197 7.452v.236c.091 2.081 1.513 3.613 3.688 4.645z" fill="#F4AD00"/><path opacity=".75" d="M52.778 175.311s-6.334-48.497-11.409-58.568c-6.142-12.194-10.783-.699-5.895 5.5 4.64 5.875 10.911 9.521 18.11 6.527 6.833-2.841 12.657-19.164 4.483-19.202-9.057-.035-1.383 16.073 6.556 18.33 9.315 2.645 17.515-5.916 17.46-13.019-.043-5.512-6.517-10.625-8.642 1.646-1.147 6.608-7.922 58.3-7.922 58.3" stroke="#fff" stroke-width="2.579" stroke-linecap="round" stroke-linejoin="round"/><path opacity=".25" d="M83.847 149.571c8.954-12.191 20.325-29.429 19.412-53.673-.874-23.215-13.87-50.488-43.221-50.52-.224 0-.45 0-.682.01 44.984 48.329 38.283 64.389 24.491 104.183z" fill="#E84E1B"/><path d="M40.41 170.903c.02.6.048 1.215.079 1.838.103 1.991.258 4.041.421 5.899.056.635.115 1.246.17 1.827.275 2.866.527 4.917.527 4.917 0 .352.021.702.05 1.048a16.925 16.925 0 001.98 6.762 16.82 16.82 0 007.988 7.385c.338.144.684.287 1.033.416a16.574 16.574 0 005.91.984l1.2-.02a16.53 16.53 0 008.774-2.674 16.88 16.88 0 007.674-14.455l.021-.602a455.642 455.642 0 00.205-7.893c.016-.981.029-1.992.036-3 .013-1.774.009-3.539-.024-5.115a75.554 75.554 0 00-.103-2.743c-.095-1.557-.245-2.654-.473-2.952-1.131-1.463-32.413-1.024-34.61.556-.832.589-.984 3.912-.858 7.822z" fill="#454554"/><path opacity=".6" d="M40.871 177.743c5.18-1.511 30.633-5.473 35.429-6.306-.056-.636-.113-1.248-.168-1.827l-35.363 4.139c-.015.983-.111 2.573.102 3.994zm.923 8.697c6.84-1.577 30.155-5.43 34.546-6.202a16.76 16.76 0 00-.235-1.816l-34.952 3.757c-.02.598.247 2.845.641 4.261z" fill="#1F1F3B"/><path d="M78.134 167.779l.06.473a2.414 2.414 0 01-2.102 2.679l-34.715 4.555a2.397 2.397 0 01-2.708-2.048l-.063-.475a2.413 2.413 0 012.104-2.678l34.714-4.554a2.402 2.402 0 012.403 1.161c.16.273.264.574.307.887zm.161 8.862l.06.472a2.4 2.4 0 01-2.077 2.676L41.912 184.3a2.391 2.391 0 01-2.686-2.051l-.06-.472a2.4 2.4 0 012.079-2.676l34.365-4.511a2.395 2.395 0 011.769.467 2.39 2.39 0 01.916 1.584z" fill="#5E5E6D"/><path opacity=".6" d="M42.512 190.611c.302.899 1.34 2.99 1.896 3.646 7.871-1.51 25.937-4.818 31.452-5.668a16.7 16.7 0 00.286-1.914l-33.634 3.936z" fill="#1F1F3B"/><path d="M78.64 184.856l.06.475a2.4 2.4 0 01-2.079 2.675l-34.365 4.511a2.395 2.395 0 01-1.769-.467 2.39 2.39 0 01-.916-1.584l-.06-.472a2.403 2.403 0 012.077-2.677l34.366-4.51a2.393 2.393 0 011.768.467 2.375 2.375 0 01.917 1.582z" fill="#5E5E6D"/><path d="M31.45 66.54c-7.631 7.687-12.005 20.779-10.605 32.476M39.32 60.938a18.567 18.567 0 00-3.683 2.194" stroke="#fff" stroke-width="3.009" stroke-linecap="round" stroke-linejoin="round"/><path opacity=".15" d="M40.45 51.552c-6.161-.105 32.754 3.439 32.489-4.5l-17.196 2.956c-.84.11-14.662 1.1-15.292 1.544z" fill="#0A0A0A"/><path d="M45.646 83.427c-.86-1.336-2.58-4.937-2.58-4.937l3.828-1.96 2.534 5.43-1.706 2.902-2.076-1.435z" fill="#FAAAA2"/><path d="M45.037 82.98c-.451.115-.077.394.104 1.045.41 1.495-4.596 4.14-5.285 4.65-.357.266.116 2.531 2.059 1.514 1.68-.881 7.073-3.68 8.905-4.654a.906.906 0 00.467-1.034c-.393-1.446-1.611-3.375-2.15-3.152-.911.167-2.217 1.146-4.1 1.63z" fill="#221B2E"/><path d="M55.73 73.426c-1.275-.99-4.14-3.852-4.14-3.852l2.94-3.053 4.262 4.335-.61 3.276-2.452-.706z" fill="#FAAAA2"/><path d="M55 73.19c-.387.251.062.396.456.956.904 1.283-2.913 5.348-3.39 6.049-.246.361.981 2.353 2.466.782 1.29-1.358 5.414-5.693 6.808-7.188a.887.887 0 00.086-1.122c-.87-1.242-2.683-2.682-3.114-2.303-.805.447-1.701 1.782-3.312 2.826z" fill="#221B2E"/><path d="M69.662 37.408c-14.885.278-33.423 1.024-35.357 4.848-2.457 4.856 16.924 32.49 19.098 30.546 2.173-1.943 5.613-3.631 4.594-4.855-1.02-1.224-18.723-21.172-15.013-21.513 3.71-.34 25.037.506 26.34-.468 1.302-.975.338-8.558.338-8.558z" fill="#3B3B4F"/><path opacity=".18" d="M69.662 37.408c-14.885.278-33.423 1.024-35.357 4.848-2.457 4.856 16.924 32.49 19.098 30.546 2.173-1.943 5.613-3.631 4.594-4.855-1.02-1.224-18.723-21.172-15.013-21.513 3.71-.34 25.037.506 26.34-.468 1.302-.975.338-8.558.338-8.558z" fill="#0A0A0A"/><path d="M73.296 37.508c.771 2.395 1.704 6.801-.358 9.535-1.124 1.49-3.136 2.484-6.548 2.385-5.36-.155-28.455 2.293-28.141 3.4.313 1.108 11.38 25.808 10.634 27.118-.747 1.31-5.795 3.296-6.417 1.974-.622-1.32-14.534-29.315-11.413-33.773 2.631-3.758 28.247-7.643 30.578-9.184 2.332-1.542 11.665-1.455 11.665-1.455z" fill="#3B3B4F"/><path d="M16.228 37.472c-.074.827-.345 2.35.22 2.925.564.575 8.384 6.969 11.114 7.52 3.211.647 13.416-3.265 13.622-3.338.55-.195.95-3.785.278-5.784-.584-1.741-1.801-3.313-1.962-3.531-.16-.218-4.863 2.79-4.863 2.79l-1.784 6.476-16.625-7.058z" fill="#3B3B4F"/><path d="M38.607 34.173c4 4.272 2.809 9.7 2.211 9.9-6.79 2.275-10.243 3.304-12.029 3.234-1.785-.07-12.458-5.712-12.643-8.72-.143-2.373 2.754-8.984 2.754-8.984s7.32 7.395 9.386 6.66c2.067-.735 9.488-2.98 10.321-2.09z" fill="#545468"/><path d="M19.22 30.753c-.738 1.785-2.706 7.085-2.271 7.967 1.308 2.651 9.905 7.571 9.97 6.93.066-.64.624-8.731.052-8.925-1.7-.573-7.751-5.972-7.751-5.972z" fill="#fff"/><path d="M28.535 36.918c.224 3.25-.286 8.469.275 8.776.562.306 7.755-1.11 7.982-1.75.228-.64-1.036-8.369-1.328-8.477-.292-.107-6.929 1.45-6.929 1.45zm8.214 1.089c.352 1.663.43 3.065.923 3.191.493.126 2.776-.31 2.889-.59.113-.28-.422-3.06-1.164-3.756-.31-.293-2.939-.22-2.648 1.155z" fill="#3B3B4F"/><path d="M37.38 34.598c-1.05.382-.486.093-1.79.784-1.263.666-2.752.762-4.064.778-1.07.014-3.088 1.466-3.503 2.893-.372 1.29 2.313-.063 3.136-.093 3.153-.115 1.19 1.12 2.076 1.576.886.456.362-1.11 2.654-2.022 1.377-.547 2.111-.387 2.597-.792.486-.406-1.106-3.124-1.106-3.124z" fill="#EFAEA6"/><path d="M50.643 29.67c-1.054 2.056-15.63 5.16-16.148 5.508-.388.265 1.405 3.925 2.765 3.803 1.119-.1 19.953-4.2 19.69-8.383-.2-3.15 3.039-16.591 3.039-16.591s-7.046-3.226-6.512-.028c.135.786-2.317 14.683-2.834 15.692z" fill="#0052FF"/><path d="M57.163 14.608l3.87-1.695c-.347-1.597-1.33-4.434-1.932-5.798a5.544 5.544 0 00-1.863-2.26l-.496 1.7-1.636.948s.157 0 .34.44c.303.73.83 3.024-.164 4.36-.62.83 1.881 2.305 1.881 2.305z" fill="#EFAEA6"/><path opacity=".14" d="M55.477 8c.254.738.383 1.513.382 2.293 2.48.492 2.876-1.863 2.045-3.009-.31-.43-1.168-.735-1.168-.735S54.922 6.426 55.476 8z" fill="#19193B"/><path opacity=".18" d="M50.643 29.67c-1.054 2.056-15.63 5.16-16.148 5.508-.388.265 1.405 3.925 2.765 3.803 1.119-.1 19.953-4.2 19.69-8.383-.2-3.15 3.039-16.591 3.039-16.591s-7.046-3.226-6.512-.028c.135.786-2.317 14.683-2.834 15.692z" fill="#0A0A0A"/><path d="M51.176 4.835c.496 1.116.417 3.763 1.168 3.388.75-.376 1.046 2.36 1.863 1.987 1.976-.901 3.56-3.188 3.317-4.213-.243-1.024-1.763-3.475-1.763-3.475l-4.585 2.313z" fill="#EFAEA6"/><path d="M53.742 4.868c-.573.373-.517.522-1.056.535-.539.012-.11-.922-.979-.653-.87.27-1.774.658-2.342-.179-.82-1.212.463-1.596 1.27-1.81.519-.136.1-1.167 1.055-1.589.75-.33.89.123 1.576-.143.413-.16.84-1.165 1.704-1.015 1.604.28 1.224 1.789 2.667 2.22 1.684.503.355 4.013-.092 3.892-.52-.143-.607-1.487-1.099-1.569-.74-.122-.573.343-.79.963-.239.664-1.099 1.124-.993.017.107-1.106-.4-1.006-.921-.669z" fill="#19193B"/><path d="M60.146 8.946c-1.576-.116-2.078 2.462-3.27 2.79-.716.2-.969-1.083-1.026-1.239a2.176 2.176 0 00-.656.886c-3.37 8.787 3.886 25.76 3.886 25.76s3.995 2.08 11.523.957c4.586-.685.86-4.372.497-5.378-.362-1.006-7.079-20.696-7.079-20.696s-1.224-1.53-3.875-3.08z" fill="#fff"/><path d="M78.029 43.84c-2.45 2.07-6.019.654-8.07-.762-1.95-1.347-2.15-4.729-3.395-7.979-.21-.546-.457-1.12-.753-1.72l-.128-.253-.116-.224c-.034-.066-.07-.13-.106-.196a9.118 9.118 0 00-.16-.287c-.055-.093-.112-.193-.174-.295l-.129-.206c-1.166-1.84-3.439-4.586-4.442-6.887a7.913 7.913 0 01-.24-.612l-.043-.126-.038-.125a12.24 12.24 0 01-.13-.474c-.012-.042-.022-.085-.032-.128-.383-1.54-.527-3.218-.542-4.872v-.014c0-.558 0-1.112.026-1.66.143-3.726.775-7.042.648-8.043 0 0 1.29.202 4.775 2.615 1.466 1.014 4.155 4.156 4.829 6.768.222.851.43 1.68.623 2.478.74 3.035 1.337 5.66 2.197 7.618 1.116 2.55 1.1 5.356 3.621 8.154 1.366 1.503 3.812 5.515 1.779 7.23zM53.56 21.518c.478 1.307 1.262 3.82 1.745 5.59.597 2.18.624 3.582.708 4.441.189 1.98.705 4.496 1.863 6.226 1.232 1.851 1.938 1.265 2.678.258 1.267-1.73-.16-5.349-1.849-10.363-1.606-4.772-3.463-7.421-3.79-11.569a11.991 11.991 0 01.944-5.603c-4.779 2.702-2.568 10.29-2.3 11.02z" fill="#0052FF"/><path d="M43.028 37.378c-1.052.382-.614-.19-1.92.5-1.261.668-2.723 1.108-3.914 1.453-1.023.296-3.108 1.075-3.522 2.502-.373 1.29 2.312-.096 3.134-.093 2.218 0 .307.656 1.192 1.119.886.463 1.246-.646 3.538-1.558 1.378-.547 2.113-.388 2.597-.794.484-.405-1.105-3.13-1.105-3.13z" fill="#EFAEA6"/><path opacity=".18" d="M67.083 36.59c-.21-.547-.972-2.612-1.268-3.213l-.128-.254-.116-.223c-.034-.066-.07-.13-.106-.197a9.227 9.227 0 00-.16-.287c-.055-.093-.112-.193-.174-.295l-.129-.206c-1.166-1.84-3.44-4.586-4.442-6.887l-.04-1.794 4.144-2.593c1.937 5.177 2.834 16.007 2.419 15.949zM53.56 21.518c.478 1.307 1.262 3.82 1.745 5.59.597 2.18.624 3.582.708 4.441.189 1.98.705 4.496 1.863 6.226 1.232 1.851 1.938 1.265 2.678.258 1.267-1.73-.16-5.349-1.849-10.363-1.606-4.772-3.463-7.421-3.79-11.569a11.991 11.991 0 01.944-5.603c-4.779 2.702-2.568 10.29-2.3 11.02z" fill="#0A0A0A"/><path d="M55.105 30.439c-.881 2.127-14.86 6.886-15.348 7.278-.365.296 1.72 3.81 3.07 3.583 1.107-.184 14.776-2.164 17.454-7.618 1.403-2.858 4.785-14.44 6.222-17.833 1.438-3.392-6.682-3.869-6.479-.632.05.796-4.485 14.177-4.92 15.222z" fill="#0052FF"/><path opacity=".18" d="M56.983 12.602c.166-.066 1.015 3.112 2.787 4.48a4.73 4.73 0 001.64.848c1.765.481 6.36.573 8.618 1.27-.22-.852-.22-.852-.506-1.91-1.003-.87-6.619-.82-7.53-1.121a6.9 6.9 0 01-1.839-.95 11.453 11.453 0 01-2.446-2.474c-.305-.405-.255-.913-.7-1.026-.591-.149-.243.967-.024.883z" fill="#1F1F3B"/><path d="M56.206 11.824a.76.76 0 01.967-.542c.444.113.443.304.748.71.916 1.218 2.339 2.78 4.285 3.423 1.946.643 7.05-1.003 9.862.27 2.812 1.275 3.141 4.108 7.251 5.697 4.11 1.59 9.071.77 10.28 1.254 1.21.485 1.911.923 1.773 1.413-.137.49-.938 1.18-1.895 1.343-.958.163-8.84-.972-10.833-1.687-3.251-1.166-5.484-4.805-7.595-5.458-2.11-.654-6.92-.389-9.42-1.07-2.786-.762-4.378-4.538-4.585-4.453a.785.785 0 01-.753 0c-.241-.116-.162-.622-.085-.9z" fill="#F9B901"/></g><defs><clipPath id="clip0_166_12411"><path fill="#fff" transform="translate(.004)" d="M0 0h116.657v204H0z"/></clipPath></defs></svg>