<svg width="197" height="181" fill="none" xmlns="http://www.w3.org/2000/svg"><g clip-path="url(#clip0_166_13083)"><path d="M64.295 95.44c-1.723-3.65-3.653-5.065-4.779-7.45-1.242-2.62 1.476-4.583.01-5.76-1.218-.981-3.938 2.602-5.039 3.063-3.631 1.536-5.927-1.929-9.746-1.73-9.268.482-4.597 7.482 4.424 7.972 2.272.124 4.136 3.706 6.712 8.097 3.04 5.191 8.418-4.192 8.418-4.192zm17.052-11.2c-2.172-3.504-.492-5.985-1.912-8.274-1.56-2.516-4.27.463-5.158-1.248-.888-1.712 2.357-2.707 3.363-3.405 3.32-2.29-1.662-7.309.616-10.5 5.533-7.748 8.318-1.04 7.792 8.212-.134 2.334 2.674 4.585 2.927 13.392.173 6.15-7.628 1.823-7.628 1.823zm36.269 15.892l8.409-2.362c.079-3.858-4.024-11.957-4.629-15.41-.668-3.79-5.319-7.28-5.319-7.28l-2.823 7.95.18.667s.053.549.1 1.403c.076 1.32.138 3.367-.027 5.245-.098 1.135-.281 2.217-.595 3.032-.667 1.733-.266 4.297-2.102 6.95-1.384 1.986 6.806-.195 6.806-.195z" fill="#EFAEA6"/><path opacity=".14" d="M113.504 90.345c4.491.454 7.727-6.483 6.536-7.822-.825-.925-3.893 1.265-3.893 1.265l-2.616 1.313c.072 1.318.134 3.366-.027 5.244z" fill="#1F1F3B"/><path d="M149.574 188.228a137.828 137.828 0 01-.543 5.567c-.889 7.583-2.763 33.16-2.306 49.407.458 16.167-.966 53.988-.966 59.78-4.886 2.156-7.911 1.482-14.891 0 0 0-1.242-31.209-2.617-58.525-1.115-22.182-1.438-19.959-5.493-48.205-.045.132-1.034 2.883-2.473 7.117-3.078 9.037-8.22 24.827-10.686 36.259-3.84 17.835-1.838 64.325-3.447 65.929-4.793 2.837-12.905 3.113-15.07-.828 0 0-.918-57.492.79-66.497 1.156-6.128 10.912-66.123 13.09-82.241 0 0 42.972-9.419 44.29 5.334.165 1.828.235 3.663.209 5.497-.034 2.292.091 4.414.216 6.743.195 3.813.394 8.154-.103 14.663z" fill="#3B3B4D"/><path opacity=".43" d="M149.827 183.797c-.356-.08-16.92-3.632-19.159-11.964 0 0 14.399 1.243 19.006 1.739.201 3.806.297 8.072.153 10.225z" fill="#1F1F3B"/><path d="M124.019 90.197c-3.726-1.015-4.086 5.166-7.839 5.465-1.981.157-1.543-.71-2.485-1.628-.576-.567-1.116-1.198-2.032-.26-18.519 19.103.764 67.263-1.593 70.623-1.928 2.749 13.746 8.748 23.591 6.335 13.502-3.309 12.681-18.044 12.289-20.86-.391-2.815-9.073-50.654-9.073-50.654s-6.841-3.633-12.858-9.02z" fill="#fff"/><path d="M62.028 89.34c1.672 1.12 13.574 25.965 17.223 25.965 6.365 0 17.433-17.075 32.426-21.53 0 0 .459 3.197-.614 11.533-1.417 11.017 4.754 18.856 3.501 32.187-1.619 17.243 2.605 34.852-1.619 38.739-2.461 2.27-5.872 2.701-9.994-1.598-6.481-6.765-2.221-28.964-1.629-34.234.226-2.053.736-4.819 1.17-7.685.536-3.564-.226-9.242-1.788-10.812-3.267-3.291-15.568 8.826-23.938 8.512-7.735-.293-22.94-31.71-23.644-32.86-1.164-1.91 7.593-9.097 8.906-8.217z" fill="#0052FF"/><path opacity=".12" d="M62.028 89.34c1.672 1.12 13.574 25.965 17.223 25.965 6.365 0 17.433-17.075 32.426-21.53 0 0 .459 3.197-.614 11.533-1.417 11.017 4.754 18.856 3.501 32.187-1.619 17.243 2.605 34.852-1.619 38.739-2.461 2.27-5.872 2.701-9.994-1.598-6.481-6.765-2.221-28.964-1.629-34.234.226-2.053.736-4.819 1.17-7.685.536-3.564-.226-9.242-1.788-10.812-3.267-3.291-15.568 8.826-23.938 8.512-7.735-.293-22.94-31.71-23.644-32.86-1.164-1.91 7.593-9.097 8.906-8.217z" fill="#1F1F3B"/><path d="M123.514 121.391c.098 2.712.244 5.408.452 8.008.275 3.432 1.016 7.566 1.919 11.602a180.69 180.69 0 003.186 12.226c2.514 8.389.332 13.832 1.416 17.997a6.908 6.908 0 001.719 3.098c5.195 5.496 16.616 5.84 22.517 2.129 3.162-1.987-3.824-15.106-6.227-25.562-.215-.933-.419-1.851-.613-2.742-.791-3.655-1.355-6.86-1.319-8.965.03-1.607.078-2.934.124-4.107.032-.764.066-1.468.096-2.14l.034-.707c.105-2.231.183-4.266.113-7.53a224.566 224.566 0 00-.207-5.837c-.345-7.165-2.382-16.968-5.62-20.357-7.702-8.066-17.081-8.298-17.081-8.298-.292 3.67-1.004 17.604-.509 31.185z" fill="#0052FF"/><path opacity=".25" d="M123.312 115.226c.1 2.71.452 11.575.654 14.173.276 3.432 1.017 7.566 1.92 11.602a7.44 7.44 0 00.048-.292c1.13-7.349 8.604-28.475 8.604-28.475l-11.226 2.992z" fill="#1F1F3B"/><path d="M136.927 113.754c-3.025 4.815-36.646 8.987-44.024 5.98-8.508-3.466-14.392-35.37-13.993-40.38.171-2.157 11.502-4.994 11.58-3.248.2 4.41 5.931 29.368 9.093 29.499 5.878.244 21.341-3.908 24.729-11.724 1.602-3.695 8.286-.175 11.232 4.417 2.518 3.926 4.409 10.647 1.383 15.456z" fill="#0052FF"/><path opacity=".2" d="M116.291 96.834c.328-.206 3.379 6.138 7.698 8.311 1.194.6 2.485 1.021 3.84 1.134 3.962.316 16.779-.106 16.779-.106s-.833-4.094-2.658-5.879c-3.651 1.038-11.497 2.33-13.564 2.055a15.128 15.128 0 01-4.298-1.268c-2.499-1.135-4.604-2.798-6.193-4.232-.809-.731-.903-1.816-1.897-1.882-1.326-.085-.131 2.128.293 1.867z" fill="#1F1F39"/><path d="M114.364 95.1c.061-.637.55-1.658 1.919-1.57 1.03.064 1.101.48 1.939 1.236 2.515 2.27 6.287 5.084 10.84 5.687 4.553.603 15.181-5.049 21.906-3.434 6.726 1.615 8.595 7.639 18.317 9.413 9.722 1.773 20.356-2.027 23.223-1.469 2.867.558 4.593 1.223 4.485 2.346-.109 1.122-1.6 2.944-3.651 3.69-2.051.747-19.924 1.496-24.616.756-7.657-1.208-14.053-8.2-18.993-8.756-4.94-.557-15.453 1.974-21.244 1.511-6.465-.515-11.503-8.068-11.939-7.797-.436.27-.84.533-1.663.306-.567-.154-.584-1.286-.523-1.92z" fill="#F4AD00"/><path d="M58.428 155.561c3.072 0 9.387 5.477.362 6.356-9.024.878-22.54.473-28.003.491-8.928.031-11.142-.341-11.066-4.003.04-2.121 1.18-3.495 5.886-4.051 4.896-.579 2.395-6.051 8.37-5.886 5.091.142 5.61 7.304 10.267 5.549 4.657-1.756 3.682 3.029 7.09 3.906 3.733.965 4.019-2.362 7.094-2.362z" fill="#fff"/><path d="M111.913 69.877c-1.468 2.915-7.039 7.34-5.011 8.172 2.028.831-3.104 6.155-.976 7.125 5.153 2.35 12.501 1.527 14.201-.73 1.701-2.258 4.192-9.5 4.192-9.5l-12.406-5.067z" fill="#EFAEA6"/><path d="M116.125 75.022c-1.725-.493-1.934-.122-2.862-1.165-.928-1.043 1.714-1.815-.294-3.064-2.008-1.248-4.317-2.372-3.542-4.944 1.121-3.724 4.054-1.848 5.838-.62 1.147.794 2.565-1.827 5.028-.663 1.932.908 1.234 1.974 2.922 2.865 1.017.538 3.797-.357 4.931 1.616 2.106 3.657-1.631 5.517-.113 9.12 1.78 4.2-7.659 7.656-8.149 6.56-.572-1.28 2.04-3.78 1.388-4.892-.985-1.68-1.654-.534-3.302.1-1.76.682-4.139-.226-1.694-1.928 2.446-1.703 1.407-2.54-.151-2.985z" fill="#1F1F3B"/><path d="M106.582 68.483c-3.185-.507-3.64-1.961-4.232-6.47-.413 4.28-.94 5.902-4.178 6.391 2.823 1.22 3.819 1.664 4.322 6.61.695-5.013 1.316-5.456 4.088-6.531z" fill="#fff"/><path d="M36.008 79.922l-.79-37.4M.328 27.059L33.815 41.86l27.526-19.384" stroke="#E5E5E5" stroke-width=".88" stroke-linecap="round" stroke-linejoin="round" stroke-dasharray="2.11 1.41 2.46 2.11 1.41 2.46"/><path d="M15.92 63.535c.775.863 27.779-15.38 29.462-16.398h.01c1.153-.696-3.491-16.985-5.99-25.427a452.752 452.752 0 00-.85-2.845c-.401-1.337-.645-2.134-.645-2.134l-.046.022a703.34 703.34 0 00-8.932 4.44C20.629 25.392 9.484 31.25 8.9 32.717c-.933 2.348 4.67 28.2 7.02 30.818z" fill="#7ABECE"/><path d="M38.09 18.86a73.1 73.1 0 00.677 2.943c2.059 8.41 6.748 24.411 6.633 25.328-.146 1.195 16.976 11.868 18.819 11.69.081-.008.13-.038.149-.09.415-1.249-6.55-27.896-7.174-30.196-.44-1.618-6.497-4.948-12.003-8.088a192.75 192.75 0 01-3.726-2.17 59.325 59.325 0 01-2.46-1.548h-1.093a.06.06 0 00-.046.022c-.119.134-.017.9.224 2.108z" fill="#1785BC"/><path d="M64.368 58.728c-2.929 1.777-26.197 14.837-28.59 14.315-2.392-.522-21.002-8.696-19.856-9.508 1.146-.813 29.472-16.405 29.472-16.405l18.974 11.598z" fill="#056291"/><path d="M33.895 1.19l11.501 45.94M36.294 2.494S34.126.5 33.664.64c-.462.14-1.2 2.875-1.2 2.875M3.977 70.13l41.302-22.825M4.617 67.468S3.25 70.078 3.5 70.495c.251.416 3.072.432 3.072.432m65.793-7.614L45.273 47.162m24.621 17.126s2.936-.113 3.162-.541c.226-.428-1.16-2.89-1.16-2.89" stroke="#fff" stroke-width="1.666" stroke-linecap="round" stroke-linejoin="round"/><path d="M39.253 22.125L14.707 35.87l6.487 24.493 15.604 8.634 23.143-13.04-5.61-24.493-15.078-9.338z" stroke="#E5E5E5" stroke-width=".88" stroke-linecap="round" stroke-linejoin="round" stroke-dasharray="2.11 1.41 2.46 2.11 1.41 2.46"/><path d="M35.744 9.086L.328 27.059 9.27 66.707l26.737 13.215 33.4-18.15-8.066-39.295L35.744 9.086z" stroke="#D1D1D1" stroke-width=".88" stroke-linecap="round" stroke-linejoin="round" stroke-dasharray="2.11 1.41 2.46 2.11 1.41 2.46"/></g><defs><clipPath id="clip0_166_13083"><path fill="#fff" d="M0 0h197v181H0z"/></clipPath></defs></svg>