<svg width="403" height="166" fill="none" xmlns="http://www.w3.org/2000/svg"><path d="M83 0a83 83 0 100 166v-48.208a34.782 34.782 0 01-24.602-10.191 34.787 34.787 0 01-7.541-37.915A34.792 34.792 0 0183 48.208V0z" fill="#2F2E41"/><path d="M155.586 53.51a78.345 78.345 0 00-72.67-48.856l.047 43.539a34.808 34.808 0 0132.286 21.705l40.337-16.388z" fill="#FF794F"/><path d="M134.298 135.906a73.695 73.695 0 0016.972-80.65l-36.058 14.653a34.765 34.765 0 01-8.008 38.054l27.094 27.943z" fill="#61D0AA"/><path d="M83.002 152.037a69.037 69.037 0 0048.031-19.447l-23.785-24.557a34.851 34.851 0 01-24.246 9.816v34.188z" fill="#0052FF"/><path fill-rule="evenodd" clip-rule="evenodd" d="M83.446 105.991c12.848 0 23.263-10.52 23.263-23.496C106.709 69.52 96.294 59 83.446 59 70.6 59 60.184 69.52 60.184 82.495c0 12.976 10.415 23.496 23.262 23.496zM79.3 69.42l-2.846 2.874 6.943 7.013 9.789-9.887h-5.722l-4.067 4.108-4.068-4.108H79.3zm7.355 13.177l6.943-7.011 2.86 2.889-4.081 4.122 4.219 4.262v5.75l-.015.014-9.926-10.026zm-16.356 4.189v-.03l4.118-4.159-4.118-4.159V72.66l9.84 9.937-6.994 7.064-2.846-2.875zm13.098-.898l6.993 7.063-2.796 2.824h-.13l-4.067-4.108-4.068 4.108h-5.721l9.789-9.887z" fill="#0E51FF"/><circle cx="241.5" cy="31" r="6.5" fill="#2F2E41"/><path d="M263.276 27.272h-4.212v2.736c.184-.256.456-.464.816-.624.36-.168.748-.252 1.164-.252.664 0 1.204.14 1.62.42.416.272.712.628.888 1.068.184.432.276.892.276 1.38 0 .576-.108 1.092-.324 1.548a2.449 2.449 0 01-.996 1.08c-.44.264-.988.396-1.644.396-.84 0-1.52-.216-2.04-.648-.52-.432-.836-1.008-.948-1.728h1.068c.104.456.324.812.66 1.068s.76.384 1.272.384c.632 0 1.108-.188 1.428-.564.32-.384.48-.888.48-1.512s-.16-1.104-.48-1.44c-.32-.344-.792-.516-1.416-.516-.424 0-.796.104-1.116.312-.312.2-.54.476-.684.828h-1.032v-4.896h5.22v.96zm2.003 3.3c0-1.376.224-2.448.672-3.216.448-.776 1.232-1.164 2.352-1.164 1.112 0 1.892.388 2.34 1.164.448.768.672 1.84.672 3.216 0 1.4-.224 2.488-.672 3.264-.448.776-1.228 1.164-2.34 1.164-1.12 0-1.904-.388-2.352-1.164-.448-.776-.672-1.864-.672-3.264zm4.956 0c0-.696-.048-1.284-.144-1.764-.088-.488-.276-.88-.564-1.176-.28-.296-.688-.444-1.224-.444-.544 0-.96.148-1.248.444-.28.296-.468.688-.564 1.176-.088.48-.132 1.068-.132 1.764 0 .72.044 1.324.132 1.812.096.488.284.88.564 1.176.288.296.704.444 1.248.444.536 0 .944-.148 1.224-.444.288-.296.476-.688.564-1.176.096-.488.144-1.092.144-1.812zm2.339-2.292c0-.544.164-.976.492-1.296.328-.328.748-.492 1.26-.492s.932.164 1.26.492c.328.32.492.752.492 1.296 0 .552-.164.992-.492 1.32-.328.32-.748.48-1.26.48s-.932-.16-1.26-.48c-.328-.328-.492-.768-.492-1.32zm7.008-1.656L274.722 35h-1.08l4.86-8.376h1.08zm-5.256.54a.8.8 0 00-.648.288c-.152.184-.228.46-.228.828 0 .368.076.648.228.84a.8.8 0 00.648.288.8.8 0 00.648-.288c.16-.2.24-.48.24-.84 0-.368-.08-.644-.24-.828a.8.8 0 00-.648-.288zm2.844 6.18c0-.552.164-.988.492-1.308.328-.328.748-.492 1.26-.492s.928.164 1.248.492c.328.32.492.756.492 1.308 0 .544-.164.98-.492 1.308-.32.328-.736.492-1.248.492s-.932-.16-1.26-.48c-.328-.328-.492-.768-.492-1.32zm1.74-1.116a.8.8 0 00-.648.288c-.16.184-.24.46-.24.828 0 .36.08.636.24.828.16.184.376.276.648.276s.488-.092.648-.276c.16-.192.24-.468.24-.828 0-.368-.08-.644-.24-.828a.8.8 0 00-.648-.288zM289.703 35l-1.992-3.42h-1.32V35h-1.092v-8.364h2.7c.632 0 1.164.108 1.596.324.44.216.768.508.984.876.216.368.324.788.324 1.26 0 .576-.168 1.084-.504 1.524-.328.44-.824.732-1.488.876l2.1 3.504h-1.308zm-3.312-4.296h1.608c.592 0 1.036-.144 1.332-.432.296-.296.444-.688.444-1.176 0-.496-.148-.88-.444-1.152-.288-.272-.732-.408-1.332-.408h-1.608v3.168zm12.209.756c0 .208-.012.428-.036.66h-5.256c.04.648.26 1.156.66 1.524.408.36.9.54 1.476.54.472 0 .864-.108 1.176-.324.32-.224.544-.52.672-.888h1.176a2.856 2.856 0 01-1.056 1.548c-.528.392-1.184.588-1.968.588-.624 0-1.184-.14-1.68-.42a2.995 2.995 0 01-1.152-1.188c-.28-.52-.42-1.12-.42-1.8 0-.68.136-1.276.408-1.788a2.836 2.836 0 011.14-1.176c.496-.28 1.064-.42 1.704-.42.624 0 1.176.136 1.656.408.48.272.848.648 1.104 1.128.264.472.396 1.008.396 1.608zm-1.128-.228c0-.416-.092-.772-.276-1.068a1.737 1.737 0 00-.756-.684c-.312-.16-.66-.24-1.044-.24-.552 0-1.024.176-1.416.528-.384.352-.604.84-.66 1.464h4.152zm11.329-2.808L306.749 35h-1.128l-1.584-5.22-1.584 5.22h-1.128l-2.064-6.576h1.116l1.512 5.52 1.632-5.52h1.116l1.596 5.532 1.488-5.532h1.08zm.676 3.264c0-.672.136-1.26.408-1.764a2.964 2.964 0 011.116-1.188 3.11 3.11 0 011.596-.42c.576 0 1.076.124 1.5.372.424.248.74.56.948.936v-1.2h1.104V35h-1.104v-1.224c-.216.384-.54.704-.972.96-.424.248-.92.372-1.488.372a2.98 2.98 0 01-1.584-.432 3.03 3.03 0 01-1.116-1.212c-.272-.52-.408-1.112-.408-1.776zm5.568.012c0-.496-.1-.928-.3-1.296a2.065 2.065 0 00-.816-.84 2.14 2.14 0 00-1.116-.3c-.408 0-.78.096-1.116.288a2.09 2.09 0 00-.804.84c-.2.368-.3.8-.3 1.296 0 .504.1.944.3 1.32.2.368.468.652.804.852a2.21 2.21 0 001.116.288c.408 0 .78-.096 1.116-.288.344-.2.616-.484.816-.852.2-.376.3-.812.3-1.308zm4.041-2.208c.192-.376.464-.668.816-.876.36-.208.796-.312 1.308-.312v1.128h-.288c-1.224 0-1.836.664-1.836 1.992V35h-1.092v-6.576h1.092v1.068zm2.977 2.196c0-.672.136-1.26.408-1.764a2.964 2.964 0 011.116-1.188c.48-.28 1.016-.42 1.608-.42.512 0 .988.12 1.428.36.44.232.776.54 1.008.924v-3.48h1.104V35h-1.104v-1.236a2.598 2.598 0 01-.96.972c-.424.248-.92.372-1.488.372a3.043 3.043 0 01-1.596-.432 3.03 3.03 0 01-1.116-1.212c-.272-.52-.408-1.112-.408-1.776zm5.568.012c0-.496-.1-.928-.3-1.296a2.065 2.065 0 00-.816-.84 2.14 2.14 0 00-1.116-.3c-.408 0-.78.096-1.116.288a2.09 2.09 0 00-.804.84c-.2.368-.3.8-.3 1.296 0 .504.1.944.3 1.32.2.368.468.652.804.852a2.21 2.21 0 001.116.288c.408 0 .78-.096 1.116-.288.344-.2.616-.484.816-.852.2-.376.3-.812.3-1.308zm5.277 3.408c-.504 0-.956-.084-1.356-.252a2.356 2.356 0 01-.948-.72 1.946 1.946 0 01-.384-1.068h1.128c.032.328.184.596.456.804.28.208.644.312 1.092.312.416 0 .744-.092.984-.276.24-.184.36-.416.36-.696 0-.288-.128-.5-.384-.636-.256-.144-.652-.284-1.188-.42a9.777 9.777 0 01-1.2-.384 2.279 2.279 0 01-.792-.588c-.216-.264-.324-.608-.324-1.032 0-.336.1-.644.3-.924.2-.28.484-.5.852-.66a3.003 3.003 0 011.26-.252c.728 0 1.316.184 1.764.552.448.368.688.872.72 1.512h-1.092a1.12 1.12 0 00-.42-.828c-.248-.208-.584-.312-1.008-.312-.392 0-.704.084-.936.252a.779.779 0 00-.348.66c0 .216.068.396.204.54.144.136.32.248.528.336.216.08.512.172.888.276.472.128.856.256 1.152.384.296.12.548.304.756.552.216.248.328.572.336.972 0 .36-.1.684-.3.972-.2.288-.484.516-.852.684-.36.16-.776.24-1.248.24zm17.653-8.472L348.137 35h-1.224l-1.944-6.732L342.953 35l-1.212.012-2.34-8.376h1.164l1.824 7.092 2.016-7.092h1.224l1.92 7.068 1.836-7.068h1.176zm.787 5.052c0-.672.136-1.26.408-1.764a2.964 2.964 0 011.116-1.188 3.11 3.11 0 011.596-.42c.576 0 1.076.124 1.5.372.424.248.74.56.948.936v-1.2h1.104V35h-1.104v-1.224c-.216.384-.54.704-.972.96-.424.248-.92.372-1.488.372a2.98 2.98 0 01-1.584-.432 3.03 3.03 0 01-1.116-1.212c-.272-.52-.408-1.112-.408-1.776zm5.568.012c0-.496-.1-.928-.3-1.296a2.065 2.065 0 00-.816-.84 2.14 2.14 0 00-1.116-.3c-.408 0-.78.096-1.116.288a2.09 2.09 0 00-.804.84c-.2.368-.3.8-.3 1.296 0 .504.1.944.3 1.32.2.368.468.652.804.852a2.21 2.21 0 001.116.288c.408 0 .78-.096 1.116-.288.344-.2.616-.484.816-.852.2-.376.3-.812.3-1.308zm4.041-5.58V35h-1.092v-8.88h1.092zm2.954 0V35h-1.092v-8.88h1.092zm7.861 5.34c0 .208-.012.428-.036.66h-5.256c.04.648.26 1.156.66 1.524.408.36.9.54 1.476.54.472 0 .864-.108 1.176-.324.32-.224.544-.52.672-.888h1.176a2.856 2.856 0 01-1.056 1.548c-.528.392-1.184.588-1.968.588-.624 0-1.184-.14-1.68-.42a2.995 2.995 0 01-1.152-1.188c-.28-.52-.42-1.12-.42-1.8 0-.68.136-1.276.408-1.788a2.836 2.836 0 011.14-1.176c.496-.28 1.064-.42 1.704-.42.624 0 1.176.136 1.656.408.48.272.848.648 1.104 1.128.264.472.396 1.008.396 1.608zm-1.128-.228c0-.416-.092-.772-.276-1.068a1.737 1.737 0 00-.756-.684c-.312-.16-.66-.24-1.044-.24-.552 0-1.024.176-1.416.528-.384.352-.604.84-.66 1.464h4.152zm3.901-1.908V33.2c0 .32.068.548.204.684.136.128.372.192.708.192h.804V35h-.984c-.608 0-1.064-.14-1.368-.42-.304-.28-.456-.74-.456-1.38v-3.876h-.852v-.9h.852v-1.656h1.092v1.656h1.716v.9h-1.716z" fill="#2F2E41"/><circle cx="241.5" cy="67" r="6.5" fill="#FF794F"/><path d="M257.612 70.124A56.82 56.82 0 00260 68.12a9.777 9.777 0 001.452-1.644c.4-.576.6-1.14.6-1.692 0-.52-.128-.928-.384-1.224-.248-.304-.652-.456-1.212-.456-.544 0-.968.172-1.272.516-.296.336-.456.788-.48 1.356h-1.056c.032-.896.304-1.588.816-2.076s1.172-.732 1.98-.732c.824 0 1.476.228 1.956.684.488.456.732 1.084.732 1.884 0 .664-.2 1.312-.6 1.944a8.564 8.564 0 01-1.344 1.656 35.235 35.235 0 01-1.932 1.656h4.128v.912h-5.772v-.78zm7.034-3.552c0-1.376.224-2.448.672-3.216.448-.776 1.232-1.164 2.352-1.164 1.112 0 1.892.388 2.34 1.164.448.768.672 1.84.672 3.216 0 1.4-.224 2.488-.672 3.264-.448.776-1.228 1.164-2.34 1.164-1.12 0-1.904-.388-2.352-1.164-.448-.776-.672-1.864-.672-3.264zm4.956 0c0-.696-.048-1.284-.144-1.764-.088-.488-.276-.88-.564-1.176-.28-.296-.688-.444-1.224-.444-.544 0-.96.148-1.248.444-.28.296-.468.688-.564 1.176-.088.48-.132 1.068-.132 1.764 0 .72.044 1.324.132 1.812.096.488.284.88.564 1.176.288.296.704.444 1.248.444.536 0 .944-.148 1.224-.444.288-.296.476-.688.564-1.176.096-.488.144-1.092.144-1.812zm2.34-2.292c0-.544.164-.976.492-1.296.328-.328.748-.492 1.26-.492s.932.164 1.26.492c.328.32.492.752.492 1.296 0 .552-.164.992-.492 1.32-.328.32-.748.48-1.26.48s-.932-.16-1.26-.48c-.328-.328-.492-.768-.492-1.32zm7.008-1.656L274.09 71h-1.08l4.86-8.376h1.08zm-5.256.54a.8.8 0 00-.648.288c-.152.184-.228.46-.228.828 0 .368.076.648.228.84a.8.8 0 00.648.288.8.8 0 00.648-.288c.16-.2.24-.48.24-.84 0-.368-.08-.644-.24-.828a.8.8 0 00-.648-.288zm2.844 6.18c0-.552.164-.988.492-1.308.328-.328.748-.492 1.26-.492s.928.164 1.248.492c.328.32.492.756.492 1.308 0 .544-.164.98-.492 1.308-.32.328-.736.492-1.248.492s-.932-.16-1.26-.48c-.328-.328-.492-.768-.492-1.32zm1.74-1.116a.8.8 0 00-.648.288c-.16.184-.24.46-.24.828 0 .36.08.636.24.828.16.184.376.276.648.276s.488-.092.648-.276c.16-.192.24-.468.24-.828 0-.368-.08-.644-.24-.828a.8.8 0 00-.648-.288zm11.536-5.592v.888h-2.28V71h-1.092v-7.476h-2.292v-.888h5.664zm2.436 2.856c.192-.376.464-.668.816-.876.36-.208.796-.312 1.308-.312v1.128h-.288c-1.224 0-1.836.664-1.836 1.992V71h-1.092v-6.576h1.092v1.068zm9.385 1.968c0 .208-.012.428-.036.66h-5.256c.04.648.26 1.156.66 1.524.408.36.9.54 1.476.54.472 0 .864-.108 1.176-.324.32-.224.544-.52.672-.888h1.176a2.856 2.856 0 01-1.056 1.548c-.528.392-1.184.588-1.968.588-.624 0-1.184-.14-1.68-.42a2.995 2.995 0 01-1.152-1.188c-.28-.52-.42-1.12-.42-1.8 0-.68.136-1.276.408-1.788a2.836 2.836 0 011.14-1.176c.496-.28 1.064-.42 1.704-.42.624 0 1.176.136 1.656.408.48.272.848.648 1.104 1.128.264.472.396 1.008.396 1.608zm-1.128-.228c0-.416-.092-.772-.276-1.068a1.737 1.737 0 00-.756-.684c-.312-.16-.66-.24-1.044-.24-.552 0-1.024.176-1.416.528-.384.352-.604.84-.66 1.464h4.152zm2.161.456c0-.672.136-1.26.408-1.764a2.964 2.964 0 011.116-1.188 3.11 3.11 0 011.596-.42c.576 0 1.076.124 1.5.372.424.248.74.56.948.936v-1.2h1.104V71h-1.104v-1.224c-.216.384-.54.704-.972.96-.424.248-.92.372-1.488.372a2.98 2.98 0 01-1.584-.432 3.03 3.03 0 01-1.116-1.212c-.272-.52-.408-1.112-.408-1.776zm5.568.012c0-.496-.1-.928-.3-1.296a2.065 2.065 0 00-.816-.84 2.14 2.14 0 00-1.116-.3c-.408 0-.78.096-1.116.288a2.09 2.09 0 00-.804.84c-.2.368-.3.8-.3 1.296 0 .504.1.944.3 1.32.2.368.468.652.804.852a2.21 2.21 0 001.116.288c.408 0 .78-.096 1.116-.288.344-.2.616-.484.816-.852.2-.376.3-.812.3-1.308zm5.278 3.408c-.504 0-.956-.084-1.356-.252a2.356 2.356 0 01-.948-.72 1.946 1.946 0 01-.384-1.068h1.128c.032.328.184.596.456.804.28.208.644.312 1.092.312.416 0 .744-.092.984-.276.24-.184.36-.416.36-.696 0-.288-.128-.5-.384-.636-.256-.144-.652-.284-1.188-.42a9.777 9.777 0 01-1.2-.384 2.279 2.279 0 01-.792-.588c-.216-.264-.324-.608-.324-1.032 0-.336.1-.644.3-.924.2-.28.484-.5.852-.66a3.003 3.003 0 011.26-.252c.728 0 1.316.184 1.764.552.448.368.688.872.72 1.512h-1.092a1.12 1.12 0 00-.42-.828c-.248-.208-.584-.312-1.008-.312-.392 0-.704.084-.936.252a.779.779 0 00-.348.66c0 .216.068.396.204.54.144.136.32.248.528.336.216.08.512.172.888.276.472.128.856.256 1.152.384.296.12.548.304.756.552.216.248.328.572.336.972 0 .36-.1.684-.3.972-.2.288-.484.516-.852.684-.36.16-.776.24-1.248.24zm9.773-6.684V71h-1.092v-.972c-.208.336-.5.6-.876.792a2.698 2.698 0 01-1.224.276c-.512 0-.972-.104-1.38-.312a2.388 2.388 0 01-.972-.96c-.232-.424-.348-.94-.348-1.548v-3.852h1.08v3.708c0 .648.164 1.148.492 1.5.328.344.776.516 1.344.516.584 0 1.044-.18 1.38-.54.336-.36.504-.884.504-1.572v-3.612h1.092zm2.936 1.068c.192-.376.464-.668.816-.876.36-.208.796-.312 1.308-.312v1.128h-.288c-1.224 0-1.836.664-1.836 1.992V71h-1.092v-6.576h1.092v1.068zm9.049-1.068l-3.96 9.672h-1.128l1.296-3.168-2.652-6.504h1.212l2.064 5.328 2.04-5.328h1.128zm14.809-1.788L347.657 71h-1.224l-1.944-6.732L342.473 71l-1.212.012-2.34-8.376h1.164l1.824 7.092 2.016-7.092h1.224l1.92 7.068 1.836-7.068h1.176zm.787 5.052c0-.672.136-1.26.408-1.764a2.964 2.964 0 011.116-1.188 3.11 3.11 0 011.596-.42c.576 0 1.076.124 1.5.372.424.248.74.56.948.936v-1.2h1.104V71h-1.104v-1.224c-.216.384-.54.704-.972.96-.424.248-.92.372-1.488.372a2.98 2.98 0 01-1.584-.432 3.03 3.03 0 01-1.116-1.212c-.272-.52-.408-1.112-.408-1.776zm5.568.012c0-.496-.1-.928-.3-1.296a2.065 2.065 0 00-.816-.84 2.14 2.14 0 00-1.116-.3c-.408 0-.78.096-1.116.288a2.09 2.09 0 00-.804.84c-.2.368-.3.8-.3 1.296 0 .504.1.944.3 1.32.2.368.468.652.804.852a2.21 2.21 0 001.116.288c.408 0 .78-.096 1.116-.288.344-.2.616-.484.816-.852.2-.376.3-.812.3-1.308zm4.041-5.58V71h-1.092v-8.88h1.092zm2.953 0V71h-1.092v-8.88h1.092zm7.861 5.34c0 .208-.012.428-.036.66h-5.256c.04.648.26 1.156.66 1.524.408.36.9.54 1.476.54.472 0 .864-.108 1.176-.324.32-.224.544-.52.672-.888h1.176a2.856 2.856 0 01-1.056 1.548c-.528.392-1.184.588-1.968.588-.624 0-1.184-.14-1.68-.42a2.995 2.995 0 01-1.152-1.188c-.28-.52-.42-1.12-.42-1.8 0-.68.136-1.276.408-1.788a2.836 2.836 0 011.14-1.176c.496-.28 1.064-.42 1.704-.42.624 0 1.176.136 1.656.408.48.272.848.648 1.104 1.128.264.472.396 1.008.396 1.608zm-1.128-.228c0-.416-.092-.772-.276-1.068a1.737 1.737 0 00-.756-.684c-.312-.16-.66-.24-1.044-.24-.552 0-1.024.176-1.416.528-.384.352-.604.84-.66 1.464h4.152zm3.902-1.908V69.2c0 .32.068.548.204.684.136.128.372.192.708.192h.804V71h-.984c-.608 0-1.064-.14-1.368-.42-.304-.28-.456-.74-.456-1.38v-3.876h-.852v-.9h.852v-1.656h1.092v1.656h1.716v.9h-1.716z" fill="#2F2E41"/><circle cx="241.5" cy="103" r="6.5" fill="#61D0AA"/><path d="M257.612 106.124A56.82 56.82 0 00260 104.12a9.777 9.777 0 001.452-1.644c.4-.576.6-1.14.6-1.692 0-.52-.128-.928-.384-1.224-.248-.304-.652-.456-1.212-.456-.544 0-.968.172-1.272.516-.296.336-.456.788-.48 1.356h-1.056c.032-.896.304-1.588.816-2.076s1.172-.732 1.98-.732c.824 0 1.476.228 1.956.684.488.456.732 1.084.732 1.884 0 .664-.2 1.312-.6 1.944a8.564 8.564 0 01-1.344 1.656 35.235 35.235 0 01-1.932 1.656h4.128v.912h-5.772v-.78zm7.034-3.552c0-1.376.224-2.448.672-3.216.448-.776 1.232-1.164 2.352-1.164 1.112 0 1.892.388 2.34 1.164.448.768.672 1.84.672 3.216 0 1.4-.224 2.488-.672 3.264-.448.776-1.228 1.164-2.34 1.164-1.12 0-1.904-.388-2.352-1.164-.448-.776-.672-1.864-.672-3.264zm4.956 0c0-.696-.048-1.284-.144-1.764-.088-.488-.276-.88-.564-1.176-.28-.296-.688-.444-1.224-.444-.544 0-.96.148-1.248.444-.28.296-.468.688-.564 1.176-.088.48-.132 1.068-.132 1.764 0 .72.044 1.324.132 1.812.096.488.284.88.564 1.176.288.296.704.444 1.248.444.536 0 .944-.148 1.224-.444.288-.296.476-.688.564-1.176.096-.488.144-1.092.144-1.812zm2.34-2.292c0-.544.164-.976.492-1.296.328-.328.748-.492 1.26-.492s.932.164 1.26.492c.328.32.492.752.492 1.296 0 .552-.164.992-.492 1.32-.328.32-.748.48-1.26.48s-.932-.16-1.26-.48c-.328-.328-.492-.768-.492-1.32zm7.008-1.656L274.09 107h-1.08l4.86-8.376h1.08zm-5.256.54a.8.8 0 00-.648.288c-.152.184-.228.46-.228.828 0 .368.076.648.228.84a.8.8 0 00.648.288.8.8 0 00.648-.288c.16-.2.24-.48.24-.84 0-.368-.08-.644-.24-.828a.8.8 0 00-.648-.288zm2.844 6.18c0-.552.164-.988.492-1.308.328-.328.748-.492 1.26-.492s.928.164 1.248.492c.328.32.492.756.492 1.308 0 .544-.164.98-.492 1.308-.32.328-.736.492-1.248.492s-.932-.16-1.26-.48c-.328-.328-.492-.768-.492-1.32zm1.74-1.116a.8.8 0 00-.648.288c-.16.184-.24.46-.24.828 0 .36.08.636.24.828.16.184.376.276.648.276s.488-.092.648-.276c.16-.192.24-.468.24-.828 0-.368-.08-.644-.24-.828a.8.8 0 00-.648-.288zm7.48 1.884h2.928V107h-4.02v-8.364h1.092v7.476zm4.652-6.756a.718.718 0 01-.528-.216.718.718 0 01-.216-.528c0-.208.072-.384.216-.528a.718.718 0 01.528-.216c.2 0 .368.072.504.216.144.144.216.32.216.528a.718.718 0 01-.216.528.666.666 0 01-.504.216zm.528 1.068V107h-1.092v-6.576h1.092zm1.453 3.264c0-.672.136-1.26.408-1.764a2.964 2.964 0 011.116-1.188c.48-.28 1.016-.42 1.608-.42.568 0 1.064.128 1.488.384.432.248.748.556.948.924v-1.2h1.104v9.696h-1.104v-4.332c-.208.368-.528.68-.96.936-.432.256-.936.384-1.512.384a2.96 2.96 0 01-1.572-.432 3.03 3.03 0 01-1.116-1.212c-.272-.52-.408-1.112-.408-1.776zm5.568.012c0-.496-.1-.928-.3-1.296a2.065 2.065 0 00-.816-.84 2.14 2.14 0 00-1.116-.3c-.408 0-.78.096-1.116.288a2.09 2.09 0 00-.804.84c-.2.368-.3.8-.3 1.296 0 .504.1.944.3 1.32.2.368.468.652.804.852a2.21 2.21 0 001.116.288c.408 0 .78-.096 1.116-.288.344-.2.616-.484.816-.852.2-.376.3-.812.3-1.308zm8.781-3.276V107h-1.092v-.972c-.208.336-.5.6-.876.792a2.698 2.698 0 01-1.224.276c-.512 0-.972-.104-1.38-.312a2.388 2.388 0 01-.972-.96c-.232-.424-.348-.94-.348-1.548v-3.852h1.08v3.708c0 .648.164 1.148.492 1.5.328.344.776.516 1.344.516.584 0 1.044-.18 1.38-.54.336-.36.504-.884.504-1.572v-3.612h1.092zm2.408-1.068a.718.718 0 01-.528-.216.718.718 0 01-.216-.528c0-.208.072-.384.216-.528a.718.718 0 01.528-.216c.2 0 .368.072.504.216.144.144.216.32.216.528a.718.718 0 01-.216.528.666.666 0 01-.504.216zm.528 1.068V107h-1.092v-6.576h1.092zm1.453 3.264c0-.672.136-1.26.408-1.764a2.964 2.964 0 011.116-1.188c.48-.28 1.016-.42 1.608-.42.512 0 .988.12 1.428.36.44.232.776.54 1.008.924v-3.48h1.104V107h-1.104v-1.236a2.598 2.598 0 01-.96.972c-.424.248-.92.372-1.488.372a3.043 3.043 0 01-1.596-.432 3.03 3.03 0 01-1.116-1.212c-.272-.52-.408-1.112-.408-1.776zm5.568.012c0-.496-.1-.928-.3-1.296a2.065 2.065 0 00-.816-.84 2.14 2.14 0 00-1.116-.3c-.408 0-.78.096-1.116.288a2.09 2.09 0 00-.804.84c-.2.368-.3.8-.3 1.296 0 .504.1.944.3 1.32.2.368.468.652.804.852a2.21 2.21 0 001.116.288c.408 0 .78-.096 1.116-.288.344-.2.616-.484.816-.852.2-.376.3-.812.3-1.308zm3.514-4.344a.718.718 0 01-.528-.216.718.718 0 01-.216-.528c0-.208.072-.384.216-.528a.718.718 0 01.528-.216c.2 0 .368.072.504.216.144.144.216.32.216.528a.718.718 0 01-.216.528.666.666 0 01-.504.216zm.528 1.068V107h-1.092v-6.576h1.092zm3.193.9v3.876c0 .32.068.548.204.684.136.128.372.192.708.192h.804V107h-.984c-.608 0-1.064-.14-1.368-.42-.304-.28-.456-.74-.456-1.38v-3.876h-.852v-.9h.852v-1.656h1.092v1.656h1.716v.9h-1.716zm8.703-.9l-3.96 9.672h-1.128l1.296-3.168-2.652-6.504h1.212l2.064 5.328 2.04-5.328h1.128zm14.809-1.788L345.02 107h-1.224l-1.944-6.732-2.016 6.732-1.212.012-2.34-8.376h1.164l1.824 7.092 2.016-7.092h1.224l1.92 7.068 1.836-7.068h1.176zm.787 5.052c0-.672.136-1.26.408-1.764a2.964 2.964 0 011.116-1.188 3.11 3.11 0 011.596-.42c.576 0 1.076.124 1.5.372.424.248.74.56.948.936v-1.2h1.104V107h-1.104v-1.224c-.216.384-.54.704-.972.96-.424.248-.92.372-1.488.372a2.98 2.98 0 01-1.584-.432 3.03 3.03 0 01-1.116-1.212c-.272-.52-.408-1.112-.408-1.776zm5.568.012c0-.496-.1-.928-.3-1.296a2.065 2.065 0 00-.816-.84 2.14 2.14 0 00-1.116-.3c-.408 0-.78.096-1.116.288a2.09 2.09 0 00-.804.84c-.2.368-.3.8-.3 1.296 0 .504.1.944.3 1.32.2.368.468.652.804.852a2.21 2.21 0 001.116.288c.408 0 .78-.096 1.116-.288.344-.2.616-.484.816-.852.2-.376.3-.812.3-1.308zm4.041-5.58V107h-1.092v-8.88h1.092zm2.953 0V107h-1.092v-8.88h1.092zm7.861 5.34c0 .208-.012.428-.036.66h-5.256c.04.648.26 1.156.66 1.524.408.36.9.54 1.476.54.472 0 .864-.108 1.176-.324.32-.224.544-.52.672-.888h1.176a2.856 2.856 0 01-1.056 1.548c-.528.392-1.184.588-1.968.588-.624 0-1.184-.14-1.68-.42a2.995 2.995 0 01-1.152-1.188c-.28-.52-.42-1.12-.42-1.8 0-.68.136-1.276.408-1.788a2.836 2.836 0 011.14-1.176c.496-.28 1.064-.42 1.704-.42.624 0 1.176.136 1.656.408.48.272.848.648 1.104 1.128.264.472.396 1.008.396 1.608zm-1.128-.228c0-.416-.092-.772-.276-1.068a1.737 1.737 0 00-.756-.684c-.312-.16-.66-.24-1.044-.24-.552 0-1.024.176-1.416.528-.384.352-.604.84-.66 1.464h4.152zm3.902-1.908v3.876c0 .32.068.548.204.684.136.128.372.192.708.192h.804V107h-.984c-.608 0-1.064-.14-1.368-.42-.304-.28-.456-.74-.456-1.38v-3.876h-.852v-.9h.852v-1.656h1.092v1.656h1.716v.9h-1.716z" fill="#2F2E41"/><circle cx="241.5" cy="139" r="6.5" fill="#0052FF"/><path d="M257.456 135.32v-.996h2.256V143h-1.104v-7.68h-1.152zm4.132 3.252c0-1.376.224-2.448.672-3.216.448-.776 1.232-1.164 2.352-1.164 1.112 0 1.892.388 2.34 1.164.448.768.672 1.84.672 3.216 0 1.4-.224 2.488-.672 3.264-.448.776-1.228 1.164-2.34 1.164-1.12 0-1.904-.388-2.352-1.164-.448-.776-.672-1.864-.672-3.264zm4.956 0c0-.696-.048-1.284-.144-1.764-.088-.488-.276-.88-.564-1.176-.28-.296-.688-.444-1.224-.444-.544 0-.96.148-1.248.444-.28.296-.468.688-.564 1.176-.088.48-.132 1.068-.132 1.764 0 .72.044 1.324.132 1.812.096.488.284.88.564 1.176.288.296.704.444 1.248.444.536 0 .944-.148 1.224-.444.288-.296.476-.688.564-1.176.096-.488.144-1.092.144-1.812zm2.339-2.292c0-.544.164-.976.492-1.296.328-.328.748-.492 1.26-.492s.932.164 1.26.492c.328.32.492.752.492 1.296 0 .552-.164.992-.492 1.32-.328.32-.748.48-1.26.48s-.932-.16-1.26-.48c-.328-.328-.492-.768-.492-1.32zm7.008-1.656l-4.86 8.376h-1.08l4.86-8.376h1.08zm-5.256.54a.8.8 0 00-.648.288c-.152.184-.228.46-.228.828 0 .368.076.648.228.84a.8.8 0 00.648.288.8.8 0 00.648-.288c.16-.2.24-.48.24-.84 0-.368-.08-.644-.24-.828a.8.8 0 00-.648-.288zm2.844 6.18c0-.552.164-.988.492-1.308.328-.328.748-.492 1.26-.492s.928.164 1.248.492c.328.32.492.756.492 1.308 0 .544-.164.98-.492 1.308-.32.328-.736.492-1.248.492s-.932-.16-1.26-.48c-.328-.328-.492-.768-.492-1.32zm1.74-1.116a.8.8 0 00-.648.288c-.16.184-.24.46-.24.828 0 .36.08.636.24.828.16.184.376.276.648.276s.488-.092.648-.276c.16-.192.24-.468.24-.828 0-.368-.08-.644-.24-.828a.8.8 0 00-.648-.288zm8.993-5.592c.912 0 1.7.172 2.364.516.672.336 1.184.82 1.536 1.452.36.632.54 1.376.54 2.232 0 .856-.18 1.6-.54 2.232a3.524 3.524 0 01-1.536 1.44c-.664.328-1.452.492-2.364.492h-2.604v-8.364h2.604zm0 7.464c1.08 0 1.904-.284 2.472-.852.568-.576.852-1.38.852-2.412 0-1.04-.288-1.852-.864-2.436-.568-.584-1.388-.876-2.46-.876H282.7v6.576h1.512zm11.88-2.64c0 .208-.012.428-.036.66H290.8c.04.648.26 1.156.66 1.524.408.36.9.54 1.476.54.472 0 .864-.108 1.176-.324.32-.224.544-.52.672-.888h1.176a2.856 2.856 0 01-1.056 1.548c-.528.392-1.184.588-1.968.588-.624 0-1.184-.14-1.68-.42a2.995 2.995 0 01-1.152-1.188c-.28-.52-.42-1.12-.42-1.8 0-.68.136-1.276.408-1.788a2.836 2.836 0 011.14-1.176c.496-.28 1.064-.42 1.704-.42.624 0 1.176.136 1.656.408.48.272.848.648 1.104 1.128.264.472.396 1.008.396 1.608zm-1.128-.228c0-.416-.092-.772-.276-1.068a1.737 1.737 0 00-.756-.684c-.312-.16-.66-.24-1.044-.24-.552 0-1.024.176-1.416.528-.384.352-.604.84-.66 1.464h4.152zm5.017 2.76l2.04-5.568h1.164l-2.58 6.576h-1.272l-2.58-6.576h1.176l2.052 5.568zm10.279-2.532c0 .208-.012.428-.036.66h-5.256c.04.648.26 1.156.66 1.524.408.36.9.54 1.476.54.472 0 .864-.108 1.176-.324.32-.224.544-.52.672-.888h1.176a2.856 2.856 0 01-1.056 1.548c-.528.392-1.184.588-1.968.588-.624 0-1.184-.14-1.68-.42a2.995 2.995 0 01-1.152-1.188c-.28-.52-.42-1.12-.42-1.8 0-.68.136-1.276.408-1.788a2.836 2.836 0 011.14-1.176c.496-.28 1.064-.42 1.704-.42.624 0 1.176.136 1.656.408.48.272.848.648 1.104 1.128.264.472.396 1.008.396 1.608zm-1.128-.228c0-.416-.092-.772-.276-1.068a1.737 1.737 0 00-.756-.684c-.312-.16-.66-.24-1.044-.24-.552 0-1.024.176-1.416.528-.384.352-.604.84-.66 1.464h4.152zm3.661-5.112V143h-1.092v-8.88h1.092zm4.729 8.988a3.4 3.4 0 01-1.68-.42 3.053 3.053 0 01-1.176-1.188c-.28-.52-.42-1.12-.42-1.8 0-.672.144-1.264.432-1.776.296-.52.696-.916 1.2-1.188a3.424 3.424 0 011.692-.42c.624 0 1.188.14 1.692.42.504.272.9.664 1.188 1.176.296.512.444 1.108.444 1.788 0 .68-.152 1.28-.456 1.8a3.09 3.09 0 01-1.212 1.188c-.512.28-1.08.42-1.704.42zm0-.96c.392 0 .76-.092 1.104-.276.344-.184.62-.46.828-.828.216-.368.324-.816.324-1.344 0-.528-.104-.976-.312-1.344a2.003 2.003 0 00-.816-.816 2.237 2.237 0 00-1.092-.276c-.4 0-.768.092-1.104.276a1.951 1.951 0 00-.792.816c-.2.368-.3.816-.3 1.344 0 .536.096.988.288 1.356.2.368.464.644.792.828.328.176.688.264 1.08.264zm5.9-4.512c.216-.376.536-.688.96-.936.432-.256.932-.384 1.5-.384.584 0 1.112.14 1.584.42.48.28.856.676 1.128 1.188.272.504.408 1.092.408 1.764 0 .664-.136 1.256-.408 1.776a3.002 3.002 0 01-2.712 1.644c-.56 0-1.056-.124-1.488-.372a2.764 2.764 0 01-.972-.948v4.332h-1.092v-9.696h1.092v1.212zm4.464 2.052c0-.496-.1-.928-.3-1.296a2.065 2.065 0 00-.816-.84 2.21 2.21 0 00-1.116-.288c-.4 0-.772.1-1.116.3a2.151 2.151 0 00-.816.852c-.2.368-.3.796-.3 1.284 0 .496.1.932.3 1.308.208.368.48.652.816.852.344.192.716.288 1.116.288.408 0 .78-.096 1.116-.288.344-.2.616-.484.816-.852.2-.376.3-.816.3-1.32zm10.462-3.384c.512 0 .968.108 1.368.324.4.208.716.524.948.948.232.424.348.94.348 1.548V143h-1.08v-3.72c0-.656-.164-1.156-.492-1.5-.32-.352-.756-.528-1.308-.528-.568 0-1.02.184-1.356.552-.336.36-.504.884-.504 1.572V143h-1.08v-3.72c0-.656-.164-1.156-.492-1.5-.32-.352-.756-.528-1.308-.528-.568 0-1.02.184-1.356.552-.336.36-.504.884-.504 1.572V143h-1.092v-6.576h1.092v.948c.216-.344.504-.608.864-.792a2.672 2.672 0 011.212-.276c.552 0 1.04.124 1.464.372.424.248.74.612.948 1.092.184-.464.488-.824.912-1.08a2.687 2.687 0 011.416-.384zm10.455 3.156c0 .208-.012.428-.036.66h-5.256c.04.648.26 1.156.66 1.524.408.36.9.54 1.476.54.472 0 .864-.108 1.176-.324.32-.224.544-.52.672-.888h1.176a2.856 2.856 0 01-1.056 1.548c-.528.392-1.184.588-1.968.588-.624 0-1.184-.14-1.68-.42a2.995 2.995 0 01-1.152-1.188c-.28-.52-.42-1.12-.42-1.8 0-.68.136-1.276.408-1.788a2.836 2.836 0 011.14-1.176c.496-.28 1.064-.42 1.704-.42.624 0 1.176.136 1.656.408.48.272.848.648 1.104 1.128.264.472.396 1.008.396 1.608zm-1.128-.228c0-.416-.092-.772-.276-1.068a1.737 1.737 0 00-.756-.684c-.312-.16-.66-.24-1.044-.24-.552 0-1.024.176-1.416.528-.384.352-.604.84-.66 1.464h4.152zm5.773-2.928c.8 0 1.448.244 1.944.732.496.48.744 1.176.744 2.088V143h-1.08v-3.72c0-.656-.164-1.156-.492-1.5-.328-.352-.776-.528-1.344-.528-.576 0-1.036.18-1.38.54-.336.36-.504.884-.504 1.572V143h-1.092v-6.576h1.092v.936c.216-.336.508-.596.876-.78a2.774 2.774 0 011.236-.276zm5.804 1.02v3.876c0 .32.068.548.204.684.136.128.372.192.708.192h.804V143h-.984c-.608 0-1.064-.14-1.368-.42-.304-.28-.456-.74-.456-1.38v-3.876h-.852v-.9h.852v-1.656h1.092v1.656h1.716v.9h-1.716zm16.75-2.688L373.578 143h-1.224l-1.944-6.732-2.016 6.732-1.212.012-2.34-8.376h1.164l1.824 7.092 2.016-7.092h1.224l1.92 7.068 1.836-7.068h1.176zm.787 5.052c0-.672.136-1.26.408-1.764a2.964 2.964 0 011.116-1.188 3.11 3.11 0 011.596-.42c.576 0 1.076.124 1.5.372.424.248.74.56.948.936v-1.2h1.104V143h-1.104v-1.224c-.216.384-.54.704-.972.96-.424.248-.92.372-1.488.372a2.98 2.98 0 01-1.584-.432 3.03 3.03 0 01-1.116-1.212c-.272-.52-.408-1.112-.408-1.776zm5.568.012c0-.496-.1-.928-.3-1.296a2.065 2.065 0 00-.816-.84 2.14 2.14 0 00-1.116-.3c-.408 0-.78.096-1.116.288a2.09 2.09 0 00-.804.84c-.2.368-.3.8-.3 1.296 0 .504.1.944.3 1.32.2.368.468.652.804.852a2.21 2.21 0 001.116.288c.408 0 .78-.096 1.116-.288.344-.2.616-.484.816-.852.2-.376.3-.812.3-1.308zm4.042-5.58V143h-1.092v-8.88h1.092zm2.953 0V143h-1.092v-8.88h1.092zm7.861 5.34c0 .208-.012.428-.036.66h-5.256c.04.648.26 1.156.66 1.524.408.36.9.54 1.476.54.472 0 .864-.108 1.176-.324.32-.224.544-.52.672-.888h1.176a2.856 2.856 0 01-1.056 1.548c-.528.392-1.184.588-1.968.588-.624 0-1.184-.14-1.68-.42a2.995 2.995 0 01-1.152-1.188c-.28-.52-.42-1.12-.42-1.8 0-.68.136-1.276.408-1.788a2.836 2.836 0 011.14-1.176c.496-.28 1.064-.42 1.704-.42.624 0 1.176.136 1.656.408.48.272.848.648 1.104 1.128.264.472.396 1.008.396 1.608zm-1.128-.228c0-.416-.092-.772-.276-1.068a1.737 1.737 0 00-.756-.684c-.312-.16-.66-.24-1.044-.24-.552 0-1.024.176-1.416.528-.384.352-.604.84-.66 1.464h4.152zm3.901-1.908v3.876c0 .32.068.548.204.684.136.128.372.192.708.192h.804V143h-.984c-.608 0-1.064-.14-1.368-.42-.304-.28-.456-.74-.456-1.38v-3.876h-.852v-.9h.852v-1.656h1.092v1.656h1.716v.9h-1.716z" fill="#2F2E41"/></svg>