<svg width="211" height="112" fill="none" xmlns="http://www.w3.org/2000/svg"><g clip-path="url(#clip0_166_11200)"><path opacity=".12" d="M201.888 104.583c0 3.435-47.632 7.419-102.514 7.419C44.49 112.002 0 109.219 0 105.786c0-3.434 44.487-6.216 99.374-6.216 54.885 0 102.514 1.577 102.514 5.013z" fill="#32323F"/><path d="M153.306 5.005H85.124c-4.073 0-7.374 3.314-7.374 7.402v87.145c0 4.088 3.301 7.402 7.374 7.402h68.182c4.073 0 7.374-3.314 7.374-7.402V12.407c0-4.088-3.301-7.402-7.374-7.402z" fill="#AFC9FF"/><path d="M142.575 16.422H53.75c-4.047 0-7.328 3.293-7.328 7.356V89.76c0 4.063 3.28 7.357 7.328 7.357h88.825c4.047 0 7.328-3.294 7.328-7.357V23.78c0-4.064-3.281-7.357-7.328-7.357z" fill="#5C5C6D"/><path d="M144.12 90.213c-1.494 1.94-6.038 2.632-11.795 2.506-.355-.009-.706-.02-1.054-.032-1.985-.076-3.863-.248-5.494-.548l-.182-.033a15.99 15.99 0 01-2.558-.685c-1.193-.443-2.091-1.018-2.573-1.749-.295-.446-.276-1.422-.262-1.968a.964.964 0 01.032-.233l.018-.063a1.25 1.25 0 01.181-.345 1.52 1.52 0 01.207-.232c1.045-1 3.891-1.63 7.552-1.843a65.741 65.741 0 012.044-.072l.603-.006a83.702 83.702 0 011.855.022c.207.004.414.01.619.02.103 0 .205.006.306.012l.607.029c5.608.304 9.933 1.412 10.191 3.066.009.06.013.12.012.18-.009.402.048 1.51-.309 1.974z" fill="#DB9507"/><path d="M144.424 88.23c.036-1.684-5.358-3.168-12.048-3.314-6.691-.147-12.144 1.1-12.181 2.784-.036 1.684 5.358 3.168 12.048 3.314 6.691.147 12.144-1.1 12.181-2.784z" fill="#F4AD00"/><path d="M125.775 92.14a16.324 16.324 0 01-2.74-.72c.028-.314.086-.813.115-1.643a22.73 22.73 0 002.706.642 14.12 14.12 0 01-.081 1.72z" fill="#F4BB47"/><path d="M131.27 92.687c-1.985-.077-3.863-.248-5.494-.548l-.182-.033c-.006-.37.088-1.02.115-1.718 1.915.317 3.847.52 5.785.606.02.42-.13 1.279-.224 1.693z" fill="#F2B225"/><path d="M144.155 88.329c-1.494 1.939-6.039 2.632-11.795 2.506a57.183 57.183 0 01-1.054-.033c-1.985-.076-3.863-.247-5.494-.548l-.183-.033a16.017 16.017 0 01-2.557-.684c-1.194-.444-2.091-1.018-2.573-1.748-.295-.447-.276-1.423-.262-1.97a.956.956 0 01.032-.232c0-.022.011-.043.018-.064.042-.124.103-.24.181-.344a1.52 1.52 0 01.207-.232c1.046-1 3.89-1.631 7.552-1.843h.04a47.196 47.196 0 012.607-.078c.505 0 1.02 0 1.543.013l.311.008c.209.006.415.012.62.02.103 0 .205.008.306.012l.607.029c5.608.305 9.933 1.413 10.191 3.067a.97.97 0 01.011.178c-.008.403.049 1.512-.308 1.976z" fill="#DB9507"/><path d="M144.459 86.347c.036-1.684-5.358-3.168-12.048-3.315-6.691-.146-12.144 1.1-12.181 2.784-.036 1.684 5.358 3.168 12.048 3.314 6.691.147 12.144-1.1 12.181-2.783z" fill="#F4AD00"/><path d="M125.814 90.254c-.932-.16-1.849-.4-2.74-.717.028-.316.086-.814.115-1.644.888.269 1.792.483 2.706.64.008.576-.018 1.15-.081 1.721z" fill="#F4BB47"/><path d="M131.306 90.802c-1.985-.076-3.863-.247-5.495-.548l-.182-.033c0-.37.089-1.02.116-1.718a48.73 48.73 0 005.785.607c.019.42-.13 1.277-.224 1.692z" fill="#F2B225"/><path d="M144.647 86.474c-1.493 1.939-6.038 2.632-11.795 2.506a54.55 54.55 0 01-1.053-.033c-1.986-.076-3.863-.248-5.495-.548l-.182-.033a16.05 16.05 0 01-2.558-.684c-1.193-.444-2.091-1.017-2.573-1.748-.295-.447-.275-1.423-.263-1.97a.957.957 0 01.052-.296c.041-.124.102-.24.18-.344.062-.084.131-.162.208-.232 1.045-1 3.889-1.631 7.551-1.843h.041a46.871 46.871 0 012.606-.078c.507 0 1.021.004 1.542.013l.313.008c.207.006.415.012.62.02.102 0 .204.008.306.012l.606.029c5.609.305 9.934 1.413 10.192 3.067.008.059.012.119.011.178-.008.403.049 1.512-.309 1.976z" fill="#DB9507"/><path d="M144.951 84.492c.037-1.684-5.357-3.168-12.048-3.314-6.69-.147-12.144 1.1-12.18 2.784-.037 1.684 5.357 3.167 12.048 3.314 6.69.147 12.143-1.1 12.18-2.784z" fill="#F4AD00"/><path d="M126.302 88.4c-.932-.16-1.849-.4-2.74-.718.029-.316.087-.814.116-1.644.887.269 1.791.483 2.705.64.01.576-.017 1.15-.081 1.721z" fill="#F4BB47"/><path d="M131.798 88.947c-1.986-.076-3.863-.248-5.495-.547l-.182-.034c0-.37.088-1.02.116-1.718 1.915.318 3.847.52 5.785.607.019.42-.13 1.277-.224 1.692z" fill="#F2B225"/><path d="M144.682 84.589c-1.494 1.94-6.038 2.633-11.795 2.506a53.762 53.762 0 01-1.053-.033c-1.986-.075-3.863-.247-5.495-.546l-.182-.034a16.042 16.042 0 01-2.558-.685c-1.193-.443-2.091-1.017-2.573-1.748-.295-.447-.275-1.423-.262-1.969a.963.963 0 01.032-.233l.018-.064c.042-.123.103-.239.182-.343a1.6 1.6 0 01.206-.233c1.046-1 3.891-1.63 7.552-1.843h.041a46.865 46.865 0 012.003-.071c.2 0 .4-.006.603-.007.507 0 1.021.005 1.543.013l.312.01c.207.004.414.01.62.02.102 0 .204.006.305.01l.607.03c5.608.305 9.934 1.412 10.191 3.066.009.06.013.12.012.18-.009.401.048 1.51-.309 1.974z" fill="#DB9507"/><path d="M144.986 82.608c.037-1.684-5.357-3.168-12.048-3.315-6.69-.146-12.144 1.1-12.18 2.784-.037 1.684 5.357 3.168 12.048 3.314 6.69.147 12.144-1.1 12.18-2.783z" fill="#F4AD00"/><path d="M126.341 86.516a16.36 16.36 0 01-2.739-.719c.028-.315.086-.814.115-1.644.887.27 1.791.484 2.705.642a13.71 13.71 0 01-.081 1.72z" fill="#F4BB47"/><path d="M131.833 87.063c-1.985-.076-3.863-.248-5.495-.547l-.182-.034c-.004-.37.089-1.02.116-1.717 1.915.317 3.846.52 5.785.607.02.418-.131 1.275-.224 1.69z" fill="#F2B225"/><path d="M144.73 82.65c-1.495 1.94-6.039 2.634-11.795 2.508a57.022 57.022 0 01-1.055-.033c-1.984-.076-3.863-.248-5.494-.547l-.181-.034a15.984 15.984 0 01-2.559-.685c-1.192-.443-2.091-1.016-2.573-1.748-.294-.446-.275-1.422-.262-1.969.002-.078.012-.156.032-.232 0-.022.012-.043.018-.064a1.25 1.25 0 01.181-.344 1.52 1.52 0 01.207-.232c1.046-1.001 3.891-1.63 7.553-1.843h.04a46.394 46.394 0 012.003-.072c.2 0 .4-.005.603-.006.507 0 1.021.005 1.543.013l.312.008c.208.006.414.012.619.02.103 0 .206.008.306.013.204.008.406.019.607.028 5.608.305 9.934 1.413 10.191 3.067.009.06.013.119.012.179-.009.402.048 1.511-.308 1.974z" fill="#DB9507"/><path d="M145.033 80.67c.037-1.684-5.357-3.168-12.048-3.314-6.69-.147-12.144 1.1-12.18 2.783-.037 1.684 5.357 3.168 12.048 3.315 6.69.146 12.143-1.1 12.18-2.784z" fill="#F4AD00"/><path d="M126.388 84.578c-.932-.16-1.849-.4-2.74-.719.028-.315.086-.813.115-1.643.888.27 1.792.483 2.706.641a13.71 13.71 0 01-.081 1.72z" fill="#F4BB47"/><path d="M131.879 85.125c-1.985-.076-3.863-.248-5.494-.547l-.182-.034c-.005-.37.089-1.02.115-1.717a48.6 48.6 0 005.786.606c.02.418-.131 1.276-.225 1.692z" fill="#F2B225"/><path d="M144.765 80.767c-1.494 1.94-6.039 2.633-11.796 2.506a54.004 54.004 0 01-1.053-.032c-1.985-.076-3.863-.248-5.494-.547l-.183-.034a15.981 15.981 0 01-2.557-.685c-1.194-.442-2.091-1.017-2.573-1.748-.295-.447-.276-1.423-.263-1.969.002-.078.013-.156.033-.232 0-.021.011-.042.018-.064.041-.124.102-.24.18-.344.062-.084.131-.162.208-.233 1.045-1 3.89-1.63 7.552-1.842h.04a47.483 47.483 0 012.004-.072c.199 0 .399-.006.603-.007.504 0 1.02 0 1.542.014l.312.007.62.02.306.013.607.03c5.608.304 9.933 1.412 10.191 3.065a.99.99 0 01.011.18c-.008.406.049 1.51-.308 1.974z" fill="#DB9507"/><path d="M145.072 78.785c.037-1.684-5.357-3.167-12.048-3.314-6.69-.147-12.144 1.1-12.18 2.784-.037 1.684 5.357 3.168 12.048 3.314 6.69.147 12.144-1.1 12.18-2.784z" fill="#F4AD00"/><path d="M126.423 82.694c-.932-.16-1.849-.4-2.739-.719.027-.315.085-.814.115-1.644.887.27 1.791.484 2.705.642a13.71 13.71 0 01-.081 1.72z" fill="#F4BB47"/><path d="M131.915 83.24c-1.985-.075-3.863-.246-5.494-.546l-.183-.034c0-.37.09-1.02.116-1.717a48.58 48.58 0 005.786.607c.02.417-.13 1.276-.225 1.69z" fill="#F2B225"/><path d="M144.816 78.687c-1.494 1.94-6.039 2.633-11.796 2.506a54.004 54.004 0 01-1.053-.032c-1.985-.076-3.863-.248-5.495-.547l-.182-.034a15.981 15.981 0 01-2.557-.685c-1.194-.443-2.091-1.017-2.573-1.748-.295-.447-.276-1.423-.264-1.969.002-.078.014-.156.034-.233 0-.02.011-.041.018-.063.041-.124.102-.24.18-.344.062-.084.131-.162.208-.233 1.045-1 3.889-1.63 7.552-1.843h.04a47.24 47.24 0 012.004-.071c.198 0 .399-.006.602-.007.505 0 1.02 0 1.543.014l.312.007.62.02.306.013.606.03c5.609.304 9.934 1.412 10.192 3.065.009.06.012.12.011.18-.009.401.048 1.51-.308 1.974z" fill="#DB9507"/><path d="M145.119 76.704c.037-1.683-5.357-3.167-12.048-3.314-6.69-.146-12.144 1.1-12.181 2.784-.036 1.684 5.358 3.168 12.048 3.314 6.691.147 12.144-1.1 12.181-2.784z" fill="#F4AD00"/><path d="M126.474 80.614c-.932-.16-1.849-.4-2.74-.719.028-.315.086-.814.115-1.644.888.27 1.792.484 2.706.642a13.71 13.71 0 01-.081 1.72z" fill="#F4BB47"/><path d="M131.966 81.16c-1.985-.075-3.863-.247-5.494-.546l-.183-.034c0-.371.089-1.02.116-1.718a48.63 48.63 0 005.785.608c.019.417-.13 1.275-.224 1.69z" fill="#F2B225"/><path d="M144.854 76.802c-1.493 1.94-6.038 2.633-11.795 2.507a53.762 53.762 0 01-1.053-.032c-1.986-.077-3.863-.248-5.495-.548l-.182-.033a16.053 16.053 0 01-2.558-.686c-1.193-.442-2.091-1.017-2.573-1.748-.295-.445-.275-1.423-.262-1.968a1.016 1.016 0 01.051-.296c.041-.124.102-.24.18-.345.062-.084.131-.162.208-.233 1.045-1 3.889-1.63 7.551-1.842a90.287 90.287 0 014.189-.064l.313.007c.207.006.415.012.62.02.102 0 .204.008.306.013.203.008.405.019.606.029 5.609.304 9.934 1.412 10.192 3.066.008.059.012.119.011.179-.008.403.049 1.509-.309 1.974z" fill="#DB9507"/><path d="M145.158 74.822c.037-1.684-5.357-3.168-12.048-3.315-6.69-.146-12.144 1.1-12.18 2.784-.037 1.684 5.357 3.168 12.048 3.314 6.69.147 12.143-1.1 12.18-2.783z" fill="#F4AD00"/><path d="M126.509 78.729c-.932-.16-1.849-.4-2.739-.719.028-.315.086-.814.115-1.643.889.268 1.794.48 2.709.638.008.576-.02 1.152-.085 1.724z" fill="#F4BB47"/><path d="M132.005 79.277c-1.986-.077-3.863-.249-5.495-.548l-.182-.034c0-.37.089-1.02.116-1.717 1.915.317 3.847.52 5.785.606.019.419-.13 1.276-.224 1.693z" fill="#F2B225"/><g opacity=".85" fill="#E56E1F"><path opacity=".85" d="M131.061 73.574a4.641 4.641 0 00-1.002.396 2.938 2.938 0 00-.828.638 1.793 1.793 0 00-.427.876 1.664 1.664 0 00-.02.503c.025.204.102.398.222.565.213.295.556.512 1.028.652a5.151 5.151 0 001.682.164 6.073 6.073 0 001.75-.31 3.74 3.74 0 001.202-.676c.239-.211.457-.445.652-.699.077-.095.152-.203.225-.311.15-.23.314-.45.49-.66l.051-.057a1.9 1.9 0 01.638-.451 2.65 2.65 0 01.983-.209c.146-.007.293-.003.439.01h.006c.259.02.508.102.729.237a.81.81 0 01.302.323.73.73 0 01.044.447.956.956 0 01-.353.585 2.21 2.21 0 01-.609.339l-.077.028a9.136 9.136 0 01-.981.267c-.26.05-.513.13-.753.238-.177.088-.275.19-.297.306-.027.143.055.255.243.338a1.6 1.6 0 00.717.105c.463-.026.92-.105 1.364-.237.073-.02.145-.042.218-.066.491-.147.955-.37 1.377-.66.048-.035.095-.071.136-.106.247-.196.45-.443.594-.724a1.95 1.95 0 00.177-.524c.028-.14.037-.281.027-.422a1.236 1.236 0 00-.291-.714 1.887 1.887 0 00-.658-.487h-.008a3.2 3.2 0 00-.528-.19 5.533 5.533 0 00-1.212-.17h-.011a10.058 10.058 0 00-.65 0 8.95 8.95 0 00-.796.071l-.152.022c-.197.03-.393.072-.585.124a4.116 4.116 0 00-1.092.454 3.78 3.78 0 00-.802.668 7.746 7.746 0 00-.669.854c-.179.25-.314.43-.405.54a1.449 1.449 0 01-.126.137c-.07.068-.144.132-.222.19a1.834 1.834 0 01-.487.265c-.202.07-.413.11-.627.117-.38.018-.689-.053-.927-.215a.669.669 0 01-.225-.24.636.636 0 01-.052-.427.937.937 0 01.498-.683 4.943 4.943 0 011.107-.404c.244-.062.482-.144.712-.244a.425.425 0 00.255-.291c.026-.139-.067-.248-.277-.33a1.794 1.794 0 00-.741-.104 4.75 4.75 0 00-.978.152z"/><path opacity=".85" d="M142.453 74.595l-.109.58c-.019.1-.212.19-.431.2l-14.599.68c-.22.01-.381-.064-.364-.164l.109-.58c.019-.101.212-.19.431-.201l14.599-.682c.22-.007.38.066.364.167z"/></g><path d="M144.065 75.26c-1.493 1.938-6.038 2.632-11.795 2.505a53.762 53.762 0 01-1.053-.032c-1.986-.076-3.863-.247-5.495-.547l-.182-.034a15.927 15.927 0 01-2.558-.685c-1.193-.442-2.091-1.017-2.573-1.748-.295-.446-.275-1.423-.263-1.968a1.018 1.018 0 01.052-.297c.041-.124.102-.24.18-.344.062-.084.131-.162.208-.233 1.045-1 3.889-1.63 7.551-1.842h.041a46.865 46.865 0 012.606-.078c.505 0 1.02 0 1.542.013l.313.008c.207.005.415.012.62.02l.306.012.606.03c5.609.304 9.934 1.412 10.192 3.066.008.059.012.118.011.178-.005.403.049 1.512-.309 1.975z" fill="#DB9507"/><path d="M144.369 73.278c.037-1.684-5.357-3.168-12.048-3.314-6.69-.147-12.144 1.1-12.181 2.784-.036 1.683 5.358 3.167 12.048 3.314 6.691.147 12.144-1.1 12.181-2.784z" fill="#F4AD00"/><path d="M125.72 77.186a16.54 16.54 0 01-2.74-.719c.029-.314.087-.814.116-1.644.888.27 1.791.484 2.705.642.01.575-.017 1.15-.081 1.721z" fill="#F4BB47"/><path d="M131.216 77.733c-1.986-.076-3.863-.248-5.495-.547-.06-.012-.122-.022-.182-.035-.005-.37.089-1.02.116-1.717 1.915.318 3.847.52 5.785.607.019.419-.13 1.276-.224 1.692z" fill="#F2B225"/><path d="M144.104 73.379c-1.494 1.94-6.038 2.632-11.795 2.506a61.847 61.847 0 01-1.053-.032c-1.986-.076-3.863-.248-5.495-.548l-.182-.033a16.042 16.042 0 01-2.558-.685c-1.193-.443-2.091-1.018-2.573-1.749-.295-.445-.275-1.422-.262-1.968a.965.965 0 01.032-.233l.018-.063a1.481 1.481 0 01.388-.577c1.045-1 3.89-1.63 7.551-1.843h.041a54.896 54.896 0 012.003-.072c.2 0 .4-.001.603-.005a90.287 90.287 0 011.855.02c.207.006.414.012.62.02.102 0 .204.007.305.013l.607.029c5.608.304 9.934 1.412 10.191 3.066.009.06.013.12.012.18-.007.398.049 1.507-.308 1.974z" fill="#DB9507"/><path d="M144.408 71.394c.037-1.684-5.357-3.168-12.048-3.315-6.69-.146-12.144 1.1-12.18 2.784-.037 1.684 5.357 3.168 12.048 3.314 6.69.147 12.144-1.1 12.18-2.784z" fill="#F4AD00"/><path d="M125.759 75.301c-.932-.16-1.849-.4-2.739-.718.028-.315.086-.814.115-1.644.887.27 1.791.483 2.705.642.009.574-.018 1.149-.081 1.72z" fill="#F4BB47"/><path d="M131.251 75.85c-1.986-.077-3.863-.249-5.495-.549l-.182-.033c0-.37.089-1.02.116-1.718a48.75 48.75 0 005.785.606c.022.42-.129 1.277-.224 1.693z" fill="#F2B225"/><path d="M144.593 71.52c-1.494 1.94-6.038 2.632-11.795 2.506a68.48 68.48 0 01-1.054-.032c-1.985-.076-3.863-.248-5.495-.548l-.181-.033a15.972 15.972 0 01-2.558-.685c-1.193-.443-2.092-1.017-2.573-1.748-.295-.446-.276-1.423-.263-1.97.002-.078.013-.156.032-.232l.019-.063c.041-.124.102-.24.18-.344a1.67 1.67 0 01.207-.233c1.046-1 3.891-1.63 7.553-1.843h.041a54.259 54.259 0 012.003-.072c.199 0 .399 0 .602-.005a90.404 90.404 0 011.856.02c.207.007.413.012.619.02.102 0 .205.008.306.013l.606.029c5.609.304 9.934 1.412 10.191 3.066.009.06.013.12.013.18-.01.402.047 1.51-.309 1.974z" fill="#DB9507"/><path d="M144.9 69.538c.037-1.684-5.357-3.168-12.048-3.314-6.69-.147-12.144 1.1-12.18 2.784-.037 1.684 5.357 3.167 12.048 3.314 6.69.147 12.144-1.1 12.18-2.784z" fill="#F4AD00"/><path d="M126.251 73.446c-.932-.16-1.849-.4-2.739-.718.027-.315.085-.814.115-1.643.888.268 1.791.482 2.705.64.009.575-.018 1.15-.081 1.721z" fill="#F4BB47"/><path d="M131.747 73.994c-1.985-.076-3.864-.248-5.495-.548l-.181-.033c-.006-.37.088-1.02.115-1.718 1.914.317 3.846.52 5.785.606.02.419-.13 1.277-.224 1.693z" fill="#F2B225"/><path d="M144.632 69.636c-1.494 1.939-6.039 2.632-11.795 2.506a53.09 53.09 0 01-1.054-.033c-1.985-.075-3.863-.247-5.494-.546l-.183-.035a16.006 16.006 0 01-2.557-.684c-1.194-.443-2.091-1.017-2.573-1.748-.295-.447-.276-1.423-.263-1.97a1.01 1.01 0 01.033-.232c0-.022.011-.043.018-.064.042-.123.103-.24.181-.344.061-.084.131-.162.207-.232 1.046-1 3.89-1.63 7.552-1.843h.04a47.19 47.19 0 012.607-.078c.505 0 1.02 0 1.543.013l.311.008c.209.006.415.012.62.02l.306.013.607.029c5.608.304 9.933 1.412 10.191 3.066a.968.968 0 01.011.178c-.008.403.049 1.512-.308 1.976z" fill="#DB9507"/><path d="M144.935 67.653c.037-1.684-5.357-3.167-12.048-3.314-6.69-.147-12.143 1.1-12.18 2.784-.037 1.684 5.357 3.168 12.048 3.314 6.69.147 12.144-1.1 12.18-2.784z" fill="#F4AD00"/><path d="M126.286 71.565c-.932-.16-1.848-.4-2.739-.718.027-.316.085-.814.115-1.644.888.269 1.791.483 2.705.64.009.576-.018 1.15-.081 1.722z" fill="#F4BB47"/><path d="M131.782 72.11c-1.984-.076-3.863-.248-5.494-.547l-.183-.035c0-.37.09-1.02.116-1.718 1.915.318 3.847.52 5.786.608.019.418-.131 1.276-.225 1.691z" fill="#F2B225"/><path d="M144.678 67.698c-1.493 1.94-6.038 2.633-11.794 2.507a72.495 72.495 0 01-1.054-.033c-1.986-.076-3.863-.248-5.495-.547l-.182-.034a16.042 16.042 0 01-2.558-.685c-1.193-.443-2.091-1.017-2.573-1.748-.295-.447-.275-1.423-.262-1.969a1.018 1.018 0 01.051-.296 1.18 1.18 0 01.181-.344 1.55 1.55 0 01.207-.233c1.046-1 3.89-1.63 7.551-1.843h.041a55.22 55.22 0 012.004-.071l.602-.007c.506 0 1.02 0 1.543.014.104 0 .209 0 .312.008.208.005.415.011.62.02.102 0 .205.007.306.012l.607.029c5.608.304 9.933 1.412 10.191 3.066.008.06.012.12.011.18-.008.402.05 1.51-.309 1.974z" fill="#DB9507"/><path d="M144.982 65.717c.037-1.684-5.357-3.168-12.048-3.314-6.69-.147-12.144 1.1-12.18 2.783-.037 1.684 5.357 3.168 12.048 3.315 6.69.146 12.144-1.1 12.18-2.784z" fill="#F4AD00"/><path d="M126.333 69.624c-.932-.16-1.848-.4-2.739-.718.028-.315.086-.814.115-1.644.888.27 1.791.484 2.705.642.01.575-.017 1.15-.081 1.72z" fill="#F4BB47"/><path d="M131.829 70.172c-1.986-.076-3.863-.248-5.495-.548l-.182-.033c0-.371.089-1.02.116-1.718a48.62 48.62 0 005.786.606c.019.42-.131 1.273-.225 1.693z" fill="#F2B225"/><path d="M144.714 65.814c-1.495 1.94-6.039 2.632-11.795 2.506a53.626 53.626 0 01-1.054-.032c-1.985-.077-3.863-.249-5.495-.548l-.181-.034a16.147 16.147 0 01-2.559-.684c-1.192-.444-2.091-1.017-2.573-1.748-.294-.447-.274-1.423-.262-1.97a1.008 1.008 0 01.05-.296 1.25 1.25 0 01.182-.344c.061-.084.13-.162.206-.232 1.046-1 3.891-1.63 7.553-1.843h.04a46.865 46.865 0 012.606-.078c.507 0 1.021.005 1.543.014l.313.007.619.02c.102 0 .205.008.305.013l.607.028c5.608.306 9.935 1.413 10.191 3.067a.97.97 0 01.013.179c-.01.402.047 1.511-.309 1.975z" fill="#DB9507"/><path d="M145.018 63.833c.036-1.684-5.358-3.168-12.049-3.315-6.69-.147-12.143 1.1-12.18 2.784-.037 1.684 5.357 3.168 12.048 3.314 6.69.147 12.144-1.1 12.181-2.783z" fill="#F4AD00"/><path d="M126.369 67.74a16.39 16.39 0 01-2.74-.718c.028-.316.086-.814.115-1.644.888.27 1.791.483 2.705.641.01.575-.017 1.15-.08 1.72z" fill="#F4BB47"/><path d="M131.864 68.288c-1.985-.077-3.863-.248-5.495-.548l-.181-.034c0-.37.088-1.02.115-1.717 1.915.317 3.846.52 5.785.607.018.419-.13 1.276-.224 1.692z" fill="#F2B225"/><path d="M144.764 63.734c-1.494 1.939-6.038 2.631-11.795 2.506a54.55 54.55 0 01-1.053-.033c-1.986-.076-3.863-.248-5.495-.548l-.182-.033a16.146 16.146 0 01-2.558-.684c-1.193-.444-2.091-1.017-2.573-1.748-.295-.447-.275-1.423-.262-1.97a.957.957 0 01.032-.232c.006-.022.011-.043.018-.064a1.25 1.25 0 01.182-.344c.06-.084.13-.162.206-.232 1.046-1 3.891-1.631 7.552-1.843h.041a46.865 46.865 0 012.606-.078c.507 0 1.021.004 1.543.013l.312.008c.208.006.414.012.62.02.102 0 .204.008.305.012l.607.029c5.608.305 9.934 1.412 10.191 3.067.009.059.013.119.012.178-.009.403.048 1.512-.309 1.976z" fill="#DB9507"/><path d="M145.068 61.753c.037-1.684-5.357-3.168-12.048-3.315-6.69-.146-12.144 1.1-12.18 2.784-.037 1.684 5.357 3.168 12.048 3.314 6.69.147 12.144-1.1 12.18-2.783z" fill="#F4AD00"/><path d="M126.419 65.66c-.932-.16-1.848-.4-2.739-.718.028-.316.086-.814.115-1.644.888.269 1.791.483 2.705.64.009.575-.018 1.15-.081 1.721z" fill="#F4BB47"/><path d="M131.915 66.207c-1.986-.076-3.863-.248-5.495-.547l-.182-.034c0-.37.089-1.02.116-1.718a48.73 48.73 0 005.785.607c.018.42-.129 1.277-.224 1.692z" fill="#F2B225"/><path d="M144.8 61.85c-1.494 1.938-6.038 2.632-11.795 2.505a56.912 56.912 0 01-1.054-.032c-1.985-.076-3.863-.247-5.495-.547l-.181-.034a15.961 15.961 0 01-2.558-.685c-1.193-.443-2.091-1.017-2.573-1.748-.295-.447-.276-1.423-.263-1.968a1.018 1.018 0 01.051-.297 1.21 1.21 0 01.18-.344 1.67 1.67 0 01.207-.233c1.046-1 3.891-1.63 7.553-1.842h.041a46.4 46.4 0 012.003-.072c.199 0 .399-.006.602-.007.507 0 1.022.005 1.543.014l.313.008c.207.005.413.012.619.02.102 0 .205.007.306.012l.606.03c5.609.304 9.934 1.412 10.191 3.065.009.06.013.12.013.18-.01.402.047 1.51-.309 1.974z" fill="#DB9507"/><path d="M145.103 59.868c.037-1.684-5.357-3.168-12.048-3.315-6.69-.146-12.144 1.1-12.18 2.784-.037 1.684 5.357 3.168 12.048 3.315 6.69.146 12.144-1.1 12.18-2.784z" fill="#F4AD00"/><path d="M126.458 63.776a16.31 16.31 0 01-2.739-.719c.027-.315.085-.814.115-1.644.888.27 1.791.484 2.705.642a13.71 13.71 0 01-.081 1.72z" fill="#F4BB47"/><path d="M131.95 64.323c-1.985-.076-3.864-.248-5.495-.547l-.181-.034c-.006-.37.088-1.02.115-1.717 1.914.317 3.846.52 5.785.607.02.418-.13 1.275-.224 1.69z" fill="#F2B225"/><path d="M146.148 58.545c-1.521 2.012-6.184 2.774-12.108 2.706a66.313 66.313 0 01-1.085-.022c-2.043-.057-3.977-.214-5.659-.504l-.19-.033a16.433 16.433 0 01-2.639-.677c-1.235-.443-2.16-1.024-2.661-1.77-.308-.457-.299-1.462-.292-2.024.001-.08.011-.161.031-.24l.018-.064c.042-.128.103-.249.183-.357.062-.087.132-.168.21-.242 1.068-1.04 3.986-1.717 7.751-1.977h.042a47.896 47.896 0 012.06-.095 55.3 55.3 0 012.207-.013h.321c.214 0 .427.007.638.014.106 0 .211 0 .315.01.21.006.417.014.624.022 5.775.253 10.236 1.346 10.519 3.045.009.061.014.123.014.184-.007.416.064 1.557-.299 2.037z" fill="#DB9507"/><path d="M146.433 56.498c.019-1.733-5.546-3.202-12.431-3.28-6.885-.079-12.482 1.263-12.502 2.996-.019 1.733 5.546 3.202 12.431 3.28 6.885.079 12.482-1.263 12.502-2.996z" fill="#F4AD00"/><path d="M127.296 60.725a16.93 16.93 0 01-2.827-.71c.025-.324.08-.839.101-1.693.917.267 1.849.478 2.79.632.016.591-.006 1.183-.064 1.771z" fill="#F4BB47"/><path d="M132.955 61.229c-2.043-.057-3.977-.214-5.659-.504l-.19-.033c-.009-.382.081-1.05.101-1.769 1.973.306 3.963.494 5.959.562.026.43-.119 1.315-.211 1.744z" fill="#F2B225"/><path d="M146.167 56.606c-1.521 2.012-6.183 2.773-12.108 2.706-.364 0-.727-.012-1.084-.022-2.044-.057-3.977-.214-5.66-.504l-.19-.034a16.402 16.402 0 01-2.639-.676c-1.236-.443-2.161-1.024-2.661-1.771-.308-.456-.299-1.461-.291-2.023a1.018 1.018 0 01.049-.305c.041-.128.103-.248.183-.356.062-.088.132-.169.21-.242 1.068-1.04 3.985-1.718 7.75-1.977h.042a48.568 48.568 0 012.68-.109c.52-.008 1.049-.008 1.588 0h.321c.214 0 .426.008.638.014.105 0 .21 0 .315.01l.624.023c5.775.253 10.235 1.346 10.518 3.045.01.06.015.122.014.184-.004.416.063 1.556-.299 2.037z" fill="#DB9507"/><path d="M146.452 54.559c.02-1.733-5.546-3.202-12.431-3.28-6.884-.079-12.482 1.263-12.501 2.996-.02 1.733 5.546 3.202 12.431 3.28 6.884.079 12.482-1.263 12.501-2.996z" fill="#F4AD00"/><path d="M127.314 58.786a16.963 16.963 0 01-2.826-.71c.026-.325.08-.839.101-1.693a23.33 23.33 0 002.79.632 13.77 13.77 0 01-.065 1.77z" fill="#F4BB47"/><path d="M132.975 59.29c-2.043-.057-3.977-.214-5.659-.504l-.19-.033c-.009-.382.08-1.05.1-1.769 1.974.306 3.963.494 5.959.562.027.43-.117 1.315-.21 1.744z" fill="#F2B225"/><path d="M145.423 54.349c-1.521 2.011-6.185 2.773-12.109 2.705-.364 0-.727-.012-1.085-.022-2.042-.056-3.977-.213-5.658-.504l-.19-.032a16.516 16.516 0 01-2.64-.676c-1.236-.443-2.161-1.024-2.662-1.771-.308-.455-.298-1.461-.292-2.022a1.027 1.027 0 01.05-.305c.041-.128.103-.248.182-.356a1.7 1.7 0 01.21-.242c1.069-1.04 3.986-1.718 7.751-1.977h.042a52.785 52.785 0 012.06-.095c.205 0 .411-.01.62-.013a46.64 46.64 0 011.587 0h.322c.214 0 .426.008.638.014.105 0 .211.005.314.01.21.006.417.014.625.022 5.775.253 10.236 1.346 10.518 3.045.009.06.014.122.014.184-.005.413.065 1.554-.297 2.035z" fill="#DB9507"/><path d="M145.71 52.302c.02-1.733-5.546-3.202-12.431-3.28-6.885-.079-12.482 1.263-12.501 2.996-.02 1.733 5.545 3.202 12.43 3.28 6.885.079 12.482-1.263 12.502-2.996z" fill="#F4AD00"/><path d="M126.572 56.528a16.841 16.841 0 01-2.83-.708c.026-.324.08-.838.102-1.692a23.23 23.23 0 002.79.63c.016.591-.005 1.182-.062 1.77z" fill="#F4BB47"/><path d="M132.232 57.032c-2.042-.056-3.977-.213-5.658-.504l-.191-.032c-.008-.382.081-1.05.101-1.77 1.974.307 3.964.494 5.959.563.026.43-.118 1.315-.211 1.743z" fill="#F2B225"/><path d="M145.441 52.41c-1.521 2.011-6.179 2.773-12.109 2.705-.364 0-.726-.012-1.084-.022-2.043-.056-3.977-.213-5.659-.504l-.19-.032c-.897-.153-1.78-.38-2.639-.678-1.236-.443-2.162-1.024-2.662-1.77-.308-.456-.298-1.46-.291-2.023a1.027 1.027 0 01.05-.305c.041-.128.102-.248.182-.356.062-.087.132-.168.21-.242 1.069-1.04 3.985-1.717 7.75-1.977h.042a52.785 52.785 0 012.061-.095 51.19 51.19 0 012.529-.008c.213 0 .425.008.637.013.105 0 .211.006.315.01l.625.023c5.774.253 10.235 1.346 10.517 3.045.01.06.015.122.014.184-.006.41.064 1.55-.298 2.032z" fill="#DB9507"/><path d="M145.726 50.363c.019-1.733-5.546-3.202-12.431-3.28-6.885-.079-12.482 1.263-12.502 2.996-.019 1.733 5.546 3.202 12.431 3.28 6.885.079 12.482-1.263 12.502-2.996z" fill="#F4AD00"/><path d="M126.592 54.59a16.72 16.72 0 01-2.826-.71c.025-.325.079-.839.1-1.693.917.267 1.848.478 2.79.631a13.78 13.78 0 01-.064 1.771z" fill="#F4BB47"/><path d="M132.249 55.093c-2.044-.056-3.977-.213-5.66-.504l-.19-.032c-.009-.382.081-1.05.101-1.77 1.973.307 3.963.494 5.958.563.029.43-.117 1.315-.209 1.743z" fill="#F2B225"/><path d="M144.339 49.948c-1.521 2.011-6.183 2.773-12.108 2.705-.365 0-.727-.011-1.084-.022-2.044-.057-3.977-.214-5.66-.504l-.19-.033a16.402 16.402 0 01-2.639-.677c-1.236-.443-2.162-1.024-2.662-1.77-.308-.457-.298-1.462-.29-2.024a1.018 1.018 0 01.049-.304 1.22 1.22 0 01.183-.357 1.54 1.54 0 01.21-.242c1.068-1.04 3.984-1.717 7.75-1.977h.042a48.568 48.568 0 012.68-.109 55.3 55.3 0 011.588 0h.321c.214 0 .426.008.638.015a61.549 61.549 0 01.938.032c5.776.253 10.236 1.347 10.518 3.045a.952.952 0 01.015.184c-.007.416.063 1.557-.299 2.038z" fill="#DB9507"/><path d="M144.62 47.9c.02-1.733-5.546-3.201-12.431-3.28-6.884-.078-12.482 1.264-12.501 2.997-.02 1.733 5.546 3.202 12.43 3.28 6.885.078 12.482-1.263 12.502-2.996z" fill="#F4AD00"/><path d="M125.486 52.127a16.933 16.933 0 01-2.826-.71c.026-.324.08-.838.101-1.693a23.1 23.1 0 002.79.632c.016.591-.006 1.183-.065 1.771z" fill="#F4BB47"/><path d="M131.147 52.63c-2.043-.056-3.977-.213-5.659-.503l-.191-.033c-.008-.382.08-1.05.101-1.769 1.973.307 3.963.494 5.958.563.028.43-.116 1.314-.209 1.743z" fill="#F2B225"/><path d="M144.355 48.008c-1.516 2.012-6.185 2.774-12.109 2.706-.364 0-.726-.012-1.084-.022-2.043-.057-3.978-.214-5.659-.504l-.19-.032c-.897-.153-1.78-.38-2.639-.678-1.236-.443-2.162-1.024-2.662-1.771-.308-.456-.298-1.461-.291-2.023a1.02 1.02 0 01.032-.24c0-.022.01-.043.017-.065.042-.127.103-.248.182-.356a1.68 1.68 0 01.211-.242c1.068-1.04 3.985-1.718 7.75-1.977h.042a56.309 56.309 0 012.06-.096l.62-.013a52.47 52.47 0 011.587 0l.323.005c.213 0 .426.008.637.014.105 0 .211.006.315.01l.624.023c5.775.253 10.236 1.346 10.518 3.045.01.06.015.122.014.184-.006.411.064 1.552-.298 2.032z" fill="#DB9507"/><path d="M144.64 45.962c.019-1.734-5.546-3.202-12.431-3.28-6.885-.079-12.482 1.263-12.502 2.996-.019 1.733 5.546 3.202 12.431 3.28 6.885.078 12.482-1.263 12.502-2.996z" fill="#F4AD00"/><path d="M125.506 50.19a16.908 16.908 0 01-2.826-.71c.025-.324.08-.838.1-1.693.917.268 1.848.48 2.79.632.016.591-.006 1.183-.064 1.77z" fill="#F4BB47"/><path d="M131.162 50.692c-2.043-.057-3.977-.214-5.659-.504l-.19-.032c-.009-.382.08-1.05.101-1.77 1.973.307 3.963.494 5.958.563.028.43-.121 1.315-.21 1.743z" fill="#F2B225"/><path d="M143.429 45.925c-1.516 2.012-6.185 2.774-12.109 2.706-.364 0-.726-.012-1.084-.022-2.043-.056-3.977-.213-5.659-.504l-.19-.032a16.5 16.5 0 01-2.639-.678c-1.236-.443-2.162-1.024-2.662-1.771-.308-.455-.298-1.46-.291-2.022.002-.081.012-.162.031-.24l.018-.066c.042-.127.103-.247.182-.355.063-.088.133-.169.211-.242 1.068-1.04 3.985-1.718 7.751-1.977h.041a55.945 55.945 0 012.06-.096c.206 0 .412-.009.62-.012.52-.009 1.05-.009 1.588 0h.322c.213 0 .426.008.637.014.105 0 .211.005.315.009l.624.023c5.775.253 10.236 1.346 10.518 3.045.01.06.014.122.014.184-.006.415.064 1.555-.298 2.036z" fill="#DB9507"/><path d="M143.714 43.88c.019-1.733-5.546-3.202-12.431-3.28-6.885-.079-12.482 1.262-12.501 2.996-.02 1.733 5.545 3.202 12.43 3.28 6.885.079 12.482-1.263 12.502-2.996z" fill="#F4AD00"/><path d="M124.576 48.105a16.735 16.735 0 01-2.826-.71c.026-.324.08-.838.101-1.692.916.267 1.848.478 2.79.63.015.592-.006 1.184-.065 1.772z" fill="#F4BB47"/><path d="M130.236 48.609c-2.042-.057-3.977-.213-5.658-.504l-.191-.033c-.009-.381.08-1.05.101-1.769a49.97 49.97 0 005.958.562c.028.43-.117 1.315-.21 1.744z" fill="#F2B225"/><g opacity=".85" fill="#E56E1F"><path opacity=".85" d="M128.442 41.324a4.337 4.337 0 00-.977.218c-.31.104-.6.262-.855.467a1.642 1.642 0 00-.518.739 1.478 1.478 0 00-.095.46c-.007.19.035.38.122.55.152.302.438.552.856.748.482.214.996.347 1.521.393a5.58 5.58 0 001.652-.034 3.457 3.457 0 001.2-.446c.25-.16.484-.343.698-.549.086-.08.17-.164.252-.253.171-.189.353-.367.545-.534l.054-.046c.193-.151.415-.26.651-.323a2.5 2.5 0 01.932-.05c.135.015.27.04.402.073h.007c.234.056.451.166.635.323a.737.737 0 01.23.34.669.669 0 01-.023.416.878.878 0 01-.309.422.884.884 0 01-.095.065 2.042 2.042 0 01-.607.224l-.074.015a8.976 8.976 0 01-.94.104 3.11 3.11 0 00-.726.11c-.174.055-.279.134-.316.237-.044.128.013.243.176.346.196.115.416.183.643.199a5.525 5.525 0 001.495-.05c.471-.064.93-.201 1.359-.407.05-.025.095-.052.141-.078a2.07 2.07 0 00.649-.579c.1-.14.18-.293.237-.456.045-.123.073-.251.084-.381a1.104 1.104 0 00-.056-.467.019.019 0 000-.01 1.064 1.064 0 00-.104-.221 1.746 1.746 0 00-.533-.541l-.008-.006a2.898 2.898 0 00-.458-.249c-.35-.15-.715-.26-1.089-.33h-.01a8.142 8.142 0 00-1.339-.14h-.142a6.032 6.032 0 00-.555.031 3.802 3.802 0 00-1.068.26 3.565 3.565 0 00-.832.494 6.657 6.657 0 00-.5.448 6.08 6.08 0 00-.235.24c-.202.204-.351.35-.449.437a1.515 1.515 0 01-.136.108c-.074.052-.151.1-.231.143-.152.082-.315.14-.485.173a1.946 1.946 0 01-.592.017c-.353-.039-.627-.15-.821-.331a.628.628 0 01-.172-.254.582.582 0 01.013-.399.877.877 0 01.555-.555 4.576 4.576 0 011.074-.211c.233-.022.463-.063.689-.122a.388.388 0 00.279-.235c.043-.122-.026-.237-.207-.343a1.68 1.68 0 00-.666-.2 4.415 4.415 0 00-.928 0z"/><path opacity=".85" d="M138.76 43.902l-.183.517c-.032.09-.222.146-.424.123l-13.506-1.48c-.204-.022-.343-.114-.31-.204l.182-.516c.033-.095.223-.145.425-.123l13.504 1.482c.204.021.342.112.312.201z"/></g><path fill-rule="evenodd" clip-rule="evenodd" d="M141.959 45.54c-.036.027-.671.406-.708.43-4.309 2.863-12.828 1.26-18.704-3.53-4.422-3.602-5.376-8.323-4.168-11.498.397-1.05 1.122-1.957 2.187-2.666.048-.032.095-.064.146-.095.93-.584 2.034-.97 3.251-1.17 4.468-.738 10.479 1.036 15.046 4.757 5.828 4.75 7.128 10.883 2.95 13.773z" fill="#DB9507"/><path fill-rule="evenodd" clip-rule="evenodd" d="M144.421 42.12c-.301 1.49-1.177 2.641-2.464 3.42-2.727 1.654-7.297 1.635-12.138-.38-7.123-2.973-12.135-9.15-11.194-13.798a5.063 5.063 0 012.092-3.172c.911-.65 2.07-1.086 3.402-1.295 2.566-.402 5.775.039 9.113 1.431 7.119 2.97 12.13 9.146 11.189 13.794z" fill="#F4AD00"/><path d="M141.723 42.715c1.855-3.402-1.31-8.724-7.069-11.888-5.758-3.164-11.93-2.97-13.784.431-1.855 3.402 1.31 8.724 7.069 11.888 5.758 3.163 11.93 2.97 13.784-.431z" stroke="#E56E1F" stroke-width="4.11" stroke-miterlimit="10"/><path d="M136.05 37.583a5.786 5.786 0 00-1.906-.802c.415-.166.673-.425.774-.777.102-.352.016-.769-.257-1.25a4.896 4.896 0 00-2.405-2.122 11.249 11.249 0 00-.918-.354 6.617 6.617 0 00-1.796-.328c-.2-.01-.411-.014-.638-.011a16.786 16.786 0 00-1.762.108 7.413 7.413 0 01-.279.027 4.006 4.006 0 00-.424.043c-.086.019-.17.046-.251.081a.684.684 0 00-.38.304c-.062.125-.03.298.095.524l4.26 7.501.07.126c.277.51.488.981 1.192 1.182.286.085.578.148.873.191a19.152 19.152 0 00.906.11c.301.03.586.048.856.055h.157c.204 0 .386.006.543 0 .209 0 .402-.008.579-.019.651-.035 1.107-.123 1.466-.27a2.32 2.32 0 00.731-.477c.557-.518.535-1.307-.067-2.367a4.247 4.247 0 00-1.419-1.475zm-6.215-4.067c.518-.005.964.06 1.311.244.694.367.925.94 1.089 1.229.19.33.219.585.095.758-.125.174-.438.264-.933.27l-1.26.015-1.385-2.438c.165-.03.332-.047.5-.055.215-.012.41-.02.583-.023zm4.182 6.966c-.23 0-.475 0-.739-.015a4.04 4.04 0 01-.672-.082l-1.355-2.394 1.415-.017c.519-.005.947.065 1.285.212.344.153.629.417.808.75.212.375.465 1.09.26 1.27-.205.18-.536.272-1.001.278l-.001-.002z" fill="#E56E1F"/><path d="M127.204 32.64s-.649-1.067-1.141-1.928c-.227-.401 1.221-.8 1.662.008.815 1.5 1.14 2.057 1.14 2.057l-1.661-.137zm-.102.83s-1.236.048-2.241.06c-.47.005-1.723-1.409-.761-1.404 1.775.01 2.422-.009 2.422-.009l.58 1.353zm5.206 8.56s-1.595.014-2.604.026c-.469.006-1.722-1.41-.76-1.404 1.775.01 2.422-.008 2.422-.008l.942 1.385zm-2.37-9.421s-.648-1.069-1.141-1.93c-.227-.4 1.221-.8 1.662.009a92.539 92.539 0 001.141 2.057l-1.662-.136zm2.207 8.737s.57 1.069 1.055 1.93c.228.4 2.108.763 1.63-.047-.887-1.5-1.191-2.057-1.191-2.057l-1.494.174zm2.734-.03s.57 1.07 1.055 1.929c.227.4 2.107.763 1.629-.047-.887-1.498-1.191-2.055-1.191-2.055l-1.493.172z" fill="#E56E1F"/><path d="M57.03 32.527c-1.764 5.747-2.323 8.286-.863 10.542 1.46 2.257 8.38 14.203 13.138 13.09 4.76-1.113 47.64-3.626 50.155-7.348 1.194-1.768.933-7.793.933-7.793l-17.125-9.913-46.237 1.422z" fill="#329B73"/><path d="M85.648 44.427c3.018.934 6.219 1.145 7.843-.22 1.625-1.364.747-3.477-1.96-4.722-2.707-1.244-6.397-1.445-8.818.423-1.712 1.322-.233 3.54 2.935 4.52z" stroke="#1B5B44" stroke-width="6.02" stroke-miterlimit="10"/><path d="M88.8 42.392a4.98 4.98 0 01.992-.143c.297 0 .498.095.38.372-.102.221-.365.345-.683.43-.72.19-1.722.17-1.79.584.513.799 1.68.697 2.691.236.221-.1.434-.218.637-.351 1.263-.83 1.867-2.13-.425-2.404-.297-.135-1.08.049-1.79.183a4.648 4.648 0 01-1.002.121c-.252-.014-.39-.102-.326-.321v-.008c.136-.147.386-.286.677-.398.436-.17.895-.271 1.361-.302.437-.724-.87-1.026-1.765-.655-.173.038-.335.08-.486.128a3.78 3.78 0 00-.724.306c-1.885 1.05-.823 3.071 2.253 2.222z" fill="#1B5B44"/><path d="M85.871 39.495c-.066-.535.653-.454.749-.266.096.188 5.277 4.758 4.802 4.986-.475.227-.602.039-1.426-.695-.917-.81-4.124-4.025-4.124-4.025zM79.87 46.47c.303-.9-.703-2.053-2.246-2.573-1.542-.521-3.038-.213-3.34.687-.301.901.705 2.053 2.247 2.574 1.543.521 3.038.213 3.34-.688z" fill="#1B5B44"/><path d="M84.699 42.857c2.864 1.1 6.011 1.491 7.817.217 1.805-1.274 1.235-3.435-1.281-4.83-2.516-1.394-6.145-1.801-8.811-.069-1.885 1.225-.732 3.522 2.275 4.682z" stroke="#1B5B44" stroke-width="6.02" stroke-miterlimit="10"/><path d="M88.114 40.998a5.094 5.094 0 011.006-.088c.293.02.48.12.32.393-.133.215-.412.324-.739.39-.742.15-1.732.075-1.859.486.397.826 1.57.79 2.638.382.234-.09.462-.195.682-.316 1.37-.764 2.153-2.024-.083-2.427-.276-.152-1.081-.011-1.806.084a4.774 4.774 0 01-1.01.063c-.248-.029-.373-.124-.278-.34v-.007c.217-.166.464-.288.728-.36.45-.144.92-.22 1.393-.226.537-.7-.718-1.075-1.66-.753a6.88 6.88 0 00-.5.095 4.114 4.114 0 00-.76.266c-2.014.958-1.245 3.034 1.928 2.358z" fill="#1B5B44"/><path d="M85.617 37.938c.009-.537.71-.418.78-.224.07.194 4.57 5.058 4.064 5.249-.504.19-.601.004-1.32-.774-.795-.858-3.524-4.25-3.524-4.25zm-6.904 6.538c.341-.917-.582-2.11-2.062-2.663-1.48-.554-2.955-.26-3.296.657-.34.918.583 2.11 2.062 2.664 1.48.554 2.956.26 3.296-.658z" fill="#1B5B44"/><path d="M62.284 39.312c.146-.03.294-.043.442-.042.13.006.213.05.146.17-.056.096-.177.145-.32.175-.325.069-.76.04-.815.221.182.362.7.341 1.166.159.102-.04.201-.087.296-.142.597-.34.929-.9-.061-1.067-.123-.066-.475 0-.795.045a2.124 2.124 0 01-.444.031c-.109-.011-.166-.052-.126-.148a.913.913 0 01.317-.161c.198-.065.404-.1.612-.105.229-.311-.328-.47-.739-.325a2.252 2.252 0 00-.22.046c-.114.03-.226.07-.332.12-.88.426-.518 1.337.873 1.023z" fill="#419F81"/><path d="M61.152 37.975c0-.236.31-.19.342-.102.032.09 2.067 2.205 1.847 2.29-.22.087-.266 0-.59-.334-.36-.369-1.599-1.854-1.599-1.854z" fill="#419F81"/><path d="M103.576 29.124s6.749 5.43 12.072 9.047c1.886 1.284 3.59 2.34 4.753 2.845-2.392 1.145-6.315 2.181-11.356 3.138-9.628 1.831-23.342 3.38-38.317 4.912 0 0-4.71-1.813-10.932-11.753a75.248 75.248 0 01-2.757-4.786c31.458-1.33 15.083-.43 17.18-.518 11.68-.49 23-1.267 29.357-2.885z" fill="#3EB58A"/><path d="M60.414 33.354a66.536 66.536 0 002.6 4.437c1.95 3.04 3.727 5.173 5.198 6.657 2.56 2.585 4.19 3.2 4.19 3.2 2.29-.235 4.543-.47 6.757-.708 12.611-1.352 23.712-2.756 30.876-4.425 2.597-.605 4.678-1.24 6.125-1.929-1.061-.454-2.642-1.424-4.381-2.596-2.493-1.68-5.309-3.774-7.377-5.35-1.775-1.35-3-2.32-3-2.32-1.225.31-2.842.6-4.729.87-7.89 1.129-20.487 1.895-28.87 2.135-3.295.095-5.938.107-7.389.03z" stroke="#1B5B44" stroke-width="4.69" stroke-miterlimit="10"/><path d="M95.977 31.332c3.3 2.12 4.792 1.9 9.229 1.732-2.119-1.613-3.581-2.767-3.581-2.767-1.464.366-3.395.712-5.648 1.035zm14.059 11.183c2.597-.605 4.678-1.24 6.126-1.929-1.061-.454-2.643-1.424-4.381-2.596-1.613 1.567-2.326 2.997-1.745 4.525zm-41.821 1.933c2.56 2.585 4.191 3.2 4.191 3.2 2.29-.235 4.542-.47 6.756-.708-2.521-1.746-5.838-2.775-10.947-2.492z" fill="#1B5B44"/><path d="M85.015 40.838c2.567 1.356 5.568 2.033 7.637.93 2.07-1.103 2.006-3.307-.143-4.923-2.15-1.617-5.629-2.354-8.65-.874-2.138 1.05-1.535 3.444 1.156 4.867z" stroke="#1B5B44" stroke-width="6.02" stroke-miterlimit="10"/><path d="M88.803 39.3a4.965 4.965 0 011.01 0c.285.047.446.162.224.42-.181.201-.475.286-.817.322-.76.08-1.722-.085-1.941.313.2.858 1.362.929 2.505.625.254-.068.502-.153.745-.253 1.52-.631 2.584-1.813.475-2.423-.236-.176-1.06-.11-1.794-.08-.399.015-.77.02-1.007-.03-.237-.05-.339-.157-.196-.364l.004-.007c.248-.144.518-.242.8-.291a4.902 4.902 0 011.426-.096c.688-.648-.46-1.134-1.46-.9-.179.011-.351.03-.514.054a4.58 4.58 0 00-.811.19c-2.204.769-1.923 2.905 1.351 2.52z" fill="#1B5B44"/><path d="M87.05 36.028c.134-.535.796-.351.82-.152.022.2 3.326 5.446 2.785 5.598-.54.152-.594-.05-1.12-.891-.583-.929-2.484-4.555-2.484-4.555z" fill="#1B5B44"/><path d="M101.13 31.964c.135-.033.273-.051.412-.055.123 0 .205.04.151.155-.044.095-.154.141-.285.175-.299.075-.712.063-.745.234.204.333.687.294 1.11.108a1.93 1.93 0 00.266-.142c.529-.338.792-.872-.151-.995-.121-.057-.448.015-.742.069a1.978 1.978 0 01-.413.044c-.104-.006-.161-.043-.132-.134a.79.79 0 01.285-.161c.183-.07.375-.11.57-.12.19-.299-.349-.428-.722-.278a2.42 2.42 0 00-.202.05c-.104.03-.205.072-.301.123-.799.424-.38 1.262.899.927z" fill="#419F81"/><path d="M99.95 30.75c-.022-.22.274-.184.312-.106.038.078 2.131 1.989 1.932 2.08-.2.092-.248.014-.583-.293-.37-.338-1.66-1.68-1.66-1.68zm12.073 8.466c.017-.221.303-.166.327-.085.025.081 1.769 2.13 1.557 2.207-.213.078-.249 0-.527-.332-.308-.359-1.357-1.79-1.357-1.79z" fill="#419F81"/><path d="M80.09 42.262c.603-1.422-.582-3.29-2.646-4.172-2.064-.882-4.226-.443-4.829.979-.603 1.422.582 3.29 2.646 4.172 2.064.882 4.226.443 4.83-.98zm23.468-3.892c.512-1.33-.775-3.069-2.874-3.881-2.099-.813-4.215-.393-4.726.938-.512 1.33.775 3.069 2.873 3.881 2.099.813 4.215.394 4.727-.938zm-43.222-4.988c2.737-.09 5.192-.125 7.392-.12-.727 2.314-2.22 3.41-4.815 4.26-1.035-1.876-1.953-3.358-2.577-4.14z" fill="#1B5B44"/><path d="M63.788 35.266c.147-.014.296-.014.444 0 .126.02.198.07.103.185a.54.54 0 01-.354.144c-.336.039-.76-.03-.856.147.095.377.61.402 1.112.263.11-.03.218-.069.324-.114.665-.286 1.12-.81.19-1.067-.107-.077-.47-.044-.792-.029a2.06 2.06 0 01-.444-.009c-.105-.022-.151-.067-.095-.159.108-.064.226-.109.349-.132.205-.046.416-.063.626-.048.297-.287-.215-.498-.652-.39a2.267 2.267 0 00-.582.114c-.96.34-.814 1.279.627 1.095z" fill="#419F81"/><path d="M62.977 33.834c.053-.236.347-.158.359-.07.012.087 1.52 2.385 1.287 2.451-.234.066-.262-.02-.504-.387-.266-.407-1.142-1.994-1.142-1.994zm9.967 12.569c.118-.011.238-.011.356 0 .096.016.158.056.082.146a.434.434 0 01-.285.117c-.268.03-.607-.024-.68.116.077.3.486.322.887.211.089-.026.175-.058.26-.095.53-.227.893-.648.147-.853-.085-.061-.373-.036-.632-.023-.118.01-.236.008-.354-.007-.083-.017-.12-.053-.071-.127a.854.854 0 01.28-.106c.163-.037.331-.05.499-.038.237-.23-.172-.398-.52-.312a1.755 1.755 0 00-.467.092c-.768.276-.652 1.026.498.88z" fill="#419F81"/><path d="M72.3 45.26c.044-.191.278-.127.286-.057.008.07 1.218 1.909 1.028 1.958-.19.05-.21-.015-.403-.309-.21-.324-.91-1.593-.91-1.593z" fill="#419F81"/><path opacity=".1" d="M103.577 29.124s6.75 5.43 12.073 9.047c-10.518-3.1-27.763-4.221-43.838-5.89 11.69-.467 25.409-1.539 31.765-3.157z" fill="#1F1F39"/><path d="M72.023 50.521c37.412-3.637 46.143-7.53 46.143-7.53-4.799 2.392-46.143 7.53-46.143 7.53zm.442 4.255c37.461-3.35 46.263-7.178 46.263-7.178-4.842 2.356-46.263 7.178-46.263 7.178z" fill="#1B5B44"/><path d="M73.691 51.125c37.461-3.35 46.264-7.178 46.264-7.178-4.843 2.356-46.264 7.178-46.264 7.178zm-1.003 1.229c20.384-1.24 25.294-3.175 25.294-3.175-2.711 1.202-25.294 3.175-25.294 3.175zm.418.725C93.49 51.839 98.4 49.903 98.4 49.903c-2.711 1.203-25.294 3.176-25.294 3.176zm19.5-1.252c20.186-2.431 24.802-4.645 24.802-4.645-2.529 1.353-24.802 4.645-24.802 4.645z" fill="#1B5B44"/><path d="M92.27 50.722c20.186-2.43 24.803-4.644 24.803-4.644-2.529 1.354-24.803 4.644-24.803 4.644z" fill="#1B5B44"/><path d="M96.908 53.52c-.142.545-9.11 1.68-9.342 1.05-.23-.63 1.263-6.956.871-7.417-.392-.461-11.964-14.66-10.827-15.364 1.71-1.062 9.747-1.136 9.79-.572.045.564 10.107 13.343 10.321 14.745.214 1.402-.672 7.013-.813 7.558z" fill="#fff"/><path d="M57.078 36.14c.389 2.189 8.136 12.596 10.768 13.699-6.288-5.403-10.768-13.7-10.768-13.7zM56 40.687c.389 2.189 8.136 12.596 10.768 13.698C60.48 48.982 56 40.687 56 40.687zm1.09-2.021c.388 2.189 8.136 12.596 10.768 13.698-6.084-5.671-10.768-13.698-10.768-13.698z" fill="#1B5B44"/><path d="M57.105 37.462c1.902 3.817 8.137 12.596 10.769 13.698-6.29-5.402-10.768-13.698-10.768-13.698zm-1.078 1.563c1.901 3.817 7.541 11.82 10.769 13.699-6.295-5.386-10.769-13.699-10.769-13.699zm1.641-3.425c1.901 3.816 7.541 11.819 10.767 13.698-6.292-5.388-10.767-13.699-10.767-13.699z" fill="#1B5B44"/><path opacity=".09" d="M96.905 53.52c-.142.545-9.11 1.68-9.341 1.05-.231-.63 1.262-6.956.87-7.417 2.784-.457 7.7-.97 9.285-1.192.214 1.399-.672 7.014-.814 7.56z" fill="#1F1F39"/><path d="M60.086 21.14c-1.765 5.748-2.324 8.287-.863 10.543 1.46 2.256 8.378 14.202 13.137 13.09 4.758-1.113 47.64-3.627 50.155-7.348 1.194-1.768.933-7.793.933-7.793l-17.126-9.915-46.236 1.424z" fill="#329B73"/><path d="M88.702 33.042c3.018.932 6.219 1.145 7.843-.22 1.625-1.364.747-3.479-1.96-4.722-2.707-1.243-6.396-1.446-8.817.422-1.712 1.321-.234 3.537 2.934 4.52z" stroke="#1B5B44" stroke-width="6.02" stroke-miterlimit="10"/><path d="M91.856 31.01c.325-.083.658-.13.993-.144.296 0 .497.096.38.372-.104.222-.366.346-.683.43-.721.19-1.723.17-1.791.585.513.798 1.68.696 2.692.236.22-.101.434-.218.637-.352 1.263-.83 1.866-2.128-.425-2.403-.298-.135-1.082.048-1.792.184-.386.073-.75.132-1 .118-.251-.014-.39-.102-.326-.322v-.007c.136-.147.38-.286.677-.398a4.56 4.56 0 011.36-.302c.437-.725-.869-1.026-1.764-.654a4.993 4.993 0 00-.487.127 3.87 3.87 0 00-.724.305c-1.888 1.053-.823 3.07 2.253 2.224z" fill="#1B5B44"/><path d="M88.93 28.109c-.066-.534.651-.455.748-.266.097.19 5.28 4.761 4.804 4.986-.477.225-.602.038-1.431-.694-.915-.81-4.12-4.026-4.12-4.026zm-6.005 6.974c.302-.9-.704-2.053-2.246-2.574-1.543-.52-3.038-.212-3.34.688-.301.9.704 2.053 2.247 2.574 1.543.52 3.038.213 3.34-.688z" fill="#1B5B44"/><path d="M87.754 31.47c2.864 1.102 6.01 1.492 7.816.218 1.805-1.274 1.235-3.435-1.28-4.83-2.517-1.394-6.145-1.801-8.81-.068-1.887 1.225-.733 3.526 2.274 4.68z" stroke="#1B5B44" stroke-width="6.02" stroke-miterlimit="10"/><path d="M91.173 29.611a5.094 5.094 0 011.005-.087c.294.02.481.12.322.393-.134.215-.412.324-.74.391-.741.149-1.733.074-1.86.485.398.826 1.571.79 2.64.382.234-.089.462-.195.681-.316 1.371-.764 2.152-2.024-.083-2.427-.276-.15-1.08-.011-1.806.084-.394.053-.761.095-1.01.063-.25-.032-.374-.123-.279-.339v-.007a2.08 2.08 0 01.729-.361 4.74 4.74 0 011.393-.227c.536-.7-.718-1.075-1.659-.752-.177.026-.344.06-.5.095a4.18 4.18 0 00-.761.265c-2.015.96-1.244 3.035 1.928 2.358z" fill="#1B5B44"/><path d="M88.672 26.552c.01-.537.71-.418.78-.224.068.194 4.569 5.053 4.065 5.248-.504.196-.603 0-1.321-.774-.794-.856-3.524-4.25-3.524-4.25zm-6.9 6.537c.34-.917-.583-2.11-2.062-2.663-1.48-.554-2.956-.26-3.296.657-.341.917.582 2.11 2.062 2.663 1.48.554 2.955.26 3.296-.657z" fill="#1B5B44"/><path d="M65.344 27.928a2.11 2.11 0 01.442-.043c.129.008.212.05.144.172a.467.467 0 01-.32.175c-.325.07-.76.04-.815.221.183.363.7.34 1.166.158a2.23 2.23 0 00.297-.14c.596-.34.928-.9-.062-1.069-.123-.065-.475 0-.794.045a2.139 2.139 0 01-.444.032c-.11-.012-.166-.053-.126-.148a.897.897 0 01.317-.162c.198-.065.404-.1.612-.105.228-.31-.328-.47-.74-.325a2.428 2.428 0 00-.218.046c-.115.03-.227.07-.334.12-.878.425-.518 1.337.875 1.023z" fill="#419F81"/><path d="M64.207 26.592c0-.236.308-.19.341-.102.034.089 2.067 2.205 1.846 2.29-.22.085-.265.005-.59-.335-.358-.37-1.597-1.853-1.597-1.853z" fill="#419F81"/><path d="M106.63 17.738s6.749 5.431 12.072 9.047c1.885 1.284 3.59 2.34 4.753 2.845-2.392 1.145-6.315 2.182-11.357 3.138-9.627 1.832-23.34 3.381-38.316 4.913 0 0-4.709-1.813-10.931-11.753a74.856 74.856 0 01-2.757-4.787c31.457-1.33 15.082-.429 17.178-.517 11.683-.493 23.002-1.268 29.358-2.886z" fill="#3EB58A"/><path d="M63.473 21.968a65.63 65.63 0 002.6 4.437c1.95 3.04 3.727 5.173 5.196 6.657 2.561 2.586 4.192 3.2 4.192 3.2 2.29-.235 4.541-.471 6.756-.708 12.612-1.352 23.712-2.756 30.876-4.425 2.597-.604 4.678-1.24 6.125-1.929-1.061-.454-2.642-1.424-4.38-2.595-2.494-1.682-5.309-3.775-7.379-5.35a213.906 213.906 0 01-2.998-2.32c-1.226.31-2.843.6-4.73.87-7.889 1.128-20.487 1.894-28.868 2.134-3.298.095-5.942.107-7.39.029z" stroke="#1B5B44" stroke-width="4.69" stroke-miterlimit="10"/><path d="M99.031 19.946c3.3 2.12 4.792 1.9 9.23 1.732-2.12-1.613-3.582-2.768-3.582-2.768-1.464.367-3.395.713-5.648 1.036zm14.065 11.183c2.597-.604 4.678-1.24 6.125-1.929-1.061-.454-2.642-1.424-4.38-2.595-1.615 1.566-2.328 2.997-1.745 4.524zM71.27 33.062c2.56 2.586 4.192 3.2 4.192 3.2 2.289-.235 4.54-.471 6.755-.708-2.522-1.747-5.837-2.775-10.948-2.492z" fill="#1B5B44"/><path d="M88.07 29.453c2.566 1.357 5.568 2.033 7.637.93 2.07-1.102 2.005-3.307-.143-4.923-2.149-1.617-5.63-2.355-8.65-.874-2.139 1.047-1.535 3.442 1.155 4.867z" stroke="#1B5B44" stroke-width="6.02" stroke-miterlimit="10"/><path d="M91.86 27.915c.335-.032.673-.03 1.008.005.285.046.446.163.225.42-.18.203-.475.287-.817.322-.76.08-1.72-.085-1.94.313.198.859 1.36.93 2.505.625.253-.068.502-.152.744-.252 1.52-.63 2.584-1.818.475-2.423-.236-.175-1.06-.11-1.793-.08-.399.015-.77.02-1.007-.03-.237-.051-.34-.158-.196-.364v-.007c.247-.144.518-.243.8-.292a4.909 4.909 0 011.425-.095c.69-.647-.458-1.135-1.458-.9-.18.01-.352.029-.515.053a4.558 4.558 0 00-.811.191c-2.2.762-1.923 2.898 1.355 2.514z" fill="#1B5B44"/><path d="M90.11 24.642c.133-.535.795-.351.819-.152.024.2 3.327 5.446 2.785 5.598-.542.151-.593-.05-1.12-.892-.583-.928-2.485-4.554-2.485-4.554z" fill="#1B5B44"/><path d="M104.189 20.574c.135-.032.273-.05.412-.056.122 0 .204.04.151.156-.045.09-.154.141-.285.175-.3.075-.712.064-.745.234.204.332.687.295 1.109.11.092-.042.181-.09.266-.144.53-.338.792-.872-.151-.995-.121-.058-.447.016-.742.07a2.005 2.005 0 01-.413.043c-.104-.007-.161-.043-.133-.133a.78.78 0 01.286-.163c.183-.069.375-.109.57-.119.19-.298-.348-.427-.721-.278a2.413 2.413 0 00-.203.05c-.104.03-.205.072-.301.123-.798.428-.38 1.266.9.927z" fill="#419F81"/><path d="M103.009 19.368c-.022-.222.274-.185.312-.107.038.078 2.131 1.988 1.932 2.08-.198.092-.249.013-.583-.293-.369-.344-1.661-1.68-1.661-1.68zm12.073 8.465c.016-.223.303-.167.327-.086.024.081 1.769 2.13 1.557 2.208-.212.078-.249 0-.527-.332-.308-.364-1.357-1.79-1.357-1.79z" fill="#419F81"/><path d="M83.145 30.876c.603-1.422-.582-3.29-2.646-4.172-2.064-.882-4.226-.443-4.83.979-.602 1.422.582 3.29 2.647 4.172 2.064.881 4.226.443 4.829-.98zm23.472-3.893c.511-1.33-.776-3.069-2.874-3.881-2.099-.814-4.215-.393-4.727.938-.511 1.33.775 3.069 2.874 3.882 2.099.813 4.215.392 4.727-.939zM63.39 21.996c2.736-.09 5.193-.125 7.392-.12-.727 2.314-2.22 3.41-4.815 4.26-1.03-1.876-1.948-3.357-2.576-4.14z" fill="#1B5B44"/><path d="M66.841 23.88c.148-.015.297-.015.445 0 .126.02.198.07.103.184a.542.542 0 01-.356.145c-.334.04-.76-.03-.855.146.095.382.61.403 1.111.264.11-.03.218-.069.323-.114.666-.286 1.121-.81.19-1.068-.106-.076-.468-.044-.79-.027a2.162 2.162 0 01-.445-.01c-.106-.02-.151-.067-.09-.158.108-.064.227-.109.35-.132.205-.047.416-.063.626-.049.296-.286-.214-.498-.652-.39-.08.006-.156.015-.227.026-.12.019-.24.049-.355.09-.963.337-.819 1.276.622 1.093z" fill="#419F81"/><path d="M66.035 22.448c.053-.236.347-.159.36-.07.012.087 1.52 2.385 1.286 2.45-.235.067-.262-.018-.503-.387-.266-.405-1.143-1.993-1.143-1.993zm9.968 12.569c.119-.012.238-.012.356 0 .095.016.158.056.082.147a.44.44 0 01-.285.116c-.268.03-.607-.024-.68.116.077.3.487.322.887.212a2.25 2.25 0 00.26-.095c.53-.227.893-.648.147-.853-.084-.062-.374-.036-.632-.023-.118.01-.237.008-.354-.007-.085-.017-.12-.055-.072-.128a.835.835 0 01.28-.105c.163-.038.33-.05.498-.039.238-.23-.17-.397-.52-.312-.064 0-.123.011-.18.02a1.572 1.572 0 00-.286.072c-.768.276-.652 1.026.5.88z" fill="#419F81"/><path d="M75.356 33.872c.041-.19.276-.127.285-.056.008.07 1.216 1.903 1.027 1.958-.189.056-.21-.016-.402-.31-.21-.322-.91-1.592-.91-1.592z" fill="#419F81"/><path opacity=".1" d="M106.632 17.738s6.749 5.431 12.072 9.047c-10.518-3.1-27.762-4.221-43.837-5.89 11.692-.467 25.409-1.539 31.765-3.157z" fill="#1F1F39"/><path d="M75.082 39.135c37.41-3.637 46.143-7.53 46.143-7.53-4.801 2.392-46.143 7.53-46.143 7.53zm.441 4.255c37.46-3.35 46.264-7.177 46.264-7.177-4.844 2.356-46.264 7.177-46.264 7.177z" fill="#1B5B44"/><path d="M76.75 39.739c37.46-3.35 46.263-7.178 46.263-7.178-4.843 2.36-46.263 7.178-46.263 7.178zm-1.008 1.229c20.385-1.24 25.295-3.176 25.295-3.176-2.71 1.204-25.295 3.176-25.295 3.176zm.422.729c20.385-1.24 25.295-3.177 25.295-3.177-2.71 1.2-25.295 3.177-25.295 3.177zM95.66 40.44c20.187-2.429 24.804-4.644 24.804-4.644-2.53 1.354-24.804 4.645-24.804 4.645z" fill="#1B5B44"/><path d="M95.328 39.336c20.187-2.43 24.802-4.644 24.802-4.644-2.529 1.354-24.802 4.644-24.802 4.644z" fill="#1B5B44"/><path d="M99.962 42.134c-.141.545-9.11 1.68-9.342 1.05-.232-.63 1.263-6.956.872-7.417-.392-.462-11.964-14.66-10.828-15.364 1.712-1.062 9.748-1.137 9.796-.573.049.564 10.101 13.348 10.316 14.746.215 1.398-.672 7.013-.814 7.558z" fill="#fff"/><path d="M60.137 24.754c.389 2.19 8.136 12.597 10.768 13.699-6.29-5.403-10.768-13.699-10.768-13.699zM59.059 29.3c.387 2.19 8.136 12.597 10.768 13.7-6.288-5.406-10.768-13.7-10.768-13.7zm1.089-2.02c.39 2.188 8.136 12.596 10.769 13.698-6.087-5.674-10.769-13.699-10.769-13.699z" fill="#1B5B44"/><path d="M60.16 26.076c1.901 3.822 8.135 12.596 10.767 13.698C64.64 34.371 60.16 26.076 60.16 26.076zm-1.074 1.564c1.901 3.817 7.54 11.82 10.768 13.7-6.296-5.389-10.768-13.7-10.768-13.7zm1.637-3.427c1.9 3.822 7.54 11.82 10.768 13.699-6.295-5.387-10.768-13.699-10.768-13.699z" fill="#1B5B44"/><path opacity=".09" d="M99.965 42.134c-.142.545-9.11 1.68-9.343 1.05-.232-.631 1.264-6.956.872-7.418 2.782-.456 7.7-.97 9.284-1.191.215 1.396-.672 7.014-.813 7.56z" fill="#1F1F39"/><path opacity=".4" d="M144.456 92.082c0 1.882-23.404 4.067-50.372 4.067-26.969 0-48.83-1.527-48.83-3.408 0-1.88 21.863-3.406 48.83-3.406 26.966 0 50.372.866 50.372 2.747z" fill="#32323F"/><path d="M108.533 78.28c-3.843.023-36.74 0-36.74 0 .57-3.268 2.852-13.288 4.324-13.353.416-.019 3.199-.216 6.547-.257 8.476-.107 22.557-.15 23.044.583.46.693 3.366 6.432 3.987 10.058.296 1.718.074 2.963-1.162 2.97z" fill="#EF9A03"/><path d="M89.828 78.02a.618.618 0 01-.492.26c-2.022.08-19.18 0-19.18 0 .776-3.476 1.838-8.857 3.285-11.635.576-1.103 1.212-1.795 1.916-1.795 2.471 0 10.802-.898 11.659.86.876 1.788 4.034 10.672 2.812 12.31z" fill="#FFAF22"/><path opacity=".05" d="M89.828 78.02a.618.618 0 01-.492.26c-2.022.08-19.18 0-19.18 0 .776-3.476 1.838-8.857 3.285-11.635 5.458 3.322 13.052 7.824 16.387 11.376z" fill="#0F1934"/><path d="M131.596 78.28c-3.844.023-36.74 0-36.74 0 .565-3.268 2.851-13.288 4.324-13.353.415-.019 3.198-.216 6.546-.257 8.476-.107 22.558-.15 23.045.583.46.693 3.365 6.432 3.986 10.058.299 1.718.074 2.963-1.161 2.97z" fill="#EF9A03"/><path opacity=".17" d="M98.418 64.85c-1.488.213-2.693.888-3.258 2.03-.566 1.14-3.203 11.412-3.203 11.412l2.147-.008 4.314-13.434z" fill="#0F1934"/><path d="M112.89 78.02a.621.621 0 01-.491.26c-2.022.08-19.18 0-19.18 0 .775-3.476 1.837-8.857 3.285-11.635.57-1.103 1.211-1.795 1.914-1.795 2.472 0 10.803-.898 11.66.86.877 1.788 4.035 10.672 2.812 12.31z" fill="#FFAF22"/><path opacity=".05" d="M112.89 78.02a.612.612 0 01-.491.26c-2.022.08-19.18 0-19.18 0 .775-3.476 1.837-8.857 3.285-11.635 5.457 3.322 13.052 7.824 16.386 11.376z" fill="#0F1934"/><path opacity=".07" d="M132.76 75.31c-5.256-5.277-17.08-7.692-24.873-10.625h2.148c8.476-.107 18.251-.165 18.738.568.46.693 3.365 6.432 3.987 10.058z" fill="#0F1934"/><path d="M95.502 91.992c-3.843.023-36.74 0-36.74 0 .57-3.268 2.856-13.289 4.324-13.354.415-.018 3.199-.216 6.546-.257 8.476-.107 22.558-.15 23.045.583.46.692 3.365 6.431 3.986 10.058.294 1.724.075 2.964-1.161 2.97z" fill="#EF9A03"/><path d="M76.793 91.732a.617.617 0 01-.492.26c-2.023.078-19.18 0-19.18 0 .775-3.477 1.838-8.858 3.285-11.635.57-1.103 1.211-1.796 1.915-1.796 2.471 0 10.801-.898 11.66.859.876 1.79 4.037 10.673 2.812 12.312z" fill="#FFAF22"/><path opacity=".05" d="M76.793 91.732a.617.617 0 01-.492.26c-2.023.078-19.18 0-19.18 0 .775-3.477 1.838-8.858 3.285-11.635 5.458 3.32 13.049 7.824 16.387 11.375z" fill="#0F1934"/><path d="M118.092 91.879c-3.843.022-36.74 0-36.74 0 .57-3.269 2.851-13.29 4.324-13.354.415-.018 3.198-.216 6.546-.258 8.476-.107 22.558-.15 23.045.583.46.693 3.365 6.432 3.986 10.059.294 1.718.075 2.963-1.161 2.97z" fill="#EF9A03"/><path opacity=".17" d="M84.91 78.448c-1.487.213-2.693.887-3.258 2.03-.566 1.142-3.203 11.412-3.203 11.412l2.148-.008 4.313-13.434z" fill="#0F1934"/><path d="M99.382 91.618a.618.618 0 01-.491.26c-2.022.079-19.18 0-19.18 0 .775-3.477 1.837-8.858 3.285-11.635.57-1.103 1.211-1.795 1.915-1.795 2.471 0 10.802-.898 11.66.858.876 1.79 4.034 10.677 2.811 12.312z" fill="#FFAF22"/><path opacity=".05" d="M99.382 91.618a.617.617 0 01-.491.26c-2.022.079-19.18 0-19.18 0 .775-3.477 1.837-8.858 3.285-11.635 5.458 3.321 13.052 7.824 16.386 11.375z" fill="#0F1934"/><path d="M121.939 64.683c-3.843.023-36.74 0-36.74 0 .57-3.268 2.852-13.288 4.324-13.354.416-.018 3.2-.215 6.547-.257 8.477-.107 22.558-.15 23.044.583.46.693 3.366 6.432 3.987 10.059.294 1.718.075 2.963-1.162 2.97z" fill="#EF9A03"/><path d="M103.234 64.423a.614.614 0 01-.491.26c-2.022.079-19.18 0-19.18 0 .774-3.477 1.837-8.858 3.285-11.635.575-1.103 1.21-1.796 1.915-1.796 2.472 0 10.802-.898 11.659.859.877 1.79 4.034 10.675 2.812 12.312z" fill="#FFAF22"/><path opacity=".05" d="M103.234 64.423a.613.613 0 01-.492.26c-2.021.079-19.18 0-19.18 0 .775-3.477 1.838-8.858 3.286-11.635 5.457 3.32 13.051 7.824 16.386 11.375z" fill="#0F1934"/><path opacity=".07" d="M123.104 61.714c-5.256-5.28-17.081-7.693-24.873-10.627h2.148c8.476-.107 18.251-.165 18.738.568.46.693 3.366 6.432 3.987 10.059z" fill="#0F1934"/><path d="M139.299 91.879c-3.843.022-36.74 0-36.74 0 .565-3.269 2.851-13.29 4.323-13.354.416-.018 3.2-.216 6.547-.258 8.476-.107 22.558-.15 23.045.583.46.693 3.365 6.432 3.985 10.059.299 1.718.076 2.963-1.16 2.97z" fill="#EF9A03"/><path opacity=".17" d="M106.118 78.448c-1.487.213-2.694.887-3.258 2.03-.565 1.142-3.204 11.412-3.204 11.412l2.149-.008 4.313-13.434z" fill="#0F1934"/><path d="M120.589 91.618a.61.61 0 01-.491.26c-2.023.079-19.18 0-19.18 0 .775-3.477 1.836-8.858 3.285-11.635.571-1.103 1.211-1.795 1.915-1.795 2.471 0 10.801-.898 11.66.858.876 1.79 4.033 10.677 2.811 12.312z" fill="#FFAF22"/><path opacity=".05" d="M120.589 91.618a.61.61 0 01-.491.26c-2.023.079-19.18 0-19.18 0 .775-3.477 1.836-8.858 3.285-11.635 5.458 3.321 13.051 7.824 16.386 11.375z" fill="#0F1934"/><path opacity=".07" d="M140.458 88.909c-5.255-5.279-17.079-7.692-24.872-10.627h2.147c8.477-.107 18.252-.165 18.739.568.46.693 3.365 6.432 3.986 10.059z" fill="#0F1934"/><path d="M134.691 76.979c3.604-.434 4.118-1.68 4.788-5.545.466 3.666 1.062 5.057 4.726 5.474-3.196 1.05-4.319 1.426-4.889 5.663-.787-4.292-1.49-4.671-4.625-5.592zm-25.007 3.055c3.169-.37 3.621-1.431 4.21-4.723.41 3.123.934 4.307 4.157 4.663-2.811.891-3.803 1.214-4.3 4.824-.693-3.656-1.31-3.976-4.067-4.764zm15.289-13.114c2.212-.232 2.528-.896 2.939-2.952.285 1.951.652 2.69 2.902 2.914-1.963.556-2.652.757-3.002 3.012-.484-2.283-.914-2.485-2.839-2.975z" fill="#fff"/><path d="M72.606.202C86.126-.51 86.82 1.567 86.82 6.37c0 4.802 1.169 97.599 0 100.107-1.91 4.103-14.215 2.481-14.215 2.481V.202z" fill="#AFC9FF"/><path opacity=".36" d="M72.606.202C86.126-.51 86.82 1.567 86.82 6.37c0 4.802 1.169 97.599 0 100.107-1.91 4.103-14.215 2.481-14.215 2.481V.202z" fill="#F4F4F9"/><path d="M74.464 109.157l-55.687-6.07c-2.448 0-4.433-2.717-4.433-6.07V12.14c0-3.352 1.985-6.07 4.433-6.07L74.464-.004c2.448 0 4.433 2.718 4.433 6.071v97.02c0 3.353-1.985 6.07-4.433 6.07z" fill="#AFC9FF"/><path opacity=".76" d="M20.434 15.34l50.145-5.465v89.667l-50.145-5.465V15.341z" stroke="#3B3B4D" stroke-width="4.62" stroke-miterlimit="10"/><path d="M73.608 13.133c.554 0 1.003-.615 1.003-1.374 0-.758-.449-1.373-1.003-1.373-.553 0-1.002.615-1.002 1.373 0 .759.449 1.374 1.002 1.374zm0 6.827c.554 0 1.003-.616 1.003-1.374 0-.758-.449-1.373-1.003-1.373-.553 0-1.002.615-1.002 1.373s.449 1.373 1.002 1.373zm0 6.825c.554 0 1.003-.615 1.003-1.373 0-.759-.449-1.373-1.003-1.373-.553 0-1.002.614-1.002 1.373 0 .758.449 1.373 1.002 1.373zm0 5.931c.554 0 1.003-.615 1.003-1.374 0-.758-.449-1.373-1.003-1.373-.553 0-1.002.615-1.002 1.373 0 .759.449 1.374 1.002 1.374zm0 5.931c.554 0 1.003-.615 1.003-1.374 0-.758-.449-1.373-1.003-1.373-.553 0-1.002.615-1.002 1.373 0 .759.449 1.373 1.002 1.373zm0 6.826c.554 0 1.003-.615 1.003-1.373s-.449-1.373-1.003-1.373c-.553 0-1.002.615-1.002 1.373s.449 1.373 1.002 1.373zm0 6.826c.554 0 1.003-.615 1.003-1.373 0-.759-.449-1.373-1.003-1.373-.553 0-1.002.614-1.002 1.373 0 .758.449 1.373 1.002 1.373zm0 6.827c.554 0 1.003-.615 1.003-1.373 0-.759-.449-1.374-1.003-1.374-.553 0-1.002.615-1.002 1.374 0 .758.449 1.373 1.002 1.373zm0 6.826c.554 0 1.003-.614 1.003-1.373 0-.758-.449-1.373-1.003-1.373-.553 0-1.002.615-1.002 1.373 0 .759.449 1.373 1.002 1.373zm0 6.826c.554 0 1.003-.615 1.003-1.373s-.449-1.373-1.003-1.373c-.553 0-1.002.615-1.002 1.373s.449 1.373 1.002 1.373zm0 6.827c.554 0 1.003-.615 1.003-1.373 0-.759-.449-1.373-1.003-1.373-.553 0-1.002.614-1.002 1.373 0 .758.449 1.373 1.002 1.373zm0 6.827c.554 0 1.003-.615 1.003-1.374 0-.758-.449-1.373-1.003-1.373-.553 0-1.002.615-1.002 1.373 0 .759.449 1.374 1.002 1.374zm0 6.826c.554 0 1.003-.615 1.003-1.374 0-.758-.449-1.373-1.003-1.373-.553 0-1.002.615-1.002 1.373 0 .759.449 1.374 1.002 1.374zm0 6.826c.554 0 1.003-.615 1.003-1.373s-.449-1.373-1.003-1.373c-.553 0-1.002.615-1.002 1.373s.449 1.373 1.002 1.373zM73.272 6.88c.554 0 1.003-.615 1.003-1.373s-.449-1.373-1.003-1.373c-.553 0-1.003.615-1.003 1.373s.45 1.373 1.003 1.373zm-4.316.466c.554 0 1.003-.615 1.003-1.373 0-.759-.45-1.373-1.003-1.373-.554 0-1.003.614-1.003 1.373 0 .758.45 1.373 1.003 1.373zm-4.32.466c.554 0 1.003-.615 1.003-1.374 0-.758-.45-1.373-1.003-1.373-.554 0-1.003.615-1.003 1.373 0 .759.449 1.374 1.003 1.374zm-4.969.535c.554 0 1.003-.615 1.003-1.373 0-.759-.45-1.373-1.003-1.373-.554 0-1.003.614-1.003 1.373 0 .758.45 1.373 1.003 1.373zm-4.973.535c.554 0 1.003-.615 1.003-1.373s-.449-1.373-1.003-1.373c-.554 0-1.003.615-1.003 1.373s.45 1.373 1.003 1.373zm-4.89.532c-.552.06-1.034-.505-1.078-1.26-.044-.757.369-1.418.92-1.477.553-.06 1.035.505 1.079 1.26.044.756-.368 1.418-.921 1.477zm-4.972.536c-.552.06-1.035-.505-1.079-1.262-.044-.756.369-1.416.921-1.476.553-.06 1.035.505 1.08 1.262.043.756-.37 1.416-.922 1.476zm-4.97.535c-.552.06-1.035-.504-1.078-1.26-.042-.756.37-1.417.921-1.476.553-.06 1.035.504 1.078 1.26.044.756-.368 1.417-.92 1.476zm-5.047.54c.554 0 1.003-.614 1.003-1.373 0-.758-.449-1.373-1.003-1.373-.553 0-1.002.615-1.002 1.373 0 .759.448 1.373 1.002 1.373zm-4.972.535c.554 0 1.003-.614 1.003-1.372 0-.759-.45-1.374-1.003-1.374-.554 0-1.003.615-1.003 1.374 0 .758.449 1.373 1.003 1.373zm-4.891.532c-.552.06-1.035-.504-1.078-1.26-.043-.756.369-1.417.92-1.476.552-.06 1.035.504 1.08 1.26.043.756-.37 1.417-.922 1.476zm-5.047.54c.554 0 1.003-.614 1.003-1.373 0-.758-.449-1.373-1.003-1.373-.554 0-1.003.615-1.003 1.373s.45 1.373 1.003 1.373zm49.075 91.349c.553 0 1.002-.614 1.002-1.373 0-.758-.449-1.373-1.003-1.373-.553 0-1.002.615-1.002 1.373 0 .759.449 1.373 1.002 1.373zm-4.4-.492c-.552-.062-.961-.725-.916-1.481.044-.756.53-1.318 1.081-1.255.552.063.963.725.918 1.481-.046.756-.53 1.318-1.082 1.255zm-4.886-.556c.554 0 1.003-.615 1.003-1.374 0-.758-.449-1.373-1.003-1.373-.554 0-1.003.615-1.003 1.373 0 .759.45 1.374 1.003 1.374zm-4.969-.56c.554 0 1.003-.615 1.003-1.374 0-.758-.449-1.373-1.003-1.373-.553 0-1.002.615-1.002 1.373 0 .759.449 1.374 1.002 1.374zm-4.968-.561c.554 0 1.003-.615 1.003-1.374 0-.758-.45-1.373-1.003-1.373-.554 0-1.003.615-1.003 1.373 0 .759.449 1.374 1.003 1.374zm-4.969-.562c.554 0 1.003-.615 1.003-1.373s-.45-1.373-1.003-1.373c-.554 0-1.003.615-1.003 1.373s.45 1.373 1.003 1.373zm-4.968-.561c.553 0 1.002-.615 1.002-1.373s-.449-1.373-1.003-1.373c-.554 0-1.003.615-1.003 1.373s.45 1.373 1.003 1.373zm-5.053-.565c-.55-.062-.962-.725-.916-1.48.046-.757.53-1.319 1.08-1.257.552.063.964.726.918 1.481-.045.756-.53 1.318-1.081 1.256zm-4.967-.561c-.553-.062-.962-.725-.918-1.48.045-.757.53-1.319 1.082-1.256.551.063.963.726.917 1.481-.045.756-.53 1.318-1.082 1.255zm-4.887-.556c.554 0 1.003-.615 1.003-1.373 0-.759-.45-1.374-1.003-1.374-.554 0-1.003.615-1.003 1.374 0 .758.45 1.373 1.003 1.373zm-4.969-.56c.554 0 1.003-.615 1.003-1.373 0-.759-.449-1.374-1.003-1.374-.554 0-1.003.615-1.003 1.374 0 .758.45 1.373 1.003 1.373zm-2.098-80.843c.526 0 .952-.583.952-1.302 0-.72-.426-1.303-.952-1.303-.525 0-.951.583-.951 1.303 0 .719.426 1.302.951 1.302zm0 6.476c.526 0 .952-.583.952-1.303s-.426-1.302-.952-1.302c-.525 0-.951.583-.951 1.302 0 .72.426 1.303.951 1.303zm0 6.474c.526 0 .952-.583.952-1.302 0-.72-.426-1.303-.952-1.303-.525 0-.951.583-.951 1.303s.426 1.302.951 1.302zm0 5.626c.526 0 .952-.583.952-1.302 0-.72-.426-1.303-.952-1.303-.525 0-.951.584-.951 1.303 0 .72.426 1.303.951 1.303zm0 5.626c.526 0 .952-.583.952-1.302 0-.72-.426-1.303-.952-1.303-.525 0-.951.583-.951 1.303 0 .719.426 1.302.951 1.302zm0 6.474c.526 0 .952-.583.952-1.302 0-.72-.426-1.303-.952-1.303-.525 0-.951.584-.951 1.303 0 .72.426 1.303.951 1.303zm0 6.476c.526 0 .952-.583.952-1.302 0-.72-.426-1.303-.952-1.303-.525 0-.951.583-.951 1.303s.426 1.302.951 1.302zm0 6.476c.526 0 .952-.584.952-1.303 0-.72-.426-1.303-.952-1.303-.525 0-.951.584-.951 1.303 0 .72.426 1.303.951 1.303zm0 6.475c.526 0 .952-.583.952-1.302 0-.72-.426-1.303-.952-1.303-.525 0-.951.583-.951 1.303 0 .719.426 1.302.951 1.302zm0 6.476c.526 0 .952-.583.952-1.303s-.426-1.302-.952-1.302c-.525 0-.951.583-.951 1.302 0 .72.426 1.303.951 1.303zm0 6.475c.526 0 .952-.583.952-1.302 0-.72-.426-1.303-.952-1.303-.525 0-.951.583-.951 1.303s.426 1.302.951 1.302zm0 6.475c.526 0 .952-.583.952-1.303 0-.719-.426-1.302-.952-1.302-.525 0-.951.583-.951 1.302 0 .72.426 1.303.951 1.303zm0 6.476c.526 0 .952-.584.952-1.303 0-.72-.426-1.303-.952-1.303-.525 0-.951.584-.951 1.303 0 .72.426 1.303.951 1.303z" fill="#3B3B4D"/><path d="M28.621 23.732c-11.457 0-17.57 13.94-17.57 30.977 0 17.038 7.383 30.55 18.828 31.075 14.354.653 21.424-13.977 21.424-31.014 0-17.036-6.55-31.038-22.682-31.038zm1.509 53.782c-7.795 0-14.105-10.21-14.105-22.806C16.025 42.11 22.34 31.9 30.13 31.9s14.107 10.21 14.107 22.807c0 12.596-6.316 22.806-14.107 22.806z" fill="#4F4F60"/><path d="M32.786 55.828c0 2.95-2.41 5.106-4.373 5.106-1.962 0-3.558-2.392-3.558-5.344 0-2.951 1.594-5.344 3.558-5.344 3.966.002 4.373 3.261 4.373 5.582z" fill="#4F4F60"/><path d="M27.172 52.668V30.371l3.713.236-.27 22.298-3.443-.237zM41.03 72.827L28.41 58.733l2.623-2.906 12.449 14.38-2.453 2.62z" fill="#4F4F60"/><path d="M16.785 72.05l12.619-14.094-2.623-3.377-12.449 14.38 2.453 3.091z" fill="#4F4F60"/><path d="M15.338 71.814l12.62-14.094-1.872-3.141-12.45 14.38 1.702 2.855z" fill="#32323F"/><path d="M27.714 60.934c1.965 0 3.558-2.392 3.558-5.343 0-2.95-1.593-5.343-3.558-5.343-1.965 0-3.558 2.392-3.558 5.343s1.593 5.343 3.558 5.343z" fill="#32323F"/><path d="M26.477 52.668V30.371h2.96l-.268 22.297h-2.692zm13.857 20.159l-12.62-14.094 1.873-3.142 12.448 14.38-1.701 2.856z" fill="#32323F"/><path d="M28.623 23.732c-10.537 0-19.08 13.81-19.08 30.847 0 17.036 8.543 30.847 19.08 30.847 10.537 0 19.08-13.812 19.08-30.846 0-17.035-8.543-30.848-19.08-30.848zm0 53.651c-7.795 0-14.106-10.21-14.106-22.806S20.832 31.77 28.623 31.77c7.791 0 14.106 10.21 14.106 22.807 0 12.596-6.316 22.81-14.106 22.81v-.004z" fill="#32323F"/><path d="M64.779 33.917h-2.913c-.83 0-1.503.675-1.503 1.509v.507c0 .834.673 1.509 1.503 1.509h2.913c.83 0 1.503-.675 1.503-1.509v-.507c0-.834-.673-1.509-1.503-1.509zm0 42.999h-2.913c-.83 0-1.503.675-1.503 1.508v.508c0 .833.673 1.509 1.503 1.509h2.913c.83 0 1.503-.676 1.503-1.509v-.508c0-.833-.673-1.508-1.503-1.508z" fill="#4F4F60"/><path d="M60.577 27.376h-.745a2.407 2.407 0 00-2.402 2.411v54.866a2.407 2.407 0 002.402 2.411h.745a2.407 2.407 0 002.402-2.411V29.787a2.407 2.407 0 00-2.402-2.411z" fill="#32323F"/><path d="M131.312 20.28c4.048-.599 4.626-2.318 5.377-7.648.525 5.058 1.194 6.975 5.309 7.551-3.589 1.442-4.848 1.966-5.491 7.81-.884-5.92-1.673-6.442-5.195-7.713zM103.07 36.09c3.186-.465 3.656-1.908 4.297-6.375.364 4.254.872 5.87 4.099 6.393-2.834 1.179-3.83 1.607-4.389 6.512-.637-4.982-1.253-5.429-4.007-6.53z" fill="#fff"/><path opacity=".18" d="M150.781 29.207c.521.837.476 2.201.605 2.68.129.477.546 1.07 1.641 1.154 1.094.085 2.481 1.024 2.649 1.546.168.522 5.001 4.75 5.001 4.75v-2.602l-9.896-7.528z" fill="#1F1F3B"/><path d="M159.327 32.476s-1.215 2.231-1.658 2.106c-.444-.125-1.431-.726-2.086-1.548-.202-.253-.508-.4-.856-.487-.534-.134-1.168-.13-1.686-.163-.613-.039-1.064-.127-.998-.548.095-.593 1.102-1.063-1.259-2.63-.448-.298.527-1.003 1.474-1.19.077-.014.153-.027.229-.034.519-.055 1.085.196 1.587.545.508.354.955.79 1.321 1.29.475.702 1.107.849 2.01 1.33.937.5 1.282.859 1.922 1.33zm21.028-1.866l2.852-.8c.026-1.308-1.366-4.055-1.573-5.226-.227-1.285-1.806-2.468-1.806-2.468l-.952 2.695.061.227s.219 2.255-.177 3.281c-.226.588-.09 1.457-.714 2.357-.471.674 2.309-.066 2.309-.066z" fill="#EFAEA6"/><path opacity=".14" d="M178.952 25.52s.117 1.451-.065 2.306c1.773.812 2.715-1.209 2.267-1.71-.28-.315-1.301-1.05-1.301-1.05l-.901.455z" fill="#1F1F3B"/><path d="M177.599 21.734c-.113 2.515-1.046 2.942-.19 2.998.656.043-.169 2.138.533 2.155 1.699.041 3.412-1.103 3.621-1.964.208-.86.058-3.257.058-3.257l-4.022.068z" fill="#EFAEA6"/><path d="M179.607 22.718c-.534.072-.549.204-.927.018-.377-.186.263-.735-.438-.848-.702-.114-1.47-.152-1.552-.994-.122-1.211.907-1.033 1.543-.9.41.087.498-.843 1.315-.812.641.025.57.417 1.141.465.344.03 1.008-.572 1.552-.142 1.007.795.19 1.793 1.029 2.644.98.993-1.231 3.155-1.494 2.9-.307-.3.126-1.343-.184-1.584-.467-.363-.519.05-.902.437-.408.412-1.172.446-.692-.348s.093-.9-.391-.836z" fill="#1F1F3B"/><path d="M172.735 102.537c-.128-1.273-.033-4.498-.033-4.498l3.503-.122-.19 4.841-2.314 1.538-.966-1.759z" fill="#fff"/><path d="M172.45 101.491c-.296-.227-.951.572-1.089 1.103-.311 1.223-4.219 1.379-4.915 1.489-.359.058-.938 1.856.85 1.848 1.547-.007 6.5-.011 8.191-.028a.772.772 0 00.749-.567c.304-1.181.342-3.952-.131-3.991-.636.143-2.529 1.01-3.655.146z" fill="#1F1F3B"/><path d="M186.194 102.558c-.135-1.271-.059-4.497-.059-4.497l3.502-.141-.16 4.842-2.306 1.552-.977-1.756z" fill="#fff"/><path d="M185.804 101.113c-.38.024-.308.382-.439.913-.3 1.225-4.748 2.021-5.443 2.137-.358.06-.921 1.863.867 1.84 1.546-.02 6.5-.065 8.192-.095a.766.766 0 00.742-.573c.294-1.184.403-4.434-.069-4.468-.635.145-2.13.134-3.85.246z" fill="#1F1F3B"/><path d="M191.205 60.482a44.448 44.448 0 01-.184 1.886c-.301 2.577-.937 11.244-.782 16.753.155 5.481-.328 18.306-.328 20.27-1.659.729-2.686.502-5.056 0 0 0-.421-10.581-.887-19.844-.381-7.522-.489-6.768-1.865-16.345-.016.045-.351.977-.84 2.413-1.045 3.065-2.791 8.419-3.627 12.294-1.305 6.048-.624 21.811-1.17 22.355-1.628.962-4.381 1.056-5.117-.286 0 0-.311-19.493.268-22.546.392-2.076 3.707-22.425 4.444-27.886 0 0 14.587-3.193 15.034 1.813.056.62.08 1.242.071 1.864-.011.777.032 1.497.074 2.29a34.904 34.904 0 01-.035 4.969z" fill="#3B3B4D"/><path opacity=".46" d="M183.384 60.452v.007a.25.25 0 01-.04-.027.308.308 0 01.04.02z" fill="#1F1F3B"/><path opacity=".54" d="M182.102 63.202c-.015.045-.656 1.857-1.145 3.292l.57-5.788s-.018.347.575 2.496z" fill="#1F1F3B"/><path opacity=".35" d="M191.29 58.979c-.122-.027-5.744-1.23-6.505-4.057 0 0 4.889.422 6.453.59.068 1.29.1 2.737.052 3.467z" fill="#1F1F3B"/><path d="M182.53 27.242c-1.263-.344-1.387 1.751-2.662 1.853-.672.054-.523-.241-.841-.552-.196-.191-.38-.407-.688-.088-6.287 6.476.259 22.807-.541 23.946-.654.932 4.667 2.966 8.009 2.148 4.583-1.122 4.305-6.119 4.172-7.074-.133-.955-3.085-17.177-3.085-17.177s-2.322-1.23-4.364-3.056z" fill="#fff"/><path d="M156.492 29.896c.491-.77 10.447 8.87 11.873 7.903 2.51-1.703 4.886-7.834 9.974-9.344 0 0 .157 1.084-.208 3.912-.481 3.736 1.616 6.394 1.189 10.914-.549 5.847.885 11.817-.549 13.135-.836.764-1.996.916-3.393-.542-2.199-2.29-.753-9.82-.553-11.608.079-.696.25-1.634.397-2.605.183-1.208.531-2.646-.075-3.087-.174-.127-3.736 4.199-6.579 4.148-2.117-.04-11.794-7.8-12.099-8.14-.867-.97.023-4.686.023-4.686z" fill="#0052FF"/><path d="M187.718 57.565c-.122.229-.499.229-.311.382.188.154 2.487 1.172 2.487 1.172s.222.241.491-.157c.161-.236.255-.512.27-.798l-2.937-.599z" fill="#E79E9C"/><path d="M191.739 56.334c-2.003 1.258-4.669 1.295-6.432-.572-1.462-1.546.017-3.547-1.065-7.157-.601-2.004-1.532-5.588-1.731-8.079-.424-5.299-.095-11.795.018-13.293 0 0 3.184.08 5.799 2.814 1.099 1.146 1.791 4.474 1.908 6.903.037.797.059 1.438.07 1.98.022 1.106 0 1.796-.04 2.552-.014.302-.029.614-.044.965-.016.398-.032.847-.041 1.392-.018.89.285 2.354.654 3.972.817 3.555 1.979 7.849.904 8.523z" fill="#0052FF"/><path d="M184.588 33.57c7.028 11.563 7.408 10.036 7.587 11.923.178 1.888-4.647 12.134-4.647 12.134s2.895 1.622 3.216 1.125c.321-.498 6.521-11.953 6.274-14.416-.272-2.713-7.826-13.248-8.716-14.284-.89-1.035-4.729-1.48-4.688.373a6.062 6.062 0 00.974 3.145z" fill="#0052FF"/><path opacity=".18" d="M190.836 47.82c-2.639-2.369-2.824-8.365-2.824-8.365l2.211 3c-.016.398-.033.847-.042 1.392-.017.891.283 2.354.655 3.973zm.422 1.816c-.18.838-3.453 7.443-3.453 7.443l3.184-8.603.269 1.16z" fill="#1F1F3B"/><path opacity=".18" d="M180.279 29.824c.143-.066 1.02 2.702 2.633 3.832.443.322.944.553 1.476.68 1.57.351 5.248.327 7.281.403-.412-.783-.835-.936-1.583-2.143-1.521.22-4.447.392-5.261.164a6.087 6.087 0 01-1.654-.764c-.939-.606-1.692-1.403-2.251-2.078-.285-.346-.262-.795-.658-.877-.525-.106-.166.866.017.783z" fill="#1F1F39"/><path d="M179.599 28.992a.675.675 0 01.3-.44.665.665 0 01.526-.078c.396.082.402.25.686.595.855 1.036 2.17 2.353 3.905 2.84 1.735.486 6.151-1.176 8.672-.172 2.521 1.004 2.93 3.49 6.605 4.72 3.675 1.23 7.998.301 9.08.678 1.082.377 1.717.733 1.616 1.17-.101.439-.776 1.08-1.61 1.264-.835.184-7.803-.49-9.582-1.036-2.904-.893-5.016-4.008-6.902-4.496-1.886-.487-6.094-.055-8.316-.552-2.479-.554-4.035-3.817-4.218-3.734-.184.083-.354.165-.665.03-.208-.091-.155-.54-.097-.789z" fill="#F4AD00"/></g><defs><clipPath id="clip0_166_11200"><path fill="#fff" d="M0 0h211v112H0z"/></clipPath></defs></svg>