<svg width="439" height="99" viewBox="0 0 439 99" fill="none" xmlns="http://www.w3.org/2000/svg">
<rect y="27" width="97" height="72" fill="#0E51FF"/>
<path d="M97 27L114 41V99H97V27Z" fill="#5987FF"/>
<path d="M211 41L228 55V99H211V41Z" fill="#5987FF"/>
<path d="M325 55L342 69V99H325V55Z" fill="#5987FF"/>
<rect x="114" y="41" width="97" height="58" fill="#0E51FF"/>
<rect x="228" y="55" width="97" height="44" fill="#0E51FF"/>
<rect x="342" y="69" width="97" height="30" fill="#0E51FF"/>
<path d="M7.572 12.062C7.572 13.3013 7.792 14.273 8.232 14.977C8.672 15.6737 9.40533 16.022 10.432 16.022C11.4587 16.022 12.192 15.67 12.632 14.966C13.072 14.262 13.292 13.294 13.292 12.062C13.292 10.8373 13.072 9.87667 12.632 9.18C12.192 8.476 11.4587 8.124 10.432 8.124C9.40533 8.124 8.672 8.47233 8.232 9.169C7.792 9.86567 7.572 10.83 7.572 12.062ZM12.038 12.062C12.038 12.9567 11.928 13.6423 11.708 14.119C11.488 14.5957 11.0627 14.834 10.432 14.834C9.794 14.834 9.365 14.5957 9.145 14.119C8.925 13.6423 8.815 12.9567 8.815 12.062C8.815 11.1747 8.925 10.4963 9.145 10.027C9.365 9.55767 9.794 9.323 10.432 9.323C11.0627 9.323 11.488 9.56133 11.708 10.038C11.928 10.5073 12.038 11.182 12.038 12.062ZM15.6025 14.614V16H14.1835V14.614H15.6025ZM16.5202 12.062C16.5202 13.3013 16.7402 14.273 17.1802 14.977C17.6202 15.6737 18.3536 16.022 19.3802 16.022C20.4069 16.022 21.1402 15.67 21.5802 14.966C22.0202 14.262 22.2402 13.294 22.2402 12.062C22.2402 10.8373 22.0202 9.87667 21.5802 9.18C21.1402 8.476 20.4069 8.124 19.3802 8.124C18.3536 8.124 17.6202 8.47233 17.1802 9.169C16.7402 9.86567 16.5202 10.83 16.5202 12.062ZM20.9862 12.062C20.9862 12.9567 20.8762 13.6423 20.6562 14.119C20.4362 14.5957 20.0109 14.834 19.3802 14.834C18.7422 14.834 18.3132 14.5957 18.0932 14.119C17.8732 13.6423 17.7632 12.9567 17.7632 12.062C17.7632 11.1747 17.8732 10.4963 18.0932 10.027C18.3132 9.55767 18.7422 9.323 19.3802 9.323C20.0109 9.323 20.4362 9.56133 20.6562 10.038C20.8762 10.5073 20.9862 11.182 20.9862 12.062ZM26.1018 7.992C26.6151 7.992 27.0551 8.08367 27.4218 8.267C27.7884 8.443 28.0634 8.68867 28.2468 9.004C28.4374 9.31933 28.5328 9.67133 28.5328 10.06C28.5328 10.5513 28.3934 10.962 28.1148 11.292C27.8434 11.6147 27.4584 11.809 26.9598 11.875V11.93C27.4951 12.084 27.9131 12.315 28.2138 12.623C28.5218 12.9237 28.6758 13.3417 28.6758 13.877C28.6758 14.5297 28.4594 15.0613 28.0268 15.472C27.5941 15.8753 26.9744 16.077 26.1678 16.077C25.3391 16.077 24.6718 15.868 24.1658 15.45C23.6598 15.0247 23.3701 14.3977 23.2968 13.569H24.5398C24.5838 14.009 24.7414 14.361 25.0128 14.625C25.2841 14.8817 25.6508 15.01 26.1128 15.01C26.5454 15.01 26.8754 14.8963 27.1028 14.669C27.3374 14.4417 27.4548 14.1483 27.4548 13.789C27.4548 13.3563 27.2861 13.0263 26.9488 12.799C26.6188 12.5717 26.1384 12.458 25.5078 12.458H25.2108V11.424H25.5078C26.7031 11.4387 27.3008 11.0317 27.3008 10.203C27.3008 9.84367 27.1908 9.56133 26.9708 9.356C26.7508 9.15067 26.4501 9.048 26.0688 9.048C25.6874 9.048 25.3684 9.16533 25.1118 9.4C24.8551 9.62733 24.7011 9.961 24.6498 10.401H23.4178C23.4691 9.63833 23.7258 9.048 24.1878 8.63C24.6498 8.20467 25.2878 7.992 26.1018 7.992ZM29.718 14.328V13.272L33.579 8.168H34.921V13.228H36.01V14.328H34.921V16H33.656V14.328H29.718ZM33.744 9.664L31.016 13.228H33.744V9.664ZM39.4656 12.062C39.4656 13.3013 39.6856 14.273 40.1256 14.977C40.5656 15.6737 41.2989 16.022 42.3256 16.022C43.3522 16.022 44.0856 15.67 44.5256 14.966C44.9656 14.262 45.1856 13.294 45.1856 12.062C45.1856 10.8373 44.9656 9.87667 44.5256 9.18C44.0856 8.476 43.3522 8.124 42.3256 8.124C41.2989 8.124 40.5656 8.47233 40.1256 9.169C39.6856 9.86567 39.4656 10.83 39.4656 12.062ZM43.9316 12.062C43.9316 12.9567 43.8216 13.6423 43.6016 14.119C43.3816 14.5957 42.9562 14.834 42.3256 14.834C41.6876 14.834 41.2586 14.5957 41.0386 14.119C40.8186 13.6423 40.7086 12.9567 40.7086 12.062C40.7086 11.1747 40.8186 10.4963 41.0386 10.027C41.2586 9.55767 41.6876 9.323 42.3256 9.323C42.9562 9.323 43.3816 9.56133 43.6016 10.038C43.8216 10.5073 43.9316 11.182 43.9316 12.062ZM50.0921 16L48.6071 13.855L47.3091 16H45.9121L47.9141 12.854L45.8901 9.939H47.3091L48.7611 12.029L50.0481 9.939H51.4341L49.4321 12.997L51.5111 16H50.0921ZM56.43 11.996C56.8994 12.0913 57.277 12.315 57.563 12.667C57.8564 13.019 58.003 13.4297 58.003 13.899C58.003 14.5443 57.7867 15.0577 57.354 15.439C56.9214 15.813 56.2944 16 55.473 16H52.382V8.234H55.418C56.1954 8.234 56.7894 8.41 57.2 8.762C57.618 9.10667 57.827 9.58333 57.827 10.192C57.827 10.6833 57.6987 11.083 57.442 11.391C57.1854 11.6917 56.848 11.8933 56.43 11.996ZM53.636 11.578H55.187C55.627 11.578 55.9607 11.4753 56.188 11.27C56.4227 11.0647 56.54 10.7787 56.54 10.412C56.54 10.0527 56.4227 9.77033 56.188 9.565C55.9607 9.35967 55.6124 9.257 55.143 9.257H53.636V11.578ZM55.22 14.966C55.6967 14.966 56.0634 14.8597 56.32 14.647C56.584 14.427 56.716 14.1227 56.716 13.734C56.716 13.3453 56.584 13.041 56.32 12.821C56.056 12.601 55.6857 12.491 55.209 12.491H53.636V14.966H55.22ZM62.6249 5.616L59.6329 17.936H58.4119L61.4039 5.616H62.6249ZM65.7701 9.862C66.3201 9.862 66.7894 9.99767 67.1781 10.269C67.5667 10.5403 67.8381 10.8997 67.9921 11.347V7.86H69.2571V16H67.9921V14.592C67.8381 15.0393 67.5667 15.3987 67.1781 15.67C66.7894 15.9413 66.3201 16.077 65.7701 16.077C65.2421 16.077 64.7691 15.9523 64.3511 15.703C63.9404 15.4537 63.6177 15.0943 63.3831 14.625C63.1484 14.1557 63.0311 13.602 63.0311 12.964C63.0311 12.3333 63.1484 11.7833 63.3831 11.314C63.6177 10.8447 63.9404 10.4853 64.3511 10.236C64.7691 9.98667 65.2421 9.862 65.7701 9.862ZM66.1551 10.962C65.5977 10.962 65.1504 11.1417 64.8131 11.501C64.4831 11.853 64.3181 12.3407 64.3181 12.964C64.3181 13.5873 64.4831 14.0787 64.8131 14.438C65.1504 14.79 65.5977 14.966 66.1551 14.966C66.5071 14.966 66.8224 14.8853 67.1011 14.724C67.3797 14.5553 67.5997 14.3207 67.7611 14.02C67.9224 13.7193 68.0031 13.3673 68.0031 12.964C68.0031 12.568 67.9224 12.2197 67.7611 11.919C67.5997 11.611 67.3797 11.3763 67.1011 11.215C66.8224 11.0463 66.5071 10.962 66.1551 10.962ZM73.1929 9.862C73.7429 9.862 74.2123 9.99767 74.6009 10.269C74.9896 10.5403 75.2646 10.8997 75.4259 11.347V9.939H76.6799V16H75.4259V14.592C75.2646 15.0393 74.9896 15.3987 74.6009 15.67C74.2123 15.9413 73.7429 16.077 73.1929 16.077C72.6649 16.077 72.1919 15.9523 71.7739 15.703C71.3633 15.4537 71.0406 15.0943 70.8059 14.625C70.5713 14.1557 70.4539 13.602 70.4539 12.964C70.4539 12.3333 70.5713 11.7833 70.8059 11.314C71.0406 10.8447 71.3633 10.4853 71.7739 10.236C72.1919 9.98667 72.6649 9.862 73.1929 9.862ZM73.5779 10.962C73.0206 10.962 72.5733 11.1417 72.2359 11.501C71.9059 11.853 71.7409 12.3407 71.7409 12.964C71.7409 13.5873 71.9059 14.0787 72.2359 14.438C72.5733 14.79 73.0206 14.966 73.5779 14.966C73.9299 14.966 74.2453 14.8853 74.5239 14.724C74.8026 14.5553 75.0226 14.3207 75.1839 14.02C75.3453 13.7193 75.4259 13.3673 75.4259 12.964C75.4259 12.568 75.3453 12.2197 75.1839 11.919C75.0226 11.611 74.8026 11.3763 74.5239 11.215C74.2453 11.0463 73.9299 10.962 73.5779 10.962ZM78.8998 9.939L80.7148 14.394L82.3978 9.939H83.7948L80.1318 18.882H78.7348L80.0438 15.857L77.4918 9.939H78.8998Z" fill="#2F2E41" fill-opacity="0.9"/>
<path d="M121.572 26.062C121.572 27.3013 121.792 28.273 122.232 28.977C122.672 29.6737 123.405 30.022 124.432 30.022C125.459 30.022 126.192 29.67 126.632 28.966C127.072 28.262 127.292 27.294 127.292 26.062C127.292 24.8373 127.072 23.8767 126.632 23.18C126.192 22.476 125.459 22.124 124.432 22.124C123.405 22.124 122.672 22.4723 122.232 23.169C121.792 23.8657 121.572 24.83 121.572 26.062ZM126.038 26.062C126.038 26.9567 125.928 27.6423 125.708 28.119C125.488 28.5957 125.063 28.834 124.432 28.834C123.794 28.834 123.365 28.5957 123.145 28.119C122.925 27.6423 122.815 26.9567 122.815 26.062C122.815 25.1747 122.925 24.4963 123.145 24.027C123.365 23.5577 123.794 23.323 124.432 23.323C125.063 23.323 125.488 23.5613 125.708 24.038C125.928 24.5073 126.038 25.182 126.038 26.062ZM129.603 28.614V30H128.184V28.614H129.603ZM130.52 26.062C130.52 27.3013 130.74 28.273 131.18 28.977C131.62 29.6737 132.354 30.022 133.38 30.022C134.407 30.022 135.14 29.67 135.58 28.966C136.02 28.262 136.24 27.294 136.24 26.062C136.24 24.8373 136.02 23.8767 135.58 23.18C135.14 22.476 134.407 22.124 133.38 22.124C132.354 22.124 131.62 22.4723 131.18 23.169C130.74 23.8657 130.52 24.83 130.52 26.062ZM134.986 26.062C134.986 26.9567 134.876 27.6423 134.656 28.119C134.436 28.5957 134.011 28.834 133.38 28.834C132.742 28.834 132.313 28.5957 132.093 28.119C131.873 27.6423 131.763 26.9567 131.763 26.062C131.763 25.1747 131.873 24.4963 132.093 24.027C132.313 23.5577 132.742 23.323 133.38 23.323C134.011 23.323 134.436 23.5613 134.656 24.038C134.876 24.5073 134.986 25.182 134.986 26.062ZM137.242 29.021C138.43 28.207 139.379 27.4113 140.091 26.634C140.809 25.8493 141.169 25.1233 141.169 24.456C141.169 24.06 141.07 23.7447 140.872 23.51C140.681 23.2753 140.369 23.158 139.937 23.158C139.489 23.158 139.152 23.3047 138.925 23.598C138.697 23.884 138.569 24.2947 138.54 24.83H137.319C137.37 23.9427 137.641 23.2643 138.133 22.795C138.631 22.3257 139.266 22.091 140.036 22.091C140.791 22.091 141.381 22.2927 141.807 22.696C142.239 23.092 142.456 23.642 142.456 24.346C142.456 24.9107 142.28 25.4827 141.928 26.062C141.583 26.6413 141.143 27.1767 140.608 27.668C140.072 28.152 139.519 28.57 138.947 28.922H142.632V29.945H137.242V29.021ZM143.813 24.038C143.813 23.6567 143.916 23.3083 144.121 22.993C144.326 22.6777 144.631 22.4247 145.034 22.234C145.445 22.0433 145.936 21.948 146.508 21.948C147.08 21.948 147.568 22.0433 147.971 22.234C148.382 22.4247 148.69 22.6777 148.895 22.993C149.108 23.3083 149.214 23.6567 149.214 24.038C149.214 24.4633 149.1 24.83 148.873 25.138C148.653 25.446 148.323 25.6697 147.883 25.809C148.374 25.963 148.752 26.2123 149.016 26.557C149.28 26.8943 149.412 27.3087 149.412 27.8C149.412 28.5553 149.144 29.1457 148.609 29.571C148.074 29.989 147.373 30.198 146.508 30.198C145.643 30.198 144.942 29.989 144.407 29.571C143.879 29.1457 143.615 28.5553 143.615 27.8C143.615 27.3087 143.747 26.8943 144.011 26.557C144.275 26.2123 144.653 25.963 145.144 25.809C144.704 25.6697 144.37 25.446 144.143 25.138C143.923 24.83 143.813 24.4633 143.813 24.038ZM145.056 24.236C145.056 24.632 145.184 24.94 145.441 25.16C145.705 25.3727 146.061 25.479 146.508 25.479C146.955 25.479 147.311 25.3727 147.575 25.16C147.839 24.94 147.971 24.632 147.971 24.236C147.971 23.84 147.835 23.532 147.564 23.312C147.3 23.092 146.948 22.982 146.508 22.982C146.068 22.982 145.716 23.092 145.452 23.312C145.188 23.532 145.056 23.84 145.056 24.236ZM144.836 27.734C144.836 28.1813 144.986 28.5333 145.287 28.79C145.588 29.0393 145.995 29.164 146.508 29.164C147.021 29.164 147.428 29.0393 147.729 28.79C148.03 28.5333 148.18 28.1813 148.18 27.734C148.18 27.2793 148.022 26.9383 147.707 26.711C147.399 26.4763 146.999 26.359 146.508 26.359C146.024 26.359 145.624 26.4763 145.309 26.711C144.994 26.9457 144.836 27.2867 144.836 27.734ZM153.133 26.062C153.133 27.3013 153.353 28.273 153.793 28.977C154.233 29.6737 154.966 30.022 155.993 30.022C157.019 30.022 157.753 29.67 158.193 28.966C158.633 28.262 158.853 27.294 158.853 26.062C158.853 24.8373 158.633 23.8767 158.193 23.18C157.753 22.476 157.019 22.124 155.993 22.124C154.966 22.124 154.233 22.4723 153.793 23.169C153.353 23.8657 153.133 24.83 153.133 26.062ZM157.599 26.062C157.599 26.9567 157.489 27.6423 157.269 28.119C157.049 28.5957 156.623 28.834 155.993 28.834C155.355 28.834 154.926 28.5957 154.706 28.119C154.486 27.6423 154.376 26.9567 154.376 26.062C154.376 25.1747 154.486 24.4963 154.706 24.027C154.926 23.5577 155.355 23.323 155.993 23.323C156.623 23.323 157.049 23.5613 157.269 24.038C157.489 24.5073 157.599 25.182 157.599 26.062ZM163.759 30L162.274 27.855L160.976 30H159.579L161.581 26.854L159.557 23.939H160.976L162.428 26.029L163.715 23.939H165.101L163.099 26.997L165.178 30H163.759ZM170.097 25.996C170.566 26.0913 170.944 26.315 171.23 26.667C171.523 27.019 171.67 27.4297 171.67 27.899C171.67 28.5443 171.454 29.0577 171.021 29.439C170.588 29.813 169.961 30 169.14 30H166.049V22.234H169.085C169.862 22.234 170.456 22.41 170.867 22.762C171.285 23.1067 171.494 23.5833 171.494 24.192C171.494 24.6833 171.366 25.083 171.109 25.391C170.852 25.6917 170.515 25.8933 170.097 25.996ZM167.303 25.578H168.854C169.294 25.578 169.628 25.4753 169.855 25.27C170.09 25.0647 170.207 24.7787 170.207 24.412C170.207 24.0527 170.09 23.7703 169.855 23.565C169.628 23.3597 169.279 23.257 168.81 23.257H167.303V25.578ZM168.887 28.966C169.364 28.966 169.73 28.8597 169.987 28.647C170.251 28.427 170.383 28.1227 170.383 27.734C170.383 27.3453 170.251 27.041 169.987 26.821C169.723 26.601 169.353 26.491 168.876 26.491H167.303V28.966H168.887ZM176.292 19.616L173.3 31.936H172.079L175.071 19.616H176.292ZM179.437 23.862C179.987 23.862 180.456 23.9977 180.845 24.269C181.234 24.5403 181.505 24.8997 181.659 25.347V21.86H182.924V30H181.659V28.592C181.505 29.0393 181.234 29.3987 180.845 29.67C180.456 29.9413 179.987 30.077 179.437 30.077C178.909 30.077 178.436 29.9523 178.018 29.703C177.607 29.4537 177.285 29.0943 177.05 28.625C176.815 28.1557 176.698 27.602 176.698 26.964C176.698 26.3333 176.815 25.7833 177.05 25.314C177.285 24.8447 177.607 24.4853 178.018 24.236C178.436 23.9867 178.909 23.862 179.437 23.862ZM179.822 24.962C179.265 24.962 178.817 25.1417 178.48 25.501C178.15 25.853 177.985 26.3407 177.985 26.964C177.985 27.5873 178.15 28.0787 178.48 28.438C178.817 28.79 179.265 28.966 179.822 28.966C180.174 28.966 180.489 28.8853 180.768 28.724C181.047 28.5553 181.267 28.3207 181.428 28.02C181.589 27.7193 181.67 27.3673 181.67 26.964C181.67 26.568 181.589 26.2197 181.428 25.919C181.267 25.611 181.047 25.3763 180.768 25.215C180.489 25.0463 180.174 24.962 179.822 24.962ZM186.86 23.862C187.41 23.862 187.879 23.9977 188.268 24.269C188.657 24.5403 188.932 24.8997 189.093 25.347V23.939H190.347V30H189.093V28.592C188.932 29.0393 188.657 29.3987 188.268 29.67C187.879 29.9413 187.41 30.077 186.86 30.077C186.332 30.077 185.859 29.9523 185.441 29.703C185.03 29.4537 184.708 29.0943 184.473 28.625C184.238 28.1557 184.121 27.602 184.121 26.964C184.121 26.3333 184.238 25.7833 184.473 25.314C184.708 24.8447 185.03 24.4853 185.441 24.236C185.859 23.9867 186.332 23.862 186.86 23.862ZM187.245 24.962C186.688 24.962 186.24 25.1417 185.903 25.501C185.573 25.853 185.408 26.3407 185.408 26.964C185.408 27.5873 185.573 28.0787 185.903 28.438C186.24 28.79 186.688 28.966 187.245 28.966C187.597 28.966 187.912 28.8853 188.191 28.724C188.47 28.5553 188.69 28.3207 188.851 28.02C189.012 27.7193 189.093 27.3673 189.093 26.964C189.093 26.568 189.012 26.2197 188.851 25.919C188.69 25.611 188.47 25.3763 188.191 25.215C187.912 25.0463 187.597 24.962 187.245 24.962ZM192.567 23.939L194.382 28.394L196.065 23.939H197.462L193.799 32.882H192.402L193.711 29.857L191.159 23.939H192.567Z" fill="#2F2E41" fill-opacity="0.9"/>
<path d="M121.57 8.43C121.57 9.56333 121.757 10.4467 122.13 11.08C122.503 11.7133 123.15 12.03 124.07 12.03C124.99 12.03 125.637 11.7133 126.01 11.08C126.39 10.4467 126.58 9.56333 126.58 8.43C126.58 7.31 126.39 6.43333 126.01 5.8C125.637 5.16667 124.99 4.85 124.07 4.85C123.15 4.85 122.503 5.16667 122.13 5.8C121.757 6.42667 121.57 7.30333 121.57 8.43ZM125.68 8.43C125.68 9.01 125.637 9.49667 125.55 9.89C125.47 10.2767 125.313 10.5867 125.08 10.82C124.847 11.0533 124.51 11.17 124.07 11.17C123.637 11.17 123.303 11.0533 123.07 10.82C122.837 10.5867 122.677 10.2767 122.59 9.89C122.51 9.49667 122.47 9.01 122.47 8.43C122.47 7.85667 122.51 7.37667 122.59 6.99C122.677 6.60333 122.837 6.29667 123.07 6.07C123.303 5.83667 123.637 5.72 124.07 5.72C124.51 5.72 124.847 5.83667 125.08 6.07C125.313 6.29667 125.47 6.60333 125.55 6.99C125.637 7.37667 125.68 7.85667 125.68 8.43ZM128.543 10.93V12H127.443V10.93H128.543ZM129.422 8.43C129.422 9.56333 129.608 10.4467 129.982 11.08C130.355 11.7133 131.002 12.03 131.922 12.03C132.842 12.03 133.488 11.7133 133.862 11.08C134.242 10.4467 134.432 9.56333 134.432 8.43C134.432 7.31 134.242 6.43333 133.862 5.8C133.488 5.16667 132.842 4.85 131.922 4.85C131.002 4.85 130.355 5.16667 129.982 5.8C129.608 6.42667 129.422 7.30333 129.422 8.43ZM133.532 8.43C133.532 9.01 133.488 9.49667 133.402 9.89C133.322 10.2767 133.165 10.5867 132.932 10.82C132.698 11.0533 132.362 11.17 131.922 11.17C131.488 11.17 131.155 11.0533 130.922 10.82C130.688 10.5867 130.528 10.2767 130.442 9.89C130.362 9.49667 130.322 9.01 130.322 8.43C130.322 7.85667 130.362 7.37667 130.442 6.99C130.528 6.60333 130.688 6.29667 130.922 6.07C131.155 5.83667 131.488 5.72 131.922 5.72C132.362 5.72 132.698 5.83667 132.932 6.07C133.165 6.29667 133.322 6.60333 133.402 6.99C133.488 7.37667 133.532 7.85667 133.532 8.43ZM137.984 4.76C138.437 4.76 138.827 4.84 139.154 5C139.481 5.16 139.727 5.38 139.894 5.66C140.061 5.94 140.144 6.25667 140.144 6.61C140.144 7.05 140.014 7.42 139.754 7.72C139.501 8.02 139.127 8.2 138.634 8.26V8.32C139.147 8.45333 139.547 8.66 139.834 8.94C140.127 9.22 140.274 9.60667 140.274 10.1C140.274 10.68 140.081 11.1533 139.694 11.52C139.307 11.8867 138.751 12.07 138.024 12.07C137.297 12.07 136.707 11.8833 136.254 11.51C135.807 11.13 135.544 10.5767 135.464 9.85H136.364C136.424 10.29 136.591 10.64 136.864 10.9C137.144 11.16 137.521 11.29 137.994 11.29C138.441 11.29 138.784 11.1767 139.024 10.95C139.264 10.7167 139.384 10.4167 139.384 10.05C139.384 9.61 139.211 9.27667 138.864 9.05C138.524 8.81667 138.037 8.7 137.404 8.7H137.164V7.94H137.404C138.631 7.94 139.244 7.53 139.244 6.71C139.244 6.35 139.131 6.06333 138.904 5.85C138.677 5.63667 138.364 5.53 137.964 5.53C137.564 5.53 137.227 5.64667 136.954 5.88C136.681 6.10667 136.521 6.44333 136.474 6.89H135.584C135.631 6.22333 135.861 5.70333 136.274 5.33C136.694 4.95 137.264 4.76 137.984 4.76ZM141.193 10.38V9.62L144.813 4.9H145.793V9.59H146.833V10.38H145.793V12H144.873V10.38H141.193ZM144.933 6.01L142.153 9.59H144.933V6.01ZM150.934 7.95V8.72H146.934V7.95H150.934ZM152.126 5.8V4.95H154.146V12H153.186V5.8H152.126ZM160.187 5.67H156.567V8.03C156.734 7.80333 156.974 7.62333 157.287 7.49C157.601 7.35667 157.944 7.29 158.317 7.29C158.817 7.29 159.231 7.39667 159.557 7.61C159.891 7.81667 160.134 8.09333 160.287 8.44C160.447 8.78 160.527 9.16 160.527 9.58C160.527 10.3067 160.324 10.9 159.917 11.36C159.511 11.82 158.914 12.05 158.127 12.05C157.421 12.05 156.844 11.86 156.397 11.48C155.951 11.0933 155.701 10.5767 155.647 9.93H156.547C156.621 10.3433 156.791 10.6667 157.057 10.9C157.331 11.1267 157.674 11.24 158.087 11.24C158.601 11.24 158.987 11.0867 159.247 10.78C159.507 10.4733 159.637 10.07 159.637 9.57C159.637 9.08333 159.504 8.70333 159.237 8.43C158.971 8.15667 158.594 8.02 158.107 8.02C157.761 8.02 157.457 8.09667 157.197 8.25C156.937 8.39667 156.741 8.59667 156.607 8.85H155.727V4.86H160.187V5.67ZM162.819 4.85C163.239 4.85 163.586 4.98667 163.859 5.26C164.139 5.52667 164.279 5.88333 164.279 6.33C164.279 6.77667 164.143 7.13333 163.869 7.4C163.596 7.66667 163.246 7.8 162.819 7.8C162.393 7.8 162.043 7.66667 161.769 7.4C161.496 7.13333 161.359 6.77667 161.359 6.33C161.359 5.88333 161.496 5.52667 161.769 5.26C162.043 4.98667 162.393 4.85 162.819 4.85ZM166.799 4.94L162.749 12H161.849L165.899 4.94H166.799ZM161.999 6.33C161.999 6.59667 162.073 6.81333 162.219 6.98C162.373 7.14667 162.569 7.23 162.809 7.23C163.056 7.23 163.256 7.14667 163.409 6.98C163.563 6.81333 163.639 6.59667 163.639 6.33C163.639 6.06333 163.563 5.84667 163.409 5.68C163.256 5.51333 163.056 5.43 162.809 5.43C162.569 5.43 162.373 5.51333 162.219 5.68C162.073 5.84667 161.999 6.06333 161.999 6.33ZM165.839 9.14C166.266 9.14 166.613 9.27333 166.879 9.54C167.153 9.80667 167.289 10.1633 167.289 10.61C167.289 11.0567 167.153 11.4167 166.879 11.69C166.613 11.9567 166.266 12.09 165.839 12.09C165.419 12.09 165.069 11.9567 164.789 11.69C164.516 11.4167 164.379 11.0567 164.379 10.61C164.379 10.1633 164.516 9.80667 164.789 9.54C165.063 9.27333 165.413 9.14 165.839 9.14ZM165.019 10.61C165.019 10.8767 165.093 11.0933 165.239 11.26C165.393 11.4267 165.593 11.51 165.839 11.51C166.079 11.51 166.273 11.4267 166.419 11.26C166.573 11.0933 166.649 10.8767 166.649 10.61C166.649 10.3433 166.573 10.1267 166.419 9.96C166.273 9.79333 166.079 9.71 165.839 9.71C165.593 9.71 165.393 9.79333 165.239 9.96C165.093 10.1267 165.019 10.3433 165.019 10.61ZM173.151 6.86V7.69H167.951V6.86H173.151ZM173.151 8.99V9.82H167.951V8.99H173.151Z" fill="#2F2E41" fill-opacity="0.7"/>
<path d="M238.57 22.43C238.57 23.5633 238.757 24.4467 239.13 25.08C239.503 25.7133 240.15 26.03 241.07 26.03C241.99 26.03 242.637 25.7133 243.01 25.08C243.39 24.4467 243.58 23.5633 243.58 22.43C243.58 21.31 243.39 20.4333 243.01 19.8C242.637 19.1667 241.99 18.85 241.07 18.85C240.15 18.85 239.503 19.1667 239.13 19.8C238.757 20.4267 238.57 21.3033 238.57 22.43ZM242.68 22.43C242.68 23.01 242.637 23.4967 242.55 23.89C242.47 24.2767 242.313 24.5867 242.08 24.82C241.847 25.0533 241.51 25.17 241.07 25.17C240.637 25.17 240.303 25.0533 240.07 24.82C239.837 24.5867 239.677 24.2767 239.59 23.89C239.51 23.4967 239.47 23.01 239.47 22.43C239.47 21.8567 239.51 21.3767 239.59 20.99C239.677 20.6033 239.837 20.2967 240.07 20.07C240.303 19.8367 240.637 19.72 241.07 19.72C241.51 19.72 241.847 19.8367 242.08 20.07C242.313 20.2967 242.47 20.6033 242.55 20.99C242.637 21.3767 242.68 21.8567 242.68 22.43ZM245.543 24.93V26H244.443V24.93H245.543ZM246.422 22.43C246.422 23.5633 246.608 24.4467 246.982 25.08C247.355 25.7133 248.002 26.03 248.922 26.03C249.842 26.03 250.488 25.7133 250.862 25.08C251.242 24.4467 251.432 23.5633 251.432 22.43C251.432 21.31 251.242 20.4333 250.862 19.8C250.488 19.1667 249.842 18.85 248.922 18.85C248.002 18.85 247.355 19.1667 246.982 19.8C246.608 20.4267 246.422 21.3033 246.422 22.43ZM250.532 22.43C250.532 23.01 250.488 23.4967 250.402 23.89C250.322 24.2767 250.165 24.5867 249.932 24.82C249.698 25.0533 249.362 25.17 248.922 25.17C248.488 25.17 248.155 25.0533 247.922 24.82C247.688 24.5867 247.528 24.2767 247.442 23.89C247.362 23.4967 247.322 23.01 247.322 22.43C247.322 21.8567 247.362 21.3767 247.442 20.99C247.528 20.6033 247.688 20.2967 247.922 20.07C248.155 19.8367 248.488 19.72 248.922 19.72C249.362 19.72 249.698 19.8367 249.932 20.07C250.165 20.2967 250.322 20.6033 250.402 20.99C250.488 21.3767 250.532 21.8567 250.532 22.43ZM252.414 25.3C253.547 24.54 254.454 23.7867 255.134 23.04C255.814 22.2867 256.154 21.5867 256.154 20.94C256.154 20.54 256.051 20.22 255.844 19.98C255.644 19.7333 255.317 19.61 254.864 19.61C254.397 19.61 254.044 19.76 253.804 20.06C253.564 20.3533 253.431 20.76 253.404 21.28H252.504C252.551 20.4933 252.794 19.89 253.234 19.47C253.674 19.0433 254.241 18.83 254.934 18.83C255.594 18.83 256.117 19.0067 256.504 19.36C256.891 19.7133 257.084 20.2133 257.084 20.86C257.084 21.3933 256.911 21.9367 256.564 22.49C256.224 23.0367 255.794 23.5467 255.274 24.02C254.761 24.4867 254.231 24.8833 253.684 25.21H257.264V25.96H252.414V25.3ZM258.378 20.61C258.378 20.2633 258.471 19.9467 258.658 19.66C258.845 19.3733 259.121 19.1467 259.488 18.98C259.855 18.8133 260.291 18.73 260.798 18.73C261.305 18.73 261.738 18.8133 262.098 18.98C262.465 19.1467 262.741 19.3733 262.928 19.66C263.115 19.9467 263.208 20.2633 263.208 20.61C263.208 21.0033 263.101 21.3433 262.888 21.63C262.675 21.9167 262.351 22.12 261.918 22.24C262.385 22.3667 262.748 22.5867 263.008 22.9C263.268 23.2133 263.398 23.6 263.398 24.06C263.398 24.7267 263.161 25.25 262.688 25.63C262.215 26.01 261.585 26.2 260.798 26.2C260.011 26.2 259.381 26.01 258.908 25.63C258.435 25.25 258.198 24.7267 258.198 24.06C258.198 23.6 258.325 23.2133 258.578 22.9C258.838 22.5867 259.201 22.3667 259.668 22.24C259.235 22.12 258.911 21.9167 258.698 21.63C258.485 21.3433 258.378 21.0033 258.378 20.61ZM259.278 20.74C259.278 21.14 259.415 21.45 259.688 21.67C259.961 21.8833 260.331 21.99 260.798 21.99C261.265 21.99 261.631 21.8833 261.898 21.67C262.171 21.45 262.308 21.14 262.308 20.74C262.308 20.34 262.171 20.0333 261.898 19.82C261.625 19.6 261.258 19.49 260.798 19.49C260.338 19.49 259.968 19.6 259.688 19.82C259.415 20.0333 259.278 20.34 259.278 20.74ZM259.088 24.01C259.088 24.4633 259.241 24.8167 259.548 25.07C259.855 25.3167 260.271 25.44 260.798 25.44C261.318 25.44 261.731 25.3133 262.038 25.06C262.345 24.8067 262.498 24.4567 262.498 24.01C262.498 23.5567 262.338 23.2133 262.018 22.98C261.698 22.7467 261.291 22.63 260.798 22.63C260.298 22.63 259.888 22.7467 259.568 22.98C259.248 23.2133 259.088 23.5567 259.088 24.01ZM267.768 21.95V22.72H263.768V21.95H267.768ZM268.96 19.8V18.95H270.98V26H270.02V19.8H268.96ZM277.021 19.67H273.401V22.03C273.568 21.8033 273.808 21.6233 274.121 21.49C274.435 21.3567 274.778 21.29 275.151 21.29C275.651 21.29 276.065 21.3967 276.391 21.61C276.725 21.8167 276.968 22.0933 277.121 22.44C277.281 22.78 277.361 23.16 277.361 23.58C277.361 24.3067 277.158 24.9 276.751 25.36C276.345 25.82 275.748 26.05 274.961 26.05C274.255 26.05 273.678 25.86 273.231 25.48C272.785 25.0933 272.535 24.5767 272.481 23.93H273.381C273.455 24.3433 273.625 24.6667 273.891 24.9C274.165 25.1267 274.508 25.24 274.921 25.24C275.435 25.24 275.821 25.0867 276.081 24.78C276.341 24.4733 276.471 24.07 276.471 23.57C276.471 23.0833 276.338 22.7033 276.071 22.43C275.805 22.1567 275.428 22.02 274.941 22.02C274.595 22.02 274.291 22.0967 274.031 22.25C273.771 22.3967 273.575 22.5967 273.441 22.85H272.561V18.86H277.021V19.67ZM279.653 18.85C280.073 18.85 280.42 18.9867 280.693 19.26C280.973 19.5267 281.113 19.8833 281.113 20.33C281.113 20.7767 280.977 21.1333 280.703 21.4C280.43 21.6667 280.08 21.8 279.653 21.8C279.227 21.8 278.877 21.6667 278.603 21.4C278.33 21.1333 278.193 20.7767 278.193 20.33C278.193 19.8833 278.33 19.5267 278.603 19.26C278.877 18.9867 279.227 18.85 279.653 18.85ZM283.633 18.94L279.583 26H278.683L282.733 18.94H283.633ZM278.833 20.33C278.833 20.5967 278.907 20.8133 279.053 20.98C279.207 21.1467 279.403 21.23 279.643 21.23C279.89 21.23 280.09 21.1467 280.243 20.98C280.397 20.8133 280.473 20.5967 280.473 20.33C280.473 20.0633 280.397 19.8467 280.243 19.68C280.09 19.5133 279.89 19.43 279.643 19.43C279.403 19.43 279.207 19.5133 279.053 19.68C278.907 19.8467 278.833 20.0633 278.833 20.33ZM282.673 23.14C283.1 23.14 283.447 23.2733 283.713 23.54C283.987 23.8067 284.123 24.1633 284.123 24.61C284.123 25.0567 283.987 25.4167 283.713 25.69C283.447 25.9567 283.1 26.09 282.673 26.09C282.253 26.09 281.903 25.9567 281.623 25.69C281.35 25.4167 281.213 25.0567 281.213 24.61C281.213 24.1633 281.35 23.8067 281.623 23.54C281.897 23.2733 282.247 23.14 282.673 23.14ZM281.853 24.61C281.853 24.8767 281.927 25.0933 282.073 25.26C282.227 25.4267 282.427 25.51 282.673 25.51C282.913 25.51 283.107 25.4267 283.253 25.26C283.407 25.0933 283.483 24.8767 283.483 24.61C283.483 24.3433 283.407 24.1267 283.253 23.96C283.107 23.7933 282.913 23.71 282.673 23.71C282.427 23.71 282.227 23.7933 282.073 23.96C281.927 24.1267 281.853 24.3433 281.853 24.61ZM289.985 20.86V21.69H284.785V20.86H289.985ZM289.985 22.99V23.82H284.785V22.99H289.985Z" fill="#2F2E41" fill-opacity="0.7"/>
<path d="M238.572 40.062C238.572 41.3013 238.792 42.273 239.232 42.977C239.672 43.6737 240.405 44.022 241.432 44.022C242.459 44.022 243.192 43.67 243.632 42.966C244.072 42.262 244.292 41.294 244.292 40.062C244.292 38.8373 244.072 37.8767 243.632 37.18C243.192 36.476 242.459 36.124 241.432 36.124C240.405 36.124 239.672 36.4723 239.232 37.169C238.792 37.8657 238.572 38.83 238.572 40.062ZM243.038 40.062C243.038 40.9567 242.928 41.6423 242.708 42.119C242.488 42.5957 242.063 42.834 241.432 42.834C240.794 42.834 240.365 42.5957 240.145 42.119C239.925 41.6423 239.815 40.9567 239.815 40.062C239.815 39.1747 239.925 38.4963 240.145 38.027C240.365 37.5577 240.794 37.323 241.432 37.323C242.063 37.323 242.488 37.5613 242.708 38.038C242.928 38.5073 243.038 39.182 243.038 40.062ZM246.603 42.614V44H245.184V42.614H246.603ZM247.52 40.062C247.52 41.3013 247.74 42.273 248.18 42.977C248.62 43.6737 249.354 44.022 250.38 44.022C251.407 44.022 252.14 43.67 252.58 42.966C253.02 42.262 253.24 41.294 253.24 40.062C253.24 38.8373 253.02 37.8767 252.58 37.18C252.14 36.476 251.407 36.124 250.38 36.124C249.354 36.124 248.62 36.4723 248.18 37.169C247.74 37.8657 247.52 38.83 247.52 40.062ZM251.986 40.062C251.986 40.9567 251.876 41.6423 251.656 42.119C251.436 42.5957 251.011 42.834 250.38 42.834C249.742 42.834 249.313 42.5957 249.093 42.119C248.873 41.6423 248.763 40.9567 248.763 40.062C248.763 39.1747 248.873 38.4963 249.093 38.027C249.313 37.5577 249.742 37.323 250.38 37.323C251.011 37.323 251.436 37.5613 251.656 38.038C251.876 38.5073 251.986 39.182 251.986 40.062ZM254.242 43.021C255.43 42.207 256.379 41.4113 257.091 40.634C257.809 39.8493 258.169 39.1233 258.169 38.456C258.169 38.06 258.07 37.7447 257.872 37.51C257.681 37.2753 257.369 37.158 256.937 37.158C256.489 37.158 256.152 37.3047 255.925 37.598C255.697 37.884 255.569 38.2947 255.54 38.83H254.319C254.37 37.9427 254.641 37.2643 255.133 36.795C255.631 36.3257 256.266 36.091 257.036 36.091C257.791 36.091 258.381 36.2927 258.807 36.696C259.239 37.092 259.456 37.642 259.456 38.346C259.456 38.9107 259.28 39.4827 258.928 40.062C258.583 40.6413 258.143 41.1767 257.608 41.668C257.072 42.152 256.519 42.57 255.947 42.922H259.632V43.945H254.242V43.021ZM260.428 42.328V41.272L264.289 36.168H265.631V41.228H266.72V42.328H265.631V44H264.366V42.328H260.428ZM264.454 37.664L261.726 41.228H264.454V37.664ZM270.176 40.062C270.176 41.3013 270.396 42.273 270.836 42.977C271.276 43.6737 272.009 44.022 273.036 44.022C274.062 44.022 274.796 43.67 275.236 42.966C275.676 42.262 275.896 41.294 275.896 40.062C275.896 38.8373 275.676 37.8767 275.236 37.18C274.796 36.476 274.062 36.124 273.036 36.124C272.009 36.124 271.276 36.4723 270.836 37.169C270.396 37.8657 270.176 38.83 270.176 40.062ZM274.642 40.062C274.642 40.9567 274.532 41.6423 274.312 42.119C274.092 42.5957 273.666 42.834 273.036 42.834C272.398 42.834 271.969 42.5957 271.749 42.119C271.529 41.6423 271.419 40.9567 271.419 40.062C271.419 39.1747 271.529 38.4963 271.749 38.027C271.969 37.5577 272.398 37.323 273.036 37.323C273.666 37.323 274.092 37.5613 274.312 38.038C274.532 38.5073 274.642 39.182 274.642 40.062ZM280.802 44L279.317 41.855L278.019 44H276.622L278.624 40.854L276.6 37.939H278.019L279.471 40.029L280.758 37.939H282.144L280.142 40.997L282.221 44H280.802ZM287.14 39.996C287.609 40.0913 287.987 40.315 288.273 40.667C288.566 41.019 288.713 41.4297 288.713 41.899C288.713 42.5443 288.497 43.0577 288.064 43.439C287.631 43.813 287.004 44 286.183 44H283.092V36.234H286.128C286.905 36.234 287.499 36.41 287.91 36.762C288.328 37.1067 288.537 37.5833 288.537 38.192C288.537 38.6833 288.409 39.083 288.152 39.391C287.895 39.6917 287.558 39.8933 287.14 39.996ZM284.346 39.578H285.897C286.337 39.578 286.671 39.4753 286.898 39.27C287.133 39.0647 287.25 38.7787 287.25 38.412C287.25 38.0527 287.133 37.7703 286.898 37.565C286.671 37.3597 286.322 37.257 285.853 37.257H284.346V39.578ZM285.93 42.966C286.407 42.966 286.773 42.8597 287.03 42.647C287.294 42.427 287.426 42.1227 287.426 41.734C287.426 41.3453 287.294 41.041 287.03 40.821C286.766 40.601 286.396 40.491 285.919 40.491H284.346V42.966H285.93ZM293.335 33.616L290.343 45.936H289.122L292.114 33.616H293.335ZM296.48 37.862C297.03 37.862 297.499 37.9977 297.888 38.269C298.277 38.5403 298.548 38.8997 298.702 39.347V35.86H299.967V44H298.702V42.592C298.548 43.0393 298.277 43.3987 297.888 43.67C297.499 43.9413 297.03 44.077 296.48 44.077C295.952 44.077 295.479 43.9523 295.061 43.703C294.65 43.4537 294.328 43.0943 294.093 42.625C293.858 42.1557 293.741 41.602 293.741 40.964C293.741 40.3333 293.858 39.7833 294.093 39.314C294.328 38.8447 294.65 38.4853 295.061 38.236C295.479 37.9867 295.952 37.862 296.48 37.862ZM296.865 38.962C296.308 38.962 295.86 39.1417 295.523 39.501C295.193 39.853 295.028 40.3407 295.028 40.964C295.028 41.5873 295.193 42.0787 295.523 42.438C295.86 42.79 296.308 42.966 296.865 42.966C297.217 42.966 297.532 42.8853 297.811 42.724C298.09 42.5553 298.31 42.3207 298.471 42.02C298.632 41.7193 298.713 41.3673 298.713 40.964C298.713 40.568 298.632 40.2197 298.471 39.919C298.31 39.611 298.09 39.3763 297.811 39.215C297.532 39.0463 297.217 38.962 296.865 38.962ZM303.903 37.862C304.453 37.862 304.922 37.9977 305.311 38.269C305.7 38.5403 305.975 38.8997 306.136 39.347V37.939H307.39V44H306.136V42.592C305.975 43.0393 305.7 43.3987 305.311 43.67C304.922 43.9413 304.453 44.077 303.903 44.077C303.375 44.077 302.902 43.9523 302.484 43.703C302.073 43.4537 301.751 43.0943 301.516 42.625C301.281 42.1557 301.164 41.602 301.164 40.964C301.164 40.3333 301.281 39.7833 301.516 39.314C301.751 38.8447 302.073 38.4853 302.484 38.236C302.902 37.9867 303.375 37.862 303.903 37.862ZM304.288 38.962C303.731 38.962 303.283 39.1417 302.946 39.501C302.616 39.853 302.451 40.3407 302.451 40.964C302.451 41.5873 302.616 42.0787 302.946 42.438C303.283 42.79 303.731 42.966 304.288 42.966C304.64 42.966 304.955 42.8853 305.234 42.724C305.513 42.5553 305.733 42.3207 305.894 42.02C306.055 41.7193 306.136 41.3673 306.136 40.964C306.136 40.568 306.055 40.2197 305.894 39.919C305.733 39.611 305.513 39.3763 305.234 39.215C304.955 39.0463 304.64 38.962 304.288 38.962ZM309.61 37.939L311.425 42.394L313.108 37.939H314.505L310.842 46.882H309.445L310.754 43.857L308.202 37.939H309.61Z" fill="#2F2E41" fill-opacity="0.9"/>
<path d="M348.57 36.43C348.57 37.5633 348.757 38.4467 349.13 39.08C349.503 39.7133 350.15 40.03 351.07 40.03C351.99 40.03 352.637 39.7133 353.01 39.08C353.39 38.4467 353.58 37.5633 353.58 36.43C353.58 35.31 353.39 34.4333 353.01 33.8C352.637 33.1667 351.99 32.85 351.07 32.85C350.15 32.85 349.503 33.1667 349.13 33.8C348.757 34.4267 348.57 35.3033 348.57 36.43ZM352.68 36.43C352.68 37.01 352.637 37.4967 352.55 37.89C352.47 38.2767 352.313 38.5867 352.08 38.82C351.847 39.0533 351.51 39.17 351.07 39.17C350.637 39.17 350.303 39.0533 350.07 38.82C349.837 38.5867 349.677 38.2767 349.59 37.89C349.51 37.4967 349.47 37.01 349.47 36.43C349.47 35.8567 349.51 35.3767 349.59 34.99C349.677 34.6033 349.837 34.2967 350.07 34.07C350.303 33.8367 350.637 33.72 351.07 33.72C351.51 33.72 351.847 33.8367 352.08 34.07C352.313 34.2967 352.47 34.6033 352.55 34.99C352.637 35.3767 352.68 35.8567 352.68 36.43ZM355.543 38.93V40H354.443V38.93H355.543ZM356.422 36.43C356.422 37.5633 356.608 38.4467 356.982 39.08C357.355 39.7133 358.002 40.03 358.922 40.03C359.842 40.03 360.488 39.7133 360.862 39.08C361.242 38.4467 361.432 37.5633 361.432 36.43C361.432 35.31 361.242 34.4333 360.862 33.8C360.488 33.1667 359.842 32.85 358.922 32.85C358.002 32.85 357.355 33.1667 356.982 33.8C356.608 34.4267 356.422 35.3033 356.422 36.43ZM360.532 36.43C360.532 37.01 360.488 37.4967 360.402 37.89C360.322 38.2767 360.165 38.5867 359.932 38.82C359.698 39.0533 359.362 39.17 358.922 39.17C358.488 39.17 358.155 39.0533 357.922 38.82C357.688 38.5867 357.528 38.2767 357.442 37.89C357.362 37.4967 357.322 37.01 357.322 36.43C357.322 35.8567 357.362 35.3767 357.442 34.99C357.528 34.6033 357.688 34.2967 357.922 34.07C358.155 33.8367 358.488 33.72 358.922 33.72C359.362 33.72 359.698 33.8367 359.932 34.07C360.165 34.2967 360.322 34.6033 360.402 34.99C360.488 35.3767 360.532 35.8567 360.532 36.43ZM362.414 39.3C363.547 38.54 364.454 37.7867 365.134 37.04C365.814 36.2867 366.154 35.5867 366.154 34.94C366.154 34.54 366.051 34.22 365.844 33.98C365.644 33.7333 365.317 33.61 364.864 33.61C364.397 33.61 364.044 33.76 363.804 34.06C363.564 34.3533 363.431 34.76 363.404 35.28H362.504C362.551 34.4933 362.794 33.89 363.234 33.47C363.674 33.0433 364.241 32.83 364.934 32.83C365.594 32.83 366.117 33.0067 366.504 33.36C366.891 33.7133 367.084 34.2133 367.084 34.86C367.084 35.3933 366.911 35.9367 366.564 36.49C366.224 37.0367 365.794 37.5467 365.274 38.02C364.761 38.4867 364.231 38.8833 363.684 39.21H367.264V39.96H362.414V39.3ZM367.978 38.38V37.62L371.598 32.9H372.578V37.59H373.618V38.38H372.578V40H371.658V38.38H367.978ZM371.718 34.01L368.938 37.59H371.718V34.01ZM377.719 35.95V36.72H373.719V35.95H377.719ZM378.911 33.8V32.95H380.931V40H379.971V33.8H378.911ZM386.972 33.67H383.352V36.03C383.519 35.8033 383.759 35.6233 384.072 35.49C384.386 35.3567 384.729 35.29 385.102 35.29C385.602 35.29 386.016 35.3967 386.342 35.61C386.676 35.8167 386.919 36.0933 387.072 36.44C387.232 36.78 387.312 37.16 387.312 37.58C387.312 38.3067 387.109 38.9 386.702 39.36C386.296 39.82 385.699 40.05 384.912 40.05C384.206 40.05 383.629 39.86 383.182 39.48C382.736 39.0933 382.486 38.5767 382.432 37.93H383.332C383.406 38.3433 383.576 38.6667 383.842 38.9C384.116 39.1267 384.459 39.24 384.872 39.24C385.386 39.24 385.772 39.0867 386.032 38.78C386.292 38.4733 386.422 38.07 386.422 37.57C386.422 37.0833 386.289 36.7033 386.022 36.43C385.756 36.1567 385.379 36.02 384.892 36.02C384.546 36.02 384.242 36.0967 383.982 36.25C383.722 36.3967 383.526 36.5967 383.392 36.85H382.512V32.86H386.972V33.67ZM389.604 32.85C390.024 32.85 390.371 32.9867 390.644 33.26C390.924 33.5267 391.064 33.8833 391.064 34.33C391.064 34.7767 390.928 35.1333 390.654 35.4C390.381 35.6667 390.031 35.8 389.604 35.8C389.178 35.8 388.828 35.6667 388.554 35.4C388.281 35.1333 388.144 34.7767 388.144 34.33C388.144 33.8833 388.281 33.5267 388.554 33.26C388.828 32.9867 389.178 32.85 389.604 32.85ZM393.584 32.94L389.534 40H388.634L392.684 32.94H393.584ZM388.784 34.33C388.784 34.5967 388.858 34.8133 389.004 34.98C389.158 35.1467 389.354 35.23 389.594 35.23C389.841 35.23 390.041 35.1467 390.194 34.98C390.348 34.8133 390.424 34.5967 390.424 34.33C390.424 34.0633 390.348 33.8467 390.194 33.68C390.041 33.5133 389.841 33.43 389.594 33.43C389.354 33.43 389.158 33.5133 389.004 33.68C388.858 33.8467 388.784 34.0633 388.784 34.33ZM392.624 37.14C393.051 37.14 393.398 37.2733 393.664 37.54C393.938 37.8067 394.074 38.1633 394.074 38.61C394.074 39.0567 393.938 39.4167 393.664 39.69C393.398 39.9567 393.051 40.09 392.624 40.09C392.204 40.09 391.854 39.9567 391.574 39.69C391.301 39.4167 391.164 39.0567 391.164 38.61C391.164 38.1633 391.301 37.8067 391.574 37.54C391.848 37.2733 392.198 37.14 392.624 37.14ZM391.804 38.61C391.804 38.8767 391.878 39.0933 392.024 39.26C392.178 39.4267 392.378 39.51 392.624 39.51C392.864 39.51 393.058 39.4267 393.204 39.26C393.358 39.0933 393.434 38.8767 393.434 38.61C393.434 38.3433 393.358 38.1267 393.204 37.96C393.058 37.7933 392.864 37.71 392.624 37.71C392.378 37.71 392.178 37.7933 392.024 37.96C391.878 38.1267 391.804 38.3433 391.804 38.61ZM399.936 34.86V35.69H394.736V34.86H399.936ZM399.936 36.99V37.82H394.736V36.99H399.936Z" fill="#2F2E41" fill-opacity="0.7"/>
<path d="M348.572 54.062C348.572 55.3013 348.792 56.273 349.232 56.977C349.672 57.6737 350.405 58.022 351.432 58.022C352.459 58.022 353.192 57.67 353.632 56.966C354.072 56.262 354.292 55.294 354.292 54.062C354.292 52.8373 354.072 51.8767 353.632 51.18C353.192 50.476 352.459 50.124 351.432 50.124C350.405 50.124 349.672 50.4723 349.232 51.169C348.792 51.8657 348.572 52.83 348.572 54.062ZM353.038 54.062C353.038 54.9567 352.928 55.6423 352.708 56.119C352.488 56.5957 352.063 56.834 351.432 56.834C350.794 56.834 350.365 56.5957 350.145 56.119C349.925 55.6423 349.815 54.9567 349.815 54.062C349.815 53.1747 349.925 52.4963 350.145 52.027C350.365 51.5577 350.794 51.323 351.432 51.323C352.063 51.323 352.488 51.5613 352.708 52.038C352.928 52.5073 353.038 53.182 353.038 54.062ZM356.603 56.614V58H355.184V56.614H356.603ZM357.52 54.062C357.52 55.3013 357.74 56.273 358.18 56.977C358.62 57.6737 359.354 58.022 360.38 58.022C361.407 58.022 362.14 57.67 362.58 56.966C363.02 56.262 363.24 55.294 363.24 54.062C363.24 52.8373 363.02 51.8767 362.58 51.18C362.14 50.476 361.407 50.124 360.38 50.124C359.354 50.124 358.62 50.4723 358.18 51.169C357.74 51.8657 357.52 52.83 357.52 54.062ZM361.986 54.062C361.986 54.9567 361.876 55.6423 361.656 56.119C361.436 56.5957 361.011 56.834 360.38 56.834C359.742 56.834 359.313 56.5957 359.093 56.119C358.873 55.6423 358.763 54.9567 358.763 54.062C358.763 53.1747 358.873 52.4963 359.093 52.027C359.313 51.5577 359.742 51.323 360.38 51.323C361.011 51.323 361.436 51.5613 361.656 52.038C361.876 52.5073 361.986 53.182 361.986 54.062ZM364.242 57.021C365.43 56.207 366.379 55.4113 367.091 54.634C367.809 53.8493 368.169 53.1233 368.169 52.456C368.169 52.06 368.07 51.7447 367.872 51.51C367.681 51.2753 367.369 51.158 366.937 51.158C366.489 51.158 366.152 51.3047 365.925 51.598C365.697 51.884 365.569 52.2947 365.54 52.83H364.319C364.37 51.9427 364.641 51.2643 365.133 50.795C365.631 50.3257 366.266 50.091 367.036 50.091C367.791 50.091 368.381 50.2927 368.807 50.696C369.239 51.092 369.456 51.642 369.456 52.346C369.456 52.9107 369.28 53.4827 368.928 54.062C368.583 54.6413 368.143 55.1767 367.608 55.668C367.072 56.152 366.519 56.57 365.947 56.922H369.632V57.945H364.242V57.021ZM370.615 54.062C370.615 55.3013 370.835 56.273 371.275 56.977C371.715 57.6737 372.448 58.022 373.475 58.022C374.502 58.022 375.235 57.67 375.675 56.966C376.115 56.262 376.335 55.294 376.335 54.062C376.335 52.8373 376.115 51.8767 375.675 51.18C375.235 50.476 374.502 50.124 373.475 50.124C372.448 50.124 371.715 50.4723 371.275 51.169C370.835 51.8657 370.615 52.83 370.615 54.062ZM375.081 54.062C375.081 54.9567 374.971 55.6423 374.751 56.119C374.531 56.5957 374.106 56.834 373.475 56.834C372.837 56.834 372.408 56.5957 372.188 56.119C371.968 55.6423 371.858 54.9567 371.858 54.062C371.858 53.1747 371.968 52.4963 372.188 52.027C372.408 51.5577 372.837 51.323 373.475 51.323C374.106 51.323 374.531 51.5613 374.751 52.038C374.971 52.5073 375.081 53.182 375.081 54.062ZM380.047 54.062C380.047 55.3013 380.267 56.273 380.707 56.977C381.147 57.6737 381.88 58.022 382.907 58.022C383.933 58.022 384.667 57.67 385.107 56.966C385.547 56.262 385.767 55.294 385.767 54.062C385.767 52.8373 385.547 51.8767 385.107 51.18C384.667 50.476 383.933 50.124 382.907 50.124C381.88 50.124 381.147 50.4723 380.707 51.169C380.267 51.8657 380.047 52.83 380.047 54.062ZM384.513 54.062C384.513 54.9567 384.403 55.6423 384.183 56.119C383.963 56.5957 383.537 56.834 382.907 56.834C382.269 56.834 381.84 56.5957 381.62 56.119C381.4 55.6423 381.29 54.9567 381.29 54.062C381.29 53.1747 381.4 52.4963 381.62 52.027C381.84 51.5577 382.269 51.323 382.907 51.323C383.537 51.323 383.963 51.5613 384.183 52.038C384.403 52.5073 384.513 53.182 384.513 54.062ZM390.673 58L389.188 55.855L387.89 58H386.493L388.495 54.854L386.471 51.939H387.89L389.342 54.029L390.629 51.939H392.015L390.013 54.997L392.092 58H390.673ZM397.011 53.996C397.48 54.0913 397.858 54.315 398.144 54.667C398.437 55.019 398.584 55.4297 398.584 55.899C398.584 56.5443 398.368 57.0577 397.935 57.439C397.502 57.813 396.875 58 396.054 58H392.963V50.234H395.999C396.776 50.234 397.37 50.41 397.781 50.762C398.199 51.1067 398.408 51.5833 398.408 52.192C398.408 52.6833 398.28 53.083 398.023 53.391C397.766 53.6917 397.429 53.8933 397.011 53.996ZM394.217 53.578H395.768C396.208 53.578 396.542 53.4753 396.769 53.27C397.004 53.0647 397.121 52.7787 397.121 52.412C397.121 52.0527 397.004 51.7703 396.769 51.565C396.542 51.3597 396.193 51.257 395.724 51.257H394.217V53.578ZM395.801 56.966C396.278 56.966 396.644 56.8597 396.901 56.647C397.165 56.427 397.297 56.1227 397.297 55.734C397.297 55.3453 397.165 55.041 396.901 54.821C396.637 54.601 396.267 54.491 395.79 54.491H394.217V56.966H395.801ZM403.206 47.616L400.214 59.936H398.993L401.985 47.616H403.206ZM406.351 51.862C406.901 51.862 407.37 51.9977 407.759 52.269C408.148 52.5403 408.419 52.8997 408.573 53.347V49.86H409.838V58H408.573V56.592C408.419 57.0393 408.148 57.3987 407.759 57.67C407.37 57.9413 406.901 58.077 406.351 58.077C405.823 58.077 405.35 57.9523 404.932 57.703C404.521 57.4537 404.199 57.0943 403.964 56.625C403.729 56.1557 403.612 55.602 403.612 54.964C403.612 54.3333 403.729 53.7833 403.964 53.314C404.199 52.8447 404.521 52.4853 404.932 52.236C405.35 51.9867 405.823 51.862 406.351 51.862ZM406.736 52.962C406.179 52.962 405.731 53.1417 405.394 53.501C405.064 53.853 404.899 54.3407 404.899 54.964C404.899 55.5873 405.064 56.0787 405.394 56.438C405.731 56.79 406.179 56.966 406.736 56.966C407.088 56.966 407.403 56.8853 407.682 56.724C407.961 56.5553 408.181 56.3207 408.342 56.02C408.503 55.7193 408.584 55.3673 408.584 54.964C408.584 54.568 408.503 54.2197 408.342 53.919C408.181 53.611 407.961 53.3763 407.682 53.215C407.403 53.0463 407.088 52.962 406.736 52.962ZM413.774 51.862C414.324 51.862 414.793 51.9977 415.182 52.269C415.571 52.5403 415.846 52.8997 416.007 53.347V51.939H417.261V58H416.007V56.592C415.846 57.0393 415.571 57.3987 415.182 57.67C414.793 57.9413 414.324 58.077 413.774 58.077C413.246 58.077 412.773 57.9523 412.355 57.703C411.944 57.4537 411.622 57.0943 411.387 56.625C411.152 56.1557 411.035 55.602 411.035 54.964C411.035 54.3333 411.152 53.7833 411.387 53.314C411.622 52.8447 411.944 52.4853 412.355 52.236C412.773 51.9867 413.246 51.862 413.774 51.862ZM414.159 52.962C413.602 52.962 413.154 53.1417 412.817 53.501C412.487 53.853 412.322 54.3407 412.322 54.964C412.322 55.5873 412.487 56.0787 412.817 56.438C413.154 56.79 413.602 56.966 414.159 56.966C414.511 56.966 414.826 56.8853 415.105 56.724C415.384 56.5553 415.604 56.3207 415.765 56.02C415.926 55.7193 416.007 55.3673 416.007 54.964C416.007 54.568 415.926 54.2197 415.765 53.919C415.604 53.611 415.384 53.3763 415.105 53.215C414.826 53.0463 414.511 52.962 414.159 52.962ZM419.481 51.939L421.296 56.394L422.979 51.939H424.376L420.713 60.882H419.316L420.625 57.857L418.073 51.939H419.481Z" fill="#2F2E41" fill-opacity="0.9"/>
</svg>
