<svg width="131" height="94" fill="none" xmlns="http://www.w3.org/2000/svg"><g clip-path="url(#clip0_166_12598)"><path opacity=".12" d="M1.55 93.162c0 .388 6.211.838 13.364.838 7.153 0 12.957-.315 12.957-.703 0-.388-5.801-.702-12.957-.702-7.155 0-13.363.179-13.363.567z" fill="#32323F"/><path d="M14.548 73.061c.417 2.058.58 3.835.217 5.455-.362 1.62-2.803 11.45-2.629 11.734.174.283.848 1.5.986 1.808.138.308-3.23-.934-3.216-1.554.014-.62.203-.299.573-1.216.37-.918.811-4.222.87-4.913.06-.692-.056-7.553.176-8.313.233-.759 3.023-3 3.023-3z" fill="#F5B1B4"/><path d="M20.984 60.99c.625.597 1.826.586 2.331.256.57-.372.754-1.34.137-1.065-.965.43-.512-.26-.74-.287-.379-.04-1.027.521-1.224.408-.124-.07-.504.688-.504.688zm2.962-13.045c-.335-.797.102-1.914.59-2.27.551-.399 1.505-.243 1.044.252-.461.495-.007 1.439-.4 1.933-.5.627-1.234.085-1.234.085z" fill="#EFAEA6"/><path d="M10.218 89.276a.213.213 0 01.256.015c.246.204.428.475.525.78.065.26.065.704.677 1.18.611.477 1.283.463 1.485.687.202.224 1.346 1.078.946 1.46-.422.326-1.833-.086-2.286-.521-.453-.435-1.599-1.565-1.63-1.492-.142.16-.221.098-.221.098-.354-.343-.875-.75-.908-.9-.034-.15.212-.613.462-.817.175-.14.51-.368.694-.49z" fill="#1F1E39"/><path d="M15.54 74.116c.015.303.256 1.89.563 3.795.092.574.19 1.174.29 1.781.456 2.783.949 5.625 1.043 5.978.188.686.925 4.022.886 5.037-.04 1.014-.34.773-.13 1.374.209.601 4.55-.03 4.302-.275-.25-.245-1.922-.548-2.194-.763-.184-.145-.652-6.775-1-11.543l-.13-1.798c-.105-1.393-.19-2.445-.24-2.832-.218-1.688-.95-1.231-2.351-1.225-.003-.002-1.08-.343-1.039.471z" fill="#F5B1B4"/><path d="M18.014 91.431a.223.223 0 01.213-.163c.331-.013.66.07.946.237.232.159.535.496 1.342.445.808-.052 1.358-.366 1.67-.331.313.034 1.659.285 1.605.854-.113.537-1.346.847-2 .826-.652-.02-2.377-.304-2.352-.228 0 .222-.108.228-.108.228-.513-.021-1.203.022-1.331-.07-.128-.093-.253-.618-.196-.945.04-.228.15-.632.211-.853z" fill="#1F1E39"/><path d="M5.566 77.555c.89 1.093 3.686.273 4.728.834.262.124.537.221.82.29 1.276.348 3.454.677 4.354.444 1.152-.301 2.281-1.47 5.05.035.69-2.534-1.039-13.681-2.288-16.604a3.369 3.369 0 00-.195-.395s-3.078-1.814-5.759-.44a4.8 4.8 0 00-1.294.977l-.019.031c-2.748 4.398-.566 9.01-5.397 14.828z" fill="#0052FF"/><path d="M21.615 61.63c.09.072.498-1.701.337-1.877-.16-.175-2.374-.652-2.618-.732-.768-.26-3.278-.877-4.386-1.535-.806-.478-1.385-.643-3.753-2.07 1.14 1.189.893 3.305.794 4.333-.114 1.163-.47 2.206-1.005 2.948l-.019.03c-.177.34.893.485 2.259.505 2.015.029 4.676-.214 4.942-.509a.32.32 0 00.065-.167c.134-.913-1.369-4.393-1.342-4.996.026-.652 1.226-.953 1.326-1.454.1-.501-1.207-1.956-.944-1.808.821.457 3.966-.521 4.618-1.073.652-.551 3.027-4.773 3.086-4.906.134-.307-1.188-1.342-1.399-.92-.182.364-2.453 4.312-3.329 4.628-.746.269-3.736-.332-5.047-1.001 0 0-1.245-.184-1.847-.13-.602.053-2.206 1.269-2.628 1.81-.468.603.047 2.976.638 4.919.348 1.136 10 3.805 10.252 4.006z" fill="#FF794F"/><path d="M14.742 49.698c-.229 1.043-.173 1.59 0 1.883.172.294.36 1.003.024.99-.166-.005-1.146-.441-1.504-.698-.358-.257-.57-.756-.57-.756s.763-1.332 1.29-2.44c.528-1.109.76 1.021.76 1.021z" fill="#F5B1B4"/><path opacity=".28" d="M14.6 50.685c.006-.139.022-.293.048-.465.008-.06.08-.456.093-.521a.632.632 0 00-.22-.148c-.082-.015-.25.004-.326-.089-.127-.154-.374.293-.266.555.042.101.338.492.67.668zm1.517 7.345c-2.325-1.456-2.64-1.746-2.753-3.154-.275 1.162-.047 1.486.082 1.7.129.214 1.809 1.07 2.67 1.454zm1.151 2.223c.028-.012-5.18-1.93-5.185-2.028-.005.225 0 .401-.013.54.158-.035 5.104 1.529 5.198 1.488zm-1.233-7.263c.548.51.797.628 1.239 1.353-.35-.832-.37-.959-.37-.959s-.643-.38-.869-.394z" fill="#1F1F39"/><path opacity=".05" d="M5.566 77.555c.89 1.093 3.686.273 4.728.834.262.124.537.221.82.29 1.915-4.263 1.81-10.793 1.333-15.476a56.317 56.317 0 00-.46-3.456c-.113 1.163-.47 2.206-1.004 2.948l-.02.032c-2.748 4.398-.566 9.01-5.397 14.828z" fill="#1F1F39"/><path d="M14.024 47.014c.73.592 1.349.667 1.124.912-.17.189 1.303 1.434.401 1.74-.902.305-1.799.33-2.393-.457-.595-.786-.965-1.233-.965-1.233l1.833-.962z" fill="#F5B1B4"/><path d="M14.247 47.082c-.024.544-.313.947-.377 1.188-.035.136-.284.233-.403.16-.134-.083-.336 0-.462.202-.151.246.206.39.41.506.151.088.232.31.214.485-.065.663 1.262 1.558-1.528 3.789a9.129 9.129 0 01-2.297 1.297c-1.579.62-3.05.731-3.33.317-.203-.303.222-1.149.633-1.565.41-.416.753-.18 1.062-.513.353-.38-.744-1.108.498-1.833 1.242-.724 1.473-.474 1.776-.875.303-.4-.272-2.933 1.29-3.632 1.083-.485 1.79-.24 2.121-.044.14.085.4.353.393.518z" fill="#1F1F39"/><path d="M90.758 60.066h15.312M90.758 51.41h15.312m-15.312 4.278h15.312" stroke="#fff" stroke-width=".488" stroke-linecap="round" stroke-linejoin="round"/><path d="M90.758 51.41h9.107m-9.107 4.278h4.528m-4.528 4.353h12.085" stroke="#0052FF" stroke-width=".752" stroke-linecap="round" stroke-linejoin="round"/><path d="M95.6 57.33c.889 0 1.609-.735 1.609-1.642 0-.908-.72-1.644-1.609-1.644-.888 0-1.608.736-1.608 1.644 0 .907.72 1.643 1.608 1.643z" fill="#3B3B4D"/><path d="M95.468 57.198c.888 0 1.608-.736 1.608-1.644 0-.907-.72-1.643-1.608-1.643-.889 0-1.609.736-1.609 1.643 0 .908.72 1.644 1.609 1.644z" fill="#0052FF"/><path d="M90.758 47.575h15.312" stroke="#fff" stroke-width=".488" stroke-linecap="round" stroke-linejoin="round"/><path d="M90.758 47.575h4.528" stroke="#0052FF" stroke-width=".752" stroke-linecap="round" stroke-linejoin="round"/><path d="M96.98 49.384c.887 0 1.607-.736 1.607-1.644 0-.907-.72-1.643-1.608-1.643-.888 0-1.608.736-1.608 1.643 0 .908.72 1.644 1.608 1.644z" fill="#3B3B4D"/><path d="M96.846 49.25c.889 0 1.609-.735 1.609-1.642 0-.908-.72-1.644-1.609-1.644-.888 0-1.608.736-1.608 1.644 0 .907.72 1.643 1.608 1.643z" fill="#0052FF"/><path d="M99.827 53.053c.888 0 1.608-.736 1.608-1.644 0-.907-.72-1.643-1.608-1.643-.888 0-1.608.736-1.608 1.643 0 .908.72 1.644 1.608 1.644z" fill="#3B3B4D"/><path d="M99.698 52.92c.888 0 1.608-.736 1.608-1.644 0-.907-.72-1.643-1.608-1.643-.888 0-1.608.736-1.608 1.643 0 .908.72 1.644 1.608 1.644z" fill="#0052FF"/><path d="M103.28 61.71c.888 0 1.608-.736 1.608-1.644 0-.907-.72-1.643-1.608-1.643-.888 0-1.608.736-1.608 1.643 0 .908.72 1.644 1.608 1.644z" fill="#3B3B4D"/><path d="M103.151 61.577c.888 0 1.608-.736 1.608-1.644 0-.907-.72-1.643-1.608-1.643-.888 0-1.608.736-1.608 1.643 0 .908.72 1.644 1.608 1.644z" fill="#0052FF"/><path opacity=".12" d="M128.589 92.928c0 .387-7.396.837-15.917.837s-15.43-.313-15.43-.701c0-.388 6.91-.702 15.43-.702s15.917.179 15.917.566z" fill="#32323F"/><path d="M104.517 52.308c-.355-.26-.551-.46-1.071-.737-.503-.268-.856-.35-1.12-.738-.235-.345-.99-1.085-1.62-1.019-.562.058-1.218.5-.948.68 1.315.869.752 1.13.701 1.458-.087.562 1.487.058 1.974.665.364.457.912.79 1.161.86.248.07.923-1.169.923-1.169zm11.711-1.036l1.59-.444c.015-.725-.761-2.25-.876-2.899-.126-.712-1.006-1.369-1.006-1.369l-.534 1.5.034.124s.122 1.252-.099 1.822c-.126.326-.05.808-.397 1.307-.261.37 1.288-.04 1.288-.04z" fill="#EFAEA6"/><path opacity=".14" d="M115.447 48.449s.065.805-.037 1.279c.988.45 1.512-.671 1.263-.95-.156-.174-.724-.58-.724-.58l-.502.25z" fill="#1F1F3B"/><path d="M115.386 45.538c-.276.543-1.323 1.365-.944 1.523.38.157-.586 1.146-.187 1.328.965.44 2.343.291 2.663-.13.32-.423.791-1.77.791-1.77l-2.323-.951z" fill="#EFAEA6"/><path d="M116.174 46.5c-.326-.093-.362-.024-.536-.22-.173-.194.322-.336-.053-.571-.376-.236-.808-.446-.661-.925.212-.693.761-.342 1.094-.112.215.148.482-.34.943-.121.362.171.231.369.546.536.191.1.712-.066.924.304.391.683-.309 1.028-.025 1.702.331.782-1.44 1.423-1.532 1.218-.106-.239.385-.703.261-.912-.183-.314-.309-.1-.619.017-.33.125-.775-.045-.315-.362s.265-.47-.027-.554z" fill="#1F1F3B"/><path d="M111.983 91.179c-.072-.706-.019-2.495-.019-2.495l1.952-.065-.106 2.686-1.288.852-.539-.978z" fill="#fff"/><path d="M111.828 90.6c-.165-.127-.532.315-.607.611-.173.679-2.347.766-2.738.827-.2.031-.522 1.03.473 1.025.862-.004 3.621-.006 4.563-.016a.428.428 0 00.417-.314c.17-.652.191-2.193-.073-2.217-.354.082-1.408.563-2.035.083z" fill="#1F1F3B"/><path d="M119.479 91.191c-.076-.705-.034-2.495-.034-2.495l1.951-.078-.089 2.687-1.285.86-.543-.974z" fill="#fff"/><path d="M119.266 90.39c-.21.013-.172.21-.244.506-.167.68-2.644 1.122-3.031 1.186-.2.033-.513 1.033.482 1.021.861-.011 3.62-.036 4.563-.054a.433.433 0 00.413-.318c.164-.657.225-2.46-.038-2.477-.354.077-1.189.077-2.145.135z" fill="#1F1F3B"/><path d="M122.27 67.846c-.025.319-.057.666-.102 1.047-.168 1.427-.522 6.239-.436 9.295.087 3.041-.183 10.156-.183 11.246-.923.405-1.496.279-2.815 0 0 0-.235-5.87-.495-11.01-.211-4.172-.272-3.755-1.038-9.069a85.62 85.62 0 00-.468 1.34c-.582 1.7-1.554 4.67-2.021 6.82-.726 3.356-.347 12.102-.651 12.404-.907.534-2.441.586-2.85-.156 0 0-.174-10.816.149-12.51.218-1.151 2.063-12.44 2.477-15.472 0 0 8.125-1.77 8.375 1.004.03.344.043.69.039 1.035-.007.43.017.83.04 1.268.059.919.052 1.84-.021 2.758z" fill="#3B3B4D"/><path opacity=".46" d="M117.918 67.83v.005l-.023-.016a.625.625 0 01.023.011z" fill="#1F1F3B"/><path opacity=".54" d="M117.201 69.355c-.009.025-.366 1.03-.639 1.825l.32-3.211s-.012.194.319 1.386z" fill="#1F1F3B"/><path opacity=".35" d="M122.318 67.012c-.065-.014-3.2-.683-3.623-2.25 0 0 2.723.233 3.593.326.039.716.057 1.52.03 1.924z" fill="#1F1F3B"/><path d="M117.44 49.404c-.704-.192-.772.971-1.482 1.027-.374.03-.292-.133-.469-.305-.109-.107-.211-.226-.383-.05-3.502 3.594.144 12.654-.301 13.287-.365.517 2.599 1.645 4.46 1.191 2.553-.622 2.398-3.395 2.324-3.924-.073-.53-1.719-9.529-1.719-9.529a13.977 13.977 0 01-2.43-1.697z" fill="#fff"/><path d="M103.044 51.247c.273-.427 5.712 4.55 6.507 4.014 1.398-.945 2.721-4.346 5.555-5.184 0 0 .087.6-.116 2.17-.268 2.072.899 3.547.662 6.055-.306 3.243.493 6.556-.306 7.288-.465.426-1.108.507-1.89-.301-1.226-1.273-.42-5.449-.308-6.44.043-.387.139-.907.221-1.446.102-.67.296-1.468-.041-1.713-.098-.07-2.082 2.33-3.665 2.301-1.179-.021-7.278-4.237-7.447-4.426-.482-.537.828-2.318.828-2.318z" fill="#0052FF"/><path d="M120.327 66.228c-.065.13-.278.13-.173.212.105.082 1.385.652 1.385.652s.123.134.274-.087a.876.876 0 00.15-.442l-1.636-.335z" fill="#E79E9C"/><path d="M122.569 65.545c-1.116.698-2.6.717-3.585-.316-.814-.857.009-1.968-.593-3.968-.335-1.108-.854-3.101-.965-4.482-.236-2.941-.055-6.545.011-7.376 0 0 1.773.044 3.229 1.562.613.637.998 2.481 1.063 3.83.021.441.033.797.039 1.098.013.613 0 .996-.022 1.416l-.024.535c-.01.22-.018.47-.024.772-.009.494.158 1.304.365 2.204.458 1.968 1.104 4.349.506 4.725z" fill="#0052FF"/><path d="M118.586 52.914c3.911 6.416 4.127 5.566 4.225 6.616.098 1.05-2.589 6.732-2.589 6.732s1.613.9 1.792.623c.178-.275 3.632-6.631 3.495-7.998-.151-1.505-4.359-7.35-4.854-7.924-.496-.574-2.635-.822-2.612.206.016.62.204 1.225.543 1.745z" fill="#0052FF"/><path opacity=".18" d="M122.065 60.821c-1.47-1.314-1.573-4.641-1.573-4.641l1.232 1.665c-.01.22-.018.47-.024.771-.009.495.158 1.307.365 2.205zm.237 1.007c-.1.465-1.923 4.13-1.923 4.13l1.773-4.773.15.643z" fill="#1F1F3B"/><path opacity=".18" d="M116.152 50.701c.065-.032.538 1.211 1.311 1.695.213.139.45.235.699.283.735.13 3.793.029 3.793.029s-.602-.797-.963-1.103c-.697.13-2.281.438-2.666.35a2.868 2.868 0 01-.782-.318 4.722 4.722 0 01-1.092-.905c-.14-.152-.14-.357-.326-.387-.247-.039-.057.397.026.356z" fill="#1F1F39"/><path d="M115.807 50.416a.297.297 0 01.131-.206.295.295 0 01.239-.044c.185.03.192.106.332.26.421.457 1.061 1.033 1.875 1.223.814.19 2.817-.644 4.008-.232 1.191.412 1.439 1.535 3.169 2.029 1.73.493 3.708-.006 4.217.147.51.152.812.302.776.504-.036.201-.333.504-.717.603-.384.098-3.621-.083-4.457-.3-1.366-.355-2.418-1.735-3.302-1.923-.884-.188-2.82.084-3.861-.102-1.159-.209-1.955-1.666-2.041-1.624a.318.318 0 01-.305.025c-.097-.04-.084-.245-.064-.36z" fill="#F4AD00"/><path d="M37.363 22.112a.178.178 0 00.157-.13c.231-.912.348-1.85.347-2.79a.18.18 0 00-.103-.161l-2.258-1.034a.178.178 0 01-.102-.135 8.856 8.856 0 00-.326-1.402.178.178 0 01.043-.18l1.655-1.661a.177.177 0 00.036-.2c-.425-.91-.969-1.76-1.618-2.526a.177.177 0 00-.183-.057l-2.4.662a.177.177 0 01-.165-.038 8.991 8.991 0 00-.831-.647.178.178 0 01-.077-.162l.208-2.385a.18.18 0 00-.096-.174 11.203 11.203 0 00-2.952-1.005.178.178 0 00-.18.074l-1.393 2.021a.177.177 0 01-.155.076 8.368 8.368 0 00-.898.004.177.177 0 01-.155-.075l-1.408-2.01a.178.178 0 00-.18-.072 11.229 11.229 0 00-2.945 1.032.179.179 0 00-.095.175l.226 2.387a.175.175 0 01-.075.162 9.039 9.039 0 00-.815.644.177.177 0 01-.164.04l-2.405-.645a.177.177 0 00-.183.058 11.256 11.256 0 00-1.6 2.542.178.178 0 00.036.2l1.671 1.648a.176.176 0 01.044.179c-.14.451-.245.914-.311 1.382a.18.18 0 01-.1.137l-2.252 1.05-.103.162c.005.944.129 1.884.368 2.797a.177.177 0 00.157.13l2.318.187a.178.178 0 01.15.112 8.92 8.92 0 00.86 1.649.177.177 0 01.013.173l-1.03 2.211a.178.178 0 00.027.196 11.36 11.36 0 001.982 1.76.177.177 0 00.204 0l1.904-1.354a.178.178 0 01.186-.012 8.86 8.86 0 002.009.766.179.179 0 01.13.126l.617 2.295a.178.178 0 00.152.13c.856.095 1.72.092 2.576-.007a.177.177 0 00.15-.13l.6-2.303a.178.178 0 01.13-.127c.7-.178 1.376-.44 2.013-.782a.177.177 0 01.185.01l1.915 1.34a.177.177 0 00.205 0 11.367 11.367 0 001.966-1.764.176.176 0 00.026-.196l-1.042-2.201a.178.178 0 01.012-.174 8.858 8.858 0 00.86-1.667.179.179 0 01.15-.113l2.312-.198z" fill="#0052FF"/><path opacity=".25" d="M32.608 19.27v.02a6.046 6.046 0 01-3.331 5.406 5.99 5.99 0 01-2.717.643h-.15a6.056 6.056 0 01-5.44-8.365 6.044 6.044 0 016.287-3.694 6.038 6.038 0 013.345 1.51 6.03 6.03 0 012.005 4.48h.002z" fill="#1F1F39"/><path opacity=".25" d="M31.865 16.377a6.095 6.095 0 00-1.489-1.44 6.029 6.029 0 00-3.398-1.045 6.022 6.022 0 00-4.497 2.01 6.015 6.015 0 00-1.527 4.562 5.999 5.999 0 00.72 2.386 6.014 6.014 0 01-1.16-3.561 6.065 6.065 0 01.464-2.322 6.068 6.068 0 013.442-3.336 6.073 6.073 0 013.663-.195 6.067 6.067 0 013.781 2.944v-.003z" fill="#1F1F39"/><path d="M83.762 38.062a3.531 3.531 0 10-2.703-6.525 3.531 3.531 0 002.703 6.525z" fill="#382528"/><path d="M91.803 34.22a.355.355 0 01-.26-.31 9.142 9.142 0 00-.305-1.658.356.356 0 01.143-.391l1.315-.894a.357.357 0 00.13-.428 11.068 11.068 0 00-.383-.848.357.357 0 00-.397-.187l-1.59.359a.354.354 0 01-.375-.151 9.298 9.298 0 00-1.004-1.273.355.355 0 01-.055-.412l.75-1.405a.357.357 0 00-.082-.438 10.965 10.965 0 00-.757-.594.355.355 0 00-.439.018l-1.238 1.056a.354.354 0 01-.402.04 9.315 9.315 0 00-1.423-.64.353.353 0 01-.238-.338l.011-1.599a.355.355 0 00-.276-.35 11.627 11.627 0 00-.97-.18.358.358 0 00-.38.22l-.613 1.523a.353.353 0 01-.326.223c-.374.007-1.08.033-1.534.08a.357.357 0 01-.352-.191l-.74-1.434a.357.357 0 00-.406-.182c-.324.082-.643.178-.957.288a.358.358 0 00-.238.373l.165 1.61a.355.355 0 01-.196.355 9.13 9.13 0 00-1.293.76.354.354 0 01-.407 0l-1.323-.926a.358.358 0 00-.442.025c-.25.222-.489.454-.716.698a.356.356 0 00-.04.441l.886 1.334a.355.355 0 01-.013.41c-.305.403-.576.83-.81 1.277a.353.353 0 01-.36.187l-1.611-.208a.356.356 0 00-.378.226c-.119.306-.224.618-.316.936a.356.356 0 00.17.412l1.408.774a.355.355 0 01.18.362c-.064.485-.11 1.198-.13 1.565a.356.356 0 01-.232.318l-1.538.57a.355.355 0 00-.23.374c.035.322.084.64.146.954a.358.358 0 00.343.288l1.592.03a.355.355 0 01.332.249c.162.513.37 1.01.62 1.487a.358.358 0 01-.05.403l-1.084 1.21a.356.356 0 00-.03.439c.176.26.362.511.558.752a.356.356 0 00.437.095l1.421-.71a.354.354 0 01.41.064c.397.396.828.754 1.29 1.071a.356.356 0 01.141.38l-.4 1.575a.359.359 0 00.177.403c.266.142.539.273.818.391a.356.356 0 00.43-.118l.93-1.293a.353.353 0 01.391-.13c.553.17 1.12.288 1.695.352a.354.354 0 01.306.27l.376 1.575a.35.35 0 00.34.27c.298 0 .594-.012.888-.035a.357.357 0 00.326-.305l.223-1.58a.356.356 0 01.29-.296 9.131 9.131 0 001.694-.495.355.355 0 01.4.097l1.055 1.21a.357.357 0 00.437.08c.26-.14.513-.287.757-.445a.357.357 0 00.145-.42l-.541-1.512a.355.355 0 01.11-.395 9.24 9.24 0 001.262-1.239.354.354 0 01.4-.102l1.49.578a.357.357 0 00.425-.134c.164-.245.32-.496.464-.753a.358.358 0 00-.069-.437l-1.187-1.093a.355.355 0 01-.087-.4c.227-.534.401-1.09.522-1.658a.354.354 0 01.307-.28l1.58-.178a.357.357 0 00.315-.32 11.6 11.6 0 00.057-1.146v-.036l-1.835-.49zm-7.75.58a1.64 1.64 0 01-1.64 1.642h-.042a1.638 1.638 0 01-1.343-.756 1.619 1.619 0 01-.258-.884 1.642 1.642 0 011.058-1.534 1.636 1.636 0 011.504.177 1.654 1.654 0 01.617.783c.067.183.102.375.102.57l.001.002z" fill="#5D5D6D"/><path opacity=".25" d="M88.593 34.78v.02a6.188 6.188 0 01-3.056 5.333 6.175 6.175 0 01-3.122.847h-.154a6.168 6.168 0 01-5.05-2.843 6.14 6.14 0 01-.977-3.336 6.177 6.177 0 0112.355-.024l.004.003z" fill="#1F1F39"/><path opacity=".25" d="M87.83 31.824a6.175 6.175 0 00-9.59-.487 6.154 6.154 0 00-1.56 4.664c.073.855.325 1.686.738 2.438a6.165 6.165 0 01-1.188-3.64 6.096 6.096 0 01.469-2.373 6.175 6.175 0 019.5-2.508 6.2 6.2 0 011.623 1.902l.009.004z" fill="#1F1F39"/><path d="M54.757 11.058a.332.332 0 01-.22-.31 8.558 8.558 0 00-.154-1.564.33.33 0 01.162-.351l1.291-.73a.333.333 0 00.154-.39 11.14 11.14 0 00-.291-.819.334.334 0 00-.355-.205L53.84 6.9a.33.33 0 01-.337-.17 8.619 8.619 0 00-.835-1.26.331.331 0 01-.02-.386l.806-1.247a.333.333 0 00-.044-.414 9.983 9.983 0 00-.657-.61.333.333 0 00-.41-.017l-1.232.886a.326.326 0 01-.377.007 8.606 8.606 0 00-1.273-.705.33.33 0 01-.196-.332l.134-1.485a.333.333 0 00-.23-.347c-.29-.092-.586-.173-.887-.241a.334.334 0 00-.371.175l-.684 1.365a.33.33 0 01-.318.182 20.285 20.285 0 00-1.43-.043.333.333 0 01-.313-.205l-.577-1.39a.334.334 0 00-.364-.2c-.307.052-.611.117-.912.195a.333.333 0 00-.25.326l.029 1.51a.33.33 0 01-.211.314c-.436.168-.858.37-1.26.608a.33.33 0 01-.38-.032l-1.157-.964a.332.332 0 00-.412-.01c-.25.187-.49.385-.723.593a.332.332 0 00-.07.408l.722 1.314a.33.33 0 01-.042.38 8.615 8.615 0 00-.852 1.124.33.33 0 01-.348.146l-1.481-.318a.333.333 0 00-.364.183 10.64 10.64 0 00-.365.847.333.333 0 00.13.396l1.248.826a.332.332 0 01.14.351c-.1.445-.195 1.104-.239 1.444a.331.331 0 01-.24.276l-1.473.412a.332.332 0 00-.242.33c.008.304.03.603.065.898a.334.334 0 00.297.293l1.477.15a.332.332 0 01.29.257c.11.49.265.968.46 1.43a.331.331 0 01-.078.37l-1.104 1.043a.332.332 0 00-.062.405c.144.254.297.501.46.741a.332.332 0 00.399.123l1.376-.552a.332.332 0 01.376.093c.338.398.71.764 1.115 1.094a.332.332 0 01.103.364l-.494 1.434a.333.333 0 00.135.392c.236.152.48.295.728.428a.332.332 0 00.41-.077l.955-1.134a.33.33 0 01.375-.092c.501.2 1.02.353 1.55.456a.33.33 0 01.26.275l.229 1.492a.326.326 0 00.294.277h.004c.277.023.553.035.828.036a.331.331 0 00.326-.26l.326-1.452a.331.331 0 01.287-.256 8.51 8.51 0 001.613-.326.33.33 0 01.363.12l.888 1.205a.335.335 0 00.4.108c.252-.109.497-.227.738-.355a.334.334 0 00.166-.379l-.386-1.447a.33.33 0 01.13-.359 8.57 8.57 0 001.275-1.052.33.33 0 01.38-.065l1.34.652a.332.332 0 00.405-.091c.17-.215.334-.436.488-.665a.333.333 0 00-.03-.41l-1.019-1.11a.331.331 0 01-.05-.377c.251-.479.457-.98.613-1.499a.33.33 0 01.307-.235l1.482-.046a.332.332 0 00.316-.272c.065-.35.113-.705.142-1.06l.003-.034-1.667-.595zm-7.245-.06a1.532 1.532 0 01-1.49 1.406c-.054 0-.108 0-.16-.005-.014 0-.026 0-.039-.004a1.526 1.526 0 01-1.36-1.645 1.54 1.54 0 01.474-.988 1.51 1.51 0 01.835-.402 1.564 1.564 0 01.72.07 1.523 1.523 0 01.969 1.03c.049.174.066.356.052.536l-.001.002z" fill="#5D5D6D"/><path opacity=".25" d="M51.732 11.33v.018a5.763 5.763 0 01-1.331 3.229 5.776 5.776 0 01-2.261 1.642 5.715 5.715 0 01-2.629.397l-.143-.014a5.725 5.725 0 01-2.62-.961 5.747 5.747 0 01-2.505-5.242 5.737 5.737 0 012.41-4.225 5.745 5.745 0 014.467-.95 5.75 5.75 0 013.057 1.697 5.742 5.742 0 011.559 4.408l-.004.001z" fill="#1F1F39"/><path opacity=".25" d="M51.247 8.524a5.777 5.777 0 00-4.444-2.74 5.733 5.733 0 00-4.428 1.553 5.736 5.736 0 00-1.808 4.213 5.73 5.73 0 00.497 2.322 5.736 5.736 0 01-.821-3.473 5.782 5.782 0 01.62-2.165 5.753 5.753 0 011.79-2.058 5.756 5.756 0 012.523-1.006 5.77 5.77 0 016.07 3.357l.001-.003z" fill="#1F1F39"/><path d="M80.39 14.844a.173.173 0 00.153-.13c.224-.884.337-1.793.336-2.706a.173.173 0 00-.1-.156l-2.19-1.004a.174.174 0 01-.099-.13 8.634 8.634 0 00-.317-1.36.173.173 0 01.042-.175l1.608-1.608a.172.172 0 00.034-.196 10.96 10.96 0 00-1.569-2.45.172.172 0 00-.177-.054l-2.33.642a.173.173 0 01-.159-.037 8.76 8.76 0 00-.807-.627.172.172 0 01-.075-.156l.203-2.314a.173.173 0 00-.094-.17 10.857 10.857 0 00-2.863-.977.172.172 0 00-.174.072L70.46 3.269a.173.173 0 01-.15.074 8.74 8.74 0 00-.871.004.172.172 0 01-.151-.073l-1.365-1.95a.173.173 0 00-.175-.07c-.995.199-1.957.536-2.858 1.001a.174.174 0 00-.091.17l.22 2.315a.171.171 0 01-.074.158 8.728 8.728 0 00-.79.625.172.172 0 01-.158.037l-2.334-.625a.173.173 0 00-.177.056c-.626.75-1.148 1.58-1.553 2.47a.172.172 0 00.036.195l1.621 1.598a.175.175 0 01.043.174 8.628 8.628 0 00-.303 1.342.171.171 0 01-.097.13l-2.183 1.018-.1.158c.004.916.124 1.827.356 2.713a.171.171 0 00.152.13l2.249.18a.174.174 0 01.146.11c.222.559.502 1.093.835 1.594a.173.173 0 01.013.168l-1 2.145a.174.174 0 00.028.188 10.978 10.978 0 001.922 1.706.173.173 0 00.195 0l1.847-1.313a.171.171 0 01.18-.011 8.614 8.614 0 001.95.742.173.173 0 01.125.122l.598 2.232a.171.171 0 00.147.127c.83.092 1.669.09 2.499-.007a.173.173 0 00.147-.13l.58-2.234a.172.172 0 01.126-.123A8.576 8.576 0 0074 19.659a.174.174 0 01.18.01l1.858 1.304a.173.173 0 00.196 0c.7-.495 1.34-1.07 1.906-1.713a.171.171 0 00.026-.188l-1.014-2.135a.172.172 0 01.012-.168 8.62 8.62 0 00.834-1.617.172.172 0 01.146-.11l2.247-.198z" fill="#0052FF"/><path opacity=".25" d="M75.778 12.086v.02a5.839 5.839 0 01-1.076 3.388 5.904 5.904 0 01-1.507 1.476 5.85 5.85 0 01-3.284 1.005h-.146a5.844 5.844 0 01-2.74-.756 5.853 5.853 0 01-2.982-5.11 5.783 5.783 0 01.45-2.252 5.86 5.86 0 016.094-3.579 5.879 5.879 0 014.82 3.776c.243.65.369 1.338.371 2.032z" fill="#1F1F39"/><path opacity=".25" d="M75.054 9.279a5.842 5.842 0 00-4.74-2.408 5.823 5.823 0 00-3.776 1.377 5.846 5.846 0 00-2.069 4.997c.07.812.308 1.6.7 2.315a5.801 5.801 0 01-1.123-3.455c0-.5.064-1 .19-1.484a5.886 5.886 0 014.383-4.24 5.88 5.88 0 015.222 1.36c.488.441.898.96 1.213 1.538z" fill="#1F1F39"/><path d="M42.59 39.802a.155.155 0 00.136-.115c.2-.788.3-1.598.3-2.412a.153.153 0 00-.09-.139l-1.955-.894a.152.152 0 01-.087-.117 7.727 7.727 0 00-.283-1.214.154.154 0 01.037-.156l1.434-1.434a.155.155 0 00.032-.174 9.803 9.803 0 00-1.4-2.186.156.156 0 00-.158-.048l-2.078.573a.154.154 0 01-.143-.033 7.775 7.775 0 00-.717-.559.155.155 0 01-.065-.14l.18-2.064a.156.156 0 00-.083-.151 9.694 9.694 0 00-2.554-.87.152.152 0 00-.155.066l-1.207 1.75a.153.153 0 01-.13.064 7.997 7.997 0 00-.778.004.153.153 0 01-.134-.066l-1.218-1.739a.154.154 0 00-.155-.065 9.715 9.715 0 00-2.55.894.154.154 0 00-.082.151l.196 2.066a.155.155 0 01-.066.14 7.688 7.688 0 00-.712.556.152.152 0 01-.142.034l-2.081-.557a.154.154 0 00-.158.05 9.768 9.768 0 00-1.386 2.202.155.155 0 00.032.173l1.446 1.425a.154.154 0 01.039.155 7.685 7.685 0 00-.27 1.197.153.153 0 01-.087.118l-1.948.909-.09.14c.005.817.112 1.63.318 2.421a.155.155 0 00.137.114l2.006.16a.153.153 0 01.13.098c.199.498.448.975.746 1.422a.154.154 0 01.011.15l-.892 1.914a.155.155 0 00.024.167 9.867 9.867 0 001.714 1.522.154.154 0 00.178 0l1.647-1.174a.154.154 0 01.161-.01 7.65 7.65 0 001.739.662.154.154 0 01.112.11l.533 1.99a.155.155 0 00.13.114c.741.081 1.49.08 2.23-.006a.153.153 0 00.13-.115l.522-1.992a.152.152 0 01.111-.11 7.683 7.683 0 001.741-.675.154.154 0 01.161.01l1.657 1.16a.154.154 0 00.177 0 9.868 9.868 0 001.701-1.527.154.154 0 00.024-.169l-.906-1.904a.154.154 0 01.011-.15c.298-.454.548-.938.744-1.444a.153.153 0 01.13-.097l2.003-.175z" fill="#5D5D6D"/><path opacity=".25" d="M38.477 37.343v.016a5.233 5.233 0 01-5.234 5.236h-.13a5.223 5.223 0 01-4.278-2.408 5.204 5.204 0 01-.827-2.826 5.235 5.235 0 0110.47-.018z" fill="#1F1F39"/><path opacity=".25" d="M37.831 34.839a5.182 5.182 0 00-.73-.806 5.227 5.227 0 00-7.39.394 5.214 5.214 0 00-1.322 3.95 5.1 5.1 0 00.622 2.065 5.22 5.22 0 01-1.003-3.083 5.215 5.215 0 011.34-3.498 5.24 5.24 0 018.483.978z" fill="#1F1F39"/><path d="M83.031 47.405c-.983.135-2.098-.232-3.012-.874m4.556-.13c-1.36.686-2.78.553-3.868-.187m9.74-20.854c-.6-.79-1.648-1.32-2.748-1.513m3.131 3.318c-.479-1.448-1.575-2.358-2.87-2.608" stroke="#564B37" stroke-width=".209" stroke-linecap="round" stroke-linejoin="round"/><path d="M70.453 32.075a.503.503 0 01-.371-.44 12.986 12.986 0 00-.43-2.35.502.502 0 01.2-.553l1.866-1.267a.505.505 0 00.184-.606 15.88 15.88 0 00-.544-1.203.507.507 0 00-.563-.267l-2.252.51a.505.505 0 01-.532-.214 13.082 13.082 0 00-1.422-1.805.502.502 0 01-.078-.583l1.064-1.99a.505.505 0 00-.118-.622 15.37 15.37 0 00-1.072-.84.505.505 0 00-.623.025l-1.76 1.5a.5.5 0 01-.568.056 13.194 13.194 0 00-2.021-.909.5.5 0 01-.336-.478l.016-2.266a.505.505 0 00-.391-.496 16.746 16.746 0 00-1.374-.255.505.505 0 00-.54.312l-.865 2.151a.502.502 0 01-.456.317c-.53.01-1.532.048-2.173.114a.506.506 0 01-.5-.272l-1.048-2.035a.507.507 0 00-.575-.257c-.46.116-.912.252-1.356.408a.505.505 0 00-.337.528l.233 2.281a.502.502 0 01-.28.504c-.64.308-1.253.669-1.834 1.078a.502.502 0 01-.577 0l-1.875-1.315a.507.507 0 00-.625.037c-.356.314-.696.643-1.021.988a.506.506 0 00-.056.626l1.26 1.9a.501.501 0 01-.018.58 13.04 13.04 0 00-1.148 1.812.501.501 0 01-.51.26l-2.281-.294a.506.506 0 00-.537.32c-.167.435-.316.877-.446 1.328a.505.505 0 00.242.587L44 30.076a.506.506 0 01.256.514c-.097.686-.158 1.695-.182 2.216a.503.503 0 01-.326.449l-2.18.808a.504.504 0 00-.326.53c.05.457.119.908.207 1.353a.506.506 0 00.486.407l2.257.043a.503.503 0 01.47.352c.23.727.524 1.432.877 2.108a.505.505 0 01-.071.57l-1.543 1.715a.505.505 0 00-.042.622c.249.366.512.722.79 1.066a.504.504 0 00.62.135l2.015-1.008a.503.503 0 01.58.093c.562.56 1.173 1.069 1.826 1.518a.503.503 0 01.201.539l-.568 2.231a.507.507 0 00.253.571c.377.202.763.388 1.157.559a.507.507 0 00.612-.169l1.317-1.831a.503.503 0 01.556-.187c.785.242 1.59.409 2.405.5a.502.502 0 01.433.382l.533 2.232a.498.498 0 00.481.383h.005c.424 0 .844-.017 1.26-.05a.506.506 0 00.46-.432l.316-2.24a.502.502 0 01.404-.424c.82-.156 1.625-.39 2.4-.7a.5.5 0 01.566.136l1.5 1.715a.506.506 0 00.619.113c.366-.196.724-.406 1.073-.63a.506.506 0 00.203-.595l-.77-2.143a.501.501 0 01.157-.56 13.02 13.02 0 001.789-1.753.503.503 0 01.566-.144l2.112.819a.504.504 0 00.602-.19c.233-.347.452-.703.658-1.066a.507.507 0 00-.098-.62l-1.682-1.55a.503.503 0 01-.124-.564 12.9 12.9 0 00.74-2.352.503.503 0 01.436-.395l2.24-.255a.506.506 0 00.446-.45c.053-.535.08-1.077.08-1.626v-.05l-2.599-.696zm-10.984.82a2.317 2.317 0 01-1.15 2.007 2.326 2.326 0 01-1.174.319h-.058a2.317 2.317 0 01-1.901-1.068 2.288 2.288 0 01-.367-1.255 2.333 2.333 0 01.177-.89 2.33 2.33 0 014.333.076c.096.256.145.53.146.804l-.006.008z" fill="#0052FF"/><path opacity=".25" d="M65.906 32.867v.028a8.715 8.715 0 01-1.607 5.057 8.766 8.766 0 01-3.219 2.772 8.683 8.683 0 01-3.931.93h-.218a8.745 8.745 0 01-7.16-4.032 8.702 8.702 0 01-1.384-4.727 8.765 8.765 0 01.668-3.363 8.746 8.746 0 018.09-5.397c.338 0 .675.019 1.01.057a8.775 8.775 0 017.75 8.675z" fill="#1F1F39"/><path opacity=".25" d="M64.823 28.678a8.863 8.863 0 00-2.155-2.084 8.718 8.718 0 00-3.91-1.453 8.75 8.75 0 00-9.736 9.456 8.696 8.696 0 001.043 3.455 8.726 8.726 0 01-1.679-5.157 8.686 8.686 0 01.668-3.363 8.746 8.746 0 018.091-5.397A8.73 8.73 0 0163 26.382a8.729 8.729 0 011.823 2.296z" fill="#1F1F39"/><path d="M64.723 46.148c1.156-.422 2.168-1.47 2.799-2.702m-5.077 2.493c1.89-.036 3.371-1.002 4.138-2.444" stroke="#564B37" stroke-width=".134" stroke-linecap="round" stroke-linejoin="round"/><path d="M81.347 8.109c.13-1.074-.283-2.282-.995-3.27m-.076 4.968c.728-1.494.564-3.038-.26-4.213" stroke="#564B37" stroke-width=".151" stroke-linecap="round" stroke-linejoin="round"/><path d="M68.387 16.51c.225.214.575.325.925.331m-1.132-.871a1.173 1.173 0 001.015.664" stroke="#564B37" stroke-width=".043" stroke-linecap="round" stroke-linejoin="round"/><path d="M45.55 15.919c.312.19.743.232 1.146.152m-1.516-.721c.357.434.855.6 1.33.511" stroke="#564B37" stroke-width=".051" stroke-linecap="round" stroke-linejoin="round"/><path d="M34.73 47.438c.966 0 1.991-.503 2.786-1.239m-4.411.476c1.403.48 2.753.164 3.703-.693M16.926 9.792c.579-.773 1.594-1.293 2.662-1.487m-3.022 3.242c.457-1.41 1.517-2.301 2.773-2.55" stroke="#564B37" stroke-width=".134" stroke-linecap="round" stroke-linejoin="round"/><path d="M37.004 3.046C37.51 1.79 38.699.72 40.076.074m-2.928 5.479c.11-2.075 1.227-3.663 2.838-4.45" stroke="#564B37" stroke-width=".147" stroke-linecap="round" stroke-linejoin="round"/><path d="M97.483 16.735c-1.643.006-11.95-1.956-17.73 1.539-.383.23.325 4.768.963 4.414 6.024-3.33 16.688-2.29 17.018-2.292.457 0-1.564 1.794-2.328 2.519-1.004.955 1.022 2.66 1.438 2.331.936-.738 7.279-6.338 7.215-6.819-.152-1.157-7.513-5.923-8.109-6.323-.615-.41-1.825 1.391-1.47 1.765.755.8 3.502 2.861 3.003 2.866zM14.767 33.214c-1.363-.029-9.939 1.45-14.685-1.532-.314-.195.337-3.95.863-3.647 4.948 2.849 13.81 2.14 14.08 2.146.377.008-1.274-1.511-1.895-2.123-.818-.806.886-2.191 1.227-1.913.765.626 5.945 5.361 5.886 5.76-.144.957-6.316 4.804-6.817 5.126-.515.331-1.49-1.18-1.193-1.485.64-.654 2.948-2.324 2.534-2.332z" fill="#0052FF"/><path opacity=".55" d="M61.906 32.984V33a4.758 4.758 0 01-.881 2.767 4.8 4.8 0 01-1.76 1.516 4.763 4.763 0 01-2.152.51h-.119a4.772 4.772 0 01-2.238-.618A4.774 4.774 0 0152.32 33a4.799 4.799 0 015.349-4.761 4.759 4.759 0 012.65 1.196 4.723 4.723 0 011.285 1.885c.2.533.301 1.096.302 1.664v0z" stroke="#1F1F39" stroke-width=".977" stroke-miterlimit="10"/><path d="M57.114 35.55a2.634 2.634 0 100-5.267 2.634 2.634 0 000 5.267z" fill="#fff"/><path opacity=".55" d="M73.294 12.293v.01a3.164 3.164 0 01-.584 1.835 3.201 3.201 0 01-1.168 1.006 3.16 3.16 0 01-1.428.337h-.079a3.17 3.17 0 01-2.346-1.121 3.157 3.157 0 01-.755-2.057 3.173 3.173 0 013.179-3.18 3.244 3.244 0 01.798.101 3.181 3.181 0 012.382 3.068v.001z" stroke="#1F1F39" stroke-width=".648" stroke-miterlimit="10"/><path d="M71.347 13.484a1.747 1.747 0 10-2.47-2.47 1.747 1.747 0 002.47 2.47z" fill="#fff"/><path opacity=".55" d="M29.75 19.434v.01A3.185 3.185 0 0128 22.29a3.147 3.147 0 01-1.429.338h-.079a3.175 3.175 0 01-3.101-3.178 3.205 3.205 0 01.242-1.22 3.194 3.194 0 011.81-1.755 3.193 3.193 0 012.913.343 3.202 3.202 0 011.194 1.52c.131.35.2.722.2 1.097z" stroke="#1F1F39" stroke-width=".648" stroke-miterlimit="10"/><path d="M27.808 20.624a1.747 1.747 0 10-2.471-2.47 1.747 1.747 0 002.47 2.47z" fill="#fff"/><path opacity=".55" d="M86.243 34.857v.012a3.805 3.805 0 01-.44 1.772 3.809 3.809 0 01-1.23 1.37 3.796 3.796 0 01-2.122.651h-.093a3.781 3.781 0 01-3.698-3.789 3.795 3.795 0 013.791-3.79 3.877 3.877 0 01.952.12 3.8 3.8 0 012.602 2.34c.157.42.237.865.238 1.314v0z" stroke="#1F1F39" stroke-width=".773" stroke-miterlimit="10"/><path d="M84.456 35.34a2.067 2.067 0 10-4.024-.949 2.067 2.067 0 004.023.95z" fill="#fff"/><path opacity=".55" d="M36.133 37.468v.01a2.71 2.71 0 01-.501 1.578 2.744 2.744 0 01-1.005.863 2.714 2.714 0 01-1.226.29h-.065a2.727 2.727 0 01-2.576-3.42 2.738 2.738 0 013.33-1.955 2.737 2.737 0 011.874 1.69c.112.302.169.622.17.944v0z" stroke="#1F1F39" stroke-width=".557" stroke-miterlimit="10"/><path d="M33.4 38.967a1.49 1.49 0 100-2.98 1.49 1.49 0 000 2.98z" fill="#fff"/><path opacity=".55" d="M49.423 10.769v.01a3.335 3.335 0 01-.388 1.567 3.353 3.353 0 01-2.964 1.787h-.084a3.329 3.329 0 01-1.569-.433 3.347 3.347 0 01-1.703-2.92 3.357 3.357 0 016.004-2.057 3.34 3.34 0 01.704 2.046v0z" stroke="#1F1F39" stroke-width=".683" stroke-miterlimit="10"/><path d="M46.066 12.607a1.828 1.828 0 100-3.656 1.828 1.828 0 000 3.656z" fill="#fff"/><path d="M102.504 49.487c-.27-.355-.74-.593-1.234-.68m1.405 1.491c-.215-.652-.707-1.06-1.288-1.17" stroke="#564B37" stroke-width=".094" stroke-linecap="round" stroke-linejoin="round"/></g><defs><clipPath id="clip0_166_12598"><path fill="#fff" d="M0 0h130.555v94H0z"/></clipPath></defs></svg>