<svg width="191" height="135" fill="none" xmlns="http://www.w3.org/2000/svg"><g clip-path="url(#clip0_166_12710)"><path d="M172.215.026a.058.058 0 000 .019.928.928 0 01-.098-.045.71.71 0 01.098.026zM55.885 12.671a3.557 3.557 0 10-5.03-5.03 3.557 3.557 0 005.03 5.03zM21.447 80.607a3.557 3.557 0 100-7.113 3.557 3.557 0 000 7.113zM173.461 30.98a4.273 4.273 0 110-8.547 4.273 4.273 0 010 8.546zm0-7.114a2.841 2.841 0 00-2.009 4.848 2.838 2.838 0 004.37-.43 2.841 2.841 0 00.479-1.578 2.848 2.848 0 00-2.84-2.84zM23.946 42.39a2.919 2.919 0 110-5.837 2.919 2.919 0 010 5.837zm0-4.998a2.08 2.08 0 100 4.16 2.08 2.08 0 000-4.16zm-2.832 23.752a2.92 2.92 0 11-.007-5.84 2.92 2.92 0 01.007 5.84zm0-4.998a2.08 2.08 0 100 4.159 2.08 2.08 0 000-4.159zm-8.406 14.261a2.919 2.919 0 110-5.837 2.919 2.919 0 010 5.837zm0-4.998a2.08 2.08 0 100 4.16 2.08 2.08 0 000-4.16zm37.59 14.561a2.92 2.92 0 110-5.84 2.92 2.92 0 010 5.84zm0-4.998a2.08 2.08 0 100 4.16 2.08 2.08 0 000-4.16zM65.26 79.97a2.92 2.92 0 11-.002-5.839 2.92 2.92 0 01.002 5.838zm0-4.998a2.08 2.08 0 10-.002 4.159 2.08 2.08 0 00.002-4.16zm16.925 12.731a2.919 2.919 0 110-5.838 2.919 2.919 0 010 5.838zm0-5a2.08 2.08 0 100 4.16 2.08 2.08 0 000-4.16zm-3.067-31.279a2.919 2.919 0 110-5.837 2.919 2.919 0 010 5.837zm0-4.998a2.08 2.08 0 10-.002 4.16 2.08 2.08 0 00.002-4.16zm.49 24.909a2.918 2.918 0 11-.003-5.837 2.918 2.918 0 01.002 5.837zm0-4.999a2.08 2.08 0 101.92 1.283 2.083 2.083 0 00-1.92-1.287v.004zM63.502 37.022a2.92 2.92 0 11-.002-5.839 2.92 2.92 0 01.002 5.84zm0-4.997a2.08 2.08 0 101.47.607 2.08 2.08 0 00-1.47-.61v.003zm-5.638 24.398a2.919 2.919 0 110-5.837 2.919 2.919 0 010 5.837zm0-4.999a2.08 2.08 0 10-.003 4.16 2.08 2.08 0 00.003-4.16zM80.02 33.928a2.977 2.977 0 11.009-5.955 2.977 2.977 0 01-.01 5.955zm0-4.998a2.021 2.021 0 100 4.042 2.021 2.021 0 000-4.042zm48.875 15.676a2.978 2.978 0 110-5.956 2.978 2.978 0 010 5.956zm0-4.999a2.022 2.022 0 00-1.429 3.45 2.024 2.024 0 002.202.438 2.017 2.017 0 001.248-1.867 2.021 2.021 0 00-2.021-2.02zM112.988 25.96a2.98 2.98 0 01-2.919-3.559 2.98 2.98 0 012.339-2.338 2.977 2.977 0 11.58 5.897zm0-5a2.02 2.02 0 102.021 2.022 2.038 2.038 0 00-.591-1.432 2.007 2.007 0 00-1.43-.594v.005zm15.495 45.43a2.979 2.979 0 11-.002-5.956 2.979 2.979 0 01.002 5.957zm0-4.998a2.02 2.02 0 10-.001 4.04 2.02 2.02 0 00.001-4.04zm-11.065 18.635a2.98 2.98 0 01-2.75-1.838 2.979 2.979 0 013.89-3.89 2.976 2.976 0 01-1.14 5.728zm0-4.998a2.019 2.019 0 00-1.982 2.415 2.025 2.025 0 001.588 1.588 2.024 2.024 0 002.075-.86 2.02 2.02 0 00-1.681-3.143zm30.037 12.321a2.977 2.977 0 110-5.953 2.977 2.977 0 010 5.954zm0-4.998a2.019 2.019 0 00-1.982 2.415 2.025 2.025 0 001.588 1.588 2.022 2.022 0 002.415-1.982 2.02 2.02 0 00-2.021-2.021zm5.22-2.392a2.91 2.91 0 100-5.82 2.91 2.91 0 000 5.82zm11.829-30.021a2.98 2.98 0 01-2.75-1.838 2.978 2.978 0 015.226-2.793 2.977 2.977 0 01-2.476 4.63zm0-4.998a2.02 2.02 0 100 4.04 2.02 2.02 0 000-4.04zm-.294 17.643a2.976 2.976 0 11.002-5.951 2.976 2.976 0 01-.002 5.951zm0-4.997a2.02 2.02 0 100 4.04 2.02 2.02 0 000-4.04z" fill="#2F2E41"/><path d="M169.906 27.246h-12.383a.54.54 0 01-.327-.11l-13.7-10.495H74.847a.535.535 0 01-.337-.118l-7.227-5.83H53.37a.538.538 0 110-1.074h14.107c.123 0 .242.041.338.118l7.227 5.829h68.637a.54.54 0 01.327.11l13.701 10.492h12.2a.54.54 0 010 1.076v.002zm.595 6.743a3.556 3.556 0 10-7.02-1.14 3.556 3.556 0 007.02 1.14zM39.4 27.377a3.557 3.557 0 100-7.113 3.557 3.557 0 000 7.113z" fill="#2F2E41"/><path d="M71.968 22.275h26.383l-.631 1.076H71.778a.537.537 0 01-.337-.12l-7.227-5.828H50.47L40.792 24.2a.537.537 0 11-.618-.879l9.817-6.899a.532.532 0 01.309-.098h14.103c.123 0 .242.042.338.12l7.227 5.831zm95.405 11.14a.539.539 0 01-.538.538h-12.383a.543.543 0 01-.327-.11l-13.7-10.492H115.4l.103-.876-.14-.2h25.244a.53.53 0 01.327.111l13.701 10.492h12.2a.537.537 0 01.538.537zm-140.331 1.1a2.909 2.909 0 100-5.818 2.909 2.909 0 000 5.818zm25.906 2.497a2.909 2.909 0 100-5.818 2.909 2.909 0 000 5.818zM14.807 50.651a2.909 2.909 0 100-5.817 2.909 2.909 0 000 5.817zM2.909 61.134a2.909 2.909 0 100-5.818 2.909 2.909 0 000 5.818zM128.042 74.22a2.91 2.91 0 100-5.818 2.91 2.91 0 000 5.818zm-28.918 5.74a2.91 2.91 0 100-5.82 2.91 2.91 0 000 5.82zm9.168 10.628a2.91 2.91 0 100-5.82 2.91 2.91 0 000 5.82zm70.417-22.537a2.91 2.91 0 10-5.744-.931 2.91 2.91 0 005.744.931zM57.866 46.399a2.909 2.909 0 100-5.818 2.909 2.909 0 000 5.818zm24.952-7.251a2.909 2.909 0 10-5.742-.932 2.909 2.909 0 005.742.932z" fill="#2F2E41"/><path d="M96.594 25.58a2.896 2.896 0 10-2.21-5.352 2.896 2.896 0 002.21 5.353zM79.007 61.82a2.909 2.909 0 100-5.817 2.909 2.909 0 000 5.818zm-21.141 8.577a2.909 2.909 0 100-5.818 2.909 2.909 0 000 5.818zM34.59 84.79a2.909 2.909 0 10-5.755-.849 2.909 2.909 0 005.755.85zm23.276 6.194a2.909 2.909 0 100-5.817 2.909 2.909 0 000 5.817zm70.953-36.448a2.909 2.909 0 100-5.817 2.909 2.909 0 000 5.817zm27.262 2.286a2.91 2.91 0 100-5.819 2.91 2.91 0 000 5.82zM128.284 33.86a2.909 2.909 0 100-5.818 2.909 2.909 0 000 5.818zM170.6 44.462a2.909 2.909 0 100-5.817 2.909 2.909 0 000 5.817zM42.385 32.44h-.014l-15.34-.402a.537.537 0 01.029-1.074l15.166.397 9.672-6.797a.538.538 0 01.308-.097H66.31a.53.53 0 01.337.12l7.227 5.827h3.505a.538.538 0 110 1.076h-3.694a.538.538 0 01-.338-.12l-7.227-5.828H52.372l-9.678 6.798a.533.533 0 01-.309.1z" fill="#2F2E41"/><path d="M168.948 42.092h-12.383a.54.54 0 01-.327-.111l-13.7-10.492h-12.327a.54.54 0 010-1.075h12.506c.118 0 .233.038.327.11l13.7 10.492h12.201a.537.537 0 010 1.076h.003zM44.621 40.38H26.783a.538.538 0 110-1.075h17.67l8.19-5.642a.54.54 0 01.83.33.537.537 0 01-.22.556l-8.326 5.737a.542.542 0 01-.306.094zm35.075-1.283h-7.545l-7.065-3.213.348-.764 6.9 3.138h7.362v.84zm82.311 8.163h-18.832l-8.325-5.343-3.439.131-.032-.838 3.75-.144 8.339 5.354h18.539v.84zM76.62 48.925h-6.13L57.85 43.62l-13.771 4.67H16.176v-.84H43.94l13.94-4.727 12.78 5.361h5.96v.84zm63.542 5.631l-11.432-2.52.181-.82 11.339 2.499 15.093-.158.007.84-15.188.16zm-121.13 3.132H2.91v1.075h16.122v-1.075zm34.117 1.075H23.613v-1.075h29.138l3.144-2.692.7.818-3.446 2.95zm25.861.569H63.312l-3.656-4.207.634-.551 3.405 3.918H79.01v.84zm52.247 4.475l-.542-.787 5.055-3.474.266-.085 25.968-.332.009.956-25.822.331-4.934 3.39zM55.368 66.95h-40.56v1.076h40.56V66.95zm21.64 1.99l-4.737-.914H59.973V66.95h12.4l4.839.933-.204 1.057zm63.386 2.85h-12.355v-.957h12.136l7.688-3.732h27.965v.956h-27.746l-7.688 3.733zM47.8 76.63H21.45v.84H47.8v-.84zm51.323 0H67.758v.84h31.365v-.84zm53.552-.057h-32.757v.956h32.757v-.956zM55.984 88.405l-4.586-3.612H31.715v-.84h19.974l4.815 3.793-.52.66zm3.2-.003l-.528-.653 4.699-3.796h16.5v.84H63.651l-4.468 3.609zm47.809-.363l-5.372-3.246H84.684v-.84h17.172l5.571 3.367-.434.719zm2.51.059l-.46-.838 6.135-3.365h29.78v.956h-29.536l-5.919 3.247z" fill="#2F2E41"/><path d="M119.003 27.638h-29.7a4.389 4.389 0 00-4.389 4.388v35.889a4.389 4.389 0 004.389 4.388h29.7a4.388 4.388 0 004.388-4.388V32.026a4.388 4.388 0 00-4.388-4.388z" stroke="#2F2E41" stroke-width="1.102" stroke-miterlimit="10"/><path d="M99.819 49.502c-1.038 1.339-3.43 1.016-3.797-.947-.664-2.257-2.03-6.521-2.533-8.77-.203 1.753.081 4.081-.016 5.983v4.195a3.843 3.843 0 01-1.3.243c-3.065.44-.874-14.163-1.5-15.699 3.439-4.262 4.736 4.051 5.48 6.118.887 2.94 1.03 4.768.884.352-.02-1.878-.018-5.393-.017-7.31 1.541-.588 3.01-.183 2.799 1.923v13.912zm9.26-15.834c1.222 4.458-.895 3.82-4.213 3.79v3.059c.594.207 4.202-.62 3.871.784.706 3.514-1.363 2.974-3.838 2.95v5.712c-.955.356-2.619.511-2.815-.866-.024-2.096-.544-12.85.315-14.752.428-1.319 5.744-.432 6.68-.677zm1.517 3.79c-.352-1.078-.77-3.675.735-3.871h7.261c.211.61.318 1.25.316 1.895.201 2.234-1.354 2.035-2.898 1.976v12.505c-.72.243-1.938.49-2.515-.19-.826-.874-.223-11.058-.399-12.315h-2.5z" fill="#0052FF"/><path d="M112.957 68.754l-.016.009a.083.083 0 00.016-.01zm1.549.866l-.014.007.014-.007zm-14.617-1.79a.616.616 0 10-1.233.021.616.616 0 001.233-.02zm-5.727-11.495a.616.616 0 10-1.231.023.616.616 0 001.231-.023zm23.069 7.595a.744.744 0 00-.676.469.746.746 0 00.175.803.737.737 0 00.809.147.737.737 0 00.384-.974.742.742 0 00-.692-.445zm.021 1.232a.493.493 0 11-.017-.987.493.493 0 01.017.987zM94.08 62.344a.505.505 0 10.016 1.01.505.505 0 00-.016-1.01zm.014.866a.361.361 0 11-.014-.722.361.361 0 01.014.722zm-.557-4.107a.506.506 0 10.016 1.012.506.506 0 00-.016-1.012zm.014.866a.361.361 0 11-.014-.722.361.361 0 01.014.722zm-1.499-2.446a.507.507 0 10.018 1.014.507.507 0 00-.017-1.014zm.015.865a.36.36 0 11-.012-.72.36.36 0 01.012.72zm6.47-2.632a.507.507 0 10.017 1.014.507.507 0 00-.017-1.014zm.014.866a.36.36 0 11-.012-.718.36.36 0 01.013.718zm-2.861-3.919a.507.507 0 10.016 1.013.507.507 0 00-.017-1.013zm.014.865a.36.36 0 11-.013-.72.36.36 0 01.013.72zm5.424 2.145a.503.503 0 00-.464.32.505.505 0 10.464-.32zm.013.865a.357.357 0 01-.335-.217.352.352 0 01-.024-.207.359.359 0 01.714.057.354.354 0 01-.217.338.354.354 0 01-.138.029zm2.892-2.255a.506.506 0 10.016 1.012.506.506 0 00-.016-1.012zm.015.866a.36.36 0 01-.265-.61.36.36 0 11.267.61h-.002zm-3.843-3.491a.588.588 0 10.017 1.176.588.588 0 00-.017-1.176zm.016.99a.401.401 0 01-.297-.681.403.403 0 11.297.682zm5.988 8a.507.507 0 00-.083 1.005.506.506 0 10.083-1.005zm.014.867a.357.357 0 01-.335-.217.352.352 0 01-.024-.208.36.36 0 11.359.424zm1.026-4.452a.505.505 0 10.014 1.011.505.505 0 00-.014-1.01zm.014.866a.361.361 0 01-.36-.423.355.355 0 01.485-.272.358.358 0 01.229.328.365.365 0 01-.1.257.356.356 0 01-.254.11zm-6.316 5.191a.507.507 0 10.017 1.013.507.507 0 00-.017-1.013zm.015.866a.361.361 0 01-.36-.424.364.364 0 01.486-.271.362.362 0 01.228.328.362.362 0 01-.354.365v.002zm-1.046-4.213a.506.506 0 10.016 1.011.506.506 0 00-.016-1.01zm.014.866a.36.36 0 11-.01-.721.36.36 0 01.01.722zm7.074 2.912a.516.516 0 10.017 1.032.516.516 0 00-.017-1.032zm.014.866a.354.354 0 01-.35-.413.348.348 0 01.271-.279.348.348 0 01.423.337.344.344 0 01-.211.327.345.345 0 01-.133.028zm1.806-2.297a.516.516 0 10.017 1.032.516.516 0 00-.017-1.031zm.015.866a.349.349 0 01-.327-.211.358.358 0 01-.023-.202.35.35 0 11.67.192.352.352 0 01-.32.221zm.876 4.008a.519.519 0 00-.472.326.517.517 0 10.472-.326zm.015.866a.354.354 0 01-.329-.21.352.352 0 01.61-.34.354.354 0 01-.037.443.353.353 0 01-.247.107h.003zm4.18.527a.514.514 0 00-.496.625.516.516 0 10.496-.625zm.015.866a.35.35 0 01-.328-.21.352.352 0 01.247-.483.35.35 0 01.425.337.35.35 0 01-.344.356zm-6.425-.653a.516.516 0 10.017 1.032.516.516 0 00-.017-1.032zm.015.866a.354.354 0 01-.329-.21.352.352 0 01.61-.34.354.354 0 01-.036.443.35.35 0 01-.245.107zm1.844-11.521a.514.514 0 00-.496.626.523.523 0 00.413.398.518.518 0 00.608-.517.52.52 0 00-.525-.507zm.015.866a.35.35 0 11.131-.028.353.353 0 01-.135.028h.004zm.79-3.301a.516.516 0 10.017 1.03.516.516 0 00-.017-1.03zm.015.865a.346.346 0 01-.327-.21.35.35 0 11.327.21zm5.165-2.222a.519.519 0 00-.472.327.517.517 0 10.472-.327zm.015.866a.35.35 0 11-.014-.7.35.35 0 01.014.7zm-5.664-3.197a.516.516 0 10.017 1.032.516.516 0 00-.017-1.032zm.015.866a.35.35 0 11.321-.22.355.355 0 01-.321.223v-.003zm7.072 3.225a.506.506 0 00-1.001-.08.505.505 0 101.001.081zm-.606-3.001a.497.497 0 00-.319-.461.504.504 0 10.319.46zm2.231 7.672a.514.514 0 00-.497.625.514.514 0 00.939.17.517.517 0 00-.442-.795zm.014.866a.35.35 0 11-.013-.701.35.35 0 01.013.701zm-.101-3.056a.515.515 0 10.017 1.03.515.515 0 00-.017-1.03zm.015.867a.35.35 0 11.246-.107.35.35 0 01-.246.108v-.001z" fill="#FF794F"/><path d="M116.628 64.587l-2.145.036c-.02 0-.04.008-.056.02l-2.343 1.858-9.109.154a.1.1 0 00-.059.021l-1.234 1.032-2.41.04a.091.091 0 00-.092.092.092.092 0 00.091.092l2.444-.041a.095.095 0 00.059-.022l1.234-1.031 9.108-.153a.09.09 0 00.056-.02l2.344-1.859 2.112-.036a.09.09 0 00.065-.026.093.093 0 00.027-.066.093.093 0 00-.027-.064.09.09 0 00-.065-.027zm-.551-.444a.617.617 0 100-1.233.617.617 0 000 1.233zm-18.649 1.362a.615.615 0 10-1.23.02.615.615 0 001.23-.02z" fill="#FF794F"/><path d="M116.075 63.436l-2.145.036a.095.095 0 00-.056.02l-2.343 1.858-9.11.153a.094.094 0 00-.058.022l-1.234 1.034-2.381.04-1.696-1.154a.093.093 0 00-.07-.015.092.092 0 00-.06.04.092.092 0 00.026.129l1.72 1.166a.088.088 0 00.054.016l2.444-.041a.09.09 0 00.057-.021l1.236-1.031 9.107-.154a.09.09 0 00.057-.02l2.342-1.858 2.113-.036a.092.092 0 00.092-.091.092.092 0 00-.092-.092l-.003-.001zm-20.925.758a.503.503 0 10-1.007.017.503.503 0 001.006-.017zm4.483-.508a.504.504 0 10-1.008.016.504.504 0 001.008-.016zm-6.648-2.252a.504.504 0 10-1.009.017.504.504 0 001.009-.017zm-2.594-1.268a.504.504 0 100-1.009.504.504 0 000 1.009zm18.383-4.079a.506.506 0 00-.867-.342.5.5 0 00-.099.552.498.498 0 00.471.303.501.501 0 00.495-.513zm.289-1.845a.505.505 0 10-1.01.015.505.505 0 001.01-.015zm-2.164-2.069a.506.506 0 00-.867-.342.5.5 0 00-.1.552.506.506 0 00.967-.21zm13.5 5.607a.506.506 0 00-.866-.342.501.501 0 00.089.773.5.5 0 00.474.04.498.498 0 00.303-.471zm-19.941 4.265a.506.506 0 00-.867-.342.504.504 0 10.867.342zm6.933.832a.505.505 0 10-1.01.015.505.505 0 001.01-.015zm-.418-3.498a.505.505 0 10-1.01.014.505.505 0 001.01-.014zm-6.586-1.491a.497.497 0 00-.319-.46.503.503 0 10.319.46zm-4.582-2.848a.505.505 0 10-1.01.017.505.505 0 001.01-.017zm4.52-.719a.506.506 0 00-.867-.342.504.504 0 10.867.342zm9.793 6.793a.506.506 0 00-1.001-.082.509.509 0 00.224.514.505.505 0 00.777-.432zm7.324-1.162a.506.506 0 00-.867-.343.507.507 0 00.09.775.5.5 0 00.636-.073.498.498 0 00.141-.36z" fill="#FF794F"/><path d="M109.368 64.572a.504.504 0 100-1.009.504.504 0 000 1.009zm2.875 2.935a.506.506 0 00-1.001-.082.509.509 0 00.224.514.505.505 0 00.777-.432zm4.93-5.409a.506.506 0 00-.867-.342.502.502 0 00.09.775.504.504 0 00.777-.433zm-19.87 1.915l-2.656.115a.091.091 0 00-.088.096.09.09 0 00.03.064.091.091 0 00.065.024l2.627-.113 1.695 1.15c.016.01.035.015.054.015l2.443-.042a.09.09 0 00.058-.02l1.236-1.031 3.792-.065a.09.09 0 00.065-.027.093.093 0 00.027-.064.093.093 0 00-.027-.066.09.09 0 00-.065-.026l-3.826.064a.09.09 0 00-.058.022l-1.235 1.03-2.38.041-1.697-1.15a.092.092 0 00-.06-.017z" fill="#FF794F"/><path d="M116.381 62.018l-2.146.036c-.02 0-.04.008-.056.02l-2.342 1.858-2.136.036a.094.094 0 00-.065.027.093.093 0 00-.027.065c0 .025.01.048.027.065a.094.094 0 00.065.027l2.166-.037a.09.09 0 00.057-.02l2.342-1.857 2.113-.036a.092.092 0 00.092-.092.092.092 0 00-.092-.092h.002zm-18.714.613l-3.09.053a.091.091 0 00-.093.091.092.092 0 00.092.092l3.063-.051 1.434.953a.095.095 0 00.07.014.093.093 0 00.073-.11.094.094 0 00-.04-.06l-1.458-.969a.102.102 0 00-.05-.013zm9.177.183l-4.402-.041-1.215.577.062.132 1.187-.564 4.37.04-.002-.144z" fill="#FF794F"/><path d="M117.984 61.095l-4.463.075-1.616 1.328-2.637.098-.002.145 2.69-.096 1.618-1.33 4.412-.074-.002-.146zm-12.202.035l-3.66-.055-2.175.956-2.399-.769-4.833.082.002.145 4.81-.081 2.429.778 2.198-.966 3.631.054-.003-.145zm7.668-1.222l-3.852 1.143.034.142 3.835-1.14 3.345-.028-.002-.147-3.36.03zm-20.267-.391l-2.792.047.003.187 2.793-.048-.004-.186zm5.906-.095l-5.116.086.002.186 5.049-.085.552.456.118-.143-.605-.5zm7.383-.108l-5.621-.021-.621.74.112.093.578-.689 5.555.022-.003-.145zm3.374-.89l-.092.139 2.271.504.047.014 5.876-.042-.001-.166-5.851.042-2.25-.49zm-10.393-.619l-7.027.12.003.186 7.027-.12-.004-.186zm7.351-.279l-2.086.195-4.472.076.003.186 4.491-.076 2.103-.2-.039-.181zm5.306-.253a.506.506 0 00-.867-.342.507.507 0 00.09.774.5.5 0 00.635-.073.501.501 0 00.142-.359z" fill="#FF794F"/><path d="M113.746 57.162l-2.141.037.003.165 2.102-.036 1.343.625 4.845-.082-.003-.166-4.806.082-1.343-.625zm-15.634-.969l-4.565.077.002.145 4.566-.077-.003-.145zm10.16-.18l-6.702.116.003.145 6.701-.116-.002-.145zm8.008-.138l-5.675.096.003.165 5.675-.096-.003-.165zm-16.785-1.597l-.785.64-3.41.057.004.145 3.46-.058.823-.67-.092-.114zm.556-.008l-.09.113.826.644 2.858-.047-.003-.146-2.807.047-.784-.611zm8.281-.078l-.921.578-2.934.05.002.145 2.975-.05.956-.6-.078-.123zm.437-.018l-.078.147 1.073.565 5.159-.087-.002-.166-5.117.087-1.035-.546zm-9.061-1.962l-1.928.032-1.21.867-.441.007.003.165.493-.008 1.21-.865 1.876-.032-.003-.166zm6.616-.116l-5.613.095.003.165 5.613-.095-.003-.165zm3.865.213l-.103.13.857.683 4.398-.074-.003-.165-4.338.073-.811-.647zm-.813 15.164l-1.978.033.021 1.219.165-.003-.017-1.054 1.812-.03-.003-.165zm4.599-.078l-2.237.037.003.166 2.07-.035.017.949.165-.003-.018-1.114z" fill="#FF794F"/><path opacity=".12" d="M191.001 132.706c-.045 1.691-18.12 1.858-38.999 1.858-20.878 0-37.803-.167-37.803-1.557 0-1.514 16.925-1.561 37.803-1.561 20.879 0 39.037-.223 38.999 1.26z" fill="#32323F"/><path d="M127.312 47.591c.62-2.441.697-4.186-.155-4.225-.593-.027.367-2.81 1.996-2.461 1.628.35 2.518 2.028 1.956 2.964-.814 1.357-.968 3.314-1.085 4.225-.113.882-2.712-.503-2.712-.503zm5.962 77.514s.476 4.51-.025 5.399c-.5.889 4.059-.407 4.032-1.479-.028-1.073.041-4.961.041-4.961l-4.048 1.041z" fill="#EEADA5"/><path d="M137.328 128.347c-.501.053.092 1.128-1.828 1.615-1.643.417-1.616-1.051-2.225-.792-.609.259-6.622 2.156-6.208 3.24.514.987 3.301 1.023 4.598.579 1.298-.444 3.236-.774 3.781-.7.545.074 1.14-.048 1.349-.065.627-.052 1.228-.378 1.436-.643.209-.266.568-.91.422-1.567-.104-.467-.367-1.768-1.325-1.667z" fill="#2F2E41"/><path d="M170.746 114.557s4.472.757 5.193 1.479c.721.722.702-4.018-.338-4.281-1.041-.262-4.768-1.378-4.768-1.378l-.087 4.18z" fill="#EEADA5"/><path d="M175.441 111.67c-.092.497 1.033.254.933 2.55-.043.981-1.243.905-1.167 1.562.075.657.083 6.445 1.24 6.355 1.092-.213 1.859-2.174 1.802-3.545-.057-1.372.174-3.323.401-3.824.227-.502.276-1.102.32-1.311.128-.616-.014-1.286-.205-1.561-.191-.276-.711-.803-1.382-.85-.483-.03-1.768-.323-1.942.624z" fill="#2F2E41"/><path d="M170.927 115.062c-1.16.063-19.473-4.472-22.206-9.413-1.271-2.296-2.259-18.767-2.354-18.922 0 0-6.545 14.242-6.645 16.258-.144 2.934-1.886 21.586-2.055 23.03-.019.169-.158.326-.378.464-.807.507-2.709.767-3.865.466-.532-.138-.906-.395-.944-.802-.109-1.126-.028-3.229.122-5.816.317-5.43.943-12.989.79-18.105-.215-7.126 4.058-21.431 5.497-26.064.131-.422.239-.764.318-1.01l.184-.093c1.579-.826 13.023-6.521 15.476.15.068.184.15.38.243.583 2.48 5.368-.429 22.997.327 26.546.669 3.139 17.722 7.612 18.137 7.847.415.235-1.488 4.82-2.647 4.881z" fill="#0052FF"/><path d="M176.947 59.61c-.663.79-1.079 1.154-1.758 1.493-.238.12-.509.236-.833.368-.418.169-.964.41-1.505.655-1.08.49-2.14.998-2.14.998l-.563-2.213 1.12-.323.329-.184a5.76 5.76 0 00.595-.38c.353-.268.531-.529.781-1.031.407-.817.806-1.572 1.03-1.696.223-.124.767-.018.405.498-.434.62-.574 1.076-.295 1.378.279.301.754.48.898.178.144-.302.476-1.066.673-1.606.162-.449.71-.85.931-.97l.062-.037c.179-.112.499-.322.842-.085.244.17-1.005 1.118-1.158 1.364-.346.559-.281.991-.222 1.102.059.112.909-.522 1.113-.71.883-.813 1.639-.62 1.804-.423.308.367-1.266.621-2.109 1.624z" fill="#EEADA5"/><path d="M172.646 63.28c-.698.54-8.7 6.57-11.757 6.706-1.259.059-3.742-1.275-5.87-4.243a17.604 17.604 0 01-1.14-1.826c-.582 1.309-1.452 2.582-1.221 5.127l.015.144v.026l.018.132c.007.039.015.099.024.148.009.05.017.099.028.147.017.086.036.17.057.253l.031.117.032.117.036.116a6.195 6.195 0 00.295.788l.047.11.049.108.027.057c.809 1.745 2.02 3.179 1.793 4.475a1.77 1.77 0 01-.133.426c-.529 1.164-4.121 1.807-7.861 2.07-2.469.063-4.897-.198-6.449-.7-.804-.26-1.377-.585-1.59-.962a1.737 1.737 0 01-.184-.46c-.109-.425-.05-.869.099-1.337.367-1.175 1.312-2.508 1.627-4.124.071-.357.107-.72.105-1.083-.012-2.528-1.286-5.933-2.473-6.884l-.037-.029c-1.201-.907-7.507 1.817-11.789 1.01-3.529-.666.379-16.826.521-17.32.143-.495 4.278-.443 3.957.75-.32 1.191-3.428 11.362-1.534 11.92 1.319.388 4.434-.478 9.108-4.379.788-.658 2.795-2.119 4.947-2.64.816-.203 1.649-.33 2.488-.377.118-.006.236-.01.357-.01.903-.007 1.806.074 2.694.242 1.606.298 3.071.827 3.933 1.357.178.105.345.229.499.367 3.696 3.483 5.11 10.331 7.763 11.362 1.639.636 7.206-3.284 9.48-4.916l.68-.488c.285-.203.575-.02.827.352a3.893 3.893 0 01.35.7 5.93 5.93 0 01.364 1.533c.044.528-.011.962-.213 1.119z" fill="#FF794F"/><path d="M143.407 48.546c.622 2.32.511 2.623.157 3.301-.354.678-1.428.403-1.37 1.155.047.61 1.352 2.296 3.71 2.186 2.428-.116 3.151-3.674 3.151-3.674s-2.767-2.908-4.066-5.34c-1.3-2.433-1.582 2.372-1.582 2.372z" fill="#F4B0B3"/><path opacity=".18" d="M143.83 51.142c.052-.338.013-.784-.17-1.585a.86.86 0 01.368-.245c.183-.042.589-.152.75-.367.267-.36.889-.343 1.029.291.05.23-.992 1.909-1.977 1.906z" fill="#1F1F39"/><path d="M143.495 43.24c-.966 1.806-2.146 2.48-1.484 2.791.502.235-1.414 3.981.662 3.836 2.076-.145 3.897-.856 4.428-2.94.531-2.083.895-3.294.895-3.294l-4.501-.393z" fill="#F4B0B3"/><path d="M143.104 43.565c.509 1.075 1.431 1.642 1.761 2.071.184.244.769.23.947-.02.2-.275.674-.29 1.103.016.512.367-.092.956-.396 1.365-.231.304.228.866-.022 1.154-.486.564-1.493 2.62.816 4.88.779.762-1.286 1.789-1.736 3.413-.45 1.624.702 3.848 2.748 4.428 1.885.523-.46-3.272 1.377-3.315 3.699-.092 1.696-1.978 1.907-3.05.154-.78 1.351-1.036 2.132-2.039.748-.959 1.214-2.261.968-3.923-.329-2.225-1.417-1.996-2.366-2.547-.949-.55-.843-5.42-4.579-5.505-2.586-.06-3.8 1.028-4.3 1.704-.215.284-.511 1.048-.36 1.368z" fill="#1F1F39"/><path opacity=".08" d="M142.887 65.772c-.104 1.181-1.377 3.63-2.274 4.929a5.4 5.4 0 00.106-1.082c-.012-2.53-1.286-5.934-2.473-6.885 2.356 1.181 4.777 1.512 4.641 3.038z" fill="#1F1F39"/><path opacity=".11" d="M152.655 69.049c.075.81.334 1.561.66 2.262a6.484 6.484 0 01-.573-.316c-1.194-.735-3.221-4.041-2.976-4.584.246-.543 2.341.834 4.11-2.49-.581 1.31-1.452 2.583-1.221 5.128z" fill="#1F1F39"/><path opacity=".14" d="M154.068 63.39c.065-.276.042-1.7-.734-2.798-.777-1.099-.775-1.615-.754-1.745.459 1.042 2.232 3.618 2.324 4.74.134 1.653.109 2.281.109 2.281l-1.138-1.948c.082-.17.147-.348.193-.53z" fill="#1F1F39"/><path opacity=".08" d="M140.666 77.581c-2.814 6.76-6.725 20.691-6.572 22.997.163 2.436-.152 17.375-1.492 19.748.316-5.43.943-12.989.789-18.105-.214-7.126 4.059-21.431 5.498-26.065-.108-.425-.05-.869.099-1.337l.401.229 1.912 1.092c-.204.436-.416.918-.635 1.441z" fill="#2F2E41"/><path d="M120.548 41.153c-.958-.524-1.736-.258-2.48-.698-.426-.252-.6-1.356-.775-.93-.167.41-.61 1.57.146 2.412.756.844 2.979.073 2.979.073l.13-.857z" fill="#0052FF"/><path d="M125.49 41.542c1.351.106 12.11 1.274 11.839 1.87-.284.623-14.891-.878-16.935-1.366-.268-.063-.121-.908.183-.893.816.039 3.561.285 4.913.39z" fill="#AAAAAF"/><path d="M122.915 41.337c-.167.668-.266 1.152-.081 1.167.328.026.384-1.037.397-1.119.019-.125-.267-.242-.316-.048zm.448.038c-.167.67-.218 1.148-.082 1.168.276.04.358-1.061.388-1.138.029-.077-.255-.224-.306-.03z" fill="#3B3B4C"/><path d="M128.108 44.248c-.321-1.745-.689-2.238.028-2.238.843 0 1.337 2.006 1.194 2.122-.143.116-1.222.117-1.222.117z" fill="#EEADA5"/><path opacity=".29" d="M146.366 86.73l-.228-2.998s-3.159 6.164-3.654 11.757l3.882-8.76z" fill="#1F1F39"/><path opacity=".11" d="M176.948 59.61c-.663.79-1.08 1.154-1.758 1.493a24.76 24.76 0 01-2.699-.469c-.299-.07-.598-.148-.892-.235a11.723 11.723 0 01-.966-.329l.68-.488c.284-.203.575-.02.826.352.019.027.036.055.053.084.353-.267.531-.528.781-1.03.407-.817.807-1.572 1.03-1.696.223-.124.767-.019.405.497-.434.62-.574 1.077-.295 1.378.279.301.754.48.898.178.145-.302.476-1.065.673-1.606.162-.448.71-.849.931-.97a.946.946 0 00.063-.037l.841-.084c.244.17-1.005 1.118-1.157 1.364-.347.558-.281.99-.223 1.102.059.111.909-.523 1.114-.711.882-.813 1.638-.62 1.804-.422.307.372-1.267.626-2.109 1.629z" fill="#1F1F39"/><path d="M169.249 56.96c-.377.726-.471 1.4.537 1.985 2.558 1.483 14.552 2.455 14.983-1.85.299-2.994-3.686-4.18-7.73-4.246-4.044-.067-8.182.787-8.329 1.966-.201 1.6 1.036 1.185.539 2.146z" fill="#2F2E41"/><path d="M172.302 57.282c-.275.62-.542.852.116.93.659.078.638.502 1.057.484.697-.028.649-.643 1.152-.643.504 0 .543-.89 0-.93-.543-.038-1.395-.078-1.469-.426-.075-.35-.931-.233-.931.116 0 .35.078.117 0 .35l.075.119z" fill="#0052FF"/><path d="M172.72 54.508c.906.202.698.785 1.046.727.348-.058.311-.794.63-.591.32.203.678.3.417.504-.261.204-.319.32-.146.55.174.232.204.66-.58.514-.785-.145-1.57-.251-1.861-.688-.291-.436.238-1.074.494-1.016z" fill="#FF794F"/><path d="M176.872 54.915c.494.735 1.687-.29 2.326.29.639.582 1.395 1.396.465 1.396-.931 0-1.338-.175-1.802.29-.465.465-1.874-.046-2.267-.523-.404-.494 1.05-1.802 1.278-1.453z" fill="#4B4B6B"/><path d="M177.082 57.833c1.085-.116 3.023-.853 3.062-.387.038.466-.892 2.131-1.551 1.821-.658-.31-1.666-.734-1.589-1.162.077-.428.078-.272.078-.272z" fill="#FF794F"/><path d="M180.944 55.67c.989-.493-.232 1.803.466 1.687.698-.116 2.79-1.102 1.801-1.802-.988-.7-.814-.582-1.453-1.102-.639-.521-2.789-1.337-2.267-.756.523.582 1.338.755 1.102.989-.235.233.119 1.101.351.984z" fill="#AAAAAF"/></g><defs><clipPath id="clip0_166_12710"><path fill="#fff" d="M0 0h191v134.564H0z"/></clipPath></defs></svg>