<svg width="169" height="273" fill="none" xmlns="http://www.w3.org/2000/svg"><path fill-rule="evenodd" clip-rule="evenodd" d="M61.908 186.984c21.869 0 39.596-17.905 39.596-39.992 0-22.087-17.727-39.992-39.596-39.992-21.868 0-39.596 17.905-39.596 39.992 0 22.087 17.728 39.992 39.596 39.992zm-7.058-62.248l-4.845 4.893 11.817 11.935 16.662-16.828h-9.738l-6.924 6.992-6.923-6.992h-.049zm12.519 22.43l11.817-11.935 4.87 4.918-6.949 7.017 7.182 7.253v9.787l-.025.025-16.895-17.065zm-27.84 7.129v-.05l7.009-7.079-7.01-7.08v-9.836l16.748 16.916-11.903 12.022-4.845-4.893zm22.293-1.528l11.904 12.023-4.759 4.806h-.221l-6.924-6.992-6.923 6.992H45.16l16.662-16.829z" fill="#0E51FF"/><g clip-path="url(#clip0_320_101)"><path fill-rule="evenodd" clip-rule="evenodd" d="M120.213 119.263c8.337 1.519 16.338-4.076 17.872-12.496 1.534-8.42-3.981-16.477-12.318-17.996-8.337-1.518-16.338 4.077-17.872 12.497-1.534 8.42 3.981 16.477 12.318 17.995zm1.631-24.22l-2.186 1.528 3.676 5.371 7.521-5.258-3.713-.677-3.125 2.185-2.154-3.146-.019-.004zm3.215 9.42l5.334-3.73 1.515 2.213-3.136 2.193 2.234 3.264-.68 3.731-.011.008-5.256-7.679zm-11.108.784l.003-.019 3.164-2.212-2.181-3.185.683-3.75 5.211 7.612-5.373 3.756-1.507-2.202zm8.605.966l3.703 5.41-2.148 1.502-.084-.016-2.154-3.146-3.125 2.185-3.713-.676 7.521-5.259z" fill="#0E51FF"/></g><g clip-path="url(#clip1_320_101)"><path fill-rule="evenodd" clip-rule="evenodd" d="M151.457 85.622c9.059-5.722 11.718-17.776 5.94-26.926-5.779-9.15-17.807-11.928-26.866-6.207-9.058 5.72-11.718 17.776-5.939 26.925 5.778 9.15 17.806 11.929 26.865 6.208zm-19.21-23.94l-.726 3.295 8.017 1.852 2.5-11.33-4.034 2.548-1.039 4.708-4.697-1.086-.021.013zm11.054 6.017l1.773-8.036 3.304.763-1.042 4.725 4.872 1.126 2.561 4.054-.004.016-11.464-2.648zm-9.667 10.237l-.013-.02 1.051-4.767-4.755-1.1-2.574-4.074 11.363 2.626-1.785 8.094-3.287-.76zm8.835-6.466l8.077 1.866-.714 3.236-.092.058-4.697-1.085-1.039 4.708-4.034 2.548 2.499-11.33z" fill="#0E51FF"/></g><g clip-path="url(#clip2_320_101)"><path fill-rule="evenodd" clip-rule="evenodd" d="M92.397 56.93c13.963-2.66 23.063-16.469 20.325-30.843-2.738-14.374-16.277-23.87-30.24-21.211C68.52 7.536 59.42 21.344 62.157 35.718c2.738 14.375 16.277 23.871 30.24 21.211zM80.174 17.276l-2.487 3.773 9.025 6.33 8.553-12.978-6.219 1.185-3.554 5.393-5.287-3.71-.031.007zm10.773 13.075l6.066-9.205 3.719 2.608-3.566 5.412 5.485 3.847 1.213 6.37-.013.019-12.903-9.051zm-16.892 8.025l-.007-.032 3.598-5.46-5.353-3.754-1.22-6.402L83.865 31.7l-6.11 9.272-3.7-2.596zM88.1 34.672l9.091 6.376-2.442 3.707-.142.027-5.287-3.709-3.554 5.393-6.219 1.184L88.1 34.672z" fill="#0E51FF"/></g><path d="M106.592 271.529H8.821c-2.337 0-4.235-1.754-4.235-3.933v-89.507c0-2.173 1.898-3.934 4.235-3.934h114.635c2.338 0 4.233 1.754 4.233 3.934v73.836c0 10.828-9.445 19.604-21.097 19.604z" fill="#60747F"/><path d="M102.669 272.003H3.577C1.6 272.003 0 270.514 0 268.678v-90.725c0-1.836 1.601-3.324 3.577-3.324h115.959c1.976 0 3.577 1.488 3.577 3.324v75.054c0 10.49-9.154 18.996-20.444 18.996z" fill="#6E8899"/><path d="M134.812 234.653H100.21c-7.288 0-13.21-5.494-13.21-12.276v-.25c0-6.764 5.914-12.276 13.21-12.276h34.602v24.802z" fill="#2E4661"/><path opacity=".25" d="M134.812 222.377v12.399H100.21c-7.288 0-13.21-5.494-13.21-12.276v-.25l47.812.127z" fill="#272525"/><defs><clipPath id="clip0_320_101"><path fill="#fff" transform="rotate(10.323 -420.738 654.93)" d="M0 0h31v31H0z"/></clipPath><clipPath id="clip1_320_101"><path fill="#fff" transform="rotate(-32.275 165.746 -165.533)" d="M0 0h39.196v39.196H0z"/></clipPath><clipPath id="clip2_320_101"><path fill="#fff" transform="rotate(-10.784 80.04 -297.078)" d="M0 0h52v53H0z"/></clipPath></defs></svg>