<svg width="193" height="140" fill="none" xmlns="http://www.w3.org/2000/svg"><path opacity=".06" d="M193.001 121.247c0 8.678-45.535 18.753-97.999 18.753C42.54 140 .004 132.966.004 124.289s42.532-15.713 94.998-15.713c52.466 0 97.999 3.994 97.999 12.671z" fill="#32323F"/><path d="M168.344 119.2a41.02 41.02 0 01-2.358 2.629c-14.189 14.462-70.54 17.291-107.642 10.593-13.128-2.37-23.844-5.932-29.434-10.593a39.502 39.502 0 01-3.311-3.106C2.402 94.388-1.998 35.963 31.335 12.697 52.369-1.985 133.593 2.345 156.188 11.58c1.343.549 2.478 1.114 3.382 1.694 36.848 23.668 28.582 81.916 8.774 105.926z" fill="#AFC9FF"/><path opacity=".55" d="M167.264 120.458c-.422.473-.849.93-1.28 1.37-19.208 19.576-115.686 17.836-137.075 0a40.152 40.152 0 01-3.313-3.104c-2.677-9.751 36.067-10.906 68.984-10.618 33.075.284 75.43 4.329 72.684 12.352z" fill="#fff"/><path opacity=".88" d="M31.302 18.345a.164.164 0 01.01.05v.026a.276.276 0 01.01.025c.006.017 0 .033.009.052.01.019.018.039.023.06 0 .02.019.043.03.067.01.026.022.051.035.076.037.064.077.125.12.184.275.355.602.667.97.925.482.346.99.654 1.52.922.558.285 1.157.558 1.78.806.307.127.63.242.946.362.315.12.643.227.974.332.33.105.658.213.992.31.335.099.67.197 1.008.292 1.352.381 2.74.703 4.138.999 2.801.589 5.66 1.048 8.537 1.429 2.877.381 5.777.69 8.685.945 1.455.127 2.91.243 4.368.349 1.46.105 2.92.19 4.38.28 1.461.09 2.924.16 4.388.226s2.927.117 4.392.171c2.93.104 5.863.164 8.796.208 2.933.044 5.868.056 8.803.038 5.869-.02 11.735-.17 17.597-.45 5.858-.28 11.708-.676 17.518-1.284a212.49 212.49 0 008.672-1.078c2.873-.425 5.723-.926 8.509-1.553a64.372 64.372 0 004.112-1.055 34.288 34.288 0 003.859-1.36 16.413 16.413 0 001.694-.842c.464-.26.898-.568 1.296-.92a2.821 2.821 0 00.363-.395c.076-.108.096-.176.121-.204-.01-.011.013-.018 0-.022.012.023 0-.071 0-.131a.306.306 0 00-.011-.095.857.857 0 01-.01-.102 1.188 1.188 0 01-.031-.105.47.47 0 00-.03-.11 3.457 3.457 0 00-.636-1.058 8.307 8.307 0 00-1.212-1.151c-.492-.39-1.01-.75-1.548-1.074a22.923 22.923 0 00-1.758-.965 40.715 40.715 0 00-3.824-1.651 65.203 65.203 0 00-4.047-1.364c-2.745-.83-5.558-1.524-8.396-2.14a146.991 146.991 0 00-8.595-1.583 203.686 203.686 0 00-17.437-1.933 207.353 207.353 0 00-8.768-.406c-1.464-.038-2.92-.056-4.388-.06-1.467-.003-2.935 0-4.403.022-2.937.045-5.873.13-8.809.257a265.52 265.52 0 00-8.796.525c-2.927.22-5.849.49-8.764.81-2.915.32-5.818.7-8.707 1.138-2.887.447-5.76.953-8.598 1.552-2.838.6-5.641 1.291-8.366 2.137-1.36.421-2.697.888-3.986 1.408a29.01 29.01 0 00-3.665 1.752c-.286.159-.553.335-.826.503-.135.085-.259.178-.389.266l-.19.132c-.064.045-.122.095-.183.138a8.48 8.48 0 00-1.273 1.144 4.492 4.492 0 00-.782 1.143 2.385 2.385 0 00-.227 1.03zm-5.354-.01c.01-1.123.265-2.23.747-3.246a9.752 9.752 0 011.72-2.485 13.812 13.812 0 012.044-1.782c.088-.065.176-.132.264-.19l.266-.178c.177-.117.353-.24.532-.35.358-.216.715-.44 1.076-.633a33.31 33.31 0 014.362-1.994 57.703 57.703 0 014.407-1.46c2.946-.853 5.903-1.51 8.864-2.071a163.656 163.656 0 018.892-1.413 235.841 235.841 0 018.906-1.005c1.485-.14 2.97-.271 4.457-.391 1.485-.118 2.971-.222 4.457-.325 2.972-.203 5.946-.36 8.92-.485A361.15 361.15 0 0199.26.005c1.49-.007 2.991 0 4.485.027 2.99.055 5.977.172 8.96.35 2.983.179 5.962.411 8.938.698 2.974.294 5.946.642 8.91 1.068 2.965.426 5.928.909 8.88 1.494 2.951.585 5.897 1.26 8.827 2.096 2.93.836 5.849 1.805 8.73 3.168.72.346 1.434.71 2.15 1.128.734.42 1.441.886 2.116 1.395a13.543 13.543 0 012.022 1.862 8.673 8.673 0 011.641 2.707c.053.136.098.275.135.417.041.14.081.285.117.425.037.14.056.297.081.444.029.149.048.299.058.45a5.842 5.842 0 01-.159 2.038 6.377 6.377 0 01-.826 1.786c-.083.131-.171.238-.258.357a3.51 3.51 0 01-.268.334c-.18.203-.365.417-.55.586a12.594 12.594 0 01-2.26 1.708c-.726.435-1.477.829-2.249 1.178a39.908 39.908 0 01-4.467 1.679 67.71 67.71 0 01-4.454 1.234c-2.964.72-5.939 1.289-8.909 1.783-2.971.495-5.943.905-8.918 1.253-5.948.695-11.9 1.188-17.856 1.525a393.98 393.98 0 01-17.878.589 350.295 350.295 0 01-17.885-.278c-5.962-.253-11.923-.668-17.879-1.305-5.956-.656-11.91-1.491-17.858-2.858a71.908 71.908 0 01-4.462-1.17 44.413 44.413 0 01-4.467-1.575 24.987 24.987 0 01-2.24-1.06 16.604 16.604 0 01-2.237-1.42 9.674 9.674 0 01-2.14-2.196 7.132 7.132 0 01-.455-.763c-.072-.131-.132-.285-.192-.425a4 4 0 01-.172-.446c-.05-.156-.096-.312-.14-.47-.041-.157-.068-.325-.096-.488l-.04-.247c-.01-.083-.014-.166-.021-.25a7.128 7.128 0 01-.029-.499h.003z" fill="#fff"/><path opacity=".1" d="M43.27 119.853c0 1.927 27.391 4.557 55.91 4.557s54.358-1.562 54.358-3.488c0-1.927-25.567-4.731-54.086-4.731-28.52 0-56.182 1.735-56.182 3.662z" fill="#32323F"/><path d="M84.178 116.627c.168-1.149.875-4.024.875-4.024l-3.1-.249-.719 4.344 2.008 1.488.936-1.559z" fill="#fff"/><path d="M84.307 115.961c.267-.202.844.53.956 1.017.259 1.115 3.754 1.311 4.376 1.422.32.057.811 1.696-.79 1.664-1.383-.028-5.816-.101-7.33-.141a.692.692 0 01-.66-.525c-.255-1.077-.248-3.593.176-3.62.569.133 2.25.945 3.272.183z" fill="#1F1F39"/><path d="M75.975 116.532c-.367-1.104-.932-3.979-.932-3.979l3.036-.772.808 4.326-1.711 1.798-1.2-1.373z" fill="#fff"/><path d="M75.414 115.466c-.333.062-.233.373-.287.87-.13 1.136-3.995 2.316-4.6 2.493-.313.096-.613 1.775.974 1.569 1.372-.18 5.769-.737 7.266-.943a.69.69 0 00.597-.593c.13-1.098-.132-4.039-.556-4.021-.548.199-1.881.346-3.394.625z" fill="#1F1F39"/><path d="M87.937 105.448c-.736 3.301-1.582 6.352-2.103 7.828-.186.526-.33.857-.413.918-.582.456-2.972 0-4.303-.25-.084-.095-.032-.646.103-1.511.239-1.518.737-4.001 1.226-6.645.772-4.193 1.512-8.79 1.136-10.632-.719-3.526-1.748-6.993-2.553-9.814-.376-1.32-1.267-2.271-1.28-2.311 0 0-1.911 4.24-3.224 7.948-.67 1.898-1.19 3.656-1.213 4.633v.452c.026 1.414.304 3.27.692 5.24.298 1.51.662 3.086 1.024 4.573.923 3.798 1.845 7.051 1.699 7.308-.287.496-2.46 1.025-4.293.884a105.56 105.56 0 01-1.177-3.58 142.99 142.99 0 01-2.096-7.321c-.751-2.961-1.338-5.855-1.37-7.734-.01-.678-.027-1.351 0-2.191.044-1.03.14-2.058.287-3.079.325-2.348.981-5.738 2.286-11.117.61-2.516 1.429-5.649 1.638-6.259 0 0-.541.041-.54.038.669-1.937.97 1.28 1.086.115.07-.715-.023-.737 0-1.442.017-.523.99-1.152 1.073-1.77-.09.661 2.755-5.574 10.371.784.597.498 1.434 2.238 1.434 2.238.064.278.305 3.47.73 6.675.313 2.366 1.114 12.99 1.22 15.729.095 2.45-.6 6.534-1.44 10.293z" fill="#40404F"/><path opacity=".46" d="M79.344 80.574v.006a.236.236 0 00.037-.022.328.328 0 00-.037.016z" fill="#1F1F39"/><path d="M152.651 110.302l-27.776-.744 6.123 7.882 15.944-3.111 5.709-4.027z" fill="#CCCCCE"/><path d="M97.156 87.537c8.827-.419 44.12-8.843 49.243-4.171 5.124 4.672-27.917 9.547-27.917 9.547l-14.909-11.48-6.417 6.104z" fill="#E5E5E5"/><path d="M102.002 87.568c.403-.056.808-.091 1.214-.105a6.37 6.37 0 011.511.11c1.401.297 1.98 1.15 2.039 2.344.224 4.468-6.023 24.868-.149 27.524 9.267 4.192 34.16 4.704 46.031-7.137-.199-.148-5.513 4.026-7.304 1.417-2.54-3.703 3.015-17.107 3.155-22.867.038-1.506-.157-2.872-.765-3.965-2.907-5.275-6.979 2.73-13.761 2.68-6.781-.048 9.587-26.621 4.28-43.494-1.959-6.228-44.966-3.5-38.958 0 6.008 3.5-4.084 25.757-5.44 30.742-1.357 4.985-3.868 14.37 8.147 12.75z" fill="#fff"/><path d="M104.727 87.568c1.401.297 1.98 1.15 2.039 2.345 11.864.266 40.263-.578 41.735-1.066.037-1.506-.158-2.871-.765-3.964-2.907-5.276-6.979 2.729-13.761 2.68-2.747.45-21.893.437-29.248.005z" fill="#CCCCCE"/><path opacity=".27" d="M130.227 51.644L105.75 50.26l-.083 1.461 24.477 1.386.083-1.462zm-.679 4.784l-24.478-1.385-.083 1.46 24.477 1.386.084-1.461zm-.777 4.289l-24.478-1.385-.083 1.461 24.477 1.385.084-1.46zm-1.473 4.867L102.82 64.2l-.083 1.461 24.478 1.385.083-1.46zm-1.469 4.973l-24.477-1.385-.084 1.461 24.478 1.385.083-1.46zm-1.168 4.993l-24.477-1.386-.084 1.461 24.478 1.385.083-1.46zm-12.029 4.791l-13.01-.736-.084 1.46 13.011.737.083-1.461z" fill="#3B3B4C"/><path d="M126.303 50.858l-2.608-.148-.159 2.79 2.608.148.159-2.79zm-9.589-.881l-2.929-.165-.216 3.791 2.929.166.216-3.791zm5.405 5.842l-3.088-.175-.132 2.328 3.088.175.132-2.328zm6.586 4.438l-1.646-.093-.171 2.992 1.647.093.17-2.992zm-13.662-1.107l-3.34-.189-.182 3.204 3.34.19.182-3.205zm3.918 5.487l-1.356-.077-.153 2.686 1.356.076.153-2.685zm7.484.423l-1.496-.085-.153 2.686 1.496.084.153-2.685zm.249 3.926l-5.885-.333-.235 4.119 5.886.333.234-4.12zm5.512-8.532l-3.499-.198-.17 2.992 3.499.198.17-2.992zm-12.405 14.329l-3.981-.225-.144 2.525 3.981.225.144-2.525zm-13.195-1.453l-2.516-.143-.208 3.654 2.516.142.208-3.654z" fill="#fff"/><path opacity=".27" d="M136.774 93.096l-24.516.153.009 1.464 24.516-.154-.009-1.463zm-.375 4.814l-24.516.154.009 1.463 24.516-.153-.009-1.463zm-.504 4.331l-24.516.154.009 1.463 24.517-.154-.01-1.463zm-1.164 4.949l-24.516.154.009 1.463 24.516-.153-.009-1.464zm-.859 5.37l-24.517.153.01 1.464 24.516-.154-.009-1.463z" fill="#3B3B4C"/><path d="M132.807 92.556l-2.612.017.018 2.794 2.612-.016-.018-2.795zm-9.624-.278l-2.933.019.024 3.798 2.933-.019-.024-3.797zm5.765 5.492l-3.093.02.015 2.331 3.093-.019-.015-2.332zm2.475 4.016l-1.65.01.019 2.997 1.65-.011-.019-2.996zm-9.328-.248l-3.345.021.02 3.209 3.346-.021-.021-3.209zm4.255 5.229l-1.358.009.017 2.69 1.358-.009-.017-2.69zm7.496-.047l-1.498.01.017 2.689 1.498-.009-.017-2.69zm-4.875 5.382l-3.987.024.016 2.529 3.987-.025-.016-2.528zm-13.259-.624l-2.521.015.023 3.66 2.521-.016-.023-3.659z" fill="#fff"/><path opacity=".46" d="M79.746 83.03c.558.716.836.985 1.514 3.122l-.75-6.311-.764 3.19z" fill="#1F1F39"/><path d="M107.96 51.061c.61-.399 1.032-.59 1.757-1.226.701-.614 1.184-.998 1.944-1.196.67-.175 2.239-1.468 2.251-1.724.042-.89-.986-1.245-1.473-1.026-.626.285-1.42 1.333-1.92 1.089-.358-.172.013-1.133-.322-1.075-.69.119-.842 1.5-1.71 2.191-.756.6-1.613.674-1.859 1.007-.247.334 1.332 1.96 1.332 1.96zm-24.712.068l-2.475-1.166c.18-1.174 1.875-3.411 2.246-4.426.406-1.114 2.125-1.033 2.125-1.033l.356 1.671-.095.191s-.04.141-.096.366a11.1 11.1 0 00-.295 1.857v.232a.039.039 0 000 .016v.029c0 .155.014.31.044.463.114.561-.145 1.317.286 2.22.319.678-2.096-.42-2.096-.42z" fill="#EFAEA6"/><path opacity=".14" d="M85.014 48.84v.029c-1.74.446-2.282-1.508-1.798-1.888.304-.236 1.347-.73 1.347-.73l.752.484c-.151.61-.25 1.23-.296 1.857v.042a1.836 1.836 0 000 .19.041.041 0 00-.005.015z" fill="#1F1F39"/><path d="M81.184 48.313c1.236-.285 1.48 2.161 2.468 2.287.599.075.478-.197.775-.467.184-.166 1.434.136 1.7.438 5.349 6.124-3.48 19.627-2.813 20.69.545.872-.407 3.736-3.403 3.01-6.903-1.672-5.163-3.358-4.694-5.917.16-.857 2.104-16.94 2.104-16.94s1.957-1.524 3.863-3.1z" fill="#fff"/><path d="M98.532 58.53c-2.621.306-7.803-1.392-9.644-.254-1.022.632-1.236 2.44-1.365 4.255-.018.255-.043.53-.072.814-.157 1.54-.433 3.335-.438 3.606-.052 2.939.461 2.635.872 5.21.077.476.15 1.053.214 1.769.173 1.905-1.625 3.374-5.12 2.426-.53-.142-1.74-1.993-1.587-2.719.26-1.225 1.193-3.364 1.674-5.907.182-.927.28-1.869.294-2.814 0-.21 0-.42-.009-.633-.169-4.363 1.976-6.845 1.712-10.455-.17-2.318-.047-3.417-.006-3.695l.011-.073a13.29 13.29 0 011.03.476c4.158 2.167 9.297 3.859 11.355 3.753 2.057-.106 9.954-6.32 10.15-6.512.327-.32 2.804 1.517 2.729 2.087-.189 1.457-10.721 8.538-11.8 8.665zm-20.019 9.58c-1.03 2.507-.909 4.529-1.003 5.858-.077 1.1-.91 1.794-1.274 2.087-1.983 1.607-4.725-.756-3.867-3.012 1.637-4.31.37-4.044.85-8.69a3.75 3.75 0 00-.036-.557c-.036-.636.096-2.213.185-3.335.038-.485.067-.885.069-1.088v-.043c-.007-.688-1.136.717-1.066-.285.035-.491.086-1.071.16-1.793.176-1.692.574-3.817 1.309-5.156.187-.363.443-.687.754-.953 2.563-2.052 5.798-2.688 6.588-2.817l.174-.027h.007c.063 1.365.04 7.789-.641 12.577-.322 2.239-1.48 5.445-2.209 7.233z" fill="#0052FF"/><path d="M88.391 44.811c-.382.877-.331 2.966-.91 2.668-.578-.298-.813 1.854-1.44 1.554-1.52-.727-2.735-2.545-2.545-3.352.19-.807 1.368-2.726 1.368-2.726l3.527 1.856z" fill="#EFAEA6"/><path d="M86.413 44.82c.441.299.396.415.812.43.416.015.086-.727.757-.508.67.22 1.365.535 1.805-.122.635-.952-.352-1.264-.974-1.437-.4-.113-.072-.924-.809-1.263-.573-.267-.685.09-1.21-.127-.318-.13-.644-.926-1.312-.813-1.237.207-.948 1.401-2.061 1.73-1.3.381-.287 3.166.058 3.072.402-.11.478-1.17.852-1.23.574-.094.437.275.607.763.182.525.844.895.765.02-.078-.873.31-.785.71-.516z" fill="#1F1F39"/><path opacity=".25" d="M75.645 56.88a14.075 14.075 0 01-.21 1.863c-.266 1.535-.867 3.754-2.215 5.61-.013-.18-.026-.364-.036-.557-.037-.636.095-2.213.184-3.335-.32.253-.64.502-.956.743l-.04-.624 1.067-1.207 2.206-2.493z" fill="#1F1F39"/><path d="M58.495 56.412c-.574-.45-.974-.677-1.636-1.372-.642-.672-1.088-1.095-1.827-1.358-.655-.232-2.094-1.654-2.083-1.91.04-.89 1.098-1.156 1.564-.896.597.335 1.434 1.227 1.96 1.031.371-.14.077-2.039.415-2 .75.086.446 2.44 1.243 3.199.698.661 1.655 1.11 1.87 1.463.216.354-1.506 1.843-1.506 1.843z" fill="#EFAEA6"/><path d="M79.548 53.946c-.287 1.08-1.88 2.807-3.837 4.55-.095.082.61-1.36.517-1.279-.67.582-2.16 2.687-2.862 3.24-.32.252-.64.5-.956.742-2.38 1.803-4.59 3.188-5.253 3.218-2.608.121-9.95-7.913-10.218-8.378-.07-.12.04-.375.24-.687.369-.572 1.045-1.345 1.48-1.82.24-.263.406-.436.406-.436s6.043 5.835 7.806 5.896c1.366.048 2.527-1.274 6.97-6.9l.755-.953c.059-.02 1.941-.632 3.572-1.08a.913.913 0 01.764.087c.894.566.875 2.84.616 3.8z" fill="#0052FF"/><path opacity=".18" d="M83.49 50.672c-.09-.103-1.832 1.715-3.538 2a3.74 3.74 0 01-1.434-.019c-1.383-.31-2.551-.56-4.198-1.254 1.976-1.598 1.626-1.334 2.479-1.598 1.126.733 1.232 1.343 1.965 1.468.53.086 1.07.094 1.603.023.977-.122 1.876-.461 2.576-.779.356-.161.508-.519.854-.435.459.105-.193.726-.308.594z" fill="#1F1F39"/><path d="M84.31 50.43a.57.57 0 00-.463-.708c-.345-.083-.413.045-.77.207-1.07.487-2.614 1.021-4.18.756-1.564-.266-4.45-3.188-6.836-3.344-2.386-.155-3.648 1.62-7.037 1.212-3.39-.407-6.478-2.726-7.482-2.835-1.004-.109-1.642-.067-1.727.31-.085.378.21 1.124.804 1.575.594.45 6.395 2.51 8.017 2.744 2.65.381 5.504-1.25 7.189-.93 1.684.32 4.876 2.214 6.827 2.651 2.182.488 4.65-1.465 4.765-1.334a.61.61 0 00.515.27c.202.008.33-.36.378-.575z" fill="#F4AD00"/><path d="M59.763 107.013a.834.834 0 00-.331-.286.612.612 0 00-.238-.055l-.568-.014h-.088l-2.325-.053h-.023a.613.613 0 00-.322.083c-.31.171-.532.589-.543 1.082l-.016.703-.028 1.13.59.013.027-1.134.006-.162c.006-.364.17-.674.396-.806a.512.512 0 01.064-.029.455.455 0 01.185-.036l2.07.049h.173c.347.009.619.412.606.901v.14l-.026 1.144v.007l.591.015.026-1.159.016-.68v-.115a1.38 1.38 0 00-.242-.738z" fill="#201B2C"/><path d="M59.765 107.009a.833.833 0 00-.333-.286.615.615 0 00-.236-.054l-.567-.007h-.059l.05.186v.013l.074.273.095.351c.347.009.619.414.608.902v.147l-.026 1.143.588.013.028-1.15.017-.68v-.114a1.357 1.357 0 00-.238-.737z" fill="#201B2C"/><path d="M66.944 110.601l-.15 8.444a.906.906 0 01-.925.889h-.028l-15.106-.074c-1.704-.029-1.671-1.228-1.663-1.728l-.095-7.969c.01-.501.638-1.811 2.002-1.764l13.435.229.505.008c1.111.019 2.046.833 2.025 1.965z" fill="#603A3E"/><path d="M66.947 110.601l-.15 8.444a.907.907 0 01-.926.89h-.027c-.166-.503-.263-1.293-.158-2.539.254-3.01-.555-6.441-1.268-8.765l.505.008c1.11.017 2.045.83 2.024 1.962z" fill="#775155"/><path opacity=".06" d="M168.344 119.2c-.356.432-.715.852-1.078 1.26-.421.473-.847.93-1.28 1.369-14.189 14.462-70.54 17.291-107.642 10.593C161.915 118.9 168.746 49.435 160.343 15.296c1.343.549-1.677-2.605-.774-2.025 36.85 23.671 28.583 81.919 8.775 105.929z" fill="#0052FF"/><path d="M44.086 41.202c3.243-.51 3.707-1.98 4.308-6.533.42 4.32.956 5.958 4.255 6.451-2.876 1.23-3.888 1.679-4.398 6.67-.713-5.055-1.343-5.503-4.165-6.588zM55.887 70.19c5.103-.744 5.832-2.883 6.78-9.511.66 6.288 1.504 8.67 6.692 9.391-4.526 1.793-6.119 2.444-6.924 9.718-1.114-7.37-2.108-8.017-6.548-9.598z" fill="#fff"/></svg>