<svg width="25" height="25" fill="none" xmlns="http://www.w3.org/2000/svg"><path fill-rule="evenodd" clip-rule="evenodd" d="M6.51 5.73a3.385 3.385 0 015.99-2.164 3.385 3.385 0 015.457 3.986h.793a2.865 2.865 0 012.865 2.865V12.5c0 .838-.565 1.543-1.335 1.757a23.02 23.02 0 01-.26 5.701 2.561 2.561 0 01-2.24 2.113l-.952.106c-2.876.322-5.78.322-8.655 0l-.953-.106a2.561 2.561 0 01-2.24-2.113 23.033 23.033 0 01-.26-5.701A1.824 1.824 0 013.386 12.5v-2.083A2.865 2.865 0 016.25 7.552h.793A3.37 3.37 0 016.51 5.73zm5.21 0a1.823 1.823 0 10-3.647 0 1.823 1.823 0 003.646 0zm3.384 1.822a1.823 1.823 0 100-3.646 1.823 1.823 0 000 3.646zM4.948 10.417c0-.72.583-1.302 1.302-1.302h5.47v3.645H5.208a.26.26 0 01-.26-.26v-2.083zm8.334 3.906h5.436a21.475 21.475 0 01-.237 5.371.999.999 0 01-.874.824l-.953.107c-1.12.125-2.246.2-3.372.223v-6.525zm0-1.563h6.51a.26.26 0 00.26-.26v-2.083c0-.72-.583-1.302-1.302-1.302h-5.468v3.645zm-1.563 1.563v6.525a37.429 37.429 0 01-3.373-.223l-.952-.107a.999.999 0 01-.874-.824 21.47 21.47 0 01-.237-5.371h5.436z" fill="#0E51FF"/></svg>