<svg width="24" height="24" fill="none" xmlns="http://www.w3.org/2000/svg"><path fill-rule="evenodd" clip-rule="evenodd" d="M5.788 14.02a.746.746 0 00.132.031 459.637 459.637 0 01.845 2.002c.502 1.202 1.009 2.44 1.12 2.796.139.438.285.736.445.94.083.104.178.196.29.266a.88.88 0 00.186.088c.32.12.612.07.795.009a1.312 1.312 0 00.305-.15L9.91 20l2.826-1.762 3.265 2.502c.048.037.1.068.156.093.392.17.772.23 1.13.182.356-.05.64-.199.85-.368a1.992 1.992 0 00.564-.728l.01-.022.003-.008.001-.004v-.002l.002-.001a.748.748 0 00.039-.133l2.98-15.025a.745.745 0 00.014-.146c0-.44-.165-.859-.555-1.112-.333-.217-.705-.227-.94-.209-.252.02-.486.082-.643.132a3.486 3.486 0 00-.26.094l-.01.005-16.714 6.556-.003.001a2.326 2.326 0 00-.167.069 2.522 2.522 0 00-.38.212c-.226.155-.749.581-.66 1.285.07.56.454.905.688 1.071.128.091.25.156.34.199.04.02.127.054.164.07l.01.003 3.168 1.067zm14.138-9.152h-.002a.78.78 0 01-.025.011L3.165 11.444a.818.818 0 01-.027.01l-.01.003a1.13 1.13 0 00-.09.04.854.854 0 00.086.043l3.142 1.058a.75.75 0 01.16.076l10.378-6.075.01-.005a2.012 2.012 0 01.123-.068 2.05 2.05 0 01.317-.131c.09-.028.357-.107.645-.014a.854.854 0 01.588.689c.041.15.035.297.003.424-.069.275-.262.489-.437.653-.15.14-2.096 2.016-4.015 3.868l-2.613 2.52-.465.45 5.872 4.502a.536.536 0 00.252.04.229.229 0 00.116-.052.492.492 0 00.104-.12v-.001l2.891-14.573a1.842 1.842 0 00-.24.075l-.027.011h-.002zm-8.461 12.394l-1.172-.898-.284 1.805 1.456-.907zm-2.246-2.68l1.165-1.125 2.612-2.522.973-.938-6.52 3.817.035.082a339.318 339.318 0 011.22 2.92l.283-1.8a.747.747 0 01.232-.435z" fill="#2F2E41" fill-opacity=".6"/></svg>