<svg width="63" height="63" viewBox="0 0 63 63" fill="none" xmlns="http://www.w3.org/2000/svg">
<g clip-path="url(#clip0_457_361)">
<path d="M49.0663 14.3652L39.3538 5.23542C34.8838 1.03397 32.2082 1.96483 28.1203 6.31741L17.1495 18.0017L6.17868 29.6861C2.09077 34.0386 1.33008 36.7656 5.80007 40.967L15.5098 50.0941C19.7124 54.0419 22.2563 53.539 25.9501 49.8423C25.9475 49.845 25.9475 49.845 25.9448 49.8478C26.7203 49.0737 27.4931 48.2971 28.2685 47.5231C28.5016 47.2877 28.7425 47.0388 28.9886 46.7793C29.0567 46.709 30.0642 45.6357 31.9747 43.5973C34.3669 42.5861 43.7821 46.0156 45.2848 44.4471C46.8494 42.7551 42.2419 32.5208 43.8173 30.8394C47.0102 27.4384 48.604 25.7433 48.6851 25.6541C53.0059 21.0502 53.5308 18.5614 49.0663 14.3652Z" fill="#ED5061"/>
<path d="M29.9984 16.1592L29.2446 16.9595L29.275 17.0308C29.4611 17.5306 29.5484 18.1705 29.5311 18.9344C29.5113 19.7065 29.3775 20.5043 29.1135 21.3124L29.0881 21.3873L30.263 22.4933L30.335 22.3324C30.5171 21.9009 30.6789 21.3607 30.8182 20.741C30.9326 20.2335 30.9999 19.7747 31.0174 19.3673L37.4267 25.3937L38.5494 24.1961L29.9984 16.1592Z" fill="white"/>
<path d="M31.2249 28.5386C29.709 28.0876 27.8704 28.435 26.2586 29.4944C26.3771 28.3988 25.9373 27.1714 24.9781 26.2428C23.4703 24.7832 21.2592 24.6233 20.0416 25.881C18.8241 27.1387 19.0583 29.3408 20.5661 30.8004C21.5199 31.7238 22.753 32.1263 23.8417 31.9803C22.4095 34.3087 22.4234 37.0519 24.0635 38.6397C24.2554 38.8255 24.4629 38.9896 24.6833 39.1296L33.4104 30.1146C33.4022 30.1067 33.3941 30.0935 33.3859 30.0857C33.3859 30.0857 32.6201 28.7627 31.2249 28.5386Z" fill="white"/>
</g>
<defs>
<clipPath id="clip0_457_361">
<rect width="49.214" height="38.8531" fill="white" transform="translate(0 35.3594) rotate(-45.9299)"/>
</clipPath>
</defs>
</svg>
